<svg width="651.585938" height="180.000000" viewBox="0 0 651.586 180" fill="none" xmlns="http://www.w3.org/2000/svg" xmlns:xlink="http://www.w3.org/1999/xlink">
	<desc>
			Created with Pixso.
	</desc>
	<defs>
		<clipPath id="clip546_6372">
			<rect id="автопоезд" rx="-0.500000" width="650.585938" height="179.000000" transform="translate(0.500000 0.500000)" fill="white" fill-opacity="0"/>
		</clipPath>
	</defs>
	<rect id="автопоезд" rx="-0.500000" width="650.585938" height="179.000000" transform="translate(0.500000 0.500000)" fill="#FFFFFF" fill-opacity="0"/>
	<g clip-path="url(#clip546_6372)">
		<path id="Vector" d="M182.07 128.82L187.31 126.04L187.31 119.1" stroke="#FFFFFF" stroke-opacity="1.000000" stroke-width="1.000000"/>
		<path id="Vector" d="M127.41 118.88L127.41 124.96L101.17 125.6L97.95 123.43C97.95 123.43 82.08 123.54 74.05 123.54C66.02 123.54 56.59 139.32 56.59 139.32L56.37 154.41L34.68 154.35L32.18 157.05L16.67 157.05L17.33 145.51L14.94 145.51L14.94 143.71L16.14 143.71L16.57 138.39L17.55 138.39L17.55 136.55L15.6 135.36L15.6 127.93L17.77 125.6L15.6 123L16.36 96.1L17.34 96.1L17.6 94.86L22.76 94.86L22.76 89.91L18.62 89.91L26.56 51.63L25.14 43.06C25.14 17.9 54.43 18.99 54.43 18.99L54.43 16.17L123.85 16.17L126.23 115.44L122.18 115.59L122.18 118.63L142.28 118.88L142.27 118.88L127.41 118.88Z" stroke="#FFFFFF" stroke-opacity="1.000000" stroke-width="1.000000"/>
		<path id="Vector" d="M25.13 43.07L37.55 43.07L36.2 51.64L26.55 51.64" stroke="#FFFFFF" stroke-opacity="1.000000" stroke-width="1.000000"/>
		<path id="Vector" d="M34.79 43.07C34.79 43.07 33.59 29.4 52.68 27.78C71.77 26.15 123.98 22.57 123.98 22.57" stroke="#FFFFFF" stroke-opacity="1.000000" stroke-width="1.000000"/>
		<path id="Vector" d="M37.55 43.07C37.55 43.07 38.8 31.57 49.86 30.38C60.93 29.18 123.99 25.93 123.99 25.93" stroke="#FFFFFF" stroke-opacity="1.000000" stroke-width="1.000000"/>
		<path id="Vector" d="M82.18 98.12L82.18 98.27L123.07 92.42L122.31 113.03L65.59 113.03L63.42 110.63L68.1 101.55L82.21 98.26L82.18 49.03L80.77 28.29" stroke="#FFFFFF" stroke-opacity="1.000000" stroke-width="1.000000"/>
		<path id="Vector" d="M81.89 113.03L81.89 123.52" stroke="#FFFFFF" stroke-opacity="1.000000" stroke-width="1.000000"/>
		<path id="Vector" d="M42.46 20.67L42.46 16.82L52.14 16.82L52.14 19.03" stroke="#FFFFFF" stroke-opacity="1.000000" stroke-width="1.000000"/>
		<path id="Vector" d="M42.46 16.82L43.9 14.87L50.73 14.87L52.14 16.82" stroke="#FFFFFF" stroke-opacity="1.000000" stroke-width="1.000000"/>
		<path id="Vector" d="M43.9 14.87L43.9 9.45C43.9 9.45 44.95 7.5 47.3 7.5C49.65 7.5 50.95 9.77 50.95 9.77L50.95 14.87" stroke="#FFFFFF" stroke-opacity="1.000000" stroke-width="1.000000"/>
		<path id="Vector" d="M43.9 9.44L50.95 9.77" stroke="#FFFFFF" stroke-opacity="1.000000" stroke-width="1.000000"/>
		<path id="Vector" d="M72.56 16.17L120.86 0.33L123.83 16.17" stroke="#FFFFFF" stroke-opacity="1.000000" stroke-width="1.000000"/>
		<path id="Vector" d="M31.34 51.64C31.34 51.64 37.28 62.81 32.94 74.96C28.6 87.1 26.78 89.08 18.65 89.68" stroke="#FFFFFF" stroke-opacity="1.000000" stroke-width="1.000000"/>
		<path id="Vector" d="M22.55 58.23L23.98 60.57C23.98 60.57 16.24 68.67 13.85 63.1C11.47 57.53 19.71 55.44 19.71 55.44L22.53 58.25L22.54 58.23L25.91 54.68" stroke="#FFFFFF" stroke-opacity="1.000000" stroke-width="1.000000"/>
		<path id="Vector" d="M36.2 51.64L103.8 51.64" stroke="#FFFFFF" stroke-opacity="1.000000" stroke-width="1.000000"/>
		<path id="Vector" d="M36.65 48.8L103.8 48.8L103.8 75.83C103.8 75.83 103.95 84.5 96.86 85.22C89.77 85.94 17.5 96.11 17.5 96.11" stroke="#FFFFFF" stroke-opacity="1.000000" stroke-width="1.000000"/>
		<path id="Vector" d="M85 61.16L85 80.7C85 80.7 93.14 87.21 100.62 76.58L100.62 58.9C100.62 58.9 98.56 55.76 87.28 56.73C85.85 57.76 85 59.4 85 61.16Z" stroke="#FFFFFF" stroke-opacity="1.000000" stroke-width="1.000000"/>
		<path id="Vector" d="M36.08 65.6L36.19 59.33C36.19 59.33 36.63 54.68 43.89 54.68C51.16 54.68 103.8 54.13 103.8 54.13" stroke="#FFFFFF" stroke-opacity="1.000000" stroke-width="1.000000"/>
		<path id="Vector" d="M46.25 57.74C53.94 57.73 67.3 57.74 72.28 57.89C79.43 58.1 77.92 61.72 77.77 72.45C77.62 83.17 74.95 84.14 74.95 84.14C74.95 84.14 64.97 85.37 50.3 87.68C47.33 88.15 44.96 88.39 43.07 88.47" stroke="#FFFFFF" stroke-opacity="1.000000" stroke-width="1.000000"/>
		<path id="Vector" d="M43.08 88.46C42.07 89.23 40.82 89.64 39.24 89.68C38.2 89.71 37.33 88.96 36.65 87.68C36.29 87.01 35.97 86.19 35.72 85.25C34.33 80.27 34.38 72.03 36.08 65.6C37.45 60.43 39.88 56.43 43.5 56.23C43.5 56.23 44.91 56.33 46.25 57.74C47.79 59.36 49.23 62.71 48.34 69.61C47.07 79.53 46.39 85.94 43.08 88.46Z" stroke="#FFFFFF" stroke-opacity="1.000000" stroke-width="1.000000"/>
		<path id="Vector" d="M37.28 88.63L37.28 93.33" stroke="#FFFFFF" stroke-opacity="1.000000" stroke-width="1.000000"/>
		<path id="Vector" d="M40.59 89.54L40.59 92.87" stroke="#FFFFFF" stroke-opacity="1.000000" stroke-width="1.000000"/>
		<path id="Vector" d="M33.95 93.8L34.53 98.6C34.53 98.6 45.53 99.72 46.45 92.06" stroke="#FFFFFF" stroke-opacity="1.000000" stroke-width="1.000000"/>
		<path id="Vector" d="M20.11 82.67L14.94 87.43L16.62 89.92" stroke="#FFFFFF" stroke-opacity="1.000000" stroke-width="1.000000"/>
		<path id="Vector" d="M22.75 89.92L22.75 94.86L14.67 94.86L14.67 89.92L22.75 89.92Z" stroke="#FFFFFF" stroke-opacity="1.000000" stroke-width="1.000000"/>
		<path id="Vector" d="M32.43 122.54L32.43 94.01L34.4 68.37" stroke="#FFFFFF" stroke-opacity="1.000000" stroke-width="1.000000"/>
		<path id="Vector" d="M28.78 84.59L32.96 87.17" stroke="#FFFFFF" stroke-opacity="1.000000" stroke-width="1.000000"/>
		<path id="Vector" d="M27.84 96.64C27.84 96.64 30.12 96.75 30.12 100.55L30.12 120.5L19.17 123.52L19.67 98.06L27.84 96.64Z" stroke="#FFFFFF" stroke-opacity="1.000000" stroke-width="1.000000"/>
		<path id="Vector" d="M22.75 97.52L22.75 122.54" stroke="#FFFFFF" stroke-opacity="1.000000" stroke-width="1.000000"/>
		<path id="Vector" d="M17.76 125.6L37.28 121.48L37.28 142.34L34.4 143.82L34.68 154.35" stroke="#FFFFFF" stroke-opacity="1.000000" stroke-width="1.000000"/>
		<path id="Vector" d="M37.28 121.48L68.37 116.31L122.17 116.31" stroke="#FFFFFF" stroke-opacity="1.000000" stroke-width="1.000000"/>
		<path id="Vector" d="M107.56 113.03C107.56 113.03 120.69 125.82 120.04 147.73L126 147.73L126 132.33C126 132.33 123.07 115.09 119.6 113.03" stroke="#FFFFFF" stroke-opacity="1.000000" stroke-width="1.000000"/>
		<path id="Vector" d="M37.28 123.52L62.2 121.06" stroke="#FFFFFF" stroke-opacity="1.000000" stroke-width="1.000000"/>
		<path id="Vector" d="M37.28 127.94L59.41 124.09" stroke="#FFFFFF" stroke-opacity="1.000000" stroke-width="1.000000"/>
		<path id="Vector" d="M37.28 131.79L55.27 129.83" stroke="#FFFFFF" stroke-opacity="1.000000" stroke-width="1.000000"/>
		<path id="Vector" d="M37.69 135.19L53.75 133.23" stroke="#FFFFFF" stroke-opacity="1.000000" stroke-width="1.000000"/>
		<path id="Vector" d="M68.37 116.31C68.37 116.31 52.14 125.5 51.6 142.96L56.54 142.96" stroke="#FFFFFF" stroke-opacity="1.000000" stroke-width="1.000000"/>
		<path id="Vector" d="M37.28 140.03L51.84 140.03" stroke="#FFFFFF" stroke-opacity="1.000000" stroke-width="1.000000"/>
		<path id="Vector" d="M34.42 144.41L49.32 144.41L49.32 149.54L34.56 149.54" stroke="#FFFFFF" stroke-opacity="1.000000" stroke-width="1.000000"/>
		<path id="Vector" d="M34.6 151.53L54.47 151.53L54.47 142.96C54.47 142.96 55.79 119.42 81.89 119.42L122.17 118.63" stroke="#FFFFFF" stroke-opacity="1.000000" stroke-width="1.000000"/>
		<path id="Vector" d="M65.74 141.41L61.59 141.41" stroke="#FFFFFF" stroke-opacity="1.000000" stroke-width="1.000000"/>
		<path id="Vector" d="M60 141.41L56.56 141.41" stroke="#FFFFFF" stroke-opacity="1.000000" stroke-width="1.000000"/>
		<path id="Vector" d="M64 145.51L61.81 145.51" stroke="#FFFFFF" stroke-opacity="1.000000" stroke-width="1.000000"/>
		<path id="Vector" d="M59.78 145.51L56.49 145.51" stroke="#FFFFFF" stroke-opacity="1.000000" stroke-width="1.000000"/>
		<path id="Vector" d="M61.82 145.51C61.63 146.66 61.24 147.45 60.79 147.45C60.35 147.45 59.96 146.66 59.78 145.51C59.7 145.04 59.66 144.5 59.66 143.94C59.66 142.95 59.79 142.05 60.01 141.41C60.21 140.81 60.5 140.44 60.79 140.44C61.09 140.44 61.38 140.81 61.59 141.41C61.8 142.05 61.94 142.95 61.94 143.94C61.94 144.5 61.89 145.04 61.82 145.51Z" stroke="#FFFFFF" stroke-opacity="1.000000" stroke-width="1.000000"/>
		<path id="Vector" d="M119.98 141.41L117.13 141.41" stroke="#FFFFFF" stroke-opacity="1.000000" stroke-width="1.000000"/>
		<path id="Vector" d="M115.55 141.41L112.5 141.41" stroke="#FFFFFF" stroke-opacity="1.000000" stroke-width="1.000000"/>
		<path id="Vector" d="M119.88 145.51L117.36 145.51" stroke="#FFFFFF" stroke-opacity="1.000000" stroke-width="1.000000"/>
		<path id="Vector" d="M114.03 145.51L113.96 145.51L115.32 145.51" stroke="#FFFFFF" stroke-opacity="1.000000" stroke-width="1.000000"/>
		<path id="Vector" d="M117.36 145.51C117.17 146.66 116.78 147.45 116.33 147.45C115.89 147.45 115.5 146.66 115.32 145.51C115.24 145.04 115.2 144.5 115.2 143.94C115.2 142.95 115.33 142.05 115.55 141.41C115.75 140.81 116.04 140.44 116.33 140.44C116.63 140.44 116.92 140.81 117.13 141.41C117.34 142.05 117.48 142.95 117.48 143.94C117.48 144.5 117.43 145.04 117.36 145.51Z" stroke="#FFFFFF" stroke-opacity="1.000000" stroke-width="1.000000"/>
		<path id="Vector" d="M57.72 137.54C57.72 137.54 66.22 140.6 66.2 127.41" stroke="#FFFFFF" stroke-opacity="1.000000" stroke-width="1.000000"/>
		<path id="Vector" d="M65.74 132.12C65.74 132.12 68.24 134.66 71.26 133.99" stroke="#FFFFFF" stroke-opacity="1.000000" stroke-width="1.000000"/>
		<path id="Vector" d="M74.32 131.55L74.32 123.55" stroke="#FFFFFF" stroke-opacity="1.000000" stroke-width="1.000000"/>
		<path id="Vector" d="M78 112.15C75.86 112.15 74.12 109.92 74.12 107.17C74.12 104.41 75.86 102.18 78 102.18C80.15 102.18 81.89 104.41 81.89 107.17C81.89 109.92 80.15 112.15 78 112.15Z" stroke="#FFFFFF" stroke-opacity="1.000000" stroke-width="1.000000"/>
		<path id="Vector" d="M104.87 132.29L127.62 132.29" stroke="#FFFFFF" stroke-opacity="1.000000" stroke-width="1.000000"/>
		<path id="Vector" d="M126 143.39L127.41 143.39" stroke="#FFFFFF" stroke-opacity="1.000000" stroke-width="1.000000"/>
		<path id="Vector" d="M126 146.4L127.41 146.4" stroke="#FFFFFF" stroke-opacity="1.000000" stroke-width="1.000000"/>
		<path id="Vector" d="M121.77 147.73L123.07 163.51C123.07 163.51 123.07 164.44 124.59 164.44C126.11 164.44 126 163.08 126 163.08L124.76 147.73" stroke="#FFFFFF" stroke-opacity="1.000000" stroke-width="1.000000"/>
		<path id="Vector" d="M106.84 16.17L109.28 26.71L111.35 94.09" stroke="#FFFFFF" stroke-opacity="1.000000" stroke-width="1.000000"/>
		<path id="Vector" d="M103.8 48.8L109.96 48.8" stroke="#FFFFFF" stroke-opacity="1.000000" stroke-width="1.000000"/>
		<path id="Vector" d="M104.81 95.03L104.81 113.03" stroke="#FFFFFF" stroke-opacity="1.000000" stroke-width="1.000000"/>
		<path id="Vector" d="M109.96 94.09L109.96 113.03" stroke="#FFFFFF" stroke-opacity="1.000000" stroke-width="1.000000"/>
		<path id="Vector" d="M182.29 149.1L263.75 149.1" stroke="#FFFFFF" stroke-opacity="1.000000" stroke-width="1.000000"/>
		<path id="Vector" d="M266.46 132.98L182.37 132.98" stroke="#FFFFFF" stroke-opacity="1.000000" stroke-width="1.000000"/>
		<path id="Vector" d="M157.56 119.1L157.56 132.98" stroke="#FFFFFF" stroke-opacity="1.000000" stroke-width="1.000000"/>
		<path id="Vector" d="M160 119.1L160 132.98" stroke="#FFFFFF" stroke-opacity="1.000000" stroke-width="1.000000"/>
		<path id="Vector" d="M162.01 119.1L162.01 132.98" stroke="#FFFFFF" stroke-opacity="1.000000" stroke-width="1.000000"/>
		<path id="Vector" d="M164.02 119.1L164.02 132.98" stroke="#FFFFFF" stroke-opacity="1.000000" stroke-width="1.000000"/>
		<path id="Vector" d="M166.02 119.1L166.02 132.98" stroke="#FFFFFF" stroke-opacity="1.000000" stroke-width="1.000000"/>
		<path id="Vector" d="M168.03 119.1L168.03 132.98" stroke="#FFFFFF" stroke-opacity="1.000000" stroke-width="1.000000"/>
		<path id="Vector" d="M170.04 119.1L170.04 132.98" stroke="#FFFFFF" stroke-opacity="1.000000" stroke-width="1.000000"/>
		<path id="Vector" d="M172.04 119.1L172.04 132.98" stroke="#FFFFFF" stroke-opacity="1.000000" stroke-width="1.000000"/>
		<path id="Vector" d="M174.05 119.1L174.05 132.98L174.05 143.28" stroke="#FFFFFF" stroke-opacity="1.000000" stroke-width="1.000000"/>
		<path id="Vector" d="M176.06 119.1L176.06 132.98" stroke="#FFFFFF" stroke-opacity="1.000000" stroke-width="1.000000"/>
		<path id="Vector" d="M178.06 119.1L178.06 132.98" stroke="#FFFFFF" stroke-opacity="1.000000" stroke-width="1.000000"/>
		<path id="Vector" d="M180.06 119.1L180.06 132.98L180.06 138.67" stroke="#FFFFFF" stroke-opacity="1.000000" stroke-width="1.000000"/>
		<path id="Vector" d="M161.43 132.98L161.43 144.94L164.02 147.12L167.11 147.12L167.11 149.1L170.47 151.8L180.06 151.8L180.06 143.28" stroke="#FFFFFF" stroke-opacity="1.000000" stroke-width="1.000000"/>
		<path id="Vector" d="M161.3 149.1L161.3 144.94L175.53 144.94L175.53 132.98" stroke="#FFFFFF" stroke-opacity="1.000000" stroke-width="1.000000"/>
		<path id="Vector" d="M216.63 128.82C213.18 128.82 210.38 126.02 210.38 122.57C210.38 120.35 211.53 118.4 213.27 117.29C213.84 116.93 214.47 116.65 215.15 116.49C215.63 116.38 216.12 116.31 216.63 116.31C216.82 116.31 217 116.32 217.18 116.34C217.97 116.41 218.71 116.62 219.39 116.95C221.46 117.97 222.89 120.1 222.89 122.57C222.89 126.02 220.09 128.82 216.63 128.82Z" stroke="#FFFFFF" stroke-opacity="1.000000" stroke-width="1.000000"/>
		<path id="Vector" d="M217.38 124.3C216.42 124.3 215.64 123.53 215.64 122.57C215.64 121.61 216.42 120.83 217.38 120.83C218.34 120.83 219.11 121.61 219.11 122.57C219.11 123.53 218.34 124.3 217.38 124.3Z" stroke="#FFFFFF" stroke-opacity="1.000000" stroke-width="1.000000"/>
		<path id="Vector" d="M216.63 141.33C213.18 141.33 210.38 138.53 210.38 135.08C210.38 131.62 213.18 128.82 216.63 128.82C220.09 128.82 222.89 131.62 222.89 135.08C222.89 138.53 220.09 141.33 216.63 141.33Z" stroke="#FFFFFF" stroke-opacity="1.000000" stroke-width="1.000000"/>
		<path id="Vector" d="M217.38 136.81C216.42 136.81 215.64 136.04 215.64 135.08C215.64 134.12 216.42 133.34 217.38 133.34C218.34 133.34 219.11 134.12 219.11 135.08C219.11 136.04 218.34 136.81 217.38 136.81Z" stroke="#FFFFFF" stroke-opacity="1.000000" stroke-width="1.000000"/>
		<path id="Vector" d="M204.12 141.33C200.67 141.33 197.87 138.53 197.87 135.08C197.87 131.62 200.67 128.82 204.12 128.82C207.58 128.82 210.38 131.62 210.38 135.08C210.38 138.53 207.58 141.33 204.12 141.33Z" stroke="#FFFFFF" stroke-opacity="1.000000" stroke-width="1.000000"/>
		<path id="Vector" d="M204.87 136.81C203.91 136.81 203.13 136.04 203.13 135.08C203.13 134.12 203.91 133.34 204.87 133.34C205.83 133.34 206.6 134.12 206.6 135.08C206.6 136.04 205.83 136.81 204.87 136.81Z" stroke="#FFFFFF" stroke-opacity="1.000000" stroke-width="1.000000"/>
		<path id="Vector" d="M149.46 119.1L211.58 119.1" stroke="#FFFFFF" stroke-opacity="1.000000" stroke-width="1.000000"/>
		<path id="Vector" d="M193.96 119.1L193.96 129.62L189.27 132.98" stroke="#FFFFFF" stroke-opacity="1.000000" stroke-width="1.000000"/>
		<path id="Vector" d="M187.31 126.04L193.96 126.04" stroke="#FFFFFF" stroke-opacity="1.000000" stroke-width="1.000000"/>
		<path id="Vector" d="M167.11 132.98L167.11 141.82L168.03 143.28L175.53 143.28L182.07 143.28L182.07 132.98L182.07 119.1" stroke="#FFFFFF" stroke-opacity="1.000000" stroke-width="1.000000"/>
		<path id="Vector" d="M169.38 132.98L169.38 143.28L169.38 144.94" stroke="#FFFFFF" stroke-opacity="1.000000" stroke-width="1.000000"/>
		<path id="Vector" d="M174.05 143.28L174.05 144.94L174.05 149.1" stroke="#FFFFFF" stroke-opacity="1.000000" stroke-width="1.000000"/>
		<path id="Vector" d="M175.53 144.94L175.53 149.1" stroke="#FFFFFF" stroke-opacity="1.000000" stroke-width="1.000000"/>
		<path id="Vector" d="M184.69 132.98L184.69 141.33L182.07 143.28L182.07 153.7L183.38 153.7L183.38 157.33L193.3 157.33L193.3 156.79L196.17 156.79L196.17 153.26L197.87 153.26L197.87 151.58L198.99 151.58L198.99 153.59L200.94 153.59L200.94 151.04L199.92 151.04L199.92 149.1L199.92 145.15L193.96 138.67L175.53 138.67L167.11 138.67" stroke="#FFFFFF" stroke-opacity="1.000000" stroke-width="1.000000"/>
		<path id="Vector" d="M193.96 138.67L193.96 136.72L198.11 136.72" stroke="#FFFFFF" stroke-opacity="1.000000" stroke-width="1.000000"/>
		<path id="Vector" d="M197.87 135.08L193.96 135.08L195.99 133.05" stroke="#FFFFFF" stroke-opacity="1.000000" stroke-width="1.000000"/>
		<path id="Vector" d="M183.53 149.1L183.53 145.15L185.94 142.75L192.19 142.75L193.95 144.52L193.95 149.1" stroke="#FFFFFF" stroke-opacity="1.000000" stroke-width="1.000000"/>
		<path id="Vector" d="M183.38 153.7L183.38 151.37L193.96 151.37L193.96 156.79" stroke="#FFFFFF" stroke-opacity="1.000000" stroke-width="1.000000"/>
		<path id="Vector" d="M198.61 143.28L224.55 143.28L224.55 127.09L222.89 123.96" stroke="#FFFFFF" stroke-opacity="1.000000" stroke-width="1.000000"/>
		<path id="Vector" d="M221.91 119.1L280.38 119.1L280.38 116.02L383.63 116.02" stroke="#FFFFFF" stroke-opacity="1.000000" stroke-width="1.000000"/>
		<path id="Vector" d="M207.63 143.28L210.87 146.52L213.95 143.45" stroke="#FFFFFF" stroke-opacity="1.000000" stroke-width="1.000000"/>
		<path id="Vector" d="M212.26 145.34L263.75 145.34" stroke="#FFFFFF" stroke-opacity="1.000000" stroke-width="1.000000"/>
		<path id="Vector" d="M235.33 149.1L235.33 153.55L238.95 153.55L241.92 150.59L263.75 150.59" stroke="#FFFFFF" stroke-opacity="1.000000" stroke-width="1.000000"/>
		<path id="Vector" d="M215.64 145.34L215.64 150.59" stroke="#FFFFFF" stroke-opacity="1.000000" stroke-width="1.000000"/>
		<path id="Vector" d="M218.13 145.34L218.13 150.59" stroke="#FFFFFF" stroke-opacity="1.000000" stroke-width="1.000000"/>
		<path id="Vector" d="M205.61 143.28L208.92 146.59L208.92 150.59" stroke="#FFFFFF" stroke-opacity="1.000000" stroke-width="1.000000"/>
		<path id="Vector" d="M226.76 119.1L226.76 141.33L224.55 143.28" stroke="#FFFFFF" stroke-opacity="1.000000" stroke-width="1.000000"/>
		<path id="Vector" d="M322.7 150.59C322.7 150.59 322.61 121.37 294.12 121.37C265.63 121.37 268.24 150.59 268.24 150.59L263.75 152.76L263.75 143.29C263.75 143.29 265.64 116.02 294.05 116.02C322.46 116.02 325.79 138.67 325.79 138.67L326.35 151.25C326.36 151.46 326.16 151.61 325.97 151.55L322.7 150.59Z" stroke="#FFFFFF" stroke-opacity="1.000000" stroke-width="1.000000"/>
		<path id="Vector" d="M263.75 143.29L263.75 132.98L263.75 127.01L273.34 123.3L277.58 126.3" stroke="#FFFFFF" stroke-opacity="1.000000" stroke-width="1.000000"/>
		<path id="Vector" d="M317.45 123.96L311.7 126.74" stroke="#FFFFFF" stroke-opacity="1.000000" stroke-width="1.000000"/>
		<path id="Vector" d="M295.49 179.47C281 179.47 269.25 167.73 269.25 153.24C269.25 145.63 272.49 138.78 277.67 133.99C278.62 133.1 279.64 132.29 280.72 131.55C284.92 128.68 290 127.01 295.48 127.01C309.96 127.01 321.71 138.75 321.71 153.24L321.72 153.24C321.72 167.73 309.97 179.47 295.49 179.47Z" stroke="#FFFFFF" stroke-opacity="1.000000" stroke-width="1.000000"/>
		<path id="Vector" d="M295.49 167.88C287.4 167.88 280.85 161.33 280.85 153.24C280.85 145.16 287.4 138.6 295.49 138.6C303.58 138.6 310.13 145.16 310.13 153.24C310.13 161.33 303.58 167.88 295.49 167.88Z" stroke="#FFFFFF" stroke-opacity="1.000000" stroke-width="1.000000"/>
		<path id="Vector" d="M295.49 164.81C289.1 164.81 283.92 159.63 283.92 153.24C283.92 146.85 289.1 141.68 295.49 141.68C301.88 141.68 307.06 146.85 307.06 153.24C307.06 159.63 301.88 164.81 295.49 164.81Z" stroke="#FFFFFF" stroke-opacity="1.000000" stroke-width="1.000000"/>
		<path id="Vector" d="M295.49 160.01C291.75 160.01 288.73 156.98 288.73 153.24C288.73 149.5 291.75 146.48 295.49 146.48C299.23 146.48 302.26 149.5 302.26 153.24C302.26 156.98 299.23 160.01 295.49 160.01Z" stroke="#FFFFFF" stroke-opacity="1.000000" stroke-width="1.000000"/>
		<path id="Vector" d="M293 146.57C292.49 146.57 292.08 146.16 292.08 145.65C292.08 145.14 292.49 144.73 293 144.73C293.51 144.73 293.92 145.14 293.92 145.65C293.92 146.16 293.51 146.57 293 146.57Z" stroke="#FFFFFF" stroke-opacity="1.000000" stroke-width="1.000000"/>
		<path id="Vector" d="M288.7 149.94C288.19 149.94 287.78 149.53 287.78 149.02C287.78 148.51 288.19 148.1 288.7 148.1C289.21 148.1 289.62 148.51 289.62 149.02C289.62 149.53 289.21 149.94 288.7 149.94Z" stroke="#FFFFFF" stroke-opacity="1.000000" stroke-width="1.000000"/>
		<path id="Vector" d="M287.58 155.3C287.07 155.3 286.66 154.88 286.66 154.37C286.66 153.86 287.07 153.45 287.58 153.45C288.09 153.45 288.5 153.86 288.5 154.37C288.5 154.88 288.09 155.3 287.58 155.3Z" stroke="#FFFFFF" stroke-opacity="1.000000" stroke-width="1.000000"/>
		<path id="Vector" d="M290.15 160.11C289.64 160.11 289.23 159.7 289.23 159.19C289.23 158.68 289.64 158.27 290.15 158.27C290.66 158.27 291.07 158.68 291.07 159.19C291.07 159.7 290.66 160.11 290.15 160.11Z" stroke="#FFFFFF" stroke-opacity="1.000000" stroke-width="1.000000"/>
		<path id="Vector" d="M295.23 162.15C294.72 162.15 294.31 161.74 294.31 161.23C294.31 160.72 294.72 160.3 295.23 160.3C295.74 160.3 296.15 160.72 296.15 161.23C296.15 161.74 295.74 162.15 295.23 162.15Z" stroke="#FFFFFF" stroke-opacity="1.000000" stroke-width="1.000000"/>
		<path id="Vector" d="M300.42 160.44C299.91 160.44 299.5 160.03 299.5 159.52C299.5 159.01 299.91 158.6 300.42 158.6C300.93 158.6 301.34 159.01 301.34 159.52C301.34 160.03 300.93 160.44 300.42 160.44Z" stroke="#FFFFFF" stroke-opacity="1.000000" stroke-width="1.000000"/>
		<path id="Vector" d="M303.31 155.81C302.8 155.81 302.39 155.39 302.39 154.88C302.39 154.37 302.8 153.96 303.31 153.96C303.82 153.96 304.23 154.37 304.23 154.88C304.23 155.39 303.82 155.81 303.31 155.81Z" stroke="#FFFFFF" stroke-opacity="1.000000" stroke-width="1.000000"/>
		<path id="Vector" d="M302.54 150.39C302.03 150.39 301.61 149.98 301.61 149.47C301.61 148.96 302.03 148.55 302.54 148.55C303.05 148.55 303.46 148.96 303.46 149.47C303.46 149.98 303.05 150.39 302.54 150.39Z" stroke="#FFFFFF" stroke-opacity="1.000000" stroke-width="1.000000"/>
		<path id="Vector" d="M298.46 146.75C297.95 146.75 297.54 146.33 297.54 145.83C297.54 145.32 297.95 144.9 298.46 144.9C298.97 144.9 299.38 145.32 299.38 145.83C299.38 146.33 298.97 146.75 298.46 146.75Z" stroke="#FFFFFF" stroke-opacity="1.000000" stroke-width="1.000000"/>
		<path id="Vector" d="M265.56 130.76C264.52 130.76 263.68 129.92 263.68 128.89C263.68 127.85 264.52 127.01 265.56 127.01C266.59 127.01 267.43 127.85 267.43 128.89C267.43 129.92 266.59 130.76 265.56 130.76Z" stroke="#FFFFFF" stroke-opacity="1.000000" stroke-width="1.000000"/>
		<path id="Vector" d="M273.01 131.19L279.91 132.14" stroke="#FFFFFF" stroke-opacity="1.000000" stroke-width="1.000000"/>
		<path id="Vector" d="M311.07 132.14L316.81 132.11" stroke="#FFFFFF" stroke-opacity="1.000000" stroke-width="1.000000"/>
		<path id="Vector" d="M326.37 151.67L321.96 153.03C321.7 153.11 321.66 153.46 321.9 153.59L328.84 157.61C328.94 157.67 329.07 157.67 329.17 157.6L334.67 153.79C335.02 153.55 334.98 153.01 334.58 152.84L332 151.67" stroke="#FFFFFF" stroke-opacity="1.000000" stroke-width="1.000000"/>
		<path id="Vector" d="M319.72 126.3L319.72 123.96L324.99 123.96L324.99 127.34L332.26 127.34L332.26 123.96L337.03 123.96L337.03 125.65" stroke="#FFFFFF" stroke-opacity="1.000000" stroke-width="1.000000"/>
		<path id="Vector" d="M323.54 132.11L332.95 132.11" stroke="#FFFFFF" stroke-opacity="1.000000" stroke-width="1.000000"/>
		<path id="Vector" d="M325.81 139.32L330.43 139.32" stroke="#FFFFFF" stroke-opacity="1.000000" stroke-width="1.000000"/>
		<path id="Vector" d="M325.81 142.34L329.96 142.34" stroke="#FFFFFF" stroke-opacity="1.000000" stroke-width="1.000000"/>
		<path id="Vector" d="M325.81 143.95L329.96 143.95" stroke="#FFFFFF" stroke-opacity="1.000000" stroke-width="1.000000"/>
		<path id="Vector" d="M325.81 151.67L329.96 151.67" stroke="#FFFFFF" stroke-opacity="1.000000" stroke-width="1.000000"/>
		<path id="Vector" d="M326.37 151.67L326.37 154.41L330.78 154.41L330.78 152.27" stroke="#FFFFFF" stroke-opacity="1.000000" stroke-width="1.000000"/>
		<path id="Vector" d="M308.3 118.39L347.15 118.39" stroke="#FFFFFF" stroke-opacity="1.000000" stroke-width="1.000000"/>
		<path id="Vector" d="M302.98 116.02L302.98 114.65L304.12 114.65L304.12 113.3L305.69 113.3L305.69 114.66L306.47 114.66L306.47 113.08L307.61 113.08L307.61 114.7L309.67 114.7L309.67 113.48L310.87 113.48L310.87 112.35L311.84 112.35L311.84 113.59L313.41 113.59L313.41 114.81L315.12 114.81L315.12 113.48L316.59 113.48L316.59 114.84L323.5 114.84L323.5 113.46L325.37 113.46L325.37 114.97L327.73 114.97L327.73 112.59L329.77 112.59L329.77 114.94L331.97 114.94L331.97 112.81L333.35 112.81L333.35 114.58L334.39 114.58L334.39 112.35L335.95 112.35L335.95 114.72L337.03 114.72L337.03 116.02" stroke="#FFFFFF" stroke-opacity="1.000000" stroke-width="1.000000"/>
		<path id="Vector" d="M219.39 116.95L219.39 113.21L220.76 113.21L220.76 116.55L221.81 116.55L221.81 112.35L223.37 112.35L223.37 116.82L224.45 116.82L224.45 119.27" stroke="#FFFFFF" stroke-opacity="1.000000" stroke-width="1.000000"/>
		<path id="Vector" d="M215.15 116.49L215.15 112.81L217.18 112.81L217.18 116.34" stroke="#FFFFFF" stroke-opacity="1.000000" stroke-width="1.000000"/>
		<path id="Vector" d="M172.67 119.27L172.67 116.68L173.81 116.68L173.81 114.13L175.39 114.13L175.39 116.7L176.17 116.7L176.17 113.72L177.31 113.72L177.31 116.79L179.37 116.79L179.37 114.49L180.56 114.49L180.56 112.35L181.54 112.35L181.54 114.69L183.11 114.69L183.11 116.99L184.82 116.99L184.82 114.49L186.29 114.49L186.29 117.04L193.2 117.04L193.2 114.44L195.07 114.44L195.07 117.29L195.55 117.29L195.55 119.1" stroke="#FFFFFF" stroke-opacity="1.000000" stroke-width="1.000000"/>
		<path id="Vector" d="M245.64 119.27L245.64 116.68L246.78 116.68L246.78 114.13L248.36 114.13L248.36 116.7L249.14 116.7L249.14 113.72L250.28 113.72L250.28 116.79L252.34 116.79L252.34 114.49L253.53 114.49L253.53 112.35L254.51 112.35L254.51 114.69L256.08 114.69L256.08 116.99L257.79 116.99L257.79 114.49L259.26 114.49L259.26 117.04L266.17 117.04L266.17 114.44L268.04 114.44L268.04 117.29L268.52 117.29L268.52 119.27" stroke="#FFFFFF" stroke-opacity="1.000000" stroke-width="1.000000"/>
		<path id="Vector" d="M383.48 115.99L394.71 122.89L394.7 131.5L401.93 131.5L401.93 137.93L391.66 137.93" stroke="#FFFFFF" stroke-opacity="1.000000" stroke-width="1.000000"/>
		<path id="Vector" d="M397.66 131.5L397.66 137.93" stroke="#FFFFFF" stroke-opacity="1.000000" stroke-width="1.000000"/>
		<path id="Vector" d="M399.97 131.5L399.97 137.93" stroke="#FFFFFF" stroke-opacity="1.000000" stroke-width="1.000000"/>
		<path id="Vector" d="M394.7 131.5L391.01 131.5L391.01 127.34L388.55 124.8L384.59 124.8L384.59 120.44L390.72 120.44" stroke="#FFFFFF" stroke-opacity="1.000000" stroke-width="1.000000"/>
		<path id="Vector" d="M372.9 117.9L386.53 117.9" stroke="#FFFFFF" stroke-opacity="1.000000" stroke-width="1.000000"/>
		<path id="Vector" d="M390.15 151.01L390.15 163.24C390.15 163.24 390.5 164.59 392.13 164.59L392.13 151.67" stroke="#FFFFFF" stroke-opacity="1.000000" stroke-width="1.000000"/>
		<path id="Vector" d="M338.65 131.76L345.52 132.33" stroke="#FFFFFF" stroke-opacity="1.000000" stroke-width="1.000000"/>
		<path id="Vector" d="M377.34 132.4L382.88 132.19" stroke="#FFFFFF" stroke-opacity="1.000000" stroke-width="1.000000"/>
		<path id="Vector" d="M384.59 120.44L375.53 117.9" stroke="#FFFFFF" stroke-opacity="1.000000" stroke-width="1.000000"/>
		<path id="Vector" d="M89.08 179.47C74.6 179.47 62.85 167.73 62.85 153.24C62.85 145.63 66.09 138.78 71.26 133.99C72.21 133.1 73.24 132.29 74.31 131.55C78.52 128.68 83.6 127.01 89.08 127.01C103.56 127.01 115.31 138.75 115.31 153.24L115.31 153.24C115.31 167.73 103.57 179.47 89.08 179.47Z" stroke="#FFFFFF" stroke-opacity="1.000000" stroke-width="1.000000"/>
		<path id="Vector" d="M89.08 167.88C80.99 167.88 74.44 161.33 74.44 153.24C74.44 145.16 80.99 138.6 89.08 138.6C97.17 138.6 103.72 145.16 103.72 153.24C103.72 161.33 97.17 167.88 89.08 167.88Z" stroke="#FFFFFF" stroke-opacity="1.000000" stroke-width="1.000000"/>
		<path id="Vector" d="M89.08 164.81C82.69 164.81 77.51 159.63 77.51 153.24C77.51 146.85 82.69 141.68 89.08 141.68C95.47 141.68 100.65 146.85 100.65 153.24C100.65 159.63 95.47 164.81 89.08 164.81Z" stroke="#FFFFFF" stroke-opacity="1.000000" stroke-width="1.000000"/>
		<path id="Vector" d="M89.08 160.01C85.34 160.01 82.31 156.98 82.31 153.24C82.31 149.5 85.34 146.48 89.08 146.48C92.82 146.48 95.85 149.5 95.85 153.24C95.85 156.98 92.82 160.01 89.08 160.01Z" stroke="#FFFFFF" stroke-opacity="1.000000" stroke-width="1.000000"/>
		<path id="Vector" d="M86.59 146.57C86.08 146.57 85.67 146.16 85.67 145.65C85.67 145.14 86.08 144.73 86.59 144.73C87.1 144.73 87.52 145.14 87.52 145.65C87.52 146.16 87.1 146.57 86.59 146.57Z" stroke="#FFFFFF" stroke-opacity="1.000000" stroke-width="1.000000"/>
		<path id="Vector" d="M82.29 149.94C81.78 149.94 81.37 149.53 81.37 149.02C81.37 148.51 81.78 148.1 82.29 148.1C82.8 148.1 83.22 148.51 83.22 149.02C83.22 149.53 82.8 149.94 82.29 149.94Z" stroke="#FFFFFF" stroke-opacity="1.000000" stroke-width="1.000000"/>
		<path id="Vector" d="M81.17 155.3C80.66 155.3 80.25 154.88 80.25 154.37C80.25 153.86 80.66 153.45 81.17 153.45C81.68 153.45 82.09 153.86 82.09 154.37C82.09 154.88 81.68 155.3 81.17 155.3Z" stroke="#FFFFFF" stroke-opacity="1.000000" stroke-width="1.000000"/>
		<path id="Vector" d="M83.75 160.11C83.24 160.11 82.83 159.7 82.83 159.19C82.83 158.68 83.24 158.27 83.75 158.27C84.26 158.27 84.67 158.68 84.67 159.19C84.67 159.7 84.26 160.11 83.75 160.11Z" stroke="#FFFFFF" stroke-opacity="1.000000" stroke-width="1.000000"/>
		<path id="Vector" d="M88.82 162.15C88.31 162.15 87.9 161.74 87.9 161.23C87.9 160.72 88.31 160.3 88.82 160.3C89.33 160.3 89.74 160.72 89.74 161.23C89.74 161.74 89.33 162.15 88.82 162.15Z" stroke="#FFFFFF" stroke-opacity="1.000000" stroke-width="1.000000"/>
		<path id="Vector" d="M94.02 160.44C93.51 160.44 93.09 160.03 93.09 159.52C93.09 159.01 93.51 158.6 94.02 158.6C94.53 158.6 94.94 159.01 94.94 159.52C94.94 160.03 94.53 160.44 94.02 160.44Z" stroke="#FFFFFF" stroke-opacity="1.000000" stroke-width="1.000000"/>
		<path id="Vector" d="M96.9 155.81C96.39 155.81 95.98 155.39 95.98 154.88C95.98 154.37 96.39 153.96 96.9 153.96C97.41 153.96 97.82 154.37 97.82 154.88C97.82 155.39 97.41 155.81 96.9 155.81Z" stroke="#FFFFFF" stroke-opacity="1.000000" stroke-width="1.000000"/>
		<path id="Vector" d="M96.13 150.39C95.62 150.39 95.2 149.98 95.2 149.47C95.2 148.96 95.62 148.55 96.13 148.55C96.64 148.55 97.05 148.96 97.05 149.47C97.05 149.98 96.64 150.39 96.13 150.39Z" stroke="#FFFFFF" stroke-opacity="1.000000" stroke-width="1.000000"/>
		<path id="Vector" d="M92.06 146.75C91.55 146.75 91.13 146.33 91.13 145.83C91.13 145.32 91.55 144.9 92.06 144.9C92.57 144.9 92.98 145.32 92.98 145.83C92.98 146.33 92.57 146.75 92.06 146.75Z" stroke="#FFFFFF" stroke-opacity="1.000000" stroke-width="1.000000"/>
		<path id="Vector" d="M388.66 150.59C388.66 150.59 388.58 121.37 360.08 121.37C331.59 121.37 334.2 150.59 334.2 150.59L329.72 152.76L329.72 143.29C329.72 143.29 331.6 116.02 360.01 116.02C388.42 116.02 391.75 138.67 391.75 138.67L392.32 151.25C392.33 151.46 392.13 151.61 391.93 151.55L388.66 150.59Z" stroke="#FFFFFF" stroke-opacity="1.000000" stroke-width="1.000000"/>
		<path id="Vector" d="M329.72 143.29L329.72 132.98L329.72 127.01L339.31 123.3L343.54 126.3" stroke="#FFFFFF" stroke-opacity="1.000000" stroke-width="1.000000"/>
		<path id="Vector" d="M383.42 123.96L377.66 126.74" stroke="#FFFFFF" stroke-opacity="1.000000" stroke-width="1.000000"/>
		<path id="Vector" d="M361.45 179.47C346.97 179.47 335.22 167.73 335.22 153.24C335.22 145.63 338.46 138.78 343.63 133.99C344.59 133.1 345.61 132.29 346.69 131.55C350.89 128.68 355.97 127.01 361.45 127.01C375.93 127.01 387.68 138.75 387.68 153.24L387.69 153.24C387.69 167.73 375.94 179.47 361.45 179.47Z" stroke="#FFFFFF" stroke-opacity="1.000000" stroke-width="1.000000"/>
		<path id="Vector" d="M361.45 167.88C353.37 167.88 346.81 161.33 346.81 153.24C346.81 145.16 353.37 138.6 361.45 138.6C369.54 138.6 376.1 145.16 376.1 153.24C376.1 161.33 369.54 167.88 361.45 167.88Z" stroke="#FFFFFF" stroke-opacity="1.000000" stroke-width="1.000000"/>
		<path id="Vector" d="M361.45 164.81C355.07 164.81 349.89 159.63 349.89 153.24C349.89 146.85 355.07 141.68 361.45 141.68C367.84 141.68 373.02 146.85 373.02 153.24C373.02 159.63 367.84 164.81 361.45 164.81Z" stroke="#FFFFFF" stroke-opacity="1.000000" stroke-width="1.000000"/>
		<path id="Vector" d="M361.45 160.01C357.72 160.01 354.69 156.98 354.69 153.24C354.69 149.5 357.72 146.48 361.45 146.48C365.19 146.48 368.22 149.5 368.22 153.24C368.22 156.98 365.19 160.01 361.45 160.01Z" stroke="#FFFFFF" stroke-opacity="1.000000" stroke-width="1.000000"/>
		<path id="Vector" d="M358.97 146.57C358.46 146.57 358.05 146.16 358.05 145.65C358.05 145.14 358.46 144.73 358.97 144.73C359.48 144.73 359.89 145.14 359.89 145.65C359.89 146.16 359.48 146.57 358.97 146.57Z" stroke="#FFFFFF" stroke-opacity="1.000000" stroke-width="1.000000"/>
		<path id="Vector" d="M354.67 149.94C354.16 149.94 353.75 149.53 353.75 149.02C353.75 148.51 354.16 148.1 354.67 148.1C355.18 148.1 355.59 148.51 355.59 149.02C355.59 149.53 355.18 149.94 354.67 149.94Z" stroke="#FFFFFF" stroke-opacity="1.000000" stroke-width="1.000000"/>
		<path id="Vector" d="M353.54 155.3C353.03 155.3 352.62 154.88 352.62 154.37C352.62 153.86 353.03 153.45 353.54 153.45C354.05 153.45 354.47 153.86 354.47 154.37C354.47 154.88 354.05 155.3 353.54 155.3Z" stroke="#FFFFFF" stroke-opacity="1.000000" stroke-width="1.000000"/>
		<path id="Vector" d="M356.12 160.11C355.61 160.11 355.2 159.7 355.2 159.19C355.2 158.68 355.61 158.27 356.12 158.27C356.63 158.27 357.05 158.68 357.05 159.19C357.05 159.7 356.63 160.11 356.12 160.11Z" stroke="#FFFFFF" stroke-opacity="1.000000" stroke-width="1.000000"/>
		<path id="Vector" d="M361.19 162.15C360.68 162.15 360.27 161.74 360.27 161.23C360.27 160.72 360.68 160.3 361.19 160.3C361.7 160.3 362.12 160.72 362.12 161.23C362.12 161.74 361.7 162.15 361.19 162.15Z" stroke="#FFFFFF" stroke-opacity="1.000000" stroke-width="1.000000"/>
		<path id="Vector" d="M366.39 160.44C365.88 160.44 365.47 160.03 365.47 159.52C365.47 159.01 365.88 158.6 366.39 158.6C366.9 158.6 367.31 159.01 367.31 159.52C367.31 160.03 366.9 160.44 366.39 160.44Z" stroke="#FFFFFF" stroke-opacity="1.000000" stroke-width="1.000000"/>
		<path id="Vector" d="M369.27 155.81C368.76 155.81 368.35 155.39 368.35 154.88C368.35 154.37 368.76 153.96 369.27 153.96C369.78 153.96 370.2 154.37 370.2 154.88C370.2 155.39 369.78 155.81 369.27 155.81Z" stroke="#FFFFFF" stroke-opacity="1.000000" stroke-width="1.000000"/>
		<path id="Vector" d="M368.5 150.39C367.99 150.39 367.58 149.98 367.58 149.47C367.58 148.96 367.99 148.55 368.5 148.55C369.01 148.55 369.42 148.96 369.42 149.47C369.42 149.98 369.01 150.39 368.5 150.39Z" stroke="#FFFFFF" stroke-opacity="1.000000" stroke-width="1.000000"/>
		<path id="Vector" d="M364.43 146.75C363.92 146.75 363.51 146.33 363.51 145.83C363.51 145.32 363.92 144.9 364.43 144.9C364.94 144.9 365.35 145.32 365.35 145.83C365.35 146.33 364.94 146.75 364.43 146.75Z" stroke="#FFFFFF" stroke-opacity="1.000000" stroke-width="1.000000"/>
		<path id="Vector" d="M142.27 118.88L149.53 119.1L149.53 132.98L149.53 141.68" stroke="#FFFFFF" stroke-opacity="1.000000" stroke-width="1.000000"/>
		<path id="Vector" d="M125.69 159.19L149.54 159.19L149.54 151.53L166.02 151.53L166.02 157.33L149.54 157.33" stroke="#FFFFFF" stroke-opacity="1.000000" stroke-width="1.000000"/>
		<path id="Vector" d="M125.53 87.17L138.25 100.77L138.25 118.88" stroke="#FFFFFF" stroke-opacity="1.000000" stroke-width="1.000000"/>
		<path id="Vector" d="M130.95 92.97L130.99 64.56L127.62 63.33L127.62 40.06C127.62 40.06 129.35 35.94 133.23 35.94C137.1 35.94 138.51 40.31 138.51 40.31L138.51 63.47L137.25 64.56L137.25 99.69" stroke="#FFFFFF" stroke-opacity="1.000000" stroke-width="1.000000"/>
		<path id="Vector" d="M129.06 149.1L132 154.45L133.9 154.88L134.25 153.24L131.48 148.2L129.42 147.02L129.06 149.1Z" stroke="#FFFFFF" stroke-opacity="1.000000" stroke-width="1.000000"/>
		<path id="Vector" d="M133.23 149.1L136.17 154.45L138.07 154.88L138.42 153.24L135.64 148.2L133.59 147.02L133.23 149.1Z" stroke="#FFFFFF" stroke-opacity="1.000000" stroke-width="1.000000"/>
		<path id="Vector" d="M137.4 149.1L140.34 154.45L142.24 154.88L142.59 153.24L139.82 148.2L137.76 147.02L137.4 149.1Z" stroke="#FFFFFF" stroke-opacity="1.000000" stroke-width="1.000000"/>
		<path id="Vector" d="M138.76 146.96C138.27 147.09 137.75 147.15 137.21 147.15C133.75 147.15 130.95 144.36 130.95 140.9C130.95 137.44 133.75 134.64 137.21 134.64C140.66 134.64 143.46 137.44 143.46 140.9" stroke="#FFFFFF" stroke-opacity="1.000000" stroke-width="1.000000"/>
		<path id="Vector" d="M125.37 155.3L149.53 155.3" stroke="#FFFFFF" stroke-opacity="1.000000" stroke-width="1.000000"/>
		<path id="Vector" d="M166.02 157.33L183.38 157.33" stroke="#FFFFFF" stroke-opacity="1.000000" stroke-width="1.000000"/>
		<path id="Vector" d="M182.07 153.7L166.02 153.7" stroke="#FFFFFF" stroke-opacity="1.000000" stroke-width="1.000000"/>
		<path id="Vector" d="M187.31 157.33L187.31 163.57C187.31 163.57 188.74 164.81 195.03 164.81L195.03 156.79" stroke="#FFFFFF" stroke-opacity="1.000000" stroke-width="1.000000"/>
		<path id="Vector" d="M195.03 162.05L200.94 162.05L200.94 160.11L203.13 160.11L203.13 149.24" stroke="#FFFFFF" stroke-opacity="1.000000" stroke-width="1.000000"/>
		<path id="Vector" d="M149.54 135.08L156.55 135.08L159.22 137.76L161.45 137.76L167.11 137.76" stroke="#FFFFFF" stroke-opacity="1.000000" stroke-width="1.000000"/>
		<path id="Vector" d="M149.54 138.6L151.41 140.47L161.45 140.47L167.11 140.47" stroke="#FFFFFF" stroke-opacity="1.000000" stroke-width="1.000000"/>
		<path id="Vector" d="M393.68 76.71L148.94 76.71L148.94 106.25L159.73 112.43" stroke="#FFFFFF" stroke-opacity="1.000000" stroke-width="1.000000"/>
		<path id="Vector" d="M151.69 107.83L151.69 76.71L151.69 66.38L157.07 63.86L157.07 56.06L159.73 56.06" stroke="#FFFFFF" stroke-opacity="1.000000" stroke-width="1.000000"/>
		<path id="Vector" d="M151.69 79.68L154.65 79.68L154.65 84.62L151.69 84.62" stroke="#FFFFFF" stroke-opacity="1.000000" stroke-width="1.000000"/>
		<path id="Vector" d="M151.69 99.38L154.65 99.38L154.65 104.34L151.69 104.34" stroke="#FFFFFF" stroke-opacity="1.000000" stroke-width="1.000000"/>
		<path id="Vector" d="M157.07 76.71L157.07 110.61" stroke="#FFFFFF" stroke-opacity="1.000000" stroke-width="1.000000"/>
		<path id="Vector" d="M271.07 76.71L271.07 104.34L163.86 104.34" stroke="#FFFFFF" stroke-opacity="1.000000" stroke-width="1.000000"/>
		<path id="Vector" d="M163.86 100.38L271.07 100.38" stroke="#FFFFFF" stroke-opacity="1.000000" stroke-width="1.000000"/>
		<path id="Vector" d="M163.86 96.62L271.07 96.62" stroke="#FFFFFF" stroke-opacity="1.000000" stroke-width="1.000000"/>
		<path id="Vector" d="M163.86 92.86L271.07 92.86" stroke="#FFFFFF" stroke-opacity="1.000000" stroke-width="1.000000"/>
		<path id="Vector" d="M163.86 89.11L271.07 89.11" stroke="#FFFFFF" stroke-opacity="1.000000" stroke-width="1.000000"/>
		<path id="Vector" d="M163.86 85.35L271.07 85.35" stroke="#FFFFFF" stroke-opacity="1.000000" stroke-width="1.000000"/>
		<path id="Vector" d="M163.86 81.6L271.07 81.6" stroke="#FFFFFF" stroke-opacity="1.000000" stroke-width="1.000000"/>
		<path id="Vector" d="M384.63 76.71L384.63 104.34L277.44 104.34" stroke="#FFFFFF" stroke-opacity="1.000000" stroke-width="1.000000"/>
		<path id="Vector" d="M277.44 100.38L384.63 100.38" stroke="#FFFFFF" stroke-opacity="1.000000" stroke-width="1.000000"/>
		<path id="Vector" d="M277.44 96.62L384.63 96.62" stroke="#FFFFFF" stroke-opacity="1.000000" stroke-width="1.000000"/>
		<path id="Vector" d="M277.44 92.86L384.63 92.86" stroke="#FFFFFF" stroke-opacity="1.000000" stroke-width="1.000000"/>
		<path id="Vector" d="M277.44 89.11L384.63 89.11" stroke="#FFFFFF" stroke-opacity="1.000000" stroke-width="1.000000"/>
		<path id="Vector" d="M277.44 85.35L384.63 85.35" stroke="#FFFFFF" stroke-opacity="1.000000" stroke-width="1.000000"/>
		<path id="Vector" d="M277.44 81.6L384.63 81.6" stroke="#FFFFFF" stroke-opacity="1.000000" stroke-width="1.000000"/>
		<path id="Vector" d="M163.88 109.59L178.81 109.59L178.97 106.74L163.88 106.74" stroke="#FFFFFF" stroke-opacity="1.000000" stroke-width="1.000000"/>
		<path id="Vector" d="M171.43 106.74L171.43 110.02" stroke="#FFFFFF" stroke-opacity="1.000000" stroke-width="1.000000"/>
		<path id="Vector" d="M187.78 107.68L187.78 110.61L180.85 110.61L180.85 107.68L187.78 107.68Z" stroke="#FFFFFF" stroke-opacity="1.000000" stroke-width="1.000000"/>
		<path id="Vector" d="M195.28 108.62L195.28 111.55L188.36 111.55L188.36 108.62L195.28 108.62Z" stroke="#FFFFFF" stroke-opacity="1.000000" stroke-width="1.000000"/>
		<path id="Vector" d="M203.73 108.62L203.73 111.55L196.8 111.55L196.8 108.62L203.73 108.62Z" stroke="#FFFFFF" stroke-opacity="1.000000" stroke-width="1.000000"/>
		<path id="Vector" d="M212.18 108.62L212.18 111.55L205.25 111.55L205.25 108.62L212.18 108.62Z" stroke="#FFFFFF" stroke-opacity="1.000000" stroke-width="1.000000"/>
		<path id="Vector" d="M220.62 108.62L220.62 111.55L213.7 111.55L213.7 108.62L220.62 108.62Z" stroke="#FFFFFF" stroke-opacity="1.000000" stroke-width="1.000000"/>
		<path id="Vector" d="M229.07 108.62L229.07 111.55L222.15 111.55L222.15 108.62L229.07 108.62Z" stroke="#FFFFFF" stroke-opacity="1.000000" stroke-width="1.000000"/>
		<path id="Vector" d="M237.52 108.62L237.52 111.55L230.59 111.55L230.59 108.62L237.52 108.62Z" stroke="#FFFFFF" stroke-opacity="1.000000" stroke-width="1.000000"/>
		<path id="Vector" d="M245.97 108.62L245.97 111.55L239.04 111.55L239.04 108.62L245.97 108.62Z" stroke="#FFFFFF" stroke-opacity="1.000000" stroke-width="1.000000"/>
		<path id="Vector" d="M254.41 108.62L254.41 111.55L247.49 111.55L247.49 108.62L254.41 108.62Z" stroke="#FFFFFF" stroke-opacity="1.000000" stroke-width="1.000000"/>
		<path id="Vector" d="M262.86 108.62L262.86 111.55L255.94 111.55L255.94 108.62L262.86 108.62Z" stroke="#FFFFFF" stroke-opacity="1.000000" stroke-width="1.000000"/>
		<path id="Vector" d="M271.31 108.62L271.31 111.55L264.38 111.55L264.38 108.62L271.31 108.62Z" stroke="#FFFFFF" stroke-opacity="1.000000" stroke-width="1.000000"/>
		<path id="Vector" d="M287.26 108.62L287.26 111.55L280.34 111.55L280.34 108.62L287.26 108.62Z" stroke="#FFFFFF" stroke-opacity="1.000000" stroke-width="1.000000"/>
		<path id="Vector" d="M295.71 108.62L295.71 111.55L288.79 111.55L288.79 108.62L295.71 108.62Z" stroke="#FFFFFF" stroke-opacity="1.000000" stroke-width="1.000000"/>
		<path id="Vector" d="M304.16 108.62L304.16 111.55L297.24 111.55L297.24 108.62L304.16 108.62Z" stroke="#FFFFFF" stroke-opacity="1.000000" stroke-width="1.000000"/>
		<path id="Vector" d="M312.61 108.62L312.61 111.55L305.68 111.55L305.68 108.62L312.61 108.62Z" stroke="#FFFFFF" stroke-opacity="1.000000" stroke-width="1.000000"/>
		<path id="Vector" d="M321.06 108.62L321.06 111.55L314.13 111.55L314.13 108.62L321.06 108.62Z" stroke="#FFFFFF" stroke-opacity="1.000000" stroke-width="1.000000"/>
		<path id="Vector" d="M329.5 108.62L329.5 111.55L322.58 111.55L322.58 108.62L329.5 108.62Z" stroke="#FFFFFF" stroke-opacity="1.000000" stroke-width="1.000000"/>
		<path id="Vector" d="M337.95 108.62L337.95 111.55L331.03 111.55L331.03 108.62L337.95 108.62Z" stroke="#FFFFFF" stroke-opacity="1.000000" stroke-width="1.000000"/>
		<path id="Vector" d="M346.4 108.62L346.4 111.55L339.47 111.55L339.47 108.62L346.4 108.62Z" stroke="#FFFFFF" stroke-opacity="1.000000" stroke-width="1.000000"/>
		<path id="Vector" d="M354.85 108.62L354.85 111.55L347.92 111.55L347.92 108.62L354.85 108.62Z" stroke="#FFFFFF" stroke-opacity="1.000000" stroke-width="1.000000"/>
		<path id="Vector" d="M363.29 108.62L363.29 111.55L356.37 111.55L356.37 108.62L363.29 108.62Z" stroke="#FFFFFF" stroke-opacity="1.000000" stroke-width="1.000000"/>
		<path id="Vector" d="M371.74 108.62L371.74 111.55L364.81 111.55L364.81 108.62L371.74 108.62Z" stroke="#FFFFFF" stroke-opacity="1.000000" stroke-width="1.000000"/>
		<path id="Vector" d="M380.19 108.62L380.19 111.55L373.26 111.55L373.26 108.62L380.19 108.62Z" stroke="#FFFFFF" stroke-opacity="1.000000" stroke-width="1.000000"/>
		<path id="Vector" d="M388.64 108.62L388.64 111.55L381.71 111.55L381.71 108.62L388.64 108.62Z" stroke="#FFFFFF" stroke-opacity="1.000000" stroke-width="1.000000"/>
		<path id="Vector" d="M614.74 108.62L614.74 111.55L607.81 111.55L607.81 108.62L614.74 108.62Z" stroke="#FFFFFF" stroke-opacity="1.000000" stroke-width="1.000000"/>
		<path id="Vector" d="M605.88 108.62L605.88 111.55L598.95 111.55L598.95 108.62L605.88 108.62Z" stroke="#FFFFFF" stroke-opacity="1.000000" stroke-width="1.000000"/>
		<path id="Vector" d="M597.02 108.62L597.02 111.55L590.09 111.55L590.09 108.62L597.02 108.62Z" stroke="#FFFFFF" stroke-opacity="1.000000" stroke-width="1.000000"/>
		<path id="Vector" d="M588.15 108.62L588.15 111.55L581.23 111.55L581.23 108.62L588.15 108.62Z" stroke="#FFFFFF" stroke-opacity="1.000000" stroke-width="1.000000"/>
		<path id="Vector" d="M579.29 108.62L579.29 111.55L572.37 111.55L572.37 108.62L579.29 108.62Z" stroke="#FFFFFF" stroke-opacity="1.000000" stroke-width="1.000000"/>
		<path id="Vector" d="M570.43 108.62L570.43 111.55L563.51 111.55L563.51 108.62L570.43 108.62Z" stroke="#FFFFFF" stroke-opacity="1.000000" stroke-width="1.000000"/>
		<path id="Vector" d="M623.19 108.62L623.19 111.55L616.26 111.55L616.26 108.62L623.19 108.62Z" stroke="#FFFFFF" stroke-opacity="1.000000" stroke-width="1.000000"/>
		<path id="Vector" d="M631.63 108.62L631.63 111.55L624.7 111.55L624.7 108.62L631.63 108.62Z" stroke="#FFFFFF" stroke-opacity="1.000000" stroke-width="1.000000"/>
		<path id="Vector" d="M640.08 108.62L640.08 111.55L633.15 111.55L633.15 108.62L640.08 108.62Z" stroke="#FFFFFF" stroke-opacity="1.000000" stroke-width="1.000000"/>
		<path id="Vector" d="M214.43 104.34L214.43 105.81L216.15 105.81L216.15 106.74L219.33 106.74L219.33 105.54L220.62 105.54L220.62 104.34" stroke="#FFFFFF" stroke-opacity="1.000000" stroke-width="1.000000"/>
		<path id="Vector" d="M255.72 104.32L255.72 105.81L257.48 105.81L257.48 106.77L260.72 106.77L260.72 105.54L262.04 105.54L262.04 104.32" stroke="#FFFFFF" stroke-opacity="1.000000" stroke-width="1.000000"/>
		<path id="Vector" d="M283.88 104.32L283.88 105.81L285.63 105.81L285.63 106.77L288.88 106.77L288.88 105.54L290.2 105.54L290.2 104.32" stroke="#FFFFFF" stroke-opacity="1.000000" stroke-width="1.000000"/>
		<path id="Vector" d="M329.87 104.32L329.87 105.81L331.63 105.81L331.63 106.77L334.87 106.77L334.87 105.54L336.19 105.54L336.19 104.32" stroke="#FFFFFF" stroke-opacity="1.000000" stroke-width="1.000000"/>
		<path id="Vector" d="M374.93 104.32L374.93 105.81L376.68 105.81L376.68 106.77L379.92 106.77L379.92 105.54L381.24 105.54L381.24 104.32" stroke="#FFFFFF" stroke-opacity="1.000000" stroke-width="1.000000"/>
		<path id="Vector" d="M557.98 104.32L557.98 105.81L559.73 105.81L559.73 106.77L562.98 106.77L562.98 105.54L564.29 105.54L564.29 104.32" stroke="#FFFFFF" stroke-opacity="1.000000" stroke-width="1.000000"/>
		<path id="Vector" d="M597.4 104.32L597.4 105.81L599.16 105.81L599.16 106.77L602.4 106.77L602.4 105.54L603.71 105.54L603.71 104.32" stroke="#FFFFFF" stroke-opacity="1.000000" stroke-width="1.000000"/>
		<path id="Vector" d="M629.32 104.32L629.32 105.81L632.63 105.81L632.63 106.77L638.76 106.77L638.76 105.54L641.26 105.54L641.26 104.32" stroke="#FFFFFF" stroke-opacity="1.000000" stroke-width="1.000000"/>
		<path id="Vector" d="M243.23 112.43L243.23 53.63L248.28 53.63L248.28 76.71" stroke="#FFFFFF" stroke-opacity="1.000000" stroke-width="1.000000"/>
		<path id="Vector" d="M245.76 53.24C243.68 53.24 242 51.56 242 49.49C242 47.42 243.68 45.74 245.76 45.74C247.83 45.74 249.51 47.42 249.51 49.49C249.51 51.56 247.83 53.24 245.76 53.24Z" stroke="#FFFFFF" stroke-opacity="1.000000" stroke-width="1.000000"/>
		<path id="Vector" d="M380.27 76.71L380.27 53.63L385.32 53.63L385.32 76.71" stroke="#FFFFFF" stroke-opacity="1.000000" stroke-width="1.000000"/>
		<path id="Vector" d="M382.79 53.24C380.72 53.24 379.04 51.56 379.04 49.49C379.04 47.42 380.72 45.74 382.79 45.74C384.87 45.74 386.55 47.42 386.55 49.49C386.55 51.56 384.87 53.24 382.79 53.24Z" stroke="#FFFFFF" stroke-opacity="1.000000" stroke-width="1.000000"/>
		<path id="Vector" d="M571.77 76.71L571.77 53.63L576.82 53.63L576.82 76.71" stroke="#FFFFFF" stroke-opacity="1.000000" stroke-width="1.000000"/>
		<path id="Vector" d="M574.3 53.24C572.22 53.24 570.54 51.56 570.54 49.49C570.54 47.42 572.22 45.74 574.3 45.74C576.37 45.74 578.05 47.42 578.05 49.49C578.05 51.56 576.37 53.24 574.3 53.24Z" stroke="#FFFFFF" stroke-opacity="1.000000" stroke-width="1.000000"/>
		<path id="Vector" d="M277.81 76.71L277.81 112.43" stroke="#FFFFFF" stroke-opacity="1.000000" stroke-width="1.000000"/>
		<path id="Vector" d="M271.07 87.21L277.81 83.03" stroke="#FFFFFF" stroke-opacity="1.000000" stroke-width="1.000000"/>
		<path id="Vector" d="M271.07 83.03L277.81 87.21" stroke="#FFFFFF" stroke-opacity="1.000000" stroke-width="1.000000"/>
		<path id="Vector" d="M271.07 95.42L277.81 95.42" stroke="#FFFFFF" stroke-opacity="1.000000" stroke-width="1.000000"/>
		<path id="Vector" d="M274.44 95.78L274.44 108.62" stroke="#FFFFFF" stroke-opacity="1.000000" stroke-width="1.000000"/>
		<path id="Vector" d="M386.51 76.71L386.51 104.34L279.31 104.34" stroke="#FFFFFF" stroke-opacity="1.000000" stroke-width="1.000000"/>
		<path id="Vector" d="M279.31 100.38L386.51 100.38" stroke="#FFFFFF" stroke-opacity="1.000000" stroke-width="1.000000"/>
		<path id="Vector" d="M279.31 96.62L386.51 96.62" stroke="#FFFFFF" stroke-opacity="1.000000" stroke-width="1.000000"/>
		<path id="Vector" d="M279.31 92.86L386.51 92.86" stroke="#FFFFFF" stroke-opacity="1.000000" stroke-width="1.000000"/>
		<path id="Vector" d="M279.31 89.11L386.51 89.11" stroke="#FFFFFF" stroke-opacity="1.000000" stroke-width="1.000000"/>
		<path id="Vector" d="M279.31 85.35L386.51 85.35" stroke="#FFFFFF" stroke-opacity="1.000000" stroke-width="1.000000"/>
		<path id="Vector" d="M279.31 81.6L386.51 81.6" stroke="#FFFFFF" stroke-opacity="1.000000" stroke-width="1.000000"/>
		<path id="Vector" d="M550.22 81.6L566.17 81.6" stroke="#FFFFFF" stroke-opacity="1.000000" stroke-width="1.000000"/>
		<path id="Vector" d="M549.49 81.6L550.22 81.6" stroke="#FFFFFF" stroke-opacity="1.000000" stroke-width="1.000000"/>
		<path id="Vector" d="M393.25 76.71L393.25 112.43" stroke="#FFFFFF" stroke-opacity="1.000000" stroke-width="1.000000"/>
		<path id="Vector" d="M386.51 87.21L393.25 83.03" stroke="#FFFFFF" stroke-opacity="1.000000" stroke-width="1.000000"/>
		<path id="Vector" d="M386.51 83.03L393.25 87.21" stroke="#FFFFFF" stroke-opacity="1.000000" stroke-width="1.000000"/>
		<path id="Vector" d="M556.52 100.38L651.58 100.38" stroke="#FFFFFF" stroke-opacity="1.000000" stroke-width="1.000000"/>
		<path id="Vector" d="M557.16 104.13L651.58 104.13" stroke="#FFFFFF" stroke-opacity="1.000000" stroke-width="1.000000"/>
		<path id="Vector" d="M556.52 96.62L643.14 96.62" stroke="#FFFFFF" stroke-opacity="1.000000" stroke-width="1.000000"/>
		<path id="Vector" d="M556.52 92.86L643.14 92.86" stroke="#FFFFFF" stroke-opacity="1.000000" stroke-width="1.000000"/>
		<path id="Vector" d="M556.64 89.11L642.62 89.11" stroke="#FFFFFF" stroke-opacity="1.000000" stroke-width="1.000000"/>
		<path id="Vector" d="M556.52 85.35L643.14 85.35" stroke="#FFFFFF" stroke-opacity="1.000000" stroke-width="1.000000"/>
		<path id="Vector" d="M557.16 81.6L643.14 81.6" stroke="#FFFFFF" stroke-opacity="1.000000" stroke-width="1.000000"/>
		<path id="Vector" d="M556.6 76.71L556.6 112.43" stroke="#FFFFFF" stroke-opacity="1.000000" stroke-width="1.000000"/>
		<path id="Vector" d="M549.41 87.66L556.78 82.52" stroke="#FFFFFF" stroke-opacity="1.000000" stroke-width="1.000000"/>
		<path id="Vector" d="M549.42 82.59L556.6 87.21" stroke="#FFFFFF" stroke-opacity="1.000000" stroke-width="1.000000"/>
		<path id="Vector" d="M390.82 95.78L390.82 108.62" stroke="#FFFFFF" stroke-opacity="1.000000" stroke-width="1.000000"/>
		<path id="Vector" d="M386.64 95.78L393.25 95.78" stroke="#FFFFFF" stroke-opacity="1.000000" stroke-width="1.000000"/>
		<path id="Vector" d="M393.68 112.43L159.73 112.43L159.73 48.08L163.74 48.08L163.88 112.43" stroke="#FFFFFF" stroke-opacity="1.000000" stroke-width="1.000000"/>
		<path id="Vector" d="M643.14 100.38L643.14 76.71L651.11 71.08L651.11 112.43L338.43 112.43" stroke="#FFFFFF" stroke-opacity="1.000000" stroke-width="1.000000"/>
		<path id="Vector" d="M643.14 87.75L651.11 82.37" stroke="#FFFFFF" stroke-opacity="1.000000" stroke-width="1.000000"/>
		<path id="Vector" d="M643.14 82.37L651.11 87.75" stroke="#FFFFFF" stroke-opacity="1.000000" stroke-width="1.000000"/>
		<path id="Vector" d="M643.14 95.5L651.11 95.5" stroke="#FFFFFF" stroke-opacity="1.000000" stroke-width="1.000000"/>
		<path id="Vector" d="M647.67 95.5L647.67 107.62" stroke="#FFFFFF" stroke-opacity="1.000000" stroke-width="1.000000"/>
		<path id="Vector" d="M644.73 95.5L644.73 110.5L651.11 110.5" stroke="#FFFFFF" stroke-opacity="1.000000" stroke-width="1.000000"/>
		<path id="Vector" d="M521.91 179.39C506.45 179.39 493.9 166.85 493.9 151.38C493.9 143.25 497.36 135.94 502.89 130.82C503.9 129.87 504.99 129 506.15 128.22C510.64 125.15 516.07 123.37 521.91 123.37C537.38 123.37 549.93 135.91 549.93 151.38C549.93 166.85 537.38 179.39 521.91 179.39Z" stroke="#FFFFFF" stroke-opacity="1.000000" stroke-width="1.000000"/>
		<path id="Vector" d="M521.91 167.02C513.28 167.02 506.28 160.02 506.28 151.38C506.28 142.75 513.28 135.74 521.91 135.74C530.55 135.74 537.55 142.75 537.55 151.38C537.55 160.02 530.55 167.02 521.91 167.02Z" stroke="#FFFFFF" stroke-opacity="1.000000" stroke-width="1.000000"/>
		<path id="Vector" d="M521.91 163.73C515.09 163.73 509.56 158.2 509.56 151.38C509.56 144.56 515.09 139.03 521.91 139.03C528.74 139.03 534.27 144.56 534.27 151.38C534.27 158.2 528.74 163.73 521.91 163.73Z" stroke="#FFFFFF" stroke-opacity="1.000000" stroke-width="1.000000"/>
		<path id="Vector" d="M521.91 158.61C517.92 158.61 514.69 155.37 514.69 151.38C514.69 147.39 517.92 144.15 521.91 144.15C525.91 144.15 529.14 147.39 529.14 151.38C529.14 155.37 525.91 158.61 521.91 158.61Z" stroke="#FFFFFF" stroke-opacity="1.000000" stroke-width="1.000000"/>
		<path id="Vector" d="M519.26 144.26C518.71 144.26 518.27 143.82 518.27 143.27C518.27 142.73 518.71 142.29 519.26 142.29C519.8 142.29 520.24 142.73 520.24 143.27C520.24 143.82 519.8 144.26 519.26 144.26Z" stroke="#FFFFFF" stroke-opacity="1.000000" stroke-width="1.000000"/>
		<path id="Vector" d="M514.66 147.86C514.12 147.86 513.68 147.42 513.68 146.88C513.68 146.33 514.12 145.89 514.66 145.89C515.21 145.89 515.65 146.33 515.65 146.88C515.65 147.42 515.21 147.86 514.66 147.86Z" stroke="#FFFFFF" stroke-opacity="1.000000" stroke-width="1.000000"/>
		<path id="Vector" d="M513.46 153.58C512.92 153.58 512.48 153.13 512.48 152.59C512.48 152.05 512.92 151.61 513.46 151.61C514.01 151.61 514.45 152.05 514.45 152.59C514.45 153.13 514.01 153.58 513.46 153.58Z" stroke="#FFFFFF" stroke-opacity="1.000000" stroke-width="1.000000"/>
		<path id="Vector" d="M516.22 158.72C515.67 158.72 515.23 158.28 515.23 157.73C515.23 157.19 515.67 156.75 516.22 156.75C516.76 156.75 517.2 157.19 517.2 157.73C517.2 158.28 516.76 158.72 516.22 158.72Z" stroke="#FFFFFF" stroke-opacity="1.000000" stroke-width="1.000000"/>
		<path id="Vector" d="M521.64 160.89C521.09 160.89 520.65 160.45 520.65 159.91C520.65 159.36 521.09 158.92 521.64 158.92C522.18 158.92 522.62 159.36 522.62 159.91C522.62 160.45 522.18 160.89 521.64 160.89Z" stroke="#FFFFFF" stroke-opacity="1.000000" stroke-width="1.000000"/>
		<path id="Vector" d="M527.18 159.08C526.64 159.08 526.2 158.64 526.2 158.09C526.2 157.55 526.64 157.11 527.18 157.11C527.73 157.11 528.17 157.55 528.17 158.09C528.17 158.64 527.73 159.08 527.18 159.08Z" stroke="#FFFFFF" stroke-opacity="1.000000" stroke-width="1.000000"/>
		<path id="Vector" d="M530.26 154.12C529.72 154.12 529.28 153.68 529.28 153.13C529.28 152.59 529.72 152.15 530.26 152.15C530.81 152.15 531.25 152.59 531.25 153.13C531.25 153.68 530.81 154.12 530.26 154.12Z" stroke="#FFFFFF" stroke-opacity="1.000000" stroke-width="1.000000"/>
		<path id="Vector" d="M529.44 148.34C528.9 148.34 528.46 147.9 528.46 147.36C528.46 146.81 528.9 146.37 529.44 146.37C529.99 146.37 530.43 146.81 530.43 147.36C530.43 147.9 529.99 148.34 529.44 148.34Z" stroke="#FFFFFF" stroke-opacity="1.000000" stroke-width="1.000000"/>
		<path id="Vector" d="M525.09 144.44C524.55 144.44 524.11 144 524.11 143.46C524.11 142.91 524.55 142.47 525.09 142.47C525.64 142.47 526.08 142.91 526.08 143.46C526.08 144 525.64 144.44 525.09 144.44Z" stroke="#FFFFFF" stroke-opacity="1.000000" stroke-width="1.000000"/>
		<path id="Vector" d="M588.55 179.39C573.08 179.39 560.54 166.85 560.54 151.38C560.54 143.25 564 135.94 569.52 130.82C570.54 129.87 571.63 129 572.78 128.22C577.27 125.15 582.7 123.37 588.55 123.37C604.02 123.37 616.57 135.91 616.57 151.38C616.57 166.85 604.02 179.39 588.55 179.39Z" stroke="#FFFFFF" stroke-opacity="1.000000" stroke-width="1.000000"/>
		<path id="Vector" d="M588.56 167.02C579.92 167.02 572.92 160.02 572.92 151.38C572.92 142.75 579.92 135.74 588.56 135.74C597.19 135.74 604.19 142.75 604.19 151.38C604.19 160.02 597.19 167.02 588.56 167.02Z" stroke="#FFFFFF" stroke-opacity="1.000000" stroke-width="1.000000"/>
		<path id="Vector" d="M588.56 163.73C581.73 163.73 576.2 158.2 576.2 151.38C576.2 144.56 581.73 139.03 588.56 139.03C595.38 139.03 600.91 144.56 600.91 151.38C600.91 158.2 595.38 163.73 588.56 163.73Z" stroke="#FFFFFF" stroke-opacity="1.000000" stroke-width="1.000000"/>
		<path id="Vector" d="M588.56 158.61C584.56 158.61 581.33 155.37 581.33 151.38C581.33 147.39 584.56 144.15 588.56 144.15C592.55 144.15 595.78 147.39 595.78 151.38C595.78 155.37 592.55 158.61 588.56 158.61Z" stroke="#FFFFFF" stroke-opacity="1.000000" stroke-width="1.000000"/>
		<path id="Vector" d="M585.9 144.26C585.35 144.26 584.91 143.82 584.91 143.27C584.91 142.73 585.35 142.29 585.9 142.29C586.44 142.29 586.88 142.73 586.88 143.27C586.88 143.82 586.44 144.26 585.9 144.26Z" stroke="#FFFFFF" stroke-opacity="1.000000" stroke-width="1.000000"/>
		<path id="Vector" d="M581.31 147.86C580.76 147.86 580.32 147.42 580.32 146.88C580.32 146.33 580.76 145.89 581.31 145.89C581.85 145.89 582.29 146.33 582.29 146.88C582.29 147.42 581.85 147.86 581.31 147.86Z" stroke="#FFFFFF" stroke-opacity="1.000000" stroke-width="1.000000"/>
		<path id="Vector" d="M580.11 153.58C579.56 153.58 579.12 153.13 579.12 152.59C579.12 152.05 579.56 151.61 580.11 151.61C580.65 151.61 581.09 152.05 581.09 152.59C581.09 153.13 580.65 153.58 580.11 153.58Z" stroke="#FFFFFF" stroke-opacity="1.000000" stroke-width="1.000000"/>
		<path id="Vector" d="M582.86 158.72C582.32 158.72 581.87 158.28 581.87 157.73C581.87 157.19 582.32 156.75 582.86 156.75C583.4 156.75 583.84 157.19 583.84 157.73C583.84 158.28 583.4 158.72 582.86 158.72Z" stroke="#FFFFFF" stroke-opacity="1.000000" stroke-width="1.000000"/>
		<path id="Vector" d="M588.28 160.89C587.73 160.89 587.29 160.45 587.29 159.91C587.29 159.36 587.73 158.92 588.28 158.92C588.82 158.92 589.26 159.36 589.26 159.91C589.26 160.45 588.82 160.89 588.28 160.89Z" stroke="#FFFFFF" stroke-opacity="1.000000" stroke-width="1.000000"/>
		<path id="Vector" d="M593.83 159.08C593.28 159.08 592.84 158.64 592.84 158.09C592.84 157.55 593.28 157.11 593.83 157.11C594.37 157.11 594.81 157.55 594.81 158.09C594.81 158.64 594.37 159.08 593.83 159.08Z" stroke="#FFFFFF" stroke-opacity="1.000000" stroke-width="1.000000"/>
		<path id="Vector" d="M596.91 154.12C596.36 154.12 595.92 153.68 595.92 153.13C595.92 152.59 596.36 152.15 596.91 152.15C597.45 152.15 597.89 152.59 597.89 153.13C597.89 153.68 597.45 154.12 596.91 154.12Z" stroke="#FFFFFF" stroke-opacity="1.000000" stroke-width="1.000000"/>
		<path id="Vector" d="M596.08 148.34C595.53 148.34 595.09 147.9 595.09 147.36C595.09 146.81 595.53 146.37 596.08 146.37C596.62 146.37 597.06 146.81 597.06 147.36C597.06 147.9 596.62 148.34 596.08 148.34Z" stroke="#FFFFFF" stroke-opacity="1.000000" stroke-width="1.000000"/>
		<path id="Vector" d="M591.73 144.44C591.19 144.44 590.75 144 590.75 143.46C590.75 142.91 591.19 142.47 591.73 142.47C592.27 142.47 592.71 142.91 592.71 143.46C592.71 144 592.27 144.44 591.73 144.44Z" stroke="#FFFFFF" stroke-opacity="1.000000" stroke-width="1.000000"/>
		<path id="Vector" d="M636.1 121.46C636.1 121.46 637.98 117.87 641.26 117.87C644.54 117.87 645.73 121.46 645.73 121.46L645.73 154.12L640.49 154.12L635.94 121.46L636.1 121.46Z" stroke="#FFFFFF" stroke-opacity="1.000000" stroke-width="1.000000"/>
		<path id="Vector" d="M487.02 112.43L490.62 133.02" stroke="#FFFFFF" stroke-opacity="1.000000" stroke-width="1.000000"/>
		<path id="Vector" d="M499.4 112.43L487.8 139.59L490.62 141.47L502.79 112.43" stroke="#FFFFFF" stroke-opacity="1.000000" stroke-width="1.000000"/>
		<path id="Vector" d="M521.59 171.51C510.7 171.51 501.87 162.68 501.87 151.8C501.87 140.91 510.7 132.09 521.59 132.09C532.47 132.09 541.3 140.91 541.3 151.8C541.3 162.68 532.47 171.51 521.59 171.51Z" stroke="#FFFFFF" stroke-opacity="1.000000" stroke-width="1.000000"/>
		<path id="Vector" d="M589.17 171.51C578.28 171.51 569.45 162.68 569.45 151.8C569.45 140.91 578.28 132.09 589.17 132.09C600.05 132.09 608.88 140.91 608.88 151.8C608.88 162.68 600.05 171.51 589.17 171.51Z" stroke="#FFFFFF" stroke-opacity="1.000000" stroke-width="1.000000"/>
		<path id="Vector" d="M513.79 112.43L513.79 121.46" stroke="#FFFFFF" stroke-opacity="1.000000" stroke-width="1.000000"/>
		<path id="Vector" d="M538.19 112.43L538.19 121.46" stroke="#FFFFFF" stroke-opacity="1.000000" stroke-width="1.000000"/>
		<path id="Vector" d="M556.97 112.43L556.97 121.46" stroke="#FFFFFF" stroke-opacity="1.000000" stroke-width="1.000000"/>
		<path id="Vector" d="M572.92 112.43L572.92 121.46" stroke="#FFFFFF" stroke-opacity="1.000000" stroke-width="1.000000"/>
		<path id="Vector" d="M542.59 132.48C542.59 132.48 551.33 127.39 555.38 127.39C559.42 127.39 568.25 132.08 568.25 132.08" stroke="#FFFFFF" stroke-opacity="1.000000" stroke-width="1.000000"/>
		<path id="Vector" d="M549.65 155.33C549.65 155.33 555.2 160.95 560.82 155.33" stroke="#FFFFFF" stroke-opacity="1.000000" stroke-width="1.000000"/>
		<path id="Vector" d="M555.38 148.04C553.82 148.04 552.56 146.78 552.56 145.23C552.56 143.67 553.82 142.41 555.38 142.41C556.93 142.41 558.19 143.67 558.19 145.23C558.19 146.78 556.93 148.04 555.38 148.04Z" stroke="#FFFFFF" stroke-opacity="1.000000" stroke-width="1.000000"/>
		<path id="Vector" d="M552.85 127.82L548.64 142.97" stroke="#FFFFFF" stroke-opacity="1.000000" stroke-width="1.000000"/>
		<path id="Vector" d="M556.97 127.57L561.83 142.97" stroke="#FFFFFF" stroke-opacity="1.000000" stroke-width="1.000000"/>
		<path id="Vector" d="M533.6 121.46L533.6 125.92" stroke="#FFFFFF" stroke-opacity="1.000000" stroke-width="1.000000"/>
		<path id="Vector" d="M541.3 121.46L541.06 130.94" stroke="#FFFFFF" stroke-opacity="1.000000" stroke-width="1.000000"/>
		<path id="Vector" d="M550.75 121.46L550.75 128.53" stroke="#FFFFFF" stroke-opacity="1.000000" stroke-width="1.000000"/>
		<path id="Vector" d="M560.22 121.46L560.22 128.5" stroke="#FFFFFF" stroke-opacity="1.000000" stroke-width="1.000000"/>
		<path id="Vector" d="M569.45 121.46L569.45 130.82" stroke="#FFFFFF" stroke-opacity="1.000000" stroke-width="1.000000"/>
		<path id="Vector" d="M576.82 121.46L576.82 125.94" stroke="#FFFFFF" stroke-opacity="1.000000" stroke-width="1.000000"/>
		<path id="Vector" d="M608.35 112.43L619.2 139.59L622.96 139.59L612.23 112.43" stroke="#FFFFFF" stroke-opacity="1.000000" stroke-width="1.000000"/>
		<path id="Vector" d="M622.02 139.59L631.31 157.73" stroke="#FFFFFF" stroke-opacity="1.000000" stroke-width="1.000000"/>
		<path id="Vector" d="M622.96 112.43L619.88 131.8" stroke="#FFFFFF" stroke-opacity="1.000000" stroke-width="1.000000"/>
		<path id="Vector" d="M602.4 121.46C602.4 121.46 607.18 128.73 612.73 123.37" stroke="#FFFFFF" stroke-opacity="1.000000" stroke-width="1.000000"/>
		<path id="Vector" d="M645.73 123.4L649.32 123.4L649.32 129.93L645.73 129.93" stroke="#FFFFFF" stroke-opacity="1.000000" stroke-width="1.000000"/>
		<path id="Vector" d="M645.73 141.05L649.32 141.05L649.32 149.3L651.11 149.3L651.11 154.12L645.73 154.12" stroke="#FFFFFF" stroke-opacity="1.000000" stroke-width="1.000000"/>
		<path id="Vector" d="M645.73 149.73L651.11 149.73" stroke="#FFFFFF" stroke-opacity="1.000000" stroke-width="1.000000"/>
		<path id="Vector" d="M638.24 138L645.73 138" stroke="#FFFFFF" stroke-opacity="1.000000" stroke-width="1.000000"/>
		<path id="Vector" d="M638.98 143.33L645.73 141.5" stroke="#FFFFFF" stroke-opacity="1.000000" stroke-width="1.000000"/>
		<path id="Vector" d="M639.68 148.34L645.73 148.34" stroke="#FFFFFF" stroke-opacity="1.000000" stroke-width="1.000000"/>
		<path id="Vector" d="M641.73 121.76L641.73 123.64L639.85 123.64L639.85 121.76L641.73 121.76Z" stroke="#FFFFFF" stroke-opacity="1.000000" stroke-width="1.000000"/>
		<path id="Vector" d="M641.73 125.51L641.73 127.39L639.85 127.39L639.85 125.51L641.73 125.51Z" stroke="#FFFFFF" stroke-opacity="1.000000" stroke-width="1.000000"/>
		<path id="Vector" d="M641.73 129.27L641.73 131.15L639.85 131.15L639.85 129.27L641.73 129.27Z" stroke="#FFFFFF" stroke-opacity="1.000000" stroke-width="1.000000"/>
		<path id="Vector" d="M641.73 133.02L641.73 134.9L639.85 134.9L639.85 133.02L641.73 133.02Z" stroke="#FFFFFF" stroke-opacity="1.000000" stroke-width="1.000000"/>
		<path id="Vector" d="M638.39 118.85L634.15 112.42" stroke="#FFFFFF" stroke-opacity="1.000000" stroke-width="1.000000"/>
		<path id="Vector" d="M645.26 120.47L648.67 120.47L648.67 112.43" stroke="#FFFFFF" stroke-opacity="1.000000" stroke-width="1.000000"/>
		<path id="Vector" d="M154.65 76.71L159.73 58.05" stroke="#FFFFFF" stroke-opacity="1.000000" stroke-width="1.000000"/>
		<mask id="mask546_6754" mask-type="alpha" maskUnits="userSpaceOnUse" x="359.510010" y="42.655762" width="283.538452" height="79.223877">
			<path id="Vector" d="M359.51 42.65L643.04 42.65L643.04 121.88L444.46 121.88L359.51 42.65Z" fill="#000000" fill-opacity="1.000000" fill-rule="nonzero"/>
		</mask>
		<g mask="url(#mask546_6754)">
			<path id="Vector" d="M462.56 77.05L556.52 77.05L643.14 77.05" stroke="#FFFFFF" stroke-opacity="1.000000" stroke-width="1.000000"/>
			<path id="Vector" d="M465.8 108.96L465.8 111.89L458.87 111.89L458.87 108.96L465.8 108.96Z" stroke="#FFFFFF" stroke-opacity="1.000000" stroke-width="1.000000"/>
			<path id="Vector" d="M474.24 108.96L474.24 111.89L467.32 111.89L467.32 108.96L474.24 108.96Z" stroke="#FFFFFF" stroke-opacity="1.000000" stroke-width="1.000000"/>
			<path id="Vector" d="M482.69 108.96L482.69 111.89L475.77 111.89L475.77 108.96L482.69 108.96Z" stroke="#FFFFFF" stroke-opacity="1.000000" stroke-width="1.000000"/>
			<path id="Vector" d="M491.14 108.96L491.14 111.89L484.21 111.89L484.21 108.96L491.14 108.96Z" stroke="#FFFFFF" stroke-opacity="1.000000" stroke-width="1.000000"/>
			<path id="Vector" d="M499.59 108.96L499.59 111.89L492.66 111.89L492.66 108.96L499.59 108.96Z" stroke="#FFFFFF" stroke-opacity="1.000000" stroke-width="1.000000"/>
			<path id="Vector" d="M508.03 108.96L508.03 111.89L501.11 111.89L501.11 108.96L508.03 108.96Z" stroke="#FFFFFF" stroke-opacity="1.000000" stroke-width="1.000000"/>
			<path id="Vector" d="M516.48 108.96L516.48 111.89L509.55 111.89L509.55 108.96L516.48 108.96Z" stroke="#FFFFFF" stroke-opacity="1.000000" stroke-width="1.000000"/>
			<path id="Vector" d="M524.93 108.96L524.93 111.89L518 111.89L518 108.96L524.93 108.96Z" stroke="#FFFFFF" stroke-opacity="1.000000" stroke-width="1.000000"/>
			<path id="Vector" d="M533.38 108.96L533.38 111.89L526.45 111.89L526.45 108.96L533.38 108.96Z" stroke="#FFFFFF" stroke-opacity="1.000000" stroke-width="1.000000"/>
			<path id="Vector" d="M541.82 108.96L541.82 111.89L534.9 111.89L534.9 108.96L541.82 108.96Z" stroke="#FFFFFF" stroke-opacity="1.000000" stroke-width="1.000000"/>
			<path id="Vector" d="M464.29 104.66L464.29 106.16L466.04 106.16L466.04 107.11L469.28 107.11L469.28 105.88L470.6 105.88L470.6 104.66" stroke="#FFFFFF" stroke-opacity="1.000000" stroke-width="1.000000"/>
			<path id="Vector" d="M503.71 104.66L503.71 106.16L505.47 106.16L505.47 107.11L508.71 107.11L508.71 105.88L510.02 105.88L510.02 104.66" stroke="#FFFFFF" stroke-opacity="1.000000" stroke-width="1.000000"/>
			<path id="Vector" d="M535.62 104.66L535.62 106.16L538.94 106.16L538.94 107.11L545.07 107.11L545.07 105.88L547.57 105.88L547.57 104.66" stroke="#FFFFFF" stroke-opacity="1.000000" stroke-width="1.000000"/>
			<path id="Vector" d="M478.08 77.05L478.08 53.98L483.13 53.98L483.13 77.05" stroke="#FFFFFF" stroke-opacity="1.000000" stroke-width="1.000000"/>
			<path id="Vector" d="M480.6 53.59C478.53 53.59 476.85 51.91 476.85 49.83C476.85 47.76 478.53 46.08 480.6 46.08C482.68 46.08 484.36 47.76 484.36 49.83C484.36 51.91 482.68 53.59 480.6 53.59Z" stroke="#FFFFFF" stroke-opacity="1.000000" stroke-width="1.000000"/>
			<path id="Vector" d="M463.47 100.72L556.52 100.72" stroke="#FFFFFF" stroke-opacity="1.000000" stroke-width="1.000000"/>
			<path id="Vector" d="M463.47 104.47L557.89 104.47" stroke="#FFFFFF" stroke-opacity="1.000000" stroke-width="1.000000"/>
			<path id="Vector" d="M463.47 96.96L549.45 96.96" stroke="#FFFFFF" stroke-opacity="1.000000" stroke-width="1.000000"/>
			<path id="Vector" d="M463.47 93.21L549.45 93.21" stroke="#FFFFFF" stroke-opacity="1.000000" stroke-width="1.000000"/>
			<path id="Vector" d="M463.47 89.46L549.45 89.46" stroke="#FFFFFF" stroke-opacity="1.000000" stroke-width="1.000000"/>
			<path id="Vector" d="M463.47 85.7L549.45 85.7" stroke="#FFFFFF" stroke-opacity="1.000000" stroke-width="1.000000"/>
			<path id="Vector" d="M463.47 81.95L549.45 81.95" stroke="#FFFFFF" stroke-opacity="1.000000" stroke-width="1.000000"/>
			<path id="Vector" d="M462.91 77.05L462.91 112.77" stroke="#FFFFFF" stroke-opacity="1.000000" stroke-width="1.000000"/>
			<path id="Vector" d="M549.45 77.05L549.45 100.72" stroke="#FFFFFF" stroke-opacity="1.000000" stroke-width="1.000000"/>
			<path id="Vector" d="M549.45 95.84L556.78 95.84" stroke="#FFFFFF" stroke-opacity="1.000000" stroke-width="1.000000"/>
			<path id="Vector" d="M553.97 95.84L553.97 108.84" stroke="#FFFFFF" stroke-opacity="1.000000" stroke-width="1.000000"/>
			<path id="Vector" d="M551.03 95.84L551.03 110.84L556.78 110.84" stroke="#FFFFFF" stroke-opacity="1.000000" stroke-width="1.000000"/>
			<path id="Vector" d="M438.65 179.73C423.18 179.73 410.63 167.19 410.63 151.72C410.63 143.6 414.09 136.28 419.62 131.16C420.63 130.21 421.72 129.35 422.88 128.56C427.37 125.5 432.8 123.71 438.65 123.71C454.12 123.71 456.24 136.25 456.24 151.72C456.24 167.19 454.12 179.73 438.65 179.73Z" stroke="#FFFFFF" stroke-opacity="1.000000" stroke-width="1.000000"/>
			<path id="Vector" d="M438.65 136.09C447.28 136.09 443.86 143.09 443.86 151.72C443.86 160.36 447.28 167.36 438.65 167.36C430.01 167.36 423.01 160.36 423.01 151.72C423.01 143.09 430.01 136.09 438.65 136.09Z" stroke="#FFFFFF" stroke-opacity="1.000000" stroke-width="1.000000"/>
			<path id="Vector" d="M438.65 139.37C445.47 139.37 440.57 144.9 440.57 151.73C440.57 158.55 445.47 164.08 438.65 164.08C431.82 164.08 426.29 158.55 426.29 151.73C426.29 144.9 431.82 139.37 438.65 139.37Z" stroke="#FFFFFF" stroke-opacity="1.000000" stroke-width="1.000000"/>
			<path id="Vector" d="M438.65 144.5C442.64 144.5 435.45 147.73 435.45 151.73C435.45 155.72 442.64 158.95 438.65 158.95C434.65 158.95 431.42 155.72 431.42 151.73C431.42 147.73 434.65 144.5 438.65 144.5Z" stroke="#FFFFFF" stroke-opacity="1.000000" stroke-width="1.000000"/>
			<path id="Vector" d="M435.99 144.6C435.44 144.6 435 144.16 435 143.61C435 143.07 435.44 142.63 435.99 142.63C436.53 142.63 436.97 143.07 436.97 143.61C436.97 144.16 436.53 144.6 435.99 144.6Z" stroke="#FFFFFF" stroke-opacity="1.000000" stroke-width="1.000000"/>
			<path id="Vector" d="M431.4 148.21C430.85 148.21 430.41 147.77 430.41 147.22C430.41 146.68 430.85 146.24 431.4 146.24C431.94 146.24 432.38 146.68 432.38 147.22C432.38 147.77 431.94 148.21 431.4 148.21Z" stroke="#FFFFFF" stroke-opacity="1.000000" stroke-width="1.000000"/>
			<path id="Vector" d="M430.2 153.92C429.65 153.92 429.21 153.48 429.21 152.93C429.21 152.39 429.65 151.95 430.2 151.95C430.74 151.95 431.18 152.39 431.18 152.93C431.18 153.48 430.74 153.92 430.2 153.92Z" stroke="#FFFFFF" stroke-opacity="1.000000" stroke-width="1.000000"/>
			<path id="Vector" d="M432.95 159.06C432.41 159.06 431.96 158.62 431.96 158.08C431.96 157.53 432.41 157.09 432.95 157.09C433.49 157.09 433.93 157.53 433.93 158.08C433.93 158.62 433.49 159.06 432.95 159.06Z" stroke="#FFFFFF" stroke-opacity="1.000000" stroke-width="1.000000"/>
			<path id="Vector" d="M438.37 161.24C437.83 161.24 437.38 160.8 437.38 160.26C437.38 159.71 437.83 159.27 438.37 159.27C438.91 159.27 439.36 159.71 439.36 160.26C439.36 160.8 438.91 161.24 438.37 161.24Z" stroke="#FFFFFF" stroke-opacity="1.000000" stroke-width="1.000000"/>
			<path id="Vector" d="M433.49 159.42C432.95 159.42 432.51 158.98 432.51 158.44C432.51 157.89 432.95 157.45 433.49 157.45C434.04 157.45 434.48 157.89 434.48 158.44C434.48 158.98 434.04 159.42 433.49 159.42Z" stroke="#FFFFFF" stroke-opacity="1.000000" stroke-width="1.000000"/>
			<path id="Vector" d="M436.57 154.47C436.03 154.47 435.59 154.03 435.59 153.48C435.59 152.94 436.03 152.5 436.57 152.5C437.12 152.5 437.56 152.94 437.56 153.48C437.56 154.03 437.12 154.47 436.57 154.47Z" stroke="#FFFFFF" stroke-opacity="1.000000" stroke-width="1.000000"/>
			<path id="Vector" d="M435.75 148.69C435.2 148.69 434.76 148.25 434.76 147.7C434.76 147.16 435.2 146.72 435.75 146.72C436.29 146.72 436.73 147.16 436.73 147.7C436.73 148.25 436.29 148.69 435.75 148.69Z" stroke="#FFFFFF" stroke-opacity="1.000000" stroke-width="1.000000"/>
			<path id="Vector" d="M432.03 143.05C432.45 143.4 432.5 144.02 432.15 144.44C431.8 144.86 441.61 144.91 441.19 144.56C440.77 144.21 440.72 143.59 441.07 143.17C441.42 142.75 431.62 142.7 432.03 143.05Z" stroke="#FFFFFF" stroke-opacity="1.000000" stroke-width="1.000000"/>
			<path id="Vector" d="M494.86 179.73C479.39 179.73 466.85 167.19 466.85 151.72C466.85 143.6 470.31 136.28 475.83 131.16C476.85 130.21 477.94 129.35 479.1 128.56C483.58 125.5 489.02 123.71 494.86 123.71C510.33 123.71 522.88 136.25 522.88 151.72C522.88 167.19 510.33 179.73 494.86 179.73Z" stroke="#FFFFFF" stroke-opacity="1.000000" stroke-width="1.000000"/>
			<path id="Vector" d="M494.86 167.36C486.23 167.36 479.23 160.36 479.23 151.72C479.23 143.09 486.23 136.09 494.86 136.09C503.5 136.09 510.5 143.09 510.5 151.72C510.5 160.36 503.5 167.36 494.86 167.36Z" stroke="#FFFFFF" stroke-opacity="1.000000" stroke-width="1.000000"/>
			<path id="Vector" d="M494.86 164.08C488.04 164.08 482.51 158.55 482.51 151.73C482.51 144.9 488.04 139.37 494.86 139.37C501.69 139.37 507.22 144.9 507.22 151.73C507.22 158.55 501.69 164.08 494.86 164.08Z" stroke="#FFFFFF" stroke-opacity="1.000000" stroke-width="1.000000"/>
			<path id="Vector" d="M494.86 158.95C490.87 158.95 487.63 155.72 487.63 151.73C487.63 147.73 490.87 144.5 494.86 144.5C498.86 144.5 502.09 147.73 502.09 151.73C502.09 155.72 498.86 158.95 494.86 158.95Z" stroke="#FFFFFF" stroke-opacity="1.000000" stroke-width="1.000000"/>
			<path id="Vector" d="M492.21 144.6C491.66 144.6 491.22 144.16 491.22 143.61C491.22 143.07 491.66 142.63 492.21 142.63C492.75 142.63 493.19 143.07 493.19 143.61C493.19 144.16 492.75 144.6 492.21 144.6Z" stroke="#FFFFFF" stroke-opacity="1.000000" stroke-width="1.000000"/>
			<path id="Vector" d="M487.61 148.21C487.07 148.21 486.63 147.77 486.63 147.22C486.63 146.68 487.07 146.24 487.61 146.24C488.16 146.24 488.6 146.68 488.6 147.22C488.6 147.77 488.16 148.21 487.61 148.21Z" stroke="#FFFFFF" stroke-opacity="1.000000" stroke-width="1.000000"/>
			<path id="Vector" d="M486.42 153.92C485.87 153.92 485.43 153.48 485.43 152.93C485.43 152.39 485.87 151.95 486.42 151.95C486.96 151.95 487.4 152.39 487.4 152.93C487.4 153.48 486.96 153.92 486.42 153.92Z" stroke="#FFFFFF" stroke-opacity="1.000000" stroke-width="1.000000"/>
			<path id="Vector" d="M489.17 159.06C488.62 159.06 488.18 158.62 488.18 158.08C488.18 157.53 488.62 157.09 489.17 157.09C489.71 157.09 490.15 157.53 490.15 158.08C490.15 158.62 489.71 159.06 489.17 159.06Z" stroke="#FFFFFF" stroke-opacity="1.000000" stroke-width="1.000000"/>
			<path id="Vector" d="M494.58 161.24C494.04 161.24 493.6 160.8 493.6 160.26C493.6 159.71 494.04 159.27 494.58 159.27C495.13 159.27 495.57 159.71 495.57 160.26C495.57 160.8 495.13 161.24 494.58 161.24Z" stroke="#FFFFFF" stroke-opacity="1.000000" stroke-width="1.000000"/>
			<path id="Vector" d="M500.13 159.42C499.59 159.42 499.15 158.98 499.15 158.44C499.15 157.89 499.59 157.45 500.13 157.45C500.68 157.45 501.12 157.89 501.12 158.44C501.12 158.98 500.68 159.42 500.13 159.42Z" stroke="#FFFFFF" stroke-opacity="1.000000" stroke-width="1.000000"/>
			<path id="Vector" d="M503.21 154.47C502.67 154.47 502.23 154.03 502.23 153.48C502.23 152.94 502.67 152.5 503.21 152.5C503.76 152.5 504.2 152.94 504.2 153.48C504.2 154.03 503.76 154.47 503.21 154.47Z" stroke="#FFFFFF" stroke-opacity="1.000000" stroke-width="1.000000"/>
			<path id="Vector" d="M502.38 148.69C501.84 148.69 501.4 148.25 501.4 147.7C501.4 147.16 501.84 146.72 502.38 146.72C502.93 146.72 503.37 147.16 503.37 147.7C503.37 148.25 502.93 148.69 502.38 148.69Z" stroke="#FFFFFF" stroke-opacity="1.000000" stroke-width="1.000000"/>
			<path id="Vector" d="M498.04 144.79C497.49 144.79 497.05 144.35 497.05 143.8C497.05 143.26 497.49 142.82 498.04 142.82C498.58 142.82 499.02 143.26 499.02 143.8C499.02 144.35 498.58 144.79 498.04 144.79Z" stroke="#FFFFFF" stroke-opacity="1.000000" stroke-width="1.000000"/>
			<path id="Vector" d="M185.55 121.61L542.25 121.61L546.8 154.47L552.03 154.47L552.03 121.8C552.03 121.8 550.85 118.22 547.57 118.22C544.28 118.22 542.41 121.8 542.41 121.8L542.25 121.8L612.22 121.8" stroke="#FFFFFF" stroke-opacity="1.000000" stroke-width="1.000000"/>
			<path id="Vector" d="M403.76 112.77L407.35 133.37" stroke="#FFFFFF" stroke-opacity="1.000000" stroke-width="1.000000"/>
			<path id="Vector" d="M416.13 112.77L404.53 139.94L407.35 141.82L419.52 112.77" stroke="#FFFFFF" stroke-opacity="1.000000" stroke-width="1.000000"/>
			<path id="Vector" d="M438.32 132.43C449.21 132.43 447.61 141.25 447.61 152.14C447.61 163.03 449.21 171.85 438.32 171.85C427.43 171.85 418.61 163.03 418.61 152.14C418.61 141.25 427.43 132.43 438.32 132.43Z" stroke="#FFFFFF" stroke-opacity="1.000000" stroke-width="1.000000"/>
			<path id="Vector" d="M495.47 171.85C484.59 171.85 475.76 163.03 475.76 152.14C475.76 141.25 484.59 132.43 495.47 132.43C506.36 132.43 515.19 141.25 515.19 152.14C515.19 163.03 506.36 171.85 495.47 171.85Z" stroke="#FFFFFF" stroke-opacity="1.000000" stroke-width="1.000000"/>
			<path id="Vector" d="M430.52 112.77L430.52 121.81" stroke="#FFFFFF" stroke-opacity="1.000000" stroke-width="1.000000"/>
			<path id="Vector" d="M444.5 112.77L444.5 121.81" stroke="#FFFFFF" stroke-opacity="1.000000" stroke-width="1.000000"/>
			<path id="Vector" d="M463.27 112.77L463.27 121.81" stroke="#FFFFFF" stroke-opacity="1.000000" stroke-width="1.000000"/>
			<path id="Vector" d="M479.23 112.77L479.23 121.81" stroke="#FFFFFF" stroke-opacity="1.000000" stroke-width="1.000000"/>
			<path id="Vector" d="M448.9 132.83C448.9 132.83 457.64 127.74 461.68 127.74C465.73 127.74 474.56 132.43 474.56 132.43" stroke="#FFFFFF" stroke-opacity="1.000000" stroke-width="1.000000"/>
			<path id="Vector" d="M455.96 155.67C455.96 155.67 461.51 161.29 467.13 155.67" stroke="#FFFFFF" stroke-opacity="1.000000" stroke-width="1.000000"/>
			<path id="Vector" d="M461.68 148.38C460.13 148.38 458.87 147.12 458.87 145.57C458.87 144.02 460.13 142.75 461.68 142.75C463.24 142.75 464.5 144.02 464.5 145.57C464.5 147.12 463.24 148.38 461.68 148.38Z" stroke="#FFFFFF" stroke-opacity="1.000000" stroke-width="1.000000"/>
			<path id="Vector" d="M459.16 128.17L454.95 143.31" stroke="#FFFFFF" stroke-opacity="1.000000" stroke-width="1.000000"/>
			<path id="Vector" d="M463.27 127.92L468.14 143.31" stroke="#FFFFFF" stroke-opacity="1.000000" stroke-width="1.000000"/>
			<path id="Vector" d="M439.91 121.81L439.91 126.26" stroke="#FFFFFF" stroke-opacity="1.000000" stroke-width="1.000000"/>
			<path id="Vector" d="M447.61 121.81L447.37 131.28" stroke="#FFFFFF" stroke-opacity="1.000000" stroke-width="1.000000"/>
			<path id="Vector" d="M457.06 121.81L457.06 128.87" stroke="#FFFFFF" stroke-opacity="1.000000" stroke-width="1.000000"/>
			<path id="Vector" d="M466.53 121.81L466.53 128.85" stroke="#FFFFFF" stroke-opacity="1.000000" stroke-width="1.000000"/>
			<path id="Vector" d="M475.77 121.81L475.77 131.17" stroke="#FFFFFF" stroke-opacity="1.000000" stroke-width="1.000000"/>
			<path id="Vector" d="M483.13 121.81L483.13 126.28" stroke="#FFFFFF" stroke-opacity="1.000000" stroke-width="1.000000"/>
			<path id="Vector" d="M514.66 112.77L525.51 139.94L529.26 139.94L518.54 112.77" stroke="#FFFFFF" stroke-opacity="1.000000" stroke-width="1.000000"/>
			<path id="Vector" d="M528.33 139.94L537.62 158.08" stroke="#FFFFFF" stroke-opacity="1.000000" stroke-width="1.000000"/>
			<path id="Vector" d="M529.26 112.77L526.19 132.15" stroke="#FFFFFF" stroke-opacity="1.000000" stroke-width="1.000000"/>
			<path id="Vector" d="M508.71 121.81C508.71 121.81 513.49 129.07 519.03 123.71" stroke="#FFFFFF" stroke-opacity="1.000000" stroke-width="1.000000"/>
			<path id="Vector" d="M552.03 123.75L555.63 123.75L555.63 130.28L552.03 130.28" stroke="#FFFFFF" stroke-opacity="1.000000" stroke-width="1.000000"/>
			<path id="Vector" d="M552.03 141.39L555.63 141.39L555.63 149.64L557.42 149.64L557.42 154.47L552.03 154.47" stroke="#FFFFFF" stroke-opacity="1.000000" stroke-width="1.000000"/>
			<path id="Vector" d="M552.03 150.07L557.42 150.07" stroke="#FFFFFF" stroke-opacity="1.000000" stroke-width="1.000000"/>
			<path id="Vector" d="M544.55 138.34L552.03 138.34" stroke="#FFFFFF" stroke-opacity="1.000000" stroke-width="1.000000"/>
			<path id="Vector" d="M545.29 143.68L552.03 141.84" stroke="#FFFFFF" stroke-opacity="1.000000" stroke-width="1.000000"/>
			<path id="Vector" d="M545.99 148.69L552.03 148.69" stroke="#FFFFFF" stroke-opacity="1.000000" stroke-width="1.000000"/>
			<path id="Vector" d="M548.04 122.1L548.04 123.98L546.16 123.98L546.16 122.1L548.04 122.1Z" stroke="#FFFFFF" stroke-opacity="1.000000" stroke-width="1.000000"/>
			<path id="Vector" d="M548.04 125.86L548.04 127.74L546.16 127.74L546.16 125.86L548.04 125.86Z" stroke="#FFFFFF" stroke-opacity="1.000000" stroke-width="1.000000"/>
			<path id="Vector" d="M548.04 129.62L548.04 131.49L546.16 131.49L546.16 129.62L548.04 129.62Z" stroke="#FFFFFF" stroke-opacity="1.000000" stroke-width="1.000000"/>
			<path id="Vector" d="M548.04 133.37L548.04 135.24L546.16 135.24L546.16 133.37L548.04 133.37Z" stroke="#FFFFFF" stroke-opacity="1.000000" stroke-width="1.000000"/>
			<path id="Vector" d="M544.7 119.2L540.45 112.76" stroke="#FFFFFF" stroke-opacity="1.000000" stroke-width="1.000000"/>
			<path id="Vector" d="M551.57 120.81L554.98 120.81L554.98 112.77" stroke="#FFFFFF" stroke-opacity="1.000000" stroke-width="1.000000"/>
		</g>
		<path id="Vector" d="M444.5 121.67L392.86 121.67" stroke="#FFFFFF" stroke-opacity="1.000000" stroke-width="1.000000"/>
		<path id="Vector" d="M495.3 130.82L498.67 135.74" stroke="#FFFFFF" stroke-opacity="1.000000" stroke-width="1.000000"/>
		<path id="Vector" d="M601.27 126.41L601.27 121.81" stroke="#FFFFFF" stroke-opacity="1.000000" stroke-width="1.000000"/>
	</g>
</svg>
