<svg width="128" height="24" viewBox="0 0 128 24" fill="none" xmlns="http://www.w3.org/2000/svg">
<g clip-path="url(#clip0_596_2579)">
<path d="M6.75158 13.005C4.92519 13.005 3.48886 12.6081 2.44259 11.8142C0.354635 10.231 0.607026 6.78475 1.47662 4.60502C2.70645 1.48456 5.65712 0.0459364 8.88542 0.0459364C11.1936 0.0459364 14.5367 0.610373 14.5367 3.58628C14.5367 7.45932 10.4066 7.94575 7.42385 7.94575C6.65359 7.94892 5.88375 7.90908 5.11792 7.82643C4.81506 9.70789 6.02194 9.9511 7.62576 9.97404C8.80706 9.95419 9.97903 9.76092 11.1042 9.40043C11.4162 9.31553 11.6112 9.26506 11.7925 9.56563L12.6873 11.431C12.8227 11.6605 12.7172 11.844 12.3707 11.9978C10.6682 12.7526 8.56419 13.0119 6.74928 13.0119M22.581 2.67538C21.4108 2.67538 20.516 3.18016 20.3026 4.37557L19.2357 10.1347C19.9607 10.2494 20.693 10.3122 21.4269 10.3228C22.6063 10.3228 24.568 9.99928 24.568 8.43446C24.568 7.17251 22.7577 7.25511 21.8881 7.25511C21.5233 7.25511 21.2342 7.2184 21.3122 6.78246L21.5141 5.649C21.6036 5.1511 22.0005 5.11898 22.4319 5.08227C23.1661 5.02261 24.3913 4.74727 24.3913 3.7836C24.3959 2.89106 23.2441 2.6662 22.581 2.6662V2.67538ZM16.1565 4.35033C16.7233 1.02108 19.8552 -0.00683594 22.838 -0.00683594C24.7562 -0.00683594 28.3103 0.475 28.4021 3.06085C28.4456 4.30674 27.5325 5.33465 26.4128 5.75225V5.86926C27.7045 6.23638 28.7761 7.01649 28.7761 8.46429C28.7761 12.0758 24.1068 12.9958 21.3374 12.9958C19.378 12.9958 17.1684 12.8375 15.342 12.0781C14.9887 11.9312 14.8831 11.7431 14.9382 11.3714L16.1565 4.35033ZM32.7042 17.158C32.6376 17.548 32.3898 17.5595 32.0411 17.5595H29.134C28.8151 17.5595 28.5489 17.548 28.6154 17.158L31.2678 1.76907C31.3034 1.59524 31.3866 1.43473 31.5082 1.30548C31.6297 1.17623 31.7848 1.08332 31.9562 1.03714C33.8766 0.314388 36.0564 0.0918257 38.0961 0.0918257C41.6319 0.0918257 44.3852 1.41114 44.2912 5.33236C44.1764 10.0888 41.2326 12.9568 36.5726 12.9568C35.5379 12.9639 34.5051 12.8694 33.4889 12.6746L32.7042 17.158ZM37.2632 3.04479C36.5349 3.04293 35.8091 3.13 35.1019 3.30406L34.0051 9.74689C34.7413 9.92464 35.4964 10.0117 36.2537 10.0062C38.8694 10.0062 40.1175 7.97328 40.1175 5.54574C40.1175 3.71936 38.9657 3.04479 37.2632 3.04479ZM53.1776 2.95072C51.4131 2.95072 50.2912 4.18284 49.8621 5.80731C49.3481 7.7553 49.4445 10.1025 51.9959 10.1025C54.5474 10.1025 55.5133 7.49144 55.5133 5.31171C55.5133 3.78819 54.7103 2.95072 53.1776 2.95072ZM53.5516 0.0482314C56.9382 0.0482314 59.7466 1.48226 59.7466 5.21764C59.7466 10.3159 56.3049 13.0555 51.5302 13.005C48.2812 12.9706 45.3604 11.7981 45.3604 8.12012C45.3406 6.94474 45.5462 5.77645 45.9661 4.67844C47.2487 1.48456 50.3026 0.0459364 53.5539 0.0459364L53.5516 0.0482314ZM67.7405 2.87959C67.1135 2.86761 66.4866 2.90674 65.8659 2.9966L64.2598 12.319C64.191 12.7205 63.9684 12.7435 63.5967 12.7435H60.7355C60.4166 12.7435 60.1183 12.7113 60.1871 12.319L61.947 2.19355C62.1489 1.03026 62.8533 0.468116 63.9936 0.282265C65.3309 0.10047 66.6803 0.0237535 68.0296 0.0528195C70.5168 0.0528195 73.9952 0.364866 74.6606 3.32242C74.8308 4.26413 74.8207 5.22961 74.6307 6.16754L73.5936 12.3282C73.5248 12.732 73.3022 12.7526 72.9305 12.7526H70.0464C69.7252 12.7526 69.4315 12.7205 69.498 12.3282L70.5948 5.95875C70.721 5.2314 70.8082 4.27232 70.308 3.66429C69.7275 2.93466 68.5757 2.87959 67.7405 2.87959ZM99.5072 2.95072C97.791 2.95072 96.591 4.03599 96.0334 5.6054C95.1363 8.1293 95.5493 10.176 98.6147 10.1255C99.2865 10.1092 99.9541 10.0144 100.604 9.84326C100.946 7.60617 101.306 5.35301 101.786 3.14116C101.195 3.04031 100.597 2.98127 99.9982 2.96448C99.8055 2.95301 99.6403 2.95072 99.5072 2.95072ZM99.7022 0.0711756C101.66 0.076937 103.613 0.290757 105.526 0.709034C106.01 0.814579 106.161 0.986663 106.074 1.46391C105.441 4.87806 104.846 8.31286 104.374 11.7545C104.361 11.8672 104.312 11.9727 104.234 12.0554C104.156 12.138 104.054 12.1935 103.942 12.2134C101.952 12.7643 99.8949 13.0346 97.83 13.0165C94.3883 13.0165 91.4606 11.9427 91.4606 8.19814C91.4443 7.04685 91.626 5.90133 91.9975 4.81152C93.1906 1.44326 96.3271 0.0711756 99.7022 0.0711756ZM89.1478 11.9587L89.0904 12.2983V12.3167C89.017 12.7067 88.8059 12.7457 88.4319 12.7457H85.5799C85.1577 12.7457 85.0063 12.592 85.0613 12.2731L86.6239 3.13886H83.2166C82.8288 4.78857 82.4709 6.45205 81.9776 8.07194C81.0598 11.0708 79.2954 12.4934 76.2988 13.2161C76.0005 13.2872 75.6105 13.301 75.4636 12.9339L74.7982 11.236C74.6284 10.8 74.8326 10.628 75.2296 10.4811C76.9826 9.83179 77.7696 9.08838 78.4143 7.16563C78.9397 5.60081 79.2334 3.59546 79.6969 1.74842C79.9699 0.663145 80.6147 0.355688 81.6862 0.355688H89.4873C90.5497 0.355688 91.0935 0.670029 90.9007 1.78972V1.81726L89.1478 11.9587ZM110.342 12.2731C110.268 12.7113 110.064 12.7457 109.653 12.7457H106.833C106.411 12.7457 106.232 12.5897 106.285 12.2731L108.274 0.800812C108.327 0.500239 108.552 0.341921 108.937 0.341921H111.762C112.15 0.341921 112.381 0.341921 112.31 0.800812L111.647 4.83676H116.837L117.526 0.800812C117.576 0.500239 117.815 0.341921 118.214 0.341921H121.041C121.424 0.341921 121.665 0.341921 121.589 0.800812L119.6 12.2731C119.524 12.709 119.359 12.7457 118.937 12.7457H116.117C115.695 12.7457 115.516 12.5897 115.568 12.2731L116.376 7.53045H111.158L110.342 12.2731ZM8.65368 2.90253C7.04756 2.90253 5.84297 3.85244 5.51028 5.42643C6.53702 5.51098 7.56942 5.49946 8.59402 5.39202C9.43379 5.29565 10.4961 5.07768 10.4961 4.03599C10.4984 3.06085 9.39708 2.90253 8.65368 2.90253Z" fill="#CCCCCC"/>
<path d="M121.075 16.9149C92.4495 11.4541 65.2694 14.6204 36.2514 23.5825C35.4368 23.8349 35.3336 24.1493 36.3845 23.9244C63.1493 18.1608 92.2108 16.2472 120.972 17.4999C121.552 17.5252 122.392 17.5435 122.39 17.399C122.388 17.2544 122.126 17.1099 121.075 16.9103" fill="#CCCCCC"/>
<path d="M125.813 0.635696C126.173 0.635696 126.524 0.742273 126.823 0.941951C127.122 1.14163 127.354 1.42544 127.492 1.75749C127.63 2.08954 127.666 2.45492 127.595 2.80742C127.525 3.15993 127.352 3.48372 127.098 3.73786C126.844 3.992 126.52 4.16508 126.168 4.23519C125.815 4.30531 125.45 4.26933 125.118 4.13179C124.786 3.99425 124.502 3.76133 124.302 3.46249C124.102 3.16365 123.996 2.81231 123.996 2.4529C123.997 1.97114 124.188 1.50928 124.529 1.16861C124.87 0.827954 125.331 0.636303 125.813 0.635696ZM125.813 0.40625C125.408 0.40625 125.013 0.526284 124.676 0.751174C124.34 0.976063 124.077 1.29571 123.922 1.66968C123.767 2.04366 123.727 2.45517 123.806 2.85219C123.885 3.2492 124.08 3.61388 124.366 3.90011C124.652 4.18634 125.017 4.38126 125.414 4.46023C125.811 4.5392 126.222 4.49867 126.596 4.34377C126.97 4.18886 127.29 3.92654 127.515 3.58996C127.74 3.25339 127.86 2.85769 127.86 2.4529C127.859 1.9105 127.643 1.39051 127.26 1.00718C126.876 0.623858 126.356 0.408545 125.813 0.408545V0.40625Z" fill="#CCCCCC"/>
<path d="M126.162 2.51713C126.238 2.53834 126.306 2.58335 126.355 2.64562C126.397 2.70807 126.429 2.77706 126.449 2.84982L126.637 3.53816C126.641 3.54848 126.641 3.55997 126.637 3.57028C126.637 3.57028 126.621 3.58635 126.602 3.58635H126.426H126.396C126.396 3.58635 126.378 3.57258 126.373 3.55652L126.201 2.93472C126.186 2.87674 126.161 2.8217 126.127 2.77181C126.101 2.73251 126.066 2.69896 126.027 2.67315C125.987 2.64855 125.944 2.63143 125.898 2.62267C125.848 2.61286 125.797 2.60824 125.747 2.60891H125.244V3.54963C125.246 3.55507 125.248 3.56092 125.248 3.56684C125.248 3.57276 125.246 3.57861 125.244 3.58405C125.233 3.58773 125.221 3.58773 125.21 3.58405H125.047C125.036 3.58757 125.024 3.58757 125.012 3.58405C125.01 3.57861 125.009 3.57276 125.009 3.56684C125.009 3.56092 125.01 3.55507 125.012 3.54963V1.48462C125.009 1.44453 125.021 1.40469 125.045 1.3722C125.06 1.3576 125.079 1.34655 125.099 1.33981C125.119 1.33308 125.14 1.33082 125.162 1.33319H125.889C125.983 1.33161 126.076 1.34716 126.164 1.37908C126.242 1.40791 126.313 1.45243 126.373 1.50986C126.431 1.56561 126.476 1.63283 126.506 1.70719C126.537 1.78608 126.553 1.87021 126.552 1.95499C126.554 2.07589 126.52 2.1947 126.456 2.29686C126.39 2.39777 126.292 2.47312 126.178 2.51025L126.162 2.51713ZM126.284 1.96416C126.284 1.9128 126.276 1.86171 126.261 1.81273C126.245 1.76413 126.219 1.71948 126.185 1.68195C126.144 1.6445 126.095 1.61632 126.043 1.59935C125.978 1.5748 125.91 1.56311 125.841 1.56493H125.249V2.38176H125.822C125.885 2.38735 125.948 2.38005 126.007 2.36032C126.067 2.34059 126.122 2.30884 126.169 2.26703C126.207 2.22689 126.237 2.17936 126.257 2.12731C126.277 2.07527 126.286 2.01977 126.284 1.96416Z" fill="#CCCCCC"/>
</g>
<defs>
<clipPath id="clip0_596_2579">
<rect width="127.074" height="24" fill="white" transform="translate(0.836487)"/>
</clipPath>
</defs>
</svg>
