<svg width="138.000000" height="48.000000" viewBox="0 0 138 48" fill="none" xmlns="http://www.w3.org/2000/svg" xmlns:xlink="http://www.w3.org/1999/xlink">
	<desc>
			Created with Pixso.
	</desc>
	<defs/>
	<path id="Vector 1" d="M33.24 4L15.12 4L10 23L19.19 23L24.76 23L28.78 7.32L66.03 7.32L67 4L33.24 4Z" fill="#BA040E" fill-opacity="1.000000" fill-rule="evenodd"/>
	<path id="Vector 2" d="M22.74 38.61L6.15 38.61L5 42L38.16 42L43 23L31.44 23L26.98 23L22.74 38.61Z" fill="#BA040E" fill-opacity="1.000000" fill-rule="evenodd"/>
	<path id="Vector" d="M129.03 34.41L122.22 34.41L125.86 17.84L117.8 17.84L114.15 34.41L107.34 34.41L112.3 11.91L134 11.91L129.03 34.41Z" fill="#FFFFFF" fill-opacity="1.000000" fill-rule="nonzero"/>
	<path id="Vector" d="M104.69 34.41L97.88 34.41L100.85 20.88L92.85 34.41L89.81 34.41L87.75 20.88L84.78 34.41L77.97 34.41L82.93 11.91L92.11 11.91L93.66 22.7L100 11.91L109.65 11.91L104.69 34.41Z" fill="#FFFFFF" fill-opacity="1.000000" fill-rule="nonzero"/>
	<path id="Vector" d="M75.95 34.41L58.87 34.41L63.83 11.91L80.91 11.91L79.59 17.84L69.33 17.84L68.86 20.07L78.88 20.07L77.57 26.01L67.55 26.01L67.01 28.47L77.26 28.47L75.95 34.41Z" fill="#FFFFFF" fill-opacity="1.000000" fill-rule="nonzero"/>
	<path id="Vector" d="M51.46 34.41L44.65 34.41L48.29 17.84L31.5 17.84L32.81 11.91L70.7 11.91L69.38 17.84L55.11 17.84L51.46 34.41Z" fill="#FFFFFF" fill-opacity="1.000000" fill-rule="nonzero"/>
	<path id="Vector" d="M127.79 41.73L127.29 41.73L127.29 38.52L127.83 38.52L129.66 41.22L129.48 41.22L129.48 38.52L129.99 38.52L129.99 41.73L129.44 41.73L127.61 39.03L127.79 39.03L127.79 41.73Z" fill="#FFFFFF" fill-opacity="1.000000" fill-rule="nonzero"/>
	<path id="Vector" d="M126.3 40.96L124.45 40.96L124.45 40.52L126.3 40.52L126.3 40.96ZM126.94 41.73L126.39 41.73L125.29 38.87L125.46 38.87L124.36 41.73L123.83 41.73L125.1 38.52L125.67 38.52L126.94 41.73Z" fill="#FFFFFF" fill-opacity="1.000000" fill-rule="nonzero"/>
	<path id="Vector" d="M121.97 41.41L121.58 41.41L120.31 38.77L120.57 38.76L120.57 41.73L120.06 41.73L120.06 38.52L120.68 38.52L121.9 41.07L121.66 41.07L122.88 38.52L123.49 38.52L123.49 41.73L122.98 41.73L122.98 38.76L123.23 38.77L121.97 41.41Z" fill="#FFFFFF" fill-opacity="1.000000" fill-rule="nonzero"/>
	<path id="Vector" d="M119.35 40.85L119.7 41.2C119.56 41.38 119.37 41.53 119.14 41.64C118.92 41.75 118.67 41.8 118.4 41.8C118.16 41.8 117.93 41.76 117.73 41.68C117.53 41.59 117.35 41.48 117.2 41.33C117.06 41.18 116.94 41 116.86 40.8C116.78 40.59 116.74 40.37 116.74 40.13C116.74 39.88 116.78 39.66 116.86 39.46C116.95 39.25 117.06 39.07 117.21 38.92C117.36 38.77 117.54 38.66 117.75 38.57C117.95 38.49 118.17 38.45 118.41 38.45C118.68 38.45 118.93 38.5 119.15 38.61C119.37 38.72 119.56 38.87 119.7 39.05L119.35 39.4C119.25 39.25 119.11 39.13 118.96 39.04C118.8 38.95 118.62 38.91 118.41 38.91C118.2 38.91 118 38.96 117.83 39.07C117.66 39.17 117.53 39.32 117.43 39.5C117.33 39.68 117.28 39.89 117.28 40.13C117.28 40.36 117.33 40.57 117.43 40.75C117.53 40.93 117.66 41.08 117.83 41.19C118 41.29 118.2 41.35 118.41 41.35C118.62 41.35 118.8 41.3 118.96 41.21C119.11 41.12 119.25 41 119.35 40.85Z" fill="#FFFFFF" fill-opacity="1.000000" fill-rule="nonzero"/>
	<path id="Vector" d="M116.07 40.96L114.22 40.96L114.22 40.52L116.07 40.52L116.07 40.96ZM116.71 41.73L116.16 41.73L115.06 38.87L115.23 38.87L114.13 41.73L113.6 41.73L114.87 38.52L115.44 38.52L116.71 41.73Z" fill="#FFFFFF" fill-opacity="1.000000" fill-rule="nonzero"/>
	<path id="Vector" d="M112.73 41.73L112.73 38.52L113.25 38.52L113.25 41.73L112.73 41.73ZM111.08 41.73L110.57 41.73L110.57 38.52L111.08 38.52L111.08 41.73ZM111.04 40.3L111.04 39.85L112.78 39.85L112.78 40.3L111.04 40.3Z" fill="#FFFFFF" fill-opacity="1.000000" fill-rule="nonzero"/>
	<path id="Vector" d="M107.4 41.21L107.76 40.86C107.84 40.96 107.93 41.05 108.04 41.12C108.16 41.2 108.28 41.25 108.41 41.29C108.54 41.33 108.68 41.35 108.82 41.35C108.98 41.35 109.11 41.33 109.23 41.29C109.34 41.24 109.43 41.18 109.5 41.11C109.57 41.03 109.6 40.94 109.6 40.84C109.6 40.7 109.54 40.59 109.41 40.51C109.29 40.43 109.07 40.36 108.76 40.32C108.47 40.27 108.23 40.21 108.05 40.14C107.87 40.06 107.74 39.96 107.66 39.84C107.58 39.72 107.54 39.58 107.54 39.42C107.54 39.23 107.59 39.06 107.69 38.91C107.8 38.77 107.95 38.65 108.13 38.57C108.32 38.49 108.54 38.45 108.78 38.45C109.06 38.45 109.31 38.5 109.53 38.61C109.75 38.72 109.93 38.86 110.09 39.04L109.74 39.39C109.62 39.24 109.48 39.12 109.33 39.03C109.17 38.94 108.99 38.9 108.79 38.9C108.57 38.9 108.4 38.94 108.27 39.03C108.13 39.12 108.06 39.24 108.06 39.39C108.06 39.47 108.09 39.54 108.14 39.6C108.19 39.65 108.27 39.7 108.39 39.74C108.51 39.78 108.67 39.81 108.87 39.84C109.16 39.88 109.4 39.95 109.59 40.03C109.77 40.12 109.91 40.22 109.99 40.35C110.08 40.48 110.13 40.64 110.13 40.81C110.13 41.01 110.07 41.19 109.96 41.34C109.85 41.48 109.69 41.6 109.5 41.68C109.3 41.76 109.07 41.8 108.81 41.8C108.51 41.8 108.24 41.75 108 41.64C107.77 41.53 107.57 41.39 107.4 41.21Z" fill="#FFFFFF" fill-opacity="1.000000" fill-rule="nonzero"/>
	<path id="Vector" d="M104.57 41.73L104.05 41.73L104.05 38.52L105.34 38.52C105.56 38.52 105.75 38.56 105.92 38.64C106.09 38.72 106.22 38.83 106.31 38.97C106.41 39.11 106.45 39.28 106.45 39.47C106.45 39.66 106.41 39.83 106.31 39.97C106.22 40.11 106.09 40.23 105.92 40.31C105.75 40.38 105.56 40.42 105.34 40.42L104.52 40.42L104.52 39.98L105.34 39.98C105.52 39.98 105.66 39.94 105.77 39.85C105.87 39.76 105.93 39.63 105.93 39.47C105.93 39.31 105.87 39.19 105.77 39.1C105.66 39.01 105.52 38.96 105.34 38.96L104.57 38.96L104.57 41.73Z" fill="#FFFFFF" fill-opacity="1.000000" fill-rule="nonzero"/>
	<path id="Vector" d="M103.58 41.73L101.37 41.73L101.37 38.52L103.58 38.52L103.58 38.96L101.88 38.96L101.88 41.29L103.58 41.29L103.58 41.73ZM103.49 40.32L101.84 40.32L101.84 39.88L103.49 39.88L103.49 40.32Z" fill="#FFFFFF" fill-opacity="1.000000" fill-rule="nonzero"/>
	<path id="Vector" d="M99.92 41.73L99.41 41.73L99.41 38.92L99.92 38.92L99.92 41.73ZM100.95 38.96L98.38 38.96L98.38 38.52L100.95 38.52L100.95 38.96Z" fill="#FFFFFF" fill-opacity="1.000000" fill-rule="nonzero"/>
	<path id="Vector" d="M96.38 41.73L95.86 41.73L95.86 38.52L97.14 38.52C97.36 38.52 97.56 38.56 97.73 38.64C97.9 38.72 98.03 38.83 98.12 38.97C98.21 39.11 98.26 39.28 98.26 39.47C98.26 39.66 98.21 39.83 98.12 39.97C98.03 40.11 97.9 40.23 97.73 40.31C97.56 40.38 97.36 40.42 97.14 40.42L96.33 40.42L96.33 39.98L97.14 39.98C97.33 39.98 97.47 39.94 97.57 39.85C97.68 39.76 97.74 39.63 97.74 39.47C97.74 39.31 97.68 39.19 97.57 39.1C97.47 39.01 97.33 38.96 97.14 38.96L96.38 38.96L96.38 41.73Z" fill="#FFFFFF" fill-opacity="1.000000" fill-rule="nonzero"/>
	<path id="Vector" d="M93.66 41.8C93.41 41.8 93.19 41.76 92.98 41.68C92.78 41.59 92.6 41.48 92.44 41.33C92.29 41.17 92.17 41 92.09 40.79C92 40.59 91.96 40.36 91.96 40.12C91.96 39.88 92 39.66 92.09 39.46C92.17 39.25 92.29 39.08 92.44 38.93C92.6 38.78 92.78 38.66 92.98 38.57C93.19 38.49 93.41 38.45 93.66 38.45C93.91 38.45 94.13 38.49 94.34 38.57C94.55 38.66 94.73 38.78 94.88 38.93C95.03 39.08 95.15 39.25 95.23 39.46C95.32 39.66 95.36 39.88 95.36 40.12C95.36 40.36 95.32 40.59 95.23 40.79C95.15 41 95.03 41.17 94.88 41.33C94.73 41.48 94.55 41.59 94.34 41.68C94.13 41.76 93.91 41.8 93.66 41.8ZM93.66 41.35C93.89 41.35 94.09 41.29 94.26 41.19C94.44 41.08 94.57 40.94 94.67 40.76C94.77 40.57 94.82 40.36 94.82 40.12C94.82 39.89 94.77 39.68 94.67 39.49C94.57 39.31 94.44 39.17 94.26 39.06C94.09 38.96 93.89 38.91 93.66 38.91C93.44 38.91 93.23 38.96 93.06 39.06C92.88 39.17 92.75 39.31 92.65 39.49C92.55 39.68 92.5 39.89 92.5 40.12C92.5 40.36 92.55 40.57 92.65 40.76C92.75 40.94 92.88 41.08 93.06 41.19C93.23 41.29 93.44 41.35 93.66 41.35Z" fill="#FFFFFF" fill-opacity="1.000000" fill-rule="nonzero"/>
	<path id="Vector" d="M88.79 41.73L88.79 38.52L91.46 38.52L91.46 41.73L90.94 41.73L90.94 38.64L91.2 38.96L89.03 38.96L89.31 38.64L89.31 41.73L88.79 41.73Z" fill="#FFFFFF" fill-opacity="1.000000" fill-rule="nonzero"/>
	<path id="Vector" d="M86.61 41.41L86.23 41.41L84.95 38.77L85.21 38.76L85.21 41.73L84.7 41.73L84.7 38.52L85.32 38.52L86.54 41.07L86.3 41.07L87.52 38.52L88.13 38.52L88.13 41.73L87.62 41.73L87.62 38.76L87.87 38.77L86.61 41.41Z" fill="#FFFFFF" fill-opacity="1.000000" fill-rule="nonzero"/>
	<path id="Vector" d="M81.33 41.73L81.33 38.52L81.85 38.52L81.85 41.47L81.52 41.47L83.48 38.52L84.04 38.52L84.04 41.73L83.52 41.73L83.52 38.77L83.84 38.77L81.88 41.73L81.33 41.73Z" fill="#FFFFFF" fill-opacity="1.000000" fill-rule="nonzero"/>
	<path id="Vector" d="M77.23 41.73L77.23 38.52L77.74 38.52L77.74 41.47L77.41 41.47L79.37 38.52L79.93 38.52L79.93 41.73L79.41 41.73L79.41 38.78L79.73 38.78L77.77 41.73L77.23 41.73ZM78.58 38.17C78.37 38.17 78.19 38.12 78.05 38.01C77.9 37.9 77.82 37.74 77.8 37.54L78.21 37.54C78.22 37.65 78.26 37.74 78.33 37.8C78.4 37.85 78.48 37.88 78.58 37.88C78.68 37.88 78.77 37.85 78.83 37.8C78.9 37.74 78.94 37.65 78.96 37.54L79.37 37.54C79.35 37.74 79.27 37.9 79.12 38.01C78.98 38.12 78.8 38.17 78.58 38.17Z" fill="#FFFFFF" fill-opacity="1.000000" fill-rule="nonzero"/>
	<path id="Vector" d="M73.17 41.73L73.17 38.52L73.69 38.52L73.69 41.35L73.64 41.29L74.52 41.29C74.71 41.29 74.85 41.24 74.96 41.15C75.06 41.05 75.12 40.92 75.12 40.75C75.12 40.59 75.06 40.46 74.96 40.37C74.85 40.27 74.71 40.23 74.52 40.23L73.43 40.23L73.43 39.79L74.52 39.79C74.75 39.79 74.94 39.83 75.11 39.91C75.28 39.98 75.41 40.1 75.5 40.24C75.59 40.39 75.64 40.56 75.64 40.75C75.64 40.95 75.59 41.12 75.5 41.26C75.41 41.41 75.28 41.53 75.11 41.61C74.94 41.69 74.74 41.73 74.52 41.73L73.17 41.73ZM76.6 41.73L76.08 41.73L76.08 38.52L76.6 38.52L76.6 41.73Z" fill="#FFFFFF" fill-opacity="1.000000" fill-rule="nonzero"/>
	<path id="Vector" d="M71.99 41.73L71.99 38.52L72.5 38.52L72.5 41.73L71.99 41.73ZM70.34 41.73L69.82 41.73L69.82 38.52L70.34 38.52L70.34 41.73ZM70.29 40.3L70.29 39.85L72.03 39.85L72.03 40.3L70.29 40.3Z" fill="#FFFFFF" fill-opacity="1.000000" fill-rule="nonzero"/>
	<path id="Vector" d="M66.92 41.73L66.92 38.52L67.44 38.52L67.44 41.35L67.38 41.29L68.27 41.29C68.45 41.29 68.6 41.24 68.7 41.15C68.81 41.05 68.86 40.92 68.86 40.75C68.86 40.59 68.81 40.46 68.7 40.37C68.6 40.27 68.45 40.23 68.27 40.23L67.18 40.23L67.18 39.79L68.26 39.79C68.49 39.79 68.69 39.83 68.86 39.91C69.03 39.98 69.16 40.1 69.25 40.24C69.34 40.39 69.39 40.56 69.39 40.75C69.39 40.95 69.34 41.12 69.25 41.26C69.16 41.41 69.02 41.53 68.85 41.61C68.69 41.69 68.49 41.73 68.26 41.73L66.92 41.73Z" fill="#FFFFFF" fill-opacity="1.000000" fill-rule="nonzero"/>
	<path id="Vector" d="M63.38 41.73L63.38 41.29L63.64 41.29C63.72 41.29 63.78 41.27 63.81 41.23C63.85 41.2 63.88 41.14 63.89 41.05L64.2 38.52L66.25 38.52L66.25 41.73L65.74 41.73L65.74 38.61L66.03 38.96L64.33 38.96L64.69 38.61L64.38 41.09C64.36 41.24 64.33 41.36 64.27 41.46C64.22 41.55 64.15 41.62 64.06 41.66C63.97 41.71 63.85 41.73 63.71 41.73L63.38 41.73Z" fill="#FFFFFF" fill-opacity="1.000000" fill-rule="nonzero"/>
	<path id="Vector" d="M62.63 40.96L60.78 40.96L60.78 40.52L62.63 40.52L62.63 40.96ZM63.27 41.73L62.72 41.73L61.62 38.87L61.79 38.87L60.69 41.73L60.16 41.73L61.43 38.52L62 38.52L63.27 41.73Z" fill="#FFFFFF" fill-opacity="1.000000" fill-rule="nonzero"/>
	<path id="Vector" d="M57.05 41.73L57.05 38.52L57.56 38.52L57.56 41.47L57.23 41.47L59.19 38.52L59.75 38.52L59.75 41.73L59.23 41.73L59.23 38.77L59.55 38.77L57.6 41.73L57.05 41.73Z" fill="#FFFFFF" fill-opacity="1.000000" fill-rule="nonzero"/>
	<path id="Vector" d="M53.58 41.73L53.58 38.52L54.1 38.52L54.1 41.61L53.82 41.29L55.98 41.29L55.72 41.61L55.72 38.52L56.24 38.52L56.24 41.73L53.58 41.73ZM56.11 42.51L56.11 41.29L56.6 41.29L56.6 42.51L56.11 42.51Z" fill="#FFFFFF" fill-opacity="1.000000" fill-rule="nonzero"/>
	<path id="Vector" d="M50.21 41.73L50.21 38.52L50.73 38.52L50.73 41.47L50.4 41.47L52.36 38.52L52.91 38.52L52.91 41.73L52.4 41.73L52.4 38.77L52.72 38.77L50.76 41.73L50.21 41.73Z" fill="#FFFFFF" fill-opacity="1.000000" fill-rule="nonzero"/>
	<path id="Vector" d="M47.96 41.41C47.39 41.41 46.95 41.3 46.66 41.08C46.36 40.86 46.21 40.54 46.21 40.12C46.21 39.7 46.36 39.39 46.66 39.17C46.96 38.95 47.39 38.84 47.96 38.84C48.54 38.84 48.98 38.95 49.27 39.17C49.57 39.39 49.72 39.7 49.72 40.12C49.72 40.54 49.57 40.86 49.27 41.08C48.98 41.3 48.54 41.41 47.96 41.41ZM47.96 40.97C48.39 40.97 48.7 40.9 48.9 40.77C49.1 40.63 49.2 40.41 49.2 40.12C49.2 39.84 49.1 39.62 48.9 39.48C48.7 39.35 48.39 39.28 47.96 39.28C47.54 39.28 47.23 39.35 47.03 39.48C46.83 39.62 46.73 39.83 46.73 40.12C46.73 40.41 46.83 40.62 47.03 40.77C47.23 40.9 47.54 40.97 47.96 40.97ZM47.71 41.87L47.71 41.26L47.72 41.07L47.72 39.17L47.71 38.99L47.71 38.37L48.22 38.37L48.22 38.99L48.21 39.17L48.21 41.07L48.22 41.26L48.22 41.87L47.71 41.87Z" fill="#FFFFFF" fill-opacity="1.000000" fill-rule="nonzero"/>
	<path id="Vector" d="M44.18 41.8C43.93 41.8 43.71 41.76 43.5 41.68C43.29 41.59 43.11 41.48 42.96 41.33C42.81 41.17 42.69 41 42.61 40.79C42.52 40.59 42.48 40.36 42.48 40.12C42.48 39.88 42.52 39.66 42.61 39.46C42.69 39.25 42.81 39.08 42.96 38.93C43.11 38.78 43.29 38.66 43.5 38.57C43.71 38.49 43.93 38.45 44.18 38.45C44.43 38.45 44.65 38.49 44.86 38.57C45.06 38.66 45.24 38.78 45.4 38.93C45.55 39.08 45.67 39.25 45.75 39.46C45.84 39.66 45.88 39.88 45.88 40.12C45.88 40.36 45.84 40.59 45.75 40.79C45.67 41 45.55 41.17 45.4 41.33C45.24 41.48 45.06 41.59 44.86 41.68C44.65 41.76 44.43 41.8 44.18 41.8ZM44.18 41.35C44.41 41.35 44.61 41.29 44.78 41.19C44.96 41.08 45.09 40.94 45.19 40.76C45.29 40.57 45.34 40.36 45.34 40.12C45.34 39.89 45.29 39.68 45.19 39.49C45.09 39.31 44.96 39.17 44.78 39.06C44.61 38.96 44.41 38.91 44.18 38.91C43.96 38.91 43.75 38.96 43.58 39.06C43.4 39.17 43.27 39.31 43.17 39.49C43.07 39.68 43.02 39.89 43.02 40.12C43.02 40.36 43.07 40.57 43.17 40.76C43.27 40.94 43.4 41.08 43.58 41.19C43.75 41.29 43.96 41.35 44.18 41.35Z" fill="#FFFFFF" fill-opacity="1.000000" fill-rule="nonzero"/>
</svg>
