<svg width="518.544434" height="122.705078" viewBox="0 0 518.544 122.705" fill="none" xmlns="http://www.w3.org/2000/svg" xmlns:xlink="http://www.w3.org/1999/xlink">
	<desc>
			Created with Pixso.
	</desc>
	<defs>
		<clipPath id="clip546_6087">
			<rect id="_РЎР»РѕР№_3" rx="-0.292155" width="517.960144" height="122.120750" transform="translate(0.292155 0.292155)" fill="white" fill-opacity="0"/>
		</clipPath>
	</defs>
	<rect id="_РЎР»РѕР№_3" rx="-0.292155" width="517.960144" height="122.120750" transform="translate(0.292155 0.292155)" fill="#FFFFFF" fill-opacity="0"/>
	<g clip-path="url(#clip546_6087)">
		<path id="Vector" d="M518.11 23.53L518.11 61.22L10.26 61.22L10.26 2.56L13.92 2.56L14.05 61.22" stroke="#FFFFFF" stroke-opacity="1.000000" stroke-width="1.000000"/>
		<path id="Vector" d="M518.11 28.66L0.42 28.66L0.42 55.6L10.26 61.22" stroke="#FFFFFF" stroke-opacity="1.000000" stroke-width="1.000000"/>
		<path id="Vector" d="M2.93 57.04L2.93 28.66L2.93 19.25L7.84 16.95L7.84 9.84L10.26 9.84" stroke="#FFFFFF" stroke-opacity="1.000000" stroke-width="1.000000"/>
		<path id="Vector" d="M2.93 31.36L5.63 31.36L5.63 35.88L2.93 35.88" stroke="#FFFFFF" stroke-opacity="1.000000" stroke-width="1.000000"/>
		<path id="Vector" d="M2.93 49.34L5.63 49.34L5.63 53.85L2.93 53.85" stroke="#FFFFFF" stroke-opacity="1.000000" stroke-width="1.000000"/>
		<path id="Vector" d="M7.84 28.66L7.84 59.57" stroke="#FFFFFF" stroke-opacity="1.000000" stroke-width="1.000000"/>
		<path id="Vector" d="M111.76 28.66L111.76 53.85L14.04 53.85" stroke="#FFFFFF" stroke-opacity="1.000000" stroke-width="1.000000"/>
		<path id="Vector" d="M14.04 50.23L111.76 50.23" stroke="#FFFFFF" stroke-opacity="1.000000" stroke-width="1.000000"/>
		<path id="Vector" d="M14.04 46.81L111.76 46.81" stroke="#FFFFFF" stroke-opacity="1.000000" stroke-width="1.000000"/>
		<path id="Vector" d="M14.04 43.39L111.76 43.39" stroke="#FFFFFF" stroke-opacity="1.000000" stroke-width="1.000000"/>
		<path id="Vector" d="M14.04 39.97L111.76 39.97" stroke="#FFFFFF" stroke-opacity="1.000000" stroke-width="1.000000"/>
		<path id="Vector" d="M14.04 36.54L111.76 36.54" stroke="#FFFFFF" stroke-opacity="1.000000" stroke-width="1.000000"/>
		<path id="Vector" d="M14.04 33.12L111.76 33.12" stroke="#FFFFFF" stroke-opacity="1.000000" stroke-width="1.000000"/>
		<path id="Vector" d="M215.3 28.66L215.3 53.85L117.57 53.85" stroke="#FFFFFF" stroke-opacity="1.000000" stroke-width="1.000000"/>
		<path id="Vector" d="M117.57 50.23L215.3 50.23" stroke="#FFFFFF" stroke-opacity="1.000000" stroke-width="1.000000"/>
		<path id="Vector" d="M117.57 46.81L215.3 46.81" stroke="#FFFFFF" stroke-opacity="1.000000" stroke-width="1.000000"/>
		<path id="Vector" d="M117.57 43.39L215.3 43.39" stroke="#FFFFFF" stroke-opacity="1.000000" stroke-width="1.000000"/>
		<path id="Vector" d="M117.57 39.97L215.3 39.97" stroke="#FFFFFF" stroke-opacity="1.000000" stroke-width="1.000000"/>
		<path id="Vector" d="M117.57 36.54L215.3 36.54" stroke="#FFFFFF" stroke-opacity="1.000000" stroke-width="1.000000"/>
		<path id="Vector" d="M117.57 33.12L215.3 33.12" stroke="#FFFFFF" stroke-opacity="1.000000" stroke-width="1.000000"/>
		<path id="Vector" d="M14.05 58.64L27.65 58.64L27.8 56.04L14.05 56.04" stroke="#FFFFFF" stroke-opacity="1.000000" stroke-width="1.000000"/>
		<path id="Vector" d="M20.92 56.04L20.92 59.03" stroke="#FFFFFF" stroke-opacity="1.000000" stroke-width="1.000000"/>
		<path id="Vector" d="M35.83 56.9L35.83 59.57L29.51 59.57L29.51 56.9L35.83 56.9Z" stroke="#FFFFFF" stroke-opacity="1.000000" stroke-width="1.000000"/>
		<path id="Vector" d="M42.68 57.75L42.68 60.42L36.36 60.42L36.36 57.75L42.68 57.75Z" stroke="#FFFFFF" stroke-opacity="1.000000" stroke-width="1.000000"/>
		<path id="Vector" d="M50.38 57.75L50.38 60.42L44.06 60.42L44.06 57.75L50.38 57.75Z" stroke="#FFFFFF" stroke-opacity="1.000000" stroke-width="1.000000"/>
		<path id="Vector" d="M58.08 57.75L58.08 60.42L51.76 60.42L51.76 57.75L58.08 57.75Z" stroke="#FFFFFF" stroke-opacity="1.000000" stroke-width="1.000000"/>
		<path id="Vector" d="M65.78 57.75L65.78 60.42L59.46 60.42L59.46 57.75L65.78 57.75Z" stroke="#FFFFFF" stroke-opacity="1.000000" stroke-width="1.000000"/>
		<path id="Vector" d="M73.48 57.75L73.48 60.42L67.17 60.42L67.17 57.75L73.48 57.75Z" stroke="#FFFFFF" stroke-opacity="1.000000" stroke-width="1.000000"/>
		<path id="Vector" d="M81.18 57.75L81.18 60.42L74.87 60.42L74.87 57.75L81.18 57.75Z" stroke="#FFFFFF" stroke-opacity="1.000000" stroke-width="1.000000"/>
		<path id="Vector" d="M88.88 57.75L88.88 60.42L82.57 60.42L82.57 57.75L88.88 57.75Z" stroke="#FFFFFF" stroke-opacity="1.000000" stroke-width="1.000000"/>
		<path id="Vector" d="M96.58 57.75L96.58 60.42L90.27 60.42L90.27 57.75L96.58 57.75Z" stroke="#FFFFFF" stroke-opacity="1.000000" stroke-width="1.000000"/>
		<path id="Vector" d="M104.29 57.75L104.29 60.42L97.97 60.42L97.97 57.75L104.29 57.75Z" stroke="#FFFFFF" stroke-opacity="1.000000" stroke-width="1.000000"/>
		<path id="Vector" d="M111.99 57.75L111.99 60.42L105.67 60.42L105.67 57.75L111.99 57.75Z" stroke="#FFFFFF" stroke-opacity="1.000000" stroke-width="1.000000"/>
		<path id="Vector" d="M126.53 57.75L126.53 60.42L120.22 60.42L120.22 57.75L126.53 57.75Z" stroke="#FFFFFF" stroke-opacity="1.000000" stroke-width="1.000000"/>
		<path id="Vector" d="M134.23 57.75L134.23 60.42L127.92 60.42L127.92 57.75L134.23 57.75Z" stroke="#FFFFFF" stroke-opacity="1.000000" stroke-width="1.000000"/>
		<path id="Vector" d="M141.94 57.75L141.94 60.42L135.62 60.42L135.62 57.75L141.94 57.75Z" stroke="#FFFFFF" stroke-opacity="1.000000" stroke-width="1.000000"/>
		<path id="Vector" d="M149.64 57.75L149.64 60.42L143.32 60.42L143.32 57.75L149.64 57.75Z" stroke="#FFFFFF" stroke-opacity="1.000000" stroke-width="1.000000"/>
		<path id="Vector" d="M157.34 57.75L157.34 60.42L151.02 60.42L151.02 57.75L157.34 57.75Z" stroke="#FFFFFF" stroke-opacity="1.000000" stroke-width="1.000000"/>
		<path id="Vector" d="M165.04 57.75L165.04 60.42L158.72 60.42L158.72 57.75L165.04 57.75Z" stroke="#FFFFFF" stroke-opacity="1.000000" stroke-width="1.000000"/>
		<path id="Vector" d="M172.74 57.75L172.74 60.42L166.43 60.42L166.43 57.75L172.74 57.75Z" stroke="#FFFFFF" stroke-opacity="1.000000" stroke-width="1.000000"/>
		<path id="Vector" d="M180.44 57.75L180.44 60.42L174.13 60.42L174.13 57.75L180.44 57.75Z" stroke="#FFFFFF" stroke-opacity="1.000000" stroke-width="1.000000"/>
		<path id="Vector" d="M188.14 57.75L188.14 60.42L181.83 60.42L181.83 57.75L188.14 57.75Z" stroke="#FFFFFF" stroke-opacity="1.000000" stroke-width="1.000000"/>
		<path id="Vector" d="M195.84 57.75L195.84 60.42L189.53 60.42L189.53 57.75L195.84 57.75Z" stroke="#FFFFFF" stroke-opacity="1.000000" stroke-width="1.000000"/>
		<path id="Vector" d="M203.54 57.75L203.54 60.42L197.23 60.42L197.23 57.75L203.54 57.75Z" stroke="#FFFFFF" stroke-opacity="1.000000" stroke-width="1.000000"/>
		<path id="Vector" d="M211.25 57.75L211.25 60.42L204.93 60.42L204.93 57.75L211.25 57.75Z" stroke="#FFFFFF" stroke-opacity="1.000000" stroke-width="1.000000"/>
		<path id="Vector" d="M218.95 57.75L218.95 60.42L212.63 60.42L212.63 57.75L218.95 57.75Z" stroke="#FFFFFF" stroke-opacity="1.000000" stroke-width="1.000000"/>
		<path id="Vector" d="M226.65 57.75L226.65 60.42L220.33 60.42L220.33 57.75L226.65 57.75Z" stroke="#FFFFFF" stroke-opacity="1.000000" stroke-width="1.000000"/>
		<path id="Vector" d="M234.35 57.75L234.35 60.42L228.03 60.42L228.03 57.75L234.35 57.75Z" stroke="#FFFFFF" stroke-opacity="1.000000" stroke-width="1.000000"/>
		<path id="Vector" d="M242.05 57.75L242.05 60.42L235.74 60.42L235.74 57.75L242.05 57.75Z" stroke="#FFFFFF" stroke-opacity="1.000000" stroke-width="1.000000"/>
		<path id="Vector" d="M249.75 57.75L249.75 60.42L243.44 60.42L243.44 57.75L249.75 57.75Z" stroke="#FFFFFF" stroke-opacity="1.000000" stroke-width="1.000000"/>
		<path id="Vector" d="M257.45 57.75L257.45 60.42L251.14 60.42L251.14 57.75L257.45 57.75Z" stroke="#FFFFFF" stroke-opacity="1.000000" stroke-width="1.000000"/>
		<path id="Vector" d="M265.16 57.75L265.16 60.42L258.84 60.42L258.84 57.75L265.16 57.75Z" stroke="#FFFFFF" stroke-opacity="1.000000" stroke-width="1.000000"/>
		<path id="Vector" d="M272.85 57.75L272.85 60.42L266.54 60.42L266.54 57.75L272.85 57.75Z" stroke="#FFFFFF" stroke-opacity="1.000000" stroke-width="1.000000"/>
		<path id="Vector" d="M280.56 57.75L280.56 60.42L274.24 60.42L274.24 57.75L280.56 57.75Z" stroke="#FFFFFF" stroke-opacity="1.000000" stroke-width="1.000000"/>
		<path id="Vector" d="M288.26 57.75L288.26 60.42L281.94 60.42L281.94 57.75L288.26 57.75Z" stroke="#FFFFFF" stroke-opacity="1.000000" stroke-width="1.000000"/>
		<path id="Vector" d="M295.96 57.75L295.96 60.42L289.64 60.42L289.64 57.75L295.96 57.75Z" stroke="#FFFFFF" stroke-opacity="1.000000" stroke-width="1.000000"/>
		<path id="Vector" d="M303.66 57.75L303.66 60.42L297.35 60.42L297.35 57.75L303.66 57.75Z" stroke="#FFFFFF" stroke-opacity="1.000000" stroke-width="1.000000"/>
		<path id="Vector" d="M311.36 57.75L311.36 60.42L305.04 60.42L305.04 57.75L311.36 57.75Z" stroke="#FFFFFF" stroke-opacity="1.000000" stroke-width="1.000000"/>
		<path id="Vector" d="M319.06 57.75L319.06 60.42L312.75 60.42L312.75 57.75L319.06 57.75Z" stroke="#FFFFFF" stroke-opacity="1.000000" stroke-width="1.000000"/>
		<path id="Vector" d="M326.76 57.75L326.76 60.42L320.45 60.42L320.45 57.75L326.76 57.75Z" stroke="#FFFFFF" stroke-opacity="1.000000" stroke-width="1.000000"/>
		<path id="Vector" d="M334.47 57.75L334.47 60.42L328.15 60.42L328.15 57.75L334.47 57.75Z" stroke="#FFFFFF" stroke-opacity="1.000000" stroke-width="1.000000"/>
		<path id="Vector" d="M342.17 57.75L342.17 60.42L335.85 60.42L335.85 57.75L342.17 57.75Z" stroke="#FFFFFF" stroke-opacity="1.000000" stroke-width="1.000000"/>
		<path id="Vector" d="M349.87 57.75L349.87 60.42L343.55 60.42L343.55 57.75L349.87 57.75Z" stroke="#FFFFFF" stroke-opacity="1.000000" stroke-width="1.000000"/>
		<path id="Vector" d="M357.57 57.75L357.57 60.42L351.25 60.42L351.25 57.75L357.57 57.75Z" stroke="#FFFFFF" stroke-opacity="1.000000" stroke-width="1.000000"/>
		<path id="Vector" d="M365.27 57.75L365.27 60.42L358.95 60.42L358.95 57.75L365.27 57.75Z" stroke="#FFFFFF" stroke-opacity="1.000000" stroke-width="1.000000"/>
		<path id="Vector" d="M372.97 57.75L372.97 60.42L366.66 60.42L366.66 57.75L372.97 57.75Z" stroke="#FFFFFF" stroke-opacity="1.000000" stroke-width="1.000000"/>
		<path id="Vector" d="M380.67 57.75L380.67 60.42L374.36 60.42L374.36 57.75L380.67 57.75Z" stroke="#FFFFFF" stroke-opacity="1.000000" stroke-width="1.000000"/>
		<path id="Vector" d="M388.37 57.75L388.37 60.42L382.06 60.42L382.06 57.75L388.37 57.75Z" stroke="#FFFFFF" stroke-opacity="1.000000" stroke-width="1.000000"/>
		<path id="Vector" d="M396.07 57.75L396.07 60.42L389.76 60.42L389.76 57.75L396.07 57.75Z" stroke="#FFFFFF" stroke-opacity="1.000000" stroke-width="1.000000"/>
		<path id="Vector" d="M403.78 57.75L403.78 60.42L397.46 60.42L397.46 57.75L403.78 57.75Z" stroke="#FFFFFF" stroke-opacity="1.000000" stroke-width="1.000000"/>
		<path id="Vector" d="M411.48 57.75L411.48 60.42L405.16 60.42L405.16 57.75L411.48 57.75Z" stroke="#FFFFFF" stroke-opacity="1.000000" stroke-width="1.000000"/>
		<path id="Vector" d="M419.18 57.75L419.18 60.42L412.86 60.42L412.86 57.75L419.18 57.75Z" stroke="#FFFFFF" stroke-opacity="1.000000" stroke-width="1.000000"/>
		<path id="Vector" d="M426.88 57.75L426.88 60.42L420.56 60.42L420.56 57.75L426.88 57.75Z" stroke="#FFFFFF" stroke-opacity="1.000000" stroke-width="1.000000"/>
		<path id="Vector" d="M434.58 57.75L434.58 60.42L428.27 60.42L428.27 57.75L434.58 57.75Z" stroke="#FFFFFF" stroke-opacity="1.000000" stroke-width="1.000000"/>
		<path id="Vector" d="M442.28 57.75L442.28 60.42L435.97 60.42L435.97 57.75L442.28 57.75Z" stroke="#FFFFFF" stroke-opacity="1.000000" stroke-width="1.000000"/>
		<path id="Vector" d="M449.98 57.75L449.98 60.42L443.67 60.42L443.67 57.75L449.98 57.75Z" stroke="#FFFFFF" stroke-opacity="1.000000" stroke-width="1.000000"/>
		<path id="Vector" d="M457.68 57.75L457.68 60.42L451.37 60.42L451.37 57.75L457.68 57.75Z" stroke="#FFFFFF" stroke-opacity="1.000000" stroke-width="1.000000"/>
		<path id="Vector" d="M465.38 57.75L465.38 60.42L459.07 60.42L459.07 57.75L465.38 57.75Z" stroke="#FFFFFF" stroke-opacity="1.000000" stroke-width="1.000000"/>
		<path id="Vector" d="M473.09 57.75L473.09 60.42L466.77 60.42L466.77 57.75L473.09 57.75Z" stroke="#FFFFFF" stroke-opacity="1.000000" stroke-width="1.000000"/>
		<path id="Vector" d="M480.79 57.75L480.79 60.42L474.47 60.42L474.47 57.75L480.79 57.75Z" stroke="#FFFFFF" stroke-opacity="1.000000" stroke-width="1.000000"/>
		<path id="Vector" d="M488.49 57.75L488.49 60.42L482.17 60.42L482.17 57.75L488.49 57.75Z" stroke="#FFFFFF" stroke-opacity="1.000000" stroke-width="1.000000"/>
		<path id="Vector" d="M496.19 57.75L496.19 60.42L489.87 60.42L489.87 57.75L496.19 57.75Z" stroke="#FFFFFF" stroke-opacity="1.000000" stroke-width="1.000000"/>
		<path id="Vector" d="M503.89 57.75L503.89 60.42L497.58 60.42L497.58 57.75L503.89 57.75Z" stroke="#FFFFFF" stroke-opacity="1.000000" stroke-width="1.000000"/>
		<path id="Vector" d="M60.12 53.85L60.12 55.19L61.7 55.19L61.7 56.04L64.6 56.04L64.6 54.95L65.78 54.95L65.78 53.85" stroke="#FFFFFF" stroke-opacity="1.000000" stroke-width="1.000000"/>
		<path id="Vector" d="M97.77 53.83L97.77 55.2L99.37 55.2L99.37 56.06L102.34 56.06L102.34 54.95L103.53 54.95L103.53 53.83" stroke="#FFFFFF" stroke-opacity="1.000000" stroke-width="1.000000"/>
		<path id="Vector" d="M123.44 53.83L123.44 55.2L125.04 55.2L125.04 56.06L128 56.06L128 54.95L129.2 54.95L129.2 53.83" stroke="#FFFFFF" stroke-opacity="1.000000" stroke-width="1.000000"/>
		<path id="Vector" d="M165.37 53.83L165.37 55.2L166.97 55.2L166.97 56.06L169.93 56.06L169.93 54.95L171.13 54.95L171.13 53.83" stroke="#FFFFFF" stroke-opacity="1.000000" stroke-width="1.000000"/>
		<path id="Vector" d="M206.45 53.83L206.45 55.2L208.05 55.2L208.05 56.06L211.01 56.06L211.01 54.95L212.2 54.95L212.2 53.83" stroke="#FFFFFF" stroke-opacity="1.000000" stroke-width="1.000000"/>
		<path id="Vector" d="M227.84 53.83L227.84 55.2L229.44 55.2L229.44 56.06L232.4 56.06L232.4 54.95L233.6 54.95L233.6 53.83" stroke="#FFFFFF" stroke-opacity="1.000000" stroke-width="1.000000"/>
		<path id="Vector" d="M250.71 53.83L250.71 55.2L253.39 55.2L253.39 56.06L258.34 56.06L258.34 54.95L260.35 54.95L260.35 53.83" stroke="#FFFFFF" stroke-opacity="1.000000" stroke-width="1.000000"/>
		<path id="Vector" d="M263.54 53.83L263.54 55.2L266.7 55.2L266.7 56.06L272.53 56.06L272.53 54.95L274.9 54.95L274.9 53.83" stroke="#FFFFFF" stroke-opacity="1.000000" stroke-width="1.000000"/>
		<path id="Vector" d="M310.84 53.83L310.84 55.2L312.44 55.2L312.44 56.06L315.4 56.06L315.4 54.95L316.6 54.95L316.6 53.83" stroke="#FFFFFF" stroke-opacity="1.000000" stroke-width="1.000000"/>
		<path id="Vector" d="M315.74 71.84L315.02 71.84L315.02 74.44L313.27 74.44L313.27 72.41L312.32 72.41L312.32 69.23L312.32 68.47L315.74 68.47L315.74 69.23L315.74 71.84Z" stroke="#FFFFFF" stroke-opacity="1.000000" stroke-width="1.000000"/>
		<path id="Vector" d="M339.7 71.84L338.98 71.84L338.98 74.44L337.23 74.44L337.23 72.41L336.28 72.41L336.28 69.23L336.28 68.47L339.7 68.47L339.7 69.23L339.7 71.84Z" stroke="#FFFFFF" stroke-opacity="1.000000" stroke-width="1.000000"/>
		<path id="Vector" d="M332.23 53.83L332.23 55.2L333.83 55.2L333.83 56.06L336.79 56.06L336.79 54.95L337.99 54.95L337.99 53.83" stroke="#FFFFFF" stroke-opacity="1.000000" stroke-width="1.000000"/>
		<path id="Vector" d="M373.3 53.83L373.3 55.2L374.9 55.2L374.9 56.06L377.86 56.06L377.86 54.95L379.06 54.95L379.06 53.83" stroke="#FFFFFF" stroke-opacity="1.000000" stroke-width="1.000000"/>
		<path id="Vector" d="M416.09 53.83L416.09 55.2L417.69 55.2L417.69 56.06L420.65 56.06L420.65 54.95L421.85 54.95L421.85 53.83" stroke="#FFFFFF" stroke-opacity="1.000000" stroke-width="1.000000"/>
		<path id="Vector" d="M433.2 53.83L433.2 55.2L434.8 55.2L434.8 56.06L437.76 56.06L437.76 54.95L438.96 54.95L438.96 53.83" stroke="#FFFFFF" stroke-opacity="1.000000" stroke-width="1.000000"/>
		<path id="Vector" d="M469.14 53.83L469.14 55.2L470.74 55.2L470.74 56.06L473.7 56.06L473.7 54.95L474.9 54.95L474.9 53.83" stroke="#FFFFFF" stroke-opacity="1.000000" stroke-width="1.000000"/>
		<path id="Vector" d="M498.23 53.83L498.23 55.2L501.26 55.2L501.26 56.06L506.85 56.06L506.85 54.95L509.13 54.95L509.13 53.83" stroke="#FFFFFF" stroke-opacity="1.000000" stroke-width="1.000000"/>
		<path id="Vector" d="M86.38 61.22L86.38 7.63L91 7.63L91 28.66" stroke="#FFFFFF" stroke-opacity="1.000000" stroke-width="1.000000"/>
		<path id="Vector" d="M88.69 7.27C86.8 7.27 85.26 5.74 85.26 3.85C85.26 1.96 86.8 0.42 88.69 0.42C90.58 0.42 92.11 1.96 92.11 3.85C92.11 5.74 90.58 7.27 88.69 7.27Z" stroke="#FFFFFF" stroke-opacity="1.000000" stroke-width="1.000000"/>
		<path id="Vector" d="M211.31 28.66L211.31 7.63L215.93 7.63L215.93 28.66" stroke="#FFFFFF" stroke-opacity="1.000000" stroke-width="1.000000"/>
		<path id="Vector" d="M213.62 7.27C211.73 7.27 210.19 5.74 210.19 3.85C210.19 1.96 211.73 0.42 213.62 0.42C215.51 0.42 217.04 1.96 217.04 3.85C217.04 5.74 215.51 7.27 213.62 7.27Z" stroke="#FFFFFF" stroke-opacity="1.000000" stroke-width="1.000000"/>
		<path id="Vector" d="M349.08 28.66L349.08 7.63L353.69 7.63L353.69 28.66" stroke="#FFFFFF" stroke-opacity="1.000000" stroke-width="1.000000"/>
		<path id="Vector" d="M351.38 7.27C349.49 7.27 347.96 5.74 347.96 3.85C347.96 1.96 349.49 0.42 351.38 0.42C353.27 0.42 354.8 1.96 354.8 3.85C354.8 5.74 353.27 7.27 351.38 7.27Z" stroke="#FFFFFF" stroke-opacity="1.000000" stroke-width="1.000000"/>
		<path id="Vector" d="M445.77 28.66L445.77 7.63L450.38 7.63L450.38 28.66" stroke="#FFFFFF" stroke-opacity="1.000000" stroke-width="1.000000"/>
		<path id="Vector" d="M448.07 7.27C446.18 7.27 444.65 5.74 444.65 3.85C444.65 1.96 446.18 0.42 448.07 0.42C449.96 0.42 451.5 1.96 451.5 3.85C451.5 5.74 449.96 7.27 448.07 7.27Z" stroke="#FFFFFF" stroke-opacity="1.000000" stroke-width="1.000000"/>
		<path id="Vector" d="M117.91 28.66L117.91 61.22" stroke="#FFFFFF" stroke-opacity="1.000000" stroke-width="1.000000"/>
		<path id="Vector" d="M111.76 38.24L117.91 34.43" stroke="#FFFFFF" stroke-opacity="1.000000" stroke-width="1.000000"/>
		<path id="Vector" d="M111.76 34.43L117.91 38.24" stroke="#FFFFFF" stroke-opacity="1.000000" stroke-width="1.000000"/>
		<path id="Vector" d="M111.76 45.72L117.91 45.72" stroke="#FFFFFF" stroke-opacity="1.000000" stroke-width="1.000000"/>
		<path id="Vector" d="M114.84 46.05L114.84 57.76" stroke="#FFFFFF" stroke-opacity="1.000000" stroke-width="1.000000"/>
		<path id="Vector" d="M217.01 28.66L217.01 53.85L119.28 53.85" stroke="#FFFFFF" stroke-opacity="1.000000" stroke-width="1.000000"/>
		<path id="Vector" d="M119.28 50.23L217.01 50.23" stroke="#FFFFFF" stroke-opacity="1.000000" stroke-width="1.000000"/>
		<path id="Vector" d="M119.28 46.81L217.01 46.81" stroke="#FFFFFF" stroke-opacity="1.000000" stroke-width="1.000000"/>
		<path id="Vector" d="M119.28 43.39L217.01 43.39" stroke="#FFFFFF" stroke-opacity="1.000000" stroke-width="1.000000"/>
		<path id="Vector" d="M119.28 39.97L217.01 39.97" stroke="#FFFFFF" stroke-opacity="1.000000" stroke-width="1.000000"/>
		<path id="Vector" d="M119.28 36.54L217.01 36.54" stroke="#FFFFFF" stroke-opacity="1.000000" stroke-width="1.000000"/>
		<path id="Vector" d="M119.28 33.12L217.01 33.12" stroke="#FFFFFF" stroke-opacity="1.000000" stroke-width="1.000000"/>
		<path id="Vector" d="M223.68 50.23L426.12 50.23" stroke="#FFFFFF" stroke-opacity="1.000000" stroke-width="1.000000"/>
		<path id="Vector" d="M223.68 53.66L426.12 53.66" stroke="#FFFFFF" stroke-opacity="1.000000" stroke-width="1.000000"/>
		<path id="Vector" d="M223.68 46.81L268.68 46.81" stroke="#FFFFFF" stroke-opacity="1.000000" stroke-width="1.000000"/>
		<path id="Vector" d="M223.68 43.39L268.68 43.39" stroke="#FFFFFF" stroke-opacity="1.000000" stroke-width="1.000000"/>
		<path id="Vector" d="M223.68 39.97L268.68 39.97" stroke="#FFFFFF" stroke-opacity="1.000000" stroke-width="1.000000"/>
		<path id="Vector" d="M223.68 36.54L268.68 36.54" stroke="#FFFFFF" stroke-opacity="1.000000" stroke-width="1.000000"/>
		<path id="Vector" d="M223.68 33.12L399.6 33.12" stroke="#FFFFFF" stroke-opacity="1.000000" stroke-width="1.000000"/>
		<path id="Vector" d="M395.67 46.81L440.67 46.81" stroke="#FFFFFF" stroke-opacity="1.000000" stroke-width="1.000000"/>
		<path id="Vector" d="M395.67 43.39L440.67 43.39" stroke="#FFFFFF" stroke-opacity="1.000000" stroke-width="1.000000"/>
		<path id="Vector" d="M395.67 39.97L440.67 39.97" stroke="#FFFFFF" stroke-opacity="1.000000" stroke-width="1.000000"/>
		<path id="Vector" d="M395.67 36.54L440.67 36.54" stroke="#FFFFFF" stroke-opacity="1.000000" stroke-width="1.000000"/>
		<path id="Vector" d="M426.13 33.12L440.67 33.12" stroke="#FFFFFF" stroke-opacity="1.000000" stroke-width="1.000000"/>
		<path id="Vector" d="M395.67 33.12L426.12 33.12" stroke="#FFFFFF" stroke-opacity="1.000000" stroke-width="1.000000"/>
		<path id="Vector" d="M223.16 28.66L223.16 61.22" stroke="#FFFFFF" stroke-opacity="1.000000" stroke-width="1.000000"/>
		<path id="Vector" d="M217.01 38.24L223.16 34.43" stroke="#FFFFFF" stroke-opacity="1.000000" stroke-width="1.000000"/>
		<path id="Vector" d="M217.01 34.43L223.16 38.24" stroke="#FFFFFF" stroke-opacity="1.000000" stroke-width="1.000000"/>
		<path id="Vector" d="M425.8 28.66L425.8 53.85L328.07 53.85" stroke="#FFFFFF" stroke-opacity="1.000000" stroke-width="1.000000"/>
		<path id="Vector" d="M328.07 50.23L425.8 50.23" stroke="#FFFFFF" stroke-opacity="1.000000" stroke-width="1.000000"/>
		<path id="Vector" d="M425.7 46.81L425.8 46.81" stroke="#FFFFFF" stroke-opacity="1.000000" stroke-width="1.000000"/>
		<path id="Vector" d="M425.7 43.39L425.8 43.39" stroke="#FFFFFF" stroke-opacity="1.000000" stroke-width="1.000000"/>
		<path id="Vector" d="M425.7 39.97L425.8 39.97" stroke="#FFFFFF" stroke-opacity="1.000000" stroke-width="1.000000"/>
		<path id="Vector" d="M425.7 36.54L425.8 36.54" stroke="#FFFFFF" stroke-opacity="1.000000" stroke-width="1.000000"/>
		<path id="Vector" d="M425.7 33.12L425.8 33.12" stroke="#FFFFFF" stroke-opacity="1.000000" stroke-width="1.000000"/>
		<path id="Vector" d="M432.47 50.23L518.54 50.23" stroke="#FFFFFF" stroke-opacity="1.000000" stroke-width="1.000000"/>
		<path id="Vector" d="M432.47 53.66L518.54 53.66" stroke="#FFFFFF" stroke-opacity="1.000000" stroke-width="1.000000"/>
		<path id="Vector" d="M432.47 46.81L510.84 46.81" stroke="#FFFFFF" stroke-opacity="1.000000" stroke-width="1.000000"/>
		<path id="Vector" d="M432.47 43.39L510.84 43.39" stroke="#FFFFFF" stroke-opacity="1.000000" stroke-width="1.000000"/>
		<path id="Vector" d="M432.47 39.97L510.84 39.97" stroke="#FFFFFF" stroke-opacity="1.000000" stroke-width="1.000000"/>
		<path id="Vector" d="M432.47 36.54L510.84 36.54" stroke="#FFFFFF" stroke-opacity="1.000000" stroke-width="1.000000"/>
		<path id="Vector" d="M432.47 33.12L510.84 33.12" stroke="#FFFFFF" stroke-opacity="1.000000" stroke-width="1.000000"/>
		<path id="Vector" d="M431.94 28.66L431.94 61.22" stroke="#FFFFFF" stroke-opacity="1.000000" stroke-width="1.000000"/>
		<path id="Vector" d="M425.8 38.24L431.94 34.43" stroke="#FFFFFF" stroke-opacity="1.000000" stroke-width="1.000000"/>
		<path id="Vector" d="M425.8 34.43L431.94 38.24" stroke="#FFFFFF" stroke-opacity="1.000000" stroke-width="1.000000"/>
		<path id="Vector" d="M220.94 46.05L220.94 57.76" stroke="#FFFFFF" stroke-opacity="1.000000" stroke-width="1.000000"/>
		<path id="Vector" d="M217.12 46.05L223.16 46.05" stroke="#FFFFFF" stroke-opacity="1.000000" stroke-width="1.000000"/>
		<path id="Vector" d="M321.18 28.66L321.18 32.94" stroke="#FFFFFF" stroke-opacity="1.000000" stroke-width="1.000000"/>
		<path id="Vector" d="M327.17 28.66L327.17 32.94" stroke="#FFFFFF" stroke-opacity="1.000000" stroke-width="1.000000"/>
		<path id="Vector" d="M321.18 47.95L321.18 50.23L321.18 53.66L322.12 57.75" stroke="#FFFFFF" stroke-opacity="1.000000" stroke-width="1.000000"/>
		<path id="Vector" d="M327.29 47.91L327.29 50.21L327.29 53.63L326.34 57.72" stroke="#FFFFFF" stroke-opacity="1.000000" stroke-width="1.000000"/>
		<path id="Vector" d="M510.84 28.66L510.84 50.23" stroke="#FFFFFF" stroke-opacity="1.000000" stroke-width="1.000000"/>
		<path id="Vector" d="M510.84 38.72L518.11 33.82" stroke="#FFFFFF" stroke-opacity="1.000000" stroke-width="1.000000"/>
		<path id="Vector" d="M510.84 33.82L518.11 38.72" stroke="#FFFFFF" stroke-opacity="1.000000" stroke-width="1.000000"/>
		<path id="Vector" d="M510.84 45.79L518.11 45.79" stroke="#FFFFFF" stroke-opacity="1.000000" stroke-width="1.000000"/>
		<path id="Vector" d="M514.97 45.79L514.97 56.84" stroke="#FFFFFF" stroke-opacity="1.000000" stroke-width="1.000000"/>
		<path id="Vector" d="M512.28 45.79L512.28 59.47L518.11 59.47" stroke="#FFFFFF" stroke-opacity="1.000000" stroke-width="1.000000"/>
		<path id="Vector" d="M400.32 122.27C386.22 122.27 374.78 110.84 374.78 96.73C374.78 89.33 377.93 82.66 382.97 77.99C383.89 77.13 384.89 76.34 385.94 75.62C390.03 72.82 394.99 71.2 400.32 71.2C414.42 71.2 425.86 82.63 425.86 96.73C425.86 110.84 414.42 122.27 400.32 122.27Z" stroke="#FFFFFF" stroke-opacity="1.000000" stroke-width="1.000000"/>
		<path id="Vector" d="M400.33 111C392.45 111 386.07 104.61 386.07 96.74C386.07 88.87 392.45 82.48 400.33 82.48C408.2 82.48 414.58 88.87 414.58 96.74C414.58 104.61 408.2 111 400.33 111Z" stroke="#FFFFFF" stroke-opacity="1.000000" stroke-width="1.000000"/>
		<path id="Vector" d="M400.33 108C394.11 108 389.07 102.96 389.07 96.74C389.07 90.52 394.11 85.48 400.33 85.48C406.55 85.48 411.59 90.52 411.59 96.74C411.59 102.96 406.55 108 400.33 108Z" stroke="#FFFFFF" stroke-opacity="1.000000" stroke-width="1.000000"/>
		<path id="Vector" d="M400.33 103.33C396.69 103.33 393.74 100.38 393.74 96.74C393.74 93.1 396.69 90.15 400.33 90.15C403.97 90.15 406.92 93.1 406.92 96.74C406.92 100.38 403.97 103.33 400.33 103.33Z" stroke="#FFFFFF" stroke-opacity="1.000000" stroke-width="1.000000"/>
		<path id="Vector" d="M397.91 90.25C397.41 90.25 397.01 89.84 397.01 89.35C397.01 88.85 397.41 88.45 397.91 88.45C398.4 88.45 398.81 88.85 398.81 89.35C398.81 89.84 398.4 90.25 397.91 90.25Z" stroke="#FFFFFF" stroke-opacity="1.000000" stroke-width="1.000000"/>
		<path id="Vector" d="M393.71 93.53C393.22 93.53 392.82 93.13 392.82 92.63C392.82 92.14 393.22 91.74 393.71 91.74C394.21 91.74 394.61 92.14 394.61 92.63C394.61 93.13 394.21 93.53 393.71 93.53Z" stroke="#FFFFFF" stroke-opacity="1.000000" stroke-width="1.000000"/>
		<path id="Vector" d="M392.63 98.73C392.13 98.73 391.73 98.33 391.73 97.83C391.73 97.34 392.13 96.94 392.63 96.94C393.12 96.94 393.53 97.34 393.53 97.83C393.53 98.33 393.12 98.73 392.63 98.73Z" stroke="#FFFFFF" stroke-opacity="1.000000" stroke-width="1.000000"/>
		<path id="Vector" d="M395.13 103.43C394.64 103.43 394.23 103.03 394.23 102.53C394.23 102.04 394.64 101.63 395.13 101.63C395.63 101.63 396.03 102.04 396.03 102.53C396.03 103.03 395.63 103.43 395.13 103.43Z" stroke="#FFFFFF" stroke-opacity="1.000000" stroke-width="1.000000"/>
		<path id="Vector" d="M400.07 105.41C399.57 105.41 399.17 105.01 399.17 104.51C399.17 104.01 399.57 103.61 400.07 103.61C400.57 103.61 400.97 104.01 400.97 104.51C400.97 105.01 400.57 105.41 400.07 105.41Z" stroke="#FFFFFF" stroke-opacity="1.000000" stroke-width="1.000000"/>
		<path id="Vector" d="M405.13 103.76C404.63 103.76 404.23 103.36 404.23 102.86C404.23 102.36 404.63 101.96 405.13 101.96C405.62 101.96 406.03 102.36 406.03 102.86C406.03 103.36 405.62 103.76 405.13 103.76Z" stroke="#FFFFFF" stroke-opacity="1.000000" stroke-width="1.000000"/>
		<path id="Vector" d="M407.94 99.24C407.45 99.24 407.05 98.84 407.05 98.34C407.05 97.84 407.45 97.44 407.94 97.44C408.44 97.44 408.84 97.84 408.84 98.34C408.84 98.84 408.44 99.24 407.94 99.24Z" stroke="#FFFFFF" stroke-opacity="1.000000" stroke-width="1.000000"/>
		<path id="Vector" d="M407.18 93.97C406.68 93.97 406.28 93.56 406.28 93.07C406.28 92.57 406.68 92.17 407.18 92.17C407.68 92.17 408.08 92.57 408.08 93.07C408.08 93.56 407.68 93.97 407.18 93.97Z" stroke="#FFFFFF" stroke-opacity="1.000000" stroke-width="1.000000"/>
		<path id="Vector" d="M403.22 90.42C402.72 90.42 402.32 90.01 402.32 89.52C402.32 89.02 402.72 88.62 403.22 88.62C403.72 88.62 404.12 89.02 404.12 89.52C404.12 90.01 403.72 90.42 403.22 90.42Z" stroke="#FFFFFF" stroke-opacity="1.000000" stroke-width="1.000000"/>
		<path id="Vector" d="M461.07 122.27C446.97 122.27 435.53 110.84 435.53 96.73C435.53 89.33 438.69 82.66 443.72 77.99C444.64 77.13 445.64 76.34 446.7 75.62C450.79 72.82 455.74 71.2 461.07 71.2C475.17 71.2 486.61 82.63 486.61 96.73C486.61 110.84 475.17 122.27 461.07 122.27Z" stroke="#FFFFFF" stroke-opacity="1.000000" stroke-width="1.000000"/>
		<path id="Vector" d="M461.08 111C453.21 111 446.82 104.61 446.82 96.74C446.82 88.87 453.21 82.48 461.08 82.48C468.95 82.48 475.33 88.87 475.33 96.74C475.33 104.61 468.95 111 461.08 111Z" stroke="#FFFFFF" stroke-opacity="1.000000" stroke-width="1.000000"/>
		<path id="Vector" d="M461.08 108C454.86 108 449.82 102.96 449.82 96.74C449.82 90.52 454.86 85.48 461.08 85.48C467.3 85.48 472.34 90.52 472.34 96.74C472.34 102.96 467.3 108 461.08 108Z" stroke="#FFFFFF" stroke-opacity="1.000000" stroke-width="1.000000"/>
		<path id="Vector" d="M461.08 103.33C457.44 103.33 454.49 100.38 454.49 96.74C454.49 93.1 457.44 90.15 461.08 90.15C464.72 90.15 467.67 93.1 467.67 96.74C467.67 100.38 464.72 103.33 461.08 103.33Z" stroke="#FFFFFF" stroke-opacity="1.000000" stroke-width="1.000000"/>
		<path id="Vector" d="M458.66 90.25C458.16 90.25 457.76 89.84 457.76 89.35C457.76 88.85 458.16 88.45 458.66 88.45C459.16 88.45 459.56 88.85 459.56 89.35C459.56 89.84 459.16 90.25 458.66 90.25Z" stroke="#FFFFFF" stroke-opacity="1.000000" stroke-width="1.000000"/>
		<path id="Vector" d="M454.47 93.53C453.97 93.53 453.57 93.13 453.57 92.63C453.57 92.14 453.97 91.74 454.47 91.74C454.96 91.74 455.37 92.14 455.37 92.63C455.37 93.13 454.96 93.53 454.47 93.53Z" stroke="#FFFFFF" stroke-opacity="1.000000" stroke-width="1.000000"/>
		<path id="Vector" d="M453.38 98.73C452.88 98.73 452.48 98.33 452.48 97.83C452.48 97.34 452.88 96.94 453.38 96.94C453.88 96.94 454.28 97.34 454.28 97.83C454.28 98.33 453.88 98.73 453.38 98.73Z" stroke="#FFFFFF" stroke-opacity="1.000000" stroke-width="1.000000"/>
		<path id="Vector" d="M455.89 103.43C455.39 103.43 454.99 103.03 454.99 102.53C454.99 102.04 455.39 101.63 455.89 101.63C456.38 101.63 456.78 102.04 456.78 102.53C456.78 103.03 456.38 103.43 455.89 103.43Z" stroke="#FFFFFF" stroke-opacity="1.000000" stroke-width="1.000000"/>
		<path id="Vector" d="M460.82 105.41C460.33 105.41 459.92 105.01 459.92 104.51C459.92 104.01 460.33 103.61 460.82 103.61C461.32 103.61 461.72 104.01 461.72 104.51C461.72 105.01 461.32 105.41 460.82 105.41Z" stroke="#FFFFFF" stroke-opacity="1.000000" stroke-width="1.000000"/>
		<path id="Vector" d="M465.88 103.76C465.38 103.76 464.98 103.36 464.98 102.86C464.98 102.36 465.38 101.96 465.88 101.96C466.38 101.96 466.78 102.36 466.78 102.86C466.78 103.36 466.38 103.76 465.88 103.76Z" stroke="#FFFFFF" stroke-opacity="1.000000" stroke-width="1.000000"/>
		<path id="Vector" d="M468.7 99.24C468.2 99.24 467.8 98.84 467.8 98.34C467.8 97.84 468.2 97.44 468.7 97.44C469.19 97.44 469.59 97.84 469.59 98.34C469.59 98.84 469.19 99.24 468.7 99.24Z" stroke="#FFFFFF" stroke-opacity="1.000000" stroke-width="1.000000"/>
		<path id="Vector" d="M467.93 93.97C467.44 93.97 467.03 93.56 467.03 93.07C467.03 92.57 467.44 92.17 467.93 92.17C468.43 92.17 468.83 92.57 468.83 93.07C468.83 93.56 468.43 93.97 467.93 93.97Z" stroke="#FFFFFF" stroke-opacity="1.000000" stroke-width="1.000000"/>
		<path id="Vector" d="M463.97 90.42C463.48 90.42 463.08 90.01 463.08 89.52C463.08 89.02 463.48 88.62 463.97 88.62C464.47 88.62 464.87 89.02 464.87 89.52C464.87 90.01 464.47 90.42 463.97 90.42Z" stroke="#FFFFFF" stroke-opacity="1.000000" stroke-width="1.000000"/>
		<path id="Vector" d="M127.92 61.22L157.87 64.6L169.58 69.46L504.27 69.46L504.42 69.46C504.42 69.46 506.13 66.19 509.13 66.19C512.12 66.19 513.2 69.46 513.2 69.46L513.2 99.24L508.42 99.24L504.27 69.46" stroke="#FFFFFF" stroke-opacity="1.000000" stroke-width="1.000000"/>
		<path id="Vector" d="M172.74 61.22L172.74 90.27L183.77 90.27L183.77 61.22" stroke="#FFFFFF" stroke-opacity="1.000000" stroke-width="1.000000"/>
		<path id="Vector" d="M174.12 61.22L174.12 67.96L182.68 67.96L182.68 61.22" stroke="#FFFFFF" stroke-opacity="1.000000" stroke-width="1.000000"/>
		<path id="Vector" d="M175.53 69.46L175.53 85.99L181.29 85.99L181.29 69.46" stroke="#FFFFFF" stroke-opacity="1.000000" stroke-width="1.000000"/>
		<path id="Vector" d="M177.55 63.74L179.26 63.74" stroke="#FFFFFF" stroke-opacity="1.000000" stroke-width="1.000000"/>
		<path id="Vector" d="M173.83 90.27L173.83 94.84L182.68 94.84L182.68 90.27" stroke="#FFFFFF" stroke-opacity="1.000000" stroke-width="1.000000"/>
		<path id="Vector" d="M183.77 75.75L186.11 79.15L186.11 99.85L365.27 99.85L365.27 93.97L351.65 93.97L351.65 82.49L365.27 82.49L365.27 77.73L351.25 77.73L351.25 69.46" stroke="#FFFFFF" stroke-opacity="1.000000" stroke-width="1.000000"/>
		<path id="Vector" d="M198.09 70.59C197.14 70.59 196.37 69.44 196.37 68.02C196.37 66.61 197.14 65.46 198.09 65.46C199.03 65.46 199.8 66.61 199.8 68.02C199.8 69.44 199.03 70.59 198.09 70.59Z" stroke="#FFFFFF" stroke-opacity="1.000000" stroke-width="1.000000"/>
		<path id="Vector" d="M196.37 69.46L196.37 95.41L199.8 95.41L199.8 69.46" stroke="#FFFFFF" stroke-opacity="1.000000" stroke-width="1.000000"/>
		<path id="Vector" d="M254.56 70.59C253.61 70.59 252.85 69.44 252.85 68.02C252.85 66.61 253.61 65.46 254.56 65.46C255.5 65.46 256.27 66.61 256.27 68.02C256.27 69.44 255.5 70.59 254.56 70.59Z" stroke="#FFFFFF" stroke-opacity="1.000000" stroke-width="1.000000"/>
		<path id="Vector" d="M252.85 69.46L252.85 95.4L256.27 95.4L256.27 69.46" stroke="#FFFFFF" stroke-opacity="1.000000" stroke-width="1.000000"/>
		<path id="Vector" d="M263.12 70.59C262.17 70.59 261.41 69.44 261.41 68.02C261.41 66.61 262.17 65.46 263.12 65.46C264.06 65.46 264.83 66.61 264.83 68.02C264.83 69.44 264.06 70.59 263.12 70.59Z" stroke="#FFFFFF" stroke-opacity="1.000000" stroke-width="1.000000"/>
		<path id="Vector" d="M261.41 69.46L261.41 95.4L264.83 95.4L264.83 69.46" stroke="#FFFFFF" stroke-opacity="1.000000" stroke-width="1.000000"/>
		<path id="Vector" d="M301.62 70.59C300.68 70.59 299.91 69.44 299.91 68.02C299.91 66.61 300.68 65.46 301.62 65.46C302.57 65.46 303.34 66.61 303.34 68.02C303.34 69.44 302.57 70.59 301.62 70.59Z" stroke="#FFFFFF" stroke-opacity="1.000000" stroke-width="1.000000"/>
		<path id="Vector" d="M299.91 69.46L299.91 95.41L303.34 95.41L303.34 69.46" stroke="#FFFFFF" stroke-opacity="1.000000" stroke-width="1.000000"/>
		<path id="Vector" d="M349.54 70.59C348.6 70.59 347.83 69.44 347.83 68.02C347.83 66.61 348.6 65.46 349.54 65.46C350.49 65.46 351.25 66.61 351.25 68.02C351.25 69.44 350.49 70.59 349.54 70.59Z" stroke="#FFFFFF" stroke-opacity="1.000000" stroke-width="1.000000"/>
		<path id="Vector" d="M347.83 69.46L347.83 95.4L351.25 95.4L351.25 69.46" stroke="#FFFFFF" stroke-opacity="1.000000" stroke-width="1.000000"/>
		<path id="Vector" d="M183.77 70.59L188.67 78.29L308.2 78.29L308.2 83.43L191.24 83.43L191.24 99.85" stroke="#FFFFFF" stroke-opacity="1.000000" stroke-width="1.000000"/>
		<path id="Vector" d="M191.24 83.42L191.24 78.29" stroke="#FFFFFF" stroke-opacity="1.000000" stroke-width="1.000000"/>
		<path id="Vector" d="M244.5 71.45C249.11 71.45 252.85 75.18 252.85 79.79L252.85 81.07C252.85 85.68 249.11 89.42 244.5 89.42L208.14 89.42C203.53 89.42 199.8 85.68 199.8 81.07L199.8 79.79C199.8 75.18 203.53 71.45 208.14 71.45L244.5 71.45Z" stroke="#FFFFFF" stroke-opacity="1.000000" stroke-width="1.000000"/>
		<path id="Vector" d="M220.33 69.46L220.33 71.45" stroke="#FFFFFF" stroke-opacity="1.000000" stroke-width="1.000000"/>
		<path id="Vector" d="M232.74 69.46L232.74 71.45" stroke="#FFFFFF" stroke-opacity="1.000000" stroke-width="1.000000"/>
		<path id="Vector" d="M202.09 74.05L250.71 74.05" stroke="#FFFFFF" stroke-opacity="1.000000" stroke-width="1.000000"/>
		<path id="Vector" d="M351.65 93.97L191.24 93.97" stroke="#FFFFFF" stroke-opacity="1.000000" stroke-width="1.000000"/>
		<path id="Vector" d="M351.65 95.68L191.24 95.68" stroke="#FFFFFF" stroke-opacity="1.000000" stroke-width="1.000000"/>
		<path id="Vector" d="M258.84 78.72L258.84 83.85" stroke="#FFFFFF" stroke-opacity="1.000000" stroke-width="1.000000"/>
		<path id="Vector" d="M292.2 69.73C295.04 69.73 297.34 72.04 297.34 74.88L297.34 85.98C297.34 88.82 295.04 91.13 292.2 91.13L269.97 91.13C267.13 91.13 264.83 88.82 264.83 85.98L264.83 74.88C264.83 72.04 267.13 69.73 269.97 69.73L292.2 69.73Z" stroke="#FFFFFF" stroke-opacity="1.000000" stroke-width="1.000000"/>
		<path id="Vector" d="M291.62 69.46L291.62 93.97" stroke="#FFFFFF" stroke-opacity="1.000000" stroke-width="1.000000"/>
		<path id="Vector" d="M273.63 69.46L286.58 61.22" stroke="#FFFFFF" stroke-opacity="1.000000" stroke-width="1.000000"/>
		<path id="Vector" d="M288.48 61.22L294.89 69.46L294.89 93.97" stroke="#FFFFFF" stroke-opacity="1.000000" stroke-width="1.000000"/>
		<path id="Vector" d="M308.2 69.46L308.2 90.15L343.55 90.15L343.55 69.46" stroke="#FFFFFF" stroke-opacity="1.000000" stroke-width="1.000000"/>
		<path id="Vector" d="M349.54 53.85L349.54 57.75" stroke="#FFFFFF" stroke-opacity="1.000000" stroke-width="1.000000"/>
		<path id="Vector" d="M355.06 53.85L355.06 57.75" stroke="#FFFFFF" stroke-opacity="1.000000" stroke-width="1.000000"/>
		<path id="Vector" d="M368.52 61.22L371.79 80" stroke="#FFFFFF" stroke-opacity="1.000000" stroke-width="1.000000"/>
		<path id="Vector" d="M379.8 61.22L369.22 85.99L371.79 87.71L382.89 61.22" stroke="#FFFFFF" stroke-opacity="1.000000" stroke-width="1.000000"/>
		<path id="Vector" d="M400.03 115.09C390.1 115.09 382.06 107.04 382.06 97.12C382.06 87.19 390.1 79.15 400.03 79.15C409.95 79.15 418 87.19 418 97.12C418 107.04 409.95 115.09 400.03 115.09Z" stroke="#FFFFFF" stroke-opacity="1.000000" stroke-width="1.000000"/>
		<path id="Vector" d="M461.64 115.09C451.71 115.09 443.67 107.04 443.67 97.12C443.67 87.19 451.71 79.15 461.64 79.15C471.56 79.15 479.61 87.19 479.61 97.12C479.61 107.04 471.56 115.09 461.64 115.09Z" stroke="#FFFFFF" stroke-opacity="1.000000" stroke-width="1.000000"/>
		<path id="Vector" d="M392.92 61.22L392.92 69.46" stroke="#FFFFFF" stroke-opacity="1.000000" stroke-width="1.000000"/>
		<path id="Vector" d="M415.16 61.22L415.16 69.46" stroke="#FFFFFF" stroke-opacity="1.000000" stroke-width="1.000000"/>
		<path id="Vector" d="M432.28 61.22L432.28 69.46" stroke="#FFFFFF" stroke-opacity="1.000000" stroke-width="1.000000"/>
		<path id="Vector" d="M446.82 61.22L446.82 69.46" stroke="#FFFFFF" stroke-opacity="1.000000" stroke-width="1.000000"/>
		<path id="Vector" d="M419.18 79.51C419.18 79.51 427.15 74.87 430.83 74.87C434.52 74.87 442.57 79.15 442.57 79.15" stroke="#FFFFFF" stroke-opacity="1.000000" stroke-width="1.000000"/>
		<path id="Vector" d="M425.61 100.34C425.61 100.34 430.67 105.47 435.79 100.34" stroke="#FFFFFF" stroke-opacity="1.000000" stroke-width="1.000000"/>
		<path id="Vector" d="M430.83 93.69C429.41 93.69 428.26 92.54 428.26 91.13C428.26 89.71 429.41 88.56 430.83 88.56C432.25 88.56 433.4 89.71 433.4 91.13C433.4 92.54 432.25 93.69 430.83 93.69Z" stroke="#FFFFFF" stroke-opacity="1.000000" stroke-width="1.000000"/>
		<path id="Vector" d="M428.53 75.25L424.69 89.07" stroke="#FFFFFF" stroke-opacity="1.000000" stroke-width="1.000000"/>
		<path id="Vector" d="M432.28 75.03L436.71 89.07" stroke="#FFFFFF" stroke-opacity="1.000000" stroke-width="1.000000"/>
		<path id="Vector" d="M410.98 69.46L410.98 73.53" stroke="#FFFFFF" stroke-opacity="1.000000" stroke-width="1.000000"/>
		<path id="Vector" d="M418 69.46L417.78 78.1" stroke="#FFFFFF" stroke-opacity="1.000000" stroke-width="1.000000"/>
		<path id="Vector" d="M426.61 69.46L426.61 75.91" stroke="#FFFFFF" stroke-opacity="1.000000" stroke-width="1.000000"/>
		<path id="Vector" d="M435.25 69.46L435.25 75.88" stroke="#FFFFFF" stroke-opacity="1.000000" stroke-width="1.000000"/>
		<path id="Vector" d="M443.67 69.46L443.67 77.99" stroke="#FFFFFF" stroke-opacity="1.000000" stroke-width="1.000000"/>
		<path id="Vector" d="M450.38 69.46L450.38 73.54" stroke="#FFFFFF" stroke-opacity="1.000000" stroke-width="1.000000"/>
		<path id="Vector" d="M479.13 61.22L489.02 85.99L492.44 85.99L482.66 61.22" stroke="#FFFFFF" stroke-opacity="1.000000" stroke-width="1.000000"/>
		<path id="Vector" d="M491.59 85.99L500.06 102.53" stroke="#FFFFFF" stroke-opacity="1.000000" stroke-width="1.000000"/>
		<path id="Vector" d="M492.44 61.22L489.63 78.89" stroke="#FFFFFF" stroke-opacity="1.000000" stroke-width="1.000000"/>
		<path id="Vector" d="M473.7 69.46C473.7 69.46 478.07 76.08 483.11 71.2" stroke="#FFFFFF" stroke-opacity="1.000000" stroke-width="1.000000"/>
		<path id="Vector" d="M513.2 71.23L516.48 71.23L516.48 77.18L513.2 77.18" stroke="#FFFFFF" stroke-opacity="1.000000" stroke-width="1.000000"/>
		<path id="Vector" d="M513.2 87.32L516.48 87.32L516.48 94.84L518.11 94.84L518.11 99.24L513.2 99.24" stroke="#FFFFFF" stroke-opacity="1.000000" stroke-width="1.000000"/>
		<path id="Vector" d="M513.2 95.23L518.11 95.23" stroke="#FFFFFF" stroke-opacity="1.000000" stroke-width="1.000000"/>
		<path id="Vector" d="M506.38 84.54L513.2 84.54" stroke="#FFFFFF" stroke-opacity="1.000000" stroke-width="1.000000"/>
		<path id="Vector" d="M507.06 89.4L513.2 87.73" stroke="#FFFFFF" stroke-opacity="1.000000" stroke-width="1.000000"/>
		<path id="Vector" d="M507.69 93.97L513.2 93.97" stroke="#FFFFFF" stroke-opacity="1.000000" stroke-width="1.000000"/>
		<path id="Vector" d="M509.55 69.73L509.55 71.44L507.84 71.44L507.84 69.73L509.55 69.73Z" stroke="#FFFFFF" stroke-opacity="1.000000" stroke-width="1.000000"/>
		<path id="Vector" d="M509.55 73.16L509.55 74.87L507.84 74.87L507.84 73.16L509.55 73.16Z" stroke="#FFFFFF" stroke-opacity="1.000000" stroke-width="1.000000"/>
		<path id="Vector" d="M509.55 76.58L509.55 78.29L507.84 78.29L507.84 76.58L509.55 76.58Z" stroke="#FFFFFF" stroke-opacity="1.000000" stroke-width="1.000000"/>
		<path id="Vector" d="M509.55 80L509.55 81.71L507.84 81.71L507.84 80L509.55 80Z" stroke="#FFFFFF" stroke-opacity="1.000000" stroke-width="1.000000"/>
		<path id="Vector" d="M506.52 67.08L502.64 61.22" stroke="#FFFFFF" stroke-opacity="1.000000" stroke-width="1.000000"/>
		<path id="Vector" d="M512.77 68.56L515.89 68.56L515.89 61.22" stroke="#FFFFFF" stroke-opacity="1.000000" stroke-width="1.000000"/>
		<path id="Vector" d="M5.63 28.66L10.26 11.65" stroke="#FFFFFF" stroke-opacity="1.000000" stroke-width="1.000000"/>
		<path id="Vector" d="M303.33 88.36L343.55 88.36" stroke="#FFFFFF" stroke-opacity="1.000000" stroke-width="1.000000"/>
		<path id="Vector" d="M325.87 88.36L325.87 84.96" stroke="#FFFFFF" stroke-opacity="1.000000" stroke-width="1.000000"/>
		<path id="Vector" d="M322.1 84.96L330.2 84.96" stroke="#FFFFFF" stroke-opacity="1.000000" stroke-width="1.000000"/>
	</g>
</svg>
