<svg width="498.579956" height="210.000000" viewBox="0 0 498.58 210" fill="none" xmlns="http://www.w3.org/2000/svg" xmlns:xlink="http://www.w3.org/1999/xlink">
	<desc>
			Created with Pixso.
	</desc>
	<defs>
		<clipPath id="clip546_5189">
			<rect id="самосвал svg copy expand123 1" rx="-0.500000" width="497.579956" height="209.000000" transform="translate(0.500000 0.500000)" fill="white" fill-opacity="0"/>
		</clipPath>
	</defs>
	<rect id="самосвал svg copy expand123 1" rx="-0.500000" width="497.579956" height="209.000000" transform="translate(0.500000 0.500000)" fill="#FFFFFF" fill-opacity="0"/>
	<g clip-path="url(#clip546_5189)">
		<path id="Vector" d="M135.54 122.01L108.86 122.01L108.86 120.85L134.38 120.85L134.38 108.9L132.68 108.9L132.68 107.73L135.54 107.73L135.54 122.01Z" fill="#FFFFFF" fill-opacity="1.000000" fill-rule="nonzero"/>
		<path id="Vector" d="" fill="#FFFFFF" fill-opacity="0" fill-rule="evenodd"/>
		<path id="Vector" d="M131.56 95.94L118.25 82.64L119.08 81.82L123.85 86.59L123.88 65.22L121.2 62.53L121.24 29.32C121.32 29.12 123.27 24.56 128.08 24.56C132.89 24.56 134.78 29.05 134.85 29.25L134.89 29.47L134.89 62.86L131.57 66.18L131.57 95.96L131.56 95.94ZM125.01 87.76L130.39 93.14L130.39 65.69L133.72 62.37L133.72 29.58C133.43 28.96 131.78 25.72 128.07 25.72C124.36 25.72 122.65 29.03 122.36 29.66L122.36 62.05L125.06 64.75L125.02 87.76L125.01 87.76Z" fill="#FFFFFF" fill-opacity="1.000000" fill-rule="nonzero"/>
		<path id="Vector" d="" fill="#FFFFFF" fill-opacity="0" fill-rule="evenodd"/>
		<path id="Vector" d="M119.23 27.55L118.08 27.42C119.06 18.55 110.48 15.26 109.51 14.91C106.48 15 41.94 16.96 34.54 16.96C32.75 16.96 31.33 17.53 30.32 18.64C27.99 21.2 28.41 25.79 28.41 25.84L27.25 25.94C27.22 25.73 26.78 20.79 29.46 17.86C30.7 16.49 32.41 15.79 34.54 15.79C42.06 15.79 108.91 13.77 109.58 13.75L109.67 13.75L109.77 13.77C109.87 13.81 120.37 17.26 119.23 27.55Z" fill="#FFFFFF" fill-opacity="1.000000" fill-rule="nonzero"/>
		<path id="Vector" d="" fill="#FFFFFF" fill-opacity="0" fill-rule="evenodd"/>
		<path id="Vector" d="M29.51 25.93C29.51 25.82 29.51 25.19 30.19 24.43C31.35 23.13 34.49 21.51 42.8 21.14C55.63 20.58 104.19 19.11 104.68 19.1C105.13 19.15 113.29 20.41 113.62 25.86L112.45 25.93C112.19 21.42 104.69 20.27 104.61 20.26C104.22 20.28 55.66 21.75 42.85 22.32C30.94 22.84 30.66 25.86 30.66 25.9L29.5 25.94L29.51 25.93Z" fill="#FFFFFF" fill-opacity="1.000000" fill-rule="nonzero"/>
		<path id="Vector" d="" fill="#FFFFFF" fill-opacity="0" fill-rule="evenodd"/>
		<path id="Vector" d="M14.77 34.37C14.56 34.37 9.73 34.28 8.3 31.63C7.58 30.29 7.87 28.62 9.13 26.64C13.59 19.72 27.82 20.29 28.42 20.33L28.36 21.49C28.22 21.49 14.2 20.92 10.11 27.27C9.09 28.86 8.82 30.14 9.32 31.08C10.23 32.78 13.57 33.2 14.78 33.21L14.78 34.37L14.77 34.37Z" fill="#FFFFFF" fill-opacity="1.000000" fill-rule="nonzero"/>
		<path id="Vector" d="" fill="#FFFFFF" fill-opacity="0" fill-rule="evenodd"/>
		<path id="Vector" d="M10.21 26.98L9.05 26.94C9.05 26.69 9.28 20.5 14.42 16.78C18.85 13.59 25.44 13.27 34.04 15.85L33.7 16.97C25.48 14.5 19.22 14.75 15.11 17.72C10.44 21.1 10.21 26.92 10.2 26.98L10.21 26.98Z" fill="#FFFFFF" fill-opacity="1.000000" fill-rule="nonzero"/>
		<path id="Vector" d="" fill="#FFFFFF" fill-opacity="0" fill-rule="evenodd"/>
		<path id="Vector" d="M5.46 45C4.94 45 4.39 44.93 3.85 44.79C1.98 44.29 0.55 42.98 0.12 41.37C-0.33 39.69 0.34 37.85 2.01 36.18C3.91 34.27 5.83 33.4 7.74 33.58C9.7 33.78 11.07 35.06 11.69 35.78L14.33 33.77L15.04 34.7L12.43 36.67C12.78 37.44 13.23 39.64 9.57 43.29C8.46 44.41 6.99 45 5.45 45L5.46 45ZM7.25 34.72C5.83 34.72 4.34 35.49 2.84 37C1.46 38.38 0.91 39.79 1.26 41.07C1.59 42.28 2.7 43.27 4.17 43.66C5.85 44.12 7.58 43.66 8.77 42.46C11.5 39.73 11.6 38.08 11.47 37.41L11.13 36.91C11.13 36.91 9.78 34.94 7.63 34.73C7.51 34.72 7.39 34.71 7.26 34.71L7.25 34.72Z" fill="#FFFFFF" fill-opacity="1.000000" fill-rule="nonzero"/>
		<path id="Vector" d="" fill="#FFFFFF" fill-opacity="0" fill-rule="evenodd"/>
		<path id="Vector" d="M6.6 76.69L6.53 75.53C15.7 75.02 22.07 70.4 25.42 49C26.6 41.53 25.75 36.22 22.9 33.22C20.19 30.35 16.52 30.69 16.48 30.69L16.36 29.54C16.54 29.51 20.62 29.13 23.74 32.41C26.85 35.69 27.8 41.33 26.58 49.18C23.54 68.59 18.13 76.05 6.61 76.69L6.6 76.69Z" fill="#FFFFFF" fill-opacity="1.000000" fill-rule="nonzero"/>
		<path id="Vector" d="" fill="#FFFFFF" fill-opacity="0" fill-rule="evenodd"/>
		<path id="Vector" d="M12.03 81.75L0.86 81.75L0.86 74.37L2.55 74.37C2.97 69 8.03 65.38 8.25 65.23L8.91 66.18C8.91 66.18 3.76 69.87 3.69 74.96L3.69 75.53L2.02 75.53L2.02 80.59L10.87 80.59L10.87 75.42L12.03 75.42L12.03 81.75Z" fill="#FFFFFF" fill-opacity="1.000000" fill-rule="nonzero"/>
		<path id="Vector" d="" fill="#FFFFFF" fill-opacity="0" fill-rule="evenodd"/>
		<path id="Vector" d="M22.94 81.02L25.2 50.43C25.22 49.43 25.76 31.08 35.71 31.08L87.7 31.08L87.7 71.89L22.94 81L22.94 81.02ZM35.71 32.25C26.83 32.25 26.37 50.29 26.36 50.46L26.36 50.5L24.21 79.67L86.54 70.89L86.54 32.25L35.71 32.25Z" fill="#FFFFFF" fill-opacity="1.000000" fill-rule="nonzero"/>
		<path id="Vector" d="" fill="#FFFFFF" fill-opacity="0" fill-rule="evenodd"/>
		<path id="Vector" d="M36.11 73.32L35.74 72.19L35.87 72.17C45.14 70.8 61.69 68.52 69.08 68.52C77.76 68.52 79.88 64.87 80.17 64.29L80.17 45.14C80.17 37.09 76.78 36.63 76.75 36.63L43.02 36.63L43.02 35.47L76.81 35.47C77.04 35.48 81.33 35.92 81.33 45.14L81.3 64.6C81.23 64.81 79.37 69.68 69.08 69.68C61.5 69.68 43.5 72.23 36.11 73.31L36.11 73.32Z" fill="#FFFFFF" fill-opacity="1.000000" fill-rule="nonzero"/>
		<path id="Vector" d="" fill="#FFFFFF" fill-opacity="0" fill-rule="evenodd"/>
		<path id="Vector" d="M32.79 74.52C32.51 74.52 32.23 74.49 31.94 74.44C29.34 73.96 27.34 71.29 26.32 66.9C25.34 62.69 25.35 57.35 26.36 51.86C27.37 46.37 29.27 41.37 31.69 37.79C34.2 34.07 37.02 32.28 39.63 32.77C44.91 33.75 47.36 43.66 45.2 55.35C43.15 66.41 37.81 74.52 32.77 74.52L32.79 74.52ZM38.83 33.85C36.87 33.85 34.66 35.49 32.66 38.44C30.33 41.9 28.5 46.74 27.51 52.08C26.53 57.42 26.5 62.59 27.46 66.65C28.35 70.48 30.06 72.91 32.15 73.3C36.63 74.12 42.09 65.81 44.07 55.13C46.05 44.45 43.92 34.73 39.43 33.9C39.23 33.86 39.02 33.84 38.83 33.84L38.83 33.85Z" fill="#FFFFFF" fill-opacity="1.000000" fill-rule="nonzero"/>
		<path id="Vector" d="" fill="#FFFFFF" fill-opacity="0" fill-rule="evenodd"/>
		<path id="Vector" d="M35.35 73.44L34.19 73.44L34.19 78.76L35.35 78.76L35.35 73.44Z" fill="#FFFFFF" fill-opacity="1.000000" fill-rule="nonzero"/>
		<path id="Vector" d="" fill="#FFFFFF" fill-opacity="0" fill-rule="evenodd"/>
		<path id="Vector" d="M31.14 73.25L29.98 73.25L29.98 79.35L31.14 79.35L31.14 73.25Z" fill="#FFFFFF" fill-opacity="1.000000" fill-rule="nonzero"/>
		<path id="Vector" d="" fill="#FFFFFF" fill-opacity="0" fill-rule="evenodd"/>
		<path id="Vector" d="M28.16 86.16C26.97 86.16 26.2 86.06 26.17 86.05L25.67 85.98L25.67 79.96L26.83 79.96L26.83 84.95C29.09 85.11 38.31 85.27 41.05 77.61L42.14 77.99C39.56 85.25 31.85 86.14 28.16 86.14L28.16 86.16Z" fill="#FFFFFF" fill-opacity="1.000000" fill-rule="nonzero"/>
		<path id="Vector" d="" fill="#FFFFFF" fill-opacity="0" fill-rule="evenodd"/>
		<path id="Vector" d="M118.66 28.42L37.69 28.42L37.69 29.58L118.66 29.58L118.66 28.42Z" fill="#FFFFFF" fill-opacity="1.000000" fill-rule="nonzero"/>
		<path id="Vector" d="" fill="#FFFFFF" fill-opacity="0" fill-rule="evenodd"/>
		<path id="Vector" d="M87.7 25.9L86.54 25.9L86.54 31.66L87.7 31.66L87.7 25.9Z" fill="#FFFFFF" fill-opacity="1.000000" fill-rule="nonzero"/>
		<path id="Vector" d="" fill="#FFFFFF" fill-opacity="0" fill-rule="evenodd"/>
		<path id="Vector" d="M88.78 67.91L88.2 67.91L88.2 30.47L106.32 30.47L106.32 59.04C106.22 59.4 104.08 67.91 88.78 67.91ZM89.36 31.63L89.36 66.74C102.68 66.54 104.93 59.61 105.15 58.83L105.15 31.63L89.36 31.63Z" fill="#FFFFFF" fill-opacity="1.000000" fill-rule="nonzero"/>
		<path id="Vector" d="" fill="#FFFFFF" fill-opacity="0" fill-rule="evenodd"/>
		<path id="Vector" d="M113.63 27.49L112.47 27.49L112.47 88.38L113.63 88.38L113.63 27.49Z" fill="#FFFFFF" fill-opacity="1.000000" fill-rule="nonzero"/>
		<path id="Vector" d="" fill="#FFFFFF" fill-opacity="0" fill-rule="evenodd"/>
		<path id="Vector" d="M54.79 157.98L53.63 157.98L53.63 142.67C53.66 142.32 56.68 113.58 87.11 113.58L87.11 114.74C57.75 114.74 54.89 141.59 54.78 142.73L54.78 157.99L54.79 157.98Z" fill="#FFFFFF" fill-opacity="1.000000" fill-rule="nonzero"/>
		<path id="Vector" d="" fill="#FFFFFF" fill-opacity="0" fill-rule="evenodd"/>
		<path id="Vector" d="M8.45 119.75C6.09 119.75 4.45 119.43 3.59 118.77C3.06 118.36 2.98 117.95 2.97 117.84L2.97 91.71C3.09 91.06 13.31 38 14.35 32.91C15.47 27.47 23.25 25.42 23.58 25.34L23.72 25.32L113.63 25.32L113.63 26.91L119.24 26.91L119.24 94.17L133.26 94.05L133.26 117.95L118.08 117.95L118.08 28.07L112.47 28.07L112.47 26.48L23.82 26.48C23.07 26.69 16.43 28.65 15.5 33.14C14.46 38.23 4.24 91.28 4.13 91.82L4.13 117.69C4.31 117.93 5.94 119.66 17.48 117.6L17.52 117.56L17.79 117.56C19.31 117.26 20.79 116.95 22.26 116.63L22.51 117.77C21.08 118.08 19.63 118.38 18.06 118.67L17.88 118.72C14.03 119.41 10.87 119.75 8.46 119.75L8.45 119.75ZM119.24 116.79L132.1 116.79L132.1 95.21L119.24 95.32L119.24 116.78L119.24 116.79Z" fill="#FFFFFF" fill-opacity="1.000000" fill-rule="nonzero"/>
		<path id="Vector" d="" fill="#FFFFFF" fill-opacity="0" fill-rule="evenodd"/>
		<path id="Vector" d="M56.94 158.56L31.19 158.56L31.19 156.43L24.58 156.43L22.46 158.56L4.42 158.56L4.42 145.6L2.84 145.6L2.84 138.9L4.34 138.9L4.34 135.36L3.05 135.36L2.98 134.86C2.97 134.76 2.68 132.46 2.98 126.27C3.19 121.91 10.94 119.16 17.47 117.63L17.52 117.57L17.71 117.57C19.89 117.05 21.67 116.73 22.31 116.64L22.69 117.74L22.54 117.78C22.47 117.79 20.7 118.06 18.07 118.67L17.9 118.72C9.28 120.72 4.27 123.5 4.15 126.32C3.92 130.81 4.03 133.24 4.1 134.21L5.51 134.21L5.51 140.08L4.01 140.08L4.01 144.45L5.59 144.45L5.59 157.41L21.97 157.41L24.1 155.28L32.35 155.28L32.35 157.41L56.94 157.41L56.94 158.57L56.94 158.56Z" fill="#FFFFFF" fill-opacity="1.000000" fill-rule="nonzero"/>
		<path id="Vector" d="" fill="#FFFFFF" fill-opacity="0" fill-rule="evenodd"/>
		<path id="Vector" d="M65.07 160.68L56.36 160.68L56.36 140.41L144.17 140.41L144.17 141.58L57.52 141.58L57.52 159.52L65.07 159.52L65.07 160.68Z" fill="#FFFFFF" fill-opacity="1.000000" fill-rule="nonzero"/>
		<path id="Vector" d="" fill="#FFFFFF" fill-opacity="0" fill-rule="evenodd"/>
		<path id="Vector" d="M168.98 160.68L120.08 160.68L120.08 159.52L167.82 159.52L167.82 141.58L158.53 141.58L158.53 140.41L168.98 140.41L168.98 160.68Z" fill="#FFFFFF" fill-opacity="1.000000" fill-rule="nonzero"/>
		<path id="Vector" d="" fill="#FFFFFF" fill-opacity="0" fill-rule="evenodd"/>
		<path id="Vector" d="M12.68 117.39L5.96 117.39L7.6 85.86L18.96 83.18L21.36 86.12L21.36 114.58L12.69 117.39L12.68 117.39ZM7.18 116.23L12.49 116.23L20.19 113.73L20.19 86.54L18.5 84.48L8.7 86.79L7.18 116.23Z" fill="#FFFFFF" fill-opacity="1.000000" fill-rule="nonzero"/>
		<path id="Vector" d="" fill="#FFFFFF" fill-opacity="0" fill-rule="evenodd"/>
		<path id="Vector" d="M12.92 85.34L11.76 85.35L12 116.82L13.17 116.81L12.92 85.34Z" fill="#FFFFFF" fill-opacity="1.000000" fill-rule="nonzero"/>
		<path id="Vector" d="" fill="#FFFFFF" fill-opacity="0" fill-rule="evenodd"/>
		<path id="Vector" d="M20.04 68.54L19.38 69.5L23.86 72.58L24.52 71.63L20.04 68.54Z" fill="#FFFFFF" fill-opacity="1.000000" fill-rule="nonzero"/>
		<path id="Vector" d="" fill="#FFFFFF" fill-opacity="0" fill-rule="evenodd"/>
		<path id="Vector" d="M56.94 146.73L51.01 146.73L51.01 146.14C51.24 118.79 73.32 108.76 73.54 108.65L74.01 109.72C73.8 109.81 52.71 119.43 52.18 145.58L56.94 145.58L56.94 146.74L56.94 146.73Z" fill="#FFFFFF" fill-opacity="1.000000" fill-rule="nonzero"/>
		<path id="Vector" d="" fill="#FFFFFF" fill-opacity="0" fill-rule="evenodd"/>
		<path id="Vector" d="M32.84 147.98L18.6 147.98L18.6 117.82L19.76 117.82L19.76 146.82L31.68 146.82L31.68 116.06L32.84 116.06L32.84 147.98Z" fill="#FFFFFF" fill-opacity="1.000000" fill-rule="nonzero"/>
		<path id="Vector" d="" fill="#FFFFFF" fill-opacity="0" fill-rule="evenodd"/>
		<path id="Vector" d="M32.26 123.57L4.44 123.57L4.44 124.73L32.26 124.73L32.26 123.57Z" fill="#FFFFFF" fill-opacity="1.000000" fill-rule="nonzero"/>
		<path id="Vector" d="" fill="#FFFFFF" fill-opacity="0" fill-rule="evenodd"/>
		<path id="Vector" d="M22.78 123.58L3.3 128.98L3.61 130.1L23.09 124.7L22.78 123.58Z" fill="#FFFFFF" fill-opacity="1.000000" fill-rule="nonzero"/>
		<path id="Vector" d="" fill="#FFFFFF" fill-opacity="0" fill-rule="evenodd"/>
		<path id="Vector" d="M49.22 155.6L13.45 155.6L13.9 154.75C16.32 150.16 16.95 145.95 15.76 142.24C14.09 136.98 9.31 134.53 9.26 134.51L8.95 134.35L8.95 127.87L10.11 127.87L10.11 133.64C11.28 134.31 15.29 136.93 16.88 141.88C18.09 145.67 17.59 149.89 15.38 154.43L48.08 154.43L48.08 147.98L19.18 147.98L19.18 146.82L49.22 146.82L49.22 155.6Z" fill="#FFFFFF" fill-opacity="1.000000" fill-rule="nonzero"/>
		<path id="Vector" d="" fill="#FFFFFF" fill-opacity="0" fill-rule="evenodd"/>
		<path id="Vector" d="M14.41 154.43L5.01 154.43L5.01 155.6L14.41 155.6L14.41 154.43Z" fill="#FFFFFF" fill-opacity="1.000000" fill-rule="nonzero"/>
		<path id="Vector" d="" fill="#FFFFFF" fill-opacity="0" fill-rule="evenodd"/>
		<path id="Vector" d="M25.79 147.4L24.63 147.4L24.63 155.02L25.79 155.02L25.79 147.4Z" fill="#FFFFFF" fill-opacity="1.000000" fill-rule="nonzero"/>
		<path id="Vector" d="" fill="#FFFFFF" fill-opacity="0" fill-rule="evenodd"/>
		<path id="Vector" d="M23.51 124.43L22.35 124.43L22.35 147.4L23.51 147.4L23.51 124.43Z" fill="#FFFFFF" fill-opacity="1.000000" fill-rule="nonzero"/>
		<path id="Vector" d="" fill="#FFFFFF" fill-opacity="0" fill-rule="evenodd"/>
		<path id="Vector" d="M26.58 124.43L25.42 124.43L25.42 147.4L26.58 147.4L26.58 124.43Z" fill="#FFFFFF" fill-opacity="1.000000" fill-rule="nonzero"/>
		<path id="Vector" d="" fill="#FFFFFF" fill-opacity="0" fill-rule="evenodd"/>
		<path id="Vector" d="M29.96 124.43L28.79 124.43L28.79 147.4L29.96 147.4L29.96 124.43Z" fill="#FFFFFF" fill-opacity="1.000000" fill-rule="nonzero"/>
		<path id="Vector" d="" fill="#FFFFFF" fill-opacity="0" fill-rule="evenodd"/>
		<path id="Vector" d="M26 134.61L22.93 134.61L22.93 135.78L26 135.78L26 134.61Z" fill="#FFFFFF" fill-opacity="1.000000" fill-rule="nonzero"/>
		<path id="Vector" d="" fill="#FFFFFF" fill-opacity="0" fill-rule="evenodd"/>
		<path id="Vector" d="M26 128.47L22.93 128.47L22.93 129.64L26 129.64L26 128.47Z" fill="#FFFFFF" fill-opacity="1.000000" fill-rule="nonzero"/>
		<path id="Vector" d="" fill="#FFFFFF" fill-opacity="0" fill-rule="evenodd"/>
		<path id="Vector" d="M26 125.93L22.93 125.93L22.93 127.09L26 127.09L26 125.93Z" fill="#FFFFFF" fill-opacity="1.000000" fill-rule="nonzero"/>
		<path id="Vector" d="" fill="#FFFFFF" fill-opacity="0" fill-rule="evenodd"/>
		<path id="Vector" d="M29.37 126.18L29.37 125.02L32.45 125.02L60.14 119.79L60.36 120.94L32.56 126.17L29.37 126.18Z" fill="#FFFFFF" fill-opacity="1.000000" fill-rule="nonzero"/>
		<path id="Vector" d="" fill="#FFFFFF" fill-opacity="0" fill-rule="evenodd"/>
		<path id="Vector" d="M22.67 126.85L19.6 126.85L19.6 128.01L22.67 128.01L22.67 126.85Z" fill="#FFFFFF" fill-opacity="1.000000" fill-rule="nonzero"/>
		<path id="Vector" d="" fill="#FFFFFF" fill-opacity="0" fill-rule="evenodd"/>
		<path id="Vector" d="M29.07 136.5L29.07 135.33L32.14 135.33L53.75 131.66L53.95 132.8L32.25 136.48L29.07 136.5Z" fill="#FFFFFF" fill-opacity="1.000000" fill-rule="nonzero"/>
		<path id="Vector" d="" fill="#FFFFFF" fill-opacity="0" fill-rule="evenodd"/>
		<path id="Vector" d="M29.37 133.24L29.37 132.08L32.45 132.08L55.4 127.49L55.64 128.63L32.56 133.23L29.37 133.24Z" fill="#FFFFFF" fill-opacity="1.000000" fill-rule="nonzero"/>
		<path id="Vector" d="" fill="#FFFFFF" fill-opacity="0" fill-rule="evenodd"/>
		<path id="Vector" d="M26 139.01L22.93 139.01L22.93 140.17L26 140.17L26 139.01Z" fill="#FFFFFF" fill-opacity="1.000000" fill-rule="nonzero"/>
		<path id="Vector" d="" fill="#FFFFFF" fill-opacity="0" fill-rule="evenodd"/>
		<path id="Vector" d="M29.65 116.58L28.49 116.58L28.49 124.15L29.65 124.15L29.65 116.58Z" fill="#FFFFFF" fill-opacity="1.000000" fill-rule="nonzero"/>
		<path id="Vector" d="" fill="#FFFFFF" fill-opacity="0" fill-rule="evenodd"/>
		<path id="Vector" d="M64.06 115.49L32.17 120.18L32.34 121.33L64.23 116.64L64.06 115.49Z" fill="#FFFFFF" fill-opacity="1.000000" fill-rule="nonzero"/>
		<path id="Vector" d="" fill="#FFFFFF" fill-opacity="0" fill-rule="evenodd"/>
		<path id="Vector" d="M51.8 141.77L32.26 141.77L32.26 142.94L51.8 142.94L51.8 141.77Z" fill="#FFFFFF" fill-opacity="1.000000" fill-rule="nonzero"/>
		<path id="Vector" d="" fill="#FFFFFF" fill-opacity="0" fill-rule="evenodd"/>
		<path id="Vector" d="M23 118.17L23 81.04L5.19 84.4L4.97 83.25L24.17 79.63L24.17 116.8L73.68 108.62L87.12 108.61L87.12 109.77L73.77 109.77L23 118.17Z" fill="#FFFFFF" fill-opacity="1.000000" fill-rule="nonzero"/>
		<path id="Vector" d="" fill="#FFFFFF" fill-opacity="0" fill-rule="evenodd"/>
		<path id="Vector" d="M92.57 210C74.42 210 59.66 195.23 59.66 177.08C59.66 158.93 74.42 144.17 92.57 144.17C110.72 144.17 125.49 158.93 125.49 177.08C125.49 195.23 110.72 210 92.57 210ZM92.57 145.33C75.06 145.33 60.82 159.57 60.82 177.08C60.82 194.59 75.06 208.83 92.57 208.83C110.08 208.83 124.32 194.59 124.32 177.08C124.32 159.57 110.08 145.33 92.57 145.33Z" fill="#FFFFFF" fill-opacity="1.000000" fill-rule="nonzero"/>
		<path id="Vector" d="" fill="#FFFFFF" fill-opacity="0" fill-rule="evenodd"/>
		<path id="Vector" d="M92.57 195.71C82.31 195.71 73.95 187.35 73.95 177.08C73.95 166.82 82.31 158.46 92.57 158.46C102.84 158.46 111.2 166.82 111.2 177.08C111.2 187.35 102.84 195.71 92.57 195.71ZM92.57 159.62C82.95 159.62 75.11 167.46 75.11 177.08C75.11 186.71 82.95 194.54 92.57 194.54C102.2 194.54 110.04 186.71 110.04 177.08C110.04 167.46 102.2 159.62 92.57 159.62Z" fill="#FFFFFF" fill-opacity="1.000000" fill-rule="nonzero"/>
		<path id="Vector" d="" fill="#FFFFFF" fill-opacity="0" fill-rule="evenodd"/>
		<path id="Vector" d="M92.57 191.92C84.39 191.92 77.74 185.27 77.74 177.08C77.74 168.9 84.39 162.25 92.57 162.25C100.76 162.25 107.41 168.9 107.41 177.08C107.41 185.27 100.76 191.92 92.57 191.92ZM92.57 163.41C85.04 163.41 78.9 169.55 78.9 177.08C78.9 184.62 85.04 190.75 92.57 190.75C100.11 190.75 106.25 184.62 106.25 177.08C106.25 169.55 100.11 163.41 92.57 163.41Z" fill="#FFFFFF" fill-opacity="1.000000" fill-rule="nonzero"/>
		<path id="Vector" d="" fill="#FFFFFF" fill-opacity="0" fill-rule="evenodd"/>
		<path id="Vector" d="M92.57 186.01C87.65 186.01 83.66 182.01 83.66 177.09C83.66 172.18 87.65 168.18 92.57 168.18C97.49 168.18 101.49 172.18 101.49 177.09C101.49 182.01 97.49 186.01 92.57 186.01ZM92.57 169.33C88.29 169.33 84.82 172.8 84.82 177.08C84.82 181.36 88.29 184.84 92.57 184.84C96.85 184.84 100.33 181.36 100.33 177.08C100.33 172.8 96.85 169.33 92.57 169.33Z" fill="#FFFFFF" fill-opacity="1.000000" fill-rule="nonzero"/>
		<path id="Vector" d="" fill="#FFFFFF" fill-opacity="0" fill-rule="evenodd"/>
		<path id="Vector" d="M89.52 169.44C88.57 169.44 87.79 168.68 87.79 167.72C87.79 166.77 88.56 166 89.52 166C90.47 166 91.24 166.77 91.24 167.72C91.24 168.68 90.47 169.44 89.52 169.44ZM89.52 167.17C89.21 167.17 88.96 167.41 88.96 167.72C88.96 168.04 89.2 168.28 89.52 168.28C89.83 168.28 90.07 168.04 90.07 167.72C90.07 167.41 89.83 167.17 89.52 167.17Z" fill="#FFFFFF" fill-opacity="1.000000" fill-rule="nonzero"/>
		<path id="Vector" d="" fill="#FFFFFF" fill-opacity="0" fill-rule="evenodd"/>
		<path id="Vector" d="M84.21 173.61C84.21 173.61 84.11 173.61 84.06 173.61C83.61 173.57 83.19 173.35 82.9 173C82.61 172.65 82.47 172.2 82.5 171.75C82.54 171.29 82.76 170.87 83.11 170.58C83.46 170.29 83.9 170.14 84.36 170.19C84.82 170.22 85.24 170.44 85.53 170.79C85.82 171.14 85.96 171.59 85.92 172.05C85.89 172.5 85.67 172.92 85.32 173.21C85 173.48 84.62 173.62 84.21 173.62L84.21 173.61ZM83.78 172.25C83.88 172.36 84.02 172.43 84.16 172.44C84.31 172.46 84.45 172.41 84.56 172.32C84.68 172.22 84.75 172.08 84.76 171.94C84.77 171.79 84.73 171.65 84.63 171.54C84.54 171.42 84.4 171.35 84.26 171.34C84.11 171.34 83.97 171.37 83.85 171.47C83.74 171.56 83.67 171.7 83.66 171.84C83.64 171.99 83.69 172.13 83.78 172.25Z" fill="#FFFFFF" fill-opacity="1.000000" fill-rule="nonzero"/>
		<path id="Vector" d="" fill="#FFFFFF" fill-opacity="0" fill-rule="evenodd"/>
		<path id="Vector" d="M82.83 180.2C82.73 180.2 82.63 180.2 82.53 180.17C82.07 180.09 81.68 179.85 81.42 179.47C81.17 179.08 81.06 178.63 81.14 178.19C81.23 177.73 81.47 177.34 81.85 177.08C82.23 176.82 82.68 176.71 83.13 176.79C84.06 176.95 84.69 177.85 84.53 178.78C84.45 179.23 84.2 179.63 83.82 179.9C83.53 180.09 83.19 180.21 82.84 180.21L82.83 180.2ZM82.83 177.92C82.71 177.92 82.61 177.95 82.52 178.02C82.4 178.11 82.32 178.23 82.28 178.38C82.26 178.54 82.28 178.68 82.38 178.8C82.46 178.92 82.59 179 82.74 179.04C82.88 179.06 83.03 179.04 83.16 178.94C83.27 178.86 83.35 178.73 83.39 178.58C83.45 178.28 83.24 177.99 82.93 177.94C82.9 177.94 82.87 177.94 82.84 177.94L82.83 177.92Z" fill="#FFFFFF" fill-opacity="1.000000" fill-rule="nonzero"/>
		<path id="Vector" d="" fill="#FFFFFF" fill-opacity="0" fill-rule="evenodd"/>
		<path id="Vector" d="M86 186.14C85.85 186.14 85.7 186.12 85.55 186.08C85.11 185.96 84.74 185.67 84.5 185.28C84.27 184.88 84.21 184.42 84.33 183.98C84.45 183.53 84.74 183.16 85.13 182.93C85.53 182.7 85.99 182.64 86.43 182.76C86.88 182.87 87.25 183.16 87.48 183.56C87.96 184.38 87.67 185.43 86.85 185.91C86.59 186.06 86.29 186.14 85.99 186.14L86 186.14ZM86 183.86C85.91 183.86 85.82 183.88 85.72 183.93C85.6 184 85.5 184.13 85.47 184.27C85.43 184.41 85.45 184.56 85.53 184.69C85.61 184.81 85.72 184.91 85.86 184.94C86 184.98 86.16 184.96 86.28 184.88C86.55 184.73 86.64 184.38 86.49 184.13C86.42 184 86.29 183.91 86.16 183.87C86.11 183.86 86.06 183.85 86.02 183.85L86 183.86Z" fill="#FFFFFF" fill-opacity="1.000000" fill-rule="nonzero"/>
		<path id="Vector" d="" fill="#FFFFFF" fill-opacity="0" fill-rule="evenodd"/>
		<path id="Vector" d="M92.26 188.65C92.06 188.65 91.86 188.62 91.68 188.55C91.25 188.39 90.9 188.07 90.71 187.66C90.51 187.24 90.5 186.78 90.65 186.35C90.81 185.92 91.13 185.57 91.54 185.38C91.96 185.19 92.42 185.17 92.85 185.33C93.28 185.48 93.63 185.8 93.82 186.21C94.01 186.63 94.03 187.09 93.87 187.52C93.62 188.22 92.96 188.65 92.26 188.65ZM92.26 186.37C92.18 186.37 92.1 186.38 92.03 186.42C91.89 186.48 91.79 186.59 91.74 186.73C91.68 186.87 91.69 187.02 91.76 187.16C91.82 187.3 91.93 187.39 92.07 187.45C92.36 187.56 92.68 187.41 92.78 187.12C92.83 186.98 92.83 186.82 92.76 186.69C92.7 186.55 92.58 186.45 92.44 186.39C92.39 186.37 92.32 186.36 92.25 186.36L92.26 186.37Z" fill="#FFFFFF" fill-opacity="1.000000" fill-rule="nonzero"/>
		<path id="Vector" d="" fill="#FFFFFF" fill-opacity="0" fill-rule="evenodd"/>
		<path id="Vector" d="M98.65 186.55C98.41 186.55 98.15 186.49 97.93 186.38C97.51 186.19 97.2 185.85 97.05 185.42C96.72 184.53 97.19 183.55 98.07 183.22C98.97 182.9 99.96 183.36 100.28 184.24C100.44 184.67 100.42 185.14 100.22 185.56C100.03 185.98 99.69 186.29 99.26 186.44C99.06 186.51 98.86 186.55 98.66 186.55L98.65 186.55ZM98.65 184.27C98.59 184.27 98.53 184.27 98.47 184.3C98.18 184.41 98.03 184.73 98.13 185.01C98.18 185.15 98.28 185.27 98.42 185.33C98.56 185.38 98.71 185.39 98.85 185.35C98.99 185.3 99.11 185.2 99.16 185.06C99.22 184.92 99.23 184.77 99.19 184.63C99.11 184.41 98.9 184.27 98.66 184.27L98.65 184.27Z" fill="#FFFFFF" fill-opacity="1.000000" fill-rule="nonzero"/>
		<path id="Vector" d="" fill="#FFFFFF" fill-opacity="0" fill-rule="evenodd"/>
		<path id="Vector" d="M102.21 180.83C101.92 180.83 101.63 180.76 101.35 180.59C100.96 180.36 100.66 179.99 100.55 179.55C100.43 179.11 100.49 178.64 100.72 178.25C101.2 177.42 102.25 177.14 103.07 177.62C103.9 178.09 104.18 179.14 103.7 179.97C103.39 180.51 102.8 180.83 102.21 180.83ZM102.21 178.55C102.01 178.55 101.83 178.65 101.72 178.83C101.57 179.09 101.66 179.43 101.93 179.58C102.2 179.73 102.54 179.64 102.69 179.37C102.84 179.11 102.75 178.77 102.48 178.62C102.39 178.57 102.29 178.55 102.2 178.55L102.21 178.55Z" fill="#FFFFFF" fill-opacity="1.000000" fill-rule="nonzero"/>
		<path id="Vector" d="" fill="#FFFFFF" fill-opacity="0" fill-rule="evenodd"/>
		<path id="Vector" d="M101.26 174.16C100.91 174.16 100.57 174.06 100.27 173.85C99.9 173.58 99.64 173.19 99.56 172.75C99.48 172.29 99.58 171.84 99.84 171.47C100.1 171.1 100.5 170.84 100.94 170.76C101.39 170.68 101.85 170.78 102.22 171.04C102.59 171.3 102.85 171.7 102.93 172.15C103.09 173.08 102.47 173.98 101.54 174.14C101.43 174.16 101.34 174.16 101.23 174.16L101.26 174.16ZM101.26 171.89C101.26 171.89 101.19 171.89 101.16 171.89C101.01 171.91 100.89 171.99 100.8 172.12C100.72 172.25 100.69 172.39 100.71 172.54C100.73 172.69 100.82 172.82 100.94 172.9C101.06 172.98 101.21 173.01 101.36 172.99C101.66 172.93 101.86 172.65 101.82 172.35C101.79 172.2 101.71 172.07 101.58 171.99C101.49 171.92 101.37 171.89 101.27 171.89L101.26 171.89Z" fill="#FFFFFF" fill-opacity="1.000000" fill-rule="nonzero"/>
		<path id="Vector" d="" fill="#FFFFFF" fill-opacity="0" fill-rule="evenodd"/>
		<path id="Vector" d="M96.25 169.66C95.86 169.66 95.47 169.54 95.14 169.27C94.42 168.65 94.32 167.57 94.93 166.85C95.54 166.13 96.63 166.03 97.35 166.64C97.7 166.93 97.92 167.35 97.96 167.8C97.99 168.26 97.85 168.71 97.56 169.06C97.22 169.47 96.73 169.68 96.25 169.68L96.25 169.66ZM95.82 167.6C95.62 167.83 95.65 168.18 95.89 168.37C96.12 168.57 96.48 168.54 96.67 168.3C96.76 168.19 96.8 168.05 96.79 167.9C96.78 167.75 96.71 167.62 96.6 167.53C96.36 167.33 96 167.36 95.8 167.6L95.82 167.6Z" fill="#FFFFFF" fill-opacity="1.000000" fill-rule="nonzero"/>
		<path id="Vector" d="" fill="#FFFFFF" fill-opacity="0" fill-rule="evenodd"/>
		<path id="Vector" d="M310.94 210C292.79 210 278.03 195.23 278.03 177.08C278.03 158.93 292.79 144.17 310.94 144.17C329.09 144.17 343.86 158.93 343.86 177.08C343.86 195.23 329.09 210 310.94 210ZM310.94 145.33C293.44 145.33 279.19 159.57 279.19 177.08C279.19 194.59 293.44 208.83 310.94 208.83C328.45 208.83 342.69 194.59 342.69 177.08C342.69 159.57 328.45 145.33 310.94 145.33Z" fill="#FFFFFF" fill-opacity="1.000000" fill-rule="nonzero"/>
		<path id="Vector" d="" fill="#FFFFFF" fill-opacity="0" fill-rule="evenodd"/>
		<path id="Vector" d="M310.94 195.71C300.68 195.71 292.32 187.35 292.32 177.08C292.32 166.82 300.68 158.46 310.94 158.46C321.21 158.46 329.57 166.82 329.57 177.08C329.57 187.35 321.21 195.71 310.94 195.71ZM310.94 159.62C301.32 159.62 293.48 167.46 293.48 177.08C293.48 186.71 301.32 194.54 310.94 194.54C320.57 194.54 328.41 186.71 328.41 177.08C328.41 167.46 320.57 159.62 310.94 159.62Z" fill="#FFFFFF" fill-opacity="1.000000" fill-rule="nonzero"/>
		<path id="Vector" d="" fill="#FFFFFF" fill-opacity="0" fill-rule="evenodd"/>
		<path id="Vector" d="M310.94 191.92C302.76 191.92 296.11 185.27 296.11 177.08C296.11 168.9 302.76 162.25 310.94 162.25C319.13 162.25 325.78 168.9 325.78 177.08C325.78 185.27 319.13 191.92 310.94 191.92ZM310.94 163.41C303.4 163.41 297.27 169.55 297.27 177.08C297.27 184.62 303.41 190.75 310.94 190.75C318.48 190.75 324.62 184.62 324.62 177.08C324.62 169.55 318.48 163.41 310.94 163.41Z" fill="#FFFFFF" fill-opacity="1.000000" fill-rule="nonzero"/>
		<path id="Vector" d="" fill="#FFFFFF" fill-opacity="0" fill-rule="evenodd"/>
		<path id="Vector" d="M310.94 186.01C306.03 186.01 302.03 182.01 302.03 177.09C302.03 172.18 306.03 168.18 310.94 168.18C315.86 168.18 319.86 172.18 319.86 177.09C319.86 182.01 315.86 186.01 310.94 186.01ZM310.94 169.33C306.67 169.33 303.19 172.8 303.19 177.08C303.19 181.36 306.67 184.84 310.94 184.84C315.22 184.84 318.7 181.36 318.7 177.08C318.7 172.8 315.22 169.33 310.94 169.33Z" fill="#FFFFFF" fill-opacity="1.000000" fill-rule="nonzero"/>
		<path id="Vector" d="" fill="#FFFFFF" fill-opacity="0" fill-rule="evenodd"/>
		<path id="Vector" d="M307.89 169.44C306.94 169.44 306.17 168.68 306.17 167.72C306.17 166.77 306.93 166 307.89 166C308.84 166 309.61 166.77 309.61 167.72C309.61 168.68 308.84 169.44 307.89 169.44ZM307.89 167.17C307.58 167.17 307.33 167.41 307.33 167.72C307.33 168.04 307.57 168.28 307.89 168.28C308.2 168.28 308.44 168.04 308.44 167.72C308.44 167.41 308.2 167.17 307.89 167.17Z" fill="#FFFFFF" fill-opacity="1.000000" fill-rule="nonzero"/>
		<path id="Vector" d="" fill="#FFFFFF" fill-opacity="0" fill-rule="evenodd"/>
		<path id="Vector" d="M302.58 173.61C302.58 173.61 302.48 173.61 302.43 173.61C301.98 173.57 301.56 173.35 301.27 173C300.98 172.65 300.83 172.2 300.88 171.75C300.92 171.29 301.13 170.87 301.48 170.58C301.83 170.29 302.27 170.14 302.74 170.19C303.19 170.22 303.61 170.44 303.9 170.79C304.5 171.53 304.41 172.61 303.69 173.21C303.38 173.47 302.99 173.62 302.58 173.62L302.58 173.61ZM302.58 171.33C302.46 171.33 302.33 171.37 302.22 171.46C302.11 171.55 302.04 171.69 302.03 171.83C302.01 171.98 302.06 172.12 302.15 172.23C302.25 172.35 302.39 172.42 302.53 172.43C302.68 172.43 302.82 172.4 302.93 172.3C303.05 172.21 303.12 172.07 303.13 171.93C303.14 171.78 303.1 171.64 303 171.53C302.91 171.41 302.77 171.34 302.63 171.33C302.62 171.33 302.6 171.33 302.58 171.33Z" fill="#FFFFFF" fill-opacity="1.000000" fill-rule="nonzero"/>
		<path id="Vector" d="" fill="#FFFFFF" fill-opacity="0" fill-rule="evenodd"/>
		<path id="Vector" d="M301.2 180.2C301.1 180.2 301 180.2 300.9 180.17C299.97 180.01 299.34 179.12 299.5 178.19C299.67 177.26 300.56 176.62 301.49 176.79C302.42 176.95 303.05 177.85 302.89 178.78C302.81 179.23 302.56 179.63 302.18 179.9C301.89 180.09 301.55 180.21 301.2 180.21L301.2 180.2ZM301.2 177.92C300.93 177.92 300.7 178.11 300.65 178.38C300.6 178.69 300.81 178.98 301.11 179.02C301.26 179.05 301.4 179.02 301.53 178.93C301.64 178.85 301.72 178.72 301.76 178.57C301.82 178.27 301.61 177.98 301.31 177.93C301.27 177.93 301.24 177.93 301.21 177.93L301.2 177.92Z" fill="#FFFFFF" fill-opacity="1.000000" fill-rule="nonzero"/>
		<path id="Vector" d="" fill="#FFFFFF" fill-opacity="0" fill-rule="evenodd"/>
		<path id="Vector" d="M304.38 186.14C304.22 186.14 304.07 186.12 303.93 186.08C303.49 185.96 303.12 185.67 302.89 185.28C302.65 184.88 302.6 184.42 302.71 183.98C302.83 183.53 303.12 183.16 303.51 182.93C303.91 182.7 304.38 182.64 304.82 182.76C305.26 182.87 305.63 183.16 305.86 183.56C306.34 184.38 306.05 185.43 305.24 185.91C304.97 186.06 304.68 186.14 304.38 186.14ZM304.38 183.86C304.28 183.86 304.19 183.88 304.1 183.93C303.97 184 303.88 184.13 303.84 184.27C303.81 184.41 303.82 184.56 303.9 184.69C303.97 184.81 304.1 184.91 304.24 184.94C304.38 184.98 304.53 184.96 304.65 184.88C304.92 184.73 305.01 184.38 304.85 184.13C304.78 184 304.65 183.91 304.51 183.87C304.47 183.86 304.42 183.85 304.38 183.85L304.38 183.86Z" fill="#FFFFFF" fill-opacity="1.000000" fill-rule="nonzero"/>
		<path id="Vector" d="" fill="#FFFFFF" fill-opacity="0" fill-rule="evenodd"/>
		<path id="Vector" d="M310.63 188.65C310.43 188.65 310.23 188.62 310.05 188.55C309.15 188.22 308.7 187.23 309.03 186.35C309.18 185.92 309.5 185.57 309.91 185.38C310.33 185.19 310.79 185.17 311.22 185.33C311.65 185.48 312 185.8 312.19 186.21C312.39 186.63 312.4 187.09 312.25 187.52C311.99 188.22 311.33 188.65 310.63 188.65ZM310.63 186.37C310.55 186.37 310.47 186.38 310.4 186.42C310.26 186.48 310.16 186.59 310.11 186.73C310 187.02 310.15 187.34 310.44 187.44C310.73 187.55 311.05 187.39 311.15 187.1C311.2 186.96 311.2 186.81 311.13 186.67C311.07 186.53 310.96 186.44 310.82 186.38C310.76 186.36 310.69 186.35 310.62 186.35L310.63 186.37Z" fill="#FFFFFF" fill-opacity="1.000000" fill-rule="nonzero"/>
		<path id="Vector" d="" fill="#FFFFFF" fill-opacity="0" fill-rule="evenodd"/>
		<path id="Vector" d="M317.04 186.55C316.79 186.55 316.54 186.49 316.32 186.38C315.9 186.19 315.58 185.85 315.43 185.42C315.1 184.53 315.57 183.55 316.45 183.22C316.88 183.07 317.35 183.08 317.77 183.28C318.19 183.48 318.5 183.81 318.65 184.24C318.81 184.67 318.79 185.14 318.59 185.56C318.4 185.98 318.06 186.29 317.63 186.45C317.43 186.52 317.23 186.56 317.04 186.56L317.04 186.55ZM317.04 184.27C316.97 184.27 316.91 184.27 316.85 184.3C316.56 184.41 316.41 184.73 316.51 185.01C316.56 185.15 316.66 185.27 316.8 185.33C316.94 185.38 317.09 185.39 317.23 185.35C317.37 185.3 317.49 185.2 317.55 185.06C317.6 184.92 317.62 184.77 317.57 184.64C317.52 184.5 317.42 184.38 317.28 184.33C317.21 184.29 317.13 184.27 317.05 184.27L317.04 184.27Z" fill="#FFFFFF" fill-opacity="1.000000" fill-rule="nonzero"/>
		<path id="Vector" d="" fill="#FFFFFF" fill-opacity="0" fill-rule="evenodd"/>
		<path id="Vector" d="M320.58 180.83C320.29 180.83 320 180.76 319.72 180.59C319.33 180.36 319.04 179.99 318.92 179.55C318.8 179.11 318.86 178.64 319.09 178.25C319.56 177.42 320.62 177.14 321.44 177.62C322.27 178.09 322.55 179.14 322.07 179.97C321.76 180.51 321.17 180.83 320.58 180.83ZM320.58 178.55C320.38 178.55 320.2 178.65 320.1 178.83C319.95 179.09 320.05 179.43 320.3 179.58C320.57 179.73 320.91 179.64 321.06 179.37C321.21 179.11 321.12 178.77 320.85 178.62C320.76 178.57 320.66 178.55 320.57 178.55L320.58 178.55Z" fill="#FFFFFF" fill-opacity="1.000000" fill-rule="nonzero"/>
		<path id="Vector" d="" fill="#FFFFFF" fill-opacity="0" fill-rule="evenodd"/>
		<path id="Vector" d="M319.63 174.16C318.81 174.16 318.08 173.57 317.93 172.75C317.85 172.29 317.95 171.84 318.21 171.47C318.48 171.1 318.87 170.84 319.31 170.76C319.77 170.68 320.22 170.78 320.59 171.04C320.97 171.3 321.22 171.7 321.3 172.15C321.47 173.08 320.84 173.98 319.91 174.14C319.8 174.16 319.71 174.16 319.6 174.16L319.63 174.16ZM319.63 171.89C319.63 171.89 319.56 171.89 319.54 171.89C319.23 171.94 319.04 172.22 319.08 172.53C319.1 172.68 319.19 172.8 319.31 172.89C319.43 172.97 319.58 173 319.73 172.98C320.04 172.92 320.23 172.64 320.19 172.34C320.16 172.19 320.08 172.06 319.95 171.98C319.86 171.91 319.76 171.87 319.64 171.87L319.63 171.89Z" fill="#FFFFFF" fill-opacity="1.000000" fill-rule="nonzero"/>
		<path id="Vector" d="" fill="#FFFFFF" fill-opacity="0" fill-rule="evenodd"/>
		<path id="Vector" d="M314.62 169.66C314.23 169.66 313.84 169.54 313.51 169.27C313.16 168.98 312.94 168.56 312.91 168.11C312.87 167.65 313.01 167.2 313.3 166.85C313.59 166.5 314.01 166.28 314.47 166.25C314.92 166.21 315.37 166.35 315.72 166.64C316.07 166.93 316.29 167.35 316.33 167.8C316.36 168.26 316.22 168.71 315.93 169.06C315.59 169.47 315.1 169.68 314.62 169.68L314.62 169.66ZM314.62 167.39C314.62 167.39 314.58 167.39 314.57 167.39C314.42 167.4 314.29 167.47 314.2 167.58C314.11 167.7 314.06 167.84 314.07 167.99C314.08 168.14 314.15 168.27 314.27 168.37C314.39 168.47 314.52 168.51 314.68 168.5C314.83 168.49 314.95 168.42 315.05 168.3C315.14 168.19 315.19 168.05 315.18 167.9C315.16 167.75 315.09 167.62 314.98 167.53C314.87 167.44 314.76 167.4 314.62 167.4L314.62 167.39Z" fill="#FFFFFF" fill-opacity="1.000000" fill-rule="nonzero"/>
		<path id="Vector" d="" fill="#FFFFFF" fill-opacity="0" fill-rule="evenodd"/>
		<path id="Vector" d="M392.34 210C374.19 210 359.42 195.23 359.42 177.08C359.42 158.93 374.19 144.17 392.34 144.17C410.49 144.17 425.25 158.93 425.25 177.08C425.25 195.23 410.49 210 392.34 210ZM392.34 145.33C374.83 145.33 360.59 159.57 360.59 177.08C360.59 194.59 374.83 208.83 392.34 208.83C409.85 208.83 424.09 194.59 424.09 177.08C424.09 159.57 409.85 145.33 392.34 145.33Z" fill="#FFFFFF" fill-opacity="1.000000" fill-rule="nonzero"/>
		<path id="Vector" d="" fill="#FFFFFF" fill-opacity="0" fill-rule="evenodd"/>
		<path id="Vector" d="M392.34 195.71C382.07 195.71 373.71 187.35 373.71 177.08C373.71 166.82 382.07 158.46 392.34 158.46C402.6 158.46 410.96 166.82 410.96 177.08C410.96 187.35 402.6 195.71 392.34 195.71ZM392.34 159.62C382.71 159.62 374.88 167.46 374.88 177.08C374.88 186.71 382.71 194.54 392.34 194.54C401.96 194.54 409.8 186.71 409.8 177.08C409.8 167.46 401.96 159.62 392.34 159.62Z" fill="#FFFFFF" fill-opacity="1.000000" fill-rule="nonzero"/>
		<path id="Vector" d="" fill="#FFFFFF" fill-opacity="0" fill-rule="evenodd"/>
		<path id="Vector" d="M392.34 191.92C384.15 191.92 377.5 185.27 377.5 177.08C377.5 168.9 384.15 162.25 392.34 162.25C400.52 162.25 407.17 168.9 407.17 177.08C407.17 185.27 400.52 191.92 392.34 191.92ZM392.34 163.41C384.79 163.41 378.67 169.55 378.67 177.08C378.67 184.62 384.8 190.75 392.34 190.75C399.87 190.75 406.01 184.62 406.01 177.08C406.01 169.55 399.87 163.41 392.34 163.41Z" fill="#FFFFFF" fill-opacity="1.000000" fill-rule="nonzero"/>
		<path id="Vector" d="" fill="#FFFFFF" fill-opacity="0" fill-rule="evenodd"/>
		<path id="Vector" d="M392.34 186.01C387.42 186.01 383.42 182.01 383.42 177.09C383.42 172.18 387.42 168.18 392.34 168.18C397.26 168.18 401.25 172.18 401.25 177.09C401.25 182.01 397.26 186.01 392.34 186.01ZM392.34 169.33C388.06 169.33 384.58 172.8 384.58 177.08C384.58 181.36 388.06 184.84 392.34 184.84C396.62 184.84 400.09 181.36 400.09 177.08C400.09 172.8 396.62 169.33 392.34 169.33Z" fill="#FFFFFF" fill-opacity="1.000000" fill-rule="nonzero"/>
		<path id="Vector" d="" fill="#FFFFFF" fill-opacity="0" fill-rule="evenodd"/>
		<path id="Vector" d="M389.27 169.44C388.31 169.44 387.55 168.68 387.55 167.72C387.55 166.77 388.31 166 389.27 166C390.22 166 390.99 166.77 390.99 167.72C390.99 168.68 390.22 169.44 389.27 169.44ZM389.27 167.17C388.97 167.17 388.71 167.41 388.71 167.72C388.71 168.04 388.95 168.28 389.27 168.28C389.58 168.28 389.83 168.04 389.83 167.72C389.83 167.41 389.58 167.17 389.27 167.17Z" fill="#FFFFFF" fill-opacity="1.000000" fill-rule="nonzero"/>
		<path id="Vector" d="" fill="#FFFFFF" fill-opacity="0" fill-rule="evenodd"/>
		<path id="Vector" d="M383.98 173.61C383.98 173.61 383.87 173.61 383.83 173.61C383.37 173.57 382.96 173.35 382.66 173C382.37 172.65 382.22 172.2 382.27 171.75C382.32 171.29 382.52 170.87 382.87 170.58C383.22 170.29 383.68 170.14 384.13 170.19C384.58 170.22 385 170.44 385.29 170.79C385.58 171.14 385.72 171.59 385.69 172.05C385.65 172.5 385.43 172.92 385.08 173.21C384.77 173.47 384.39 173.62 383.98 173.62L383.98 173.61ZM383.98 171.33C383.85 171.33 383.72 171.37 383.62 171.46C383.5 171.55 383.43 171.69 383.42 171.83C383.41 171.98 383.46 172.12 383.55 172.23C383.64 172.35 383.78 172.42 383.92 172.43C384.06 172.43 384.21 172.4 384.33 172.3C384.44 172.21 384.51 172.07 384.52 171.93C384.54 171.78 384.49 171.64 384.4 171.53C384.3 171.41 384.16 171.34 384.02 171.33C384.01 171.33 383.99 171.33 383.98 171.33Z" fill="#FFFFFF" fill-opacity="1.000000" fill-rule="nonzero"/>
		<path id="Vector" d="" fill="#FFFFFF" fill-opacity="0" fill-rule="evenodd"/>
		<path id="Vector" d="M382.59 180.2C382.49 180.2 382.4 180.2 382.29 180.17C381.36 180.01 380.73 179.12 380.9 178.19C381.06 177.26 381.93 176.62 382.89 176.79C383.82 176.95 384.44 177.85 384.28 178.78C384.2 179.23 383.96 179.63 383.57 179.9C383.28 180.09 382.94 180.21 382.59 180.21L382.59 180.2ZM382.59 177.92C382.48 177.92 382.37 177.95 382.28 178.02C382.15 178.11 382.08 178.23 382.05 178.38C381.99 178.69 382.2 178.98 382.5 179.02C382.65 179.05 382.79 179.02 382.92 178.93C383.05 178.85 383.12 178.72 383.15 178.57C383.21 178.27 383 177.98 382.7 177.93C382.66 177.93 382.63 177.93 382.61 177.93L382.59 177.92Z" fill="#FFFFFF" fill-opacity="1.000000" fill-rule="nonzero"/>
		<path id="Vector" d="" fill="#FFFFFF" fill-opacity="0" fill-rule="evenodd"/>
		<path id="Vector" d="M385.77 186.14C385.18 186.14 384.59 185.83 384.28 185.28C383.8 184.45 384.09 183.41 384.91 182.93C385.3 182.7 385.77 182.64 386.21 182.76C386.65 182.87 387.02 183.16 387.26 183.56C387.73 184.37 387.45 185.43 386.63 185.91C386.36 186.06 386.06 186.14 385.77 186.14ZM385.77 183.86C385.68 183.86 385.58 183.88 385.49 183.93C385.22 184.08 385.13 184.42 385.29 184.69C385.44 184.95 385.78 185.05 386.05 184.89C386.31 184.74 386.41 184.41 386.25 184.14C386.18 184.01 386.05 183.92 385.91 183.88C385.86 183.87 385.82 183.86 385.77 183.86Z" fill="#FFFFFF" fill-opacity="1.000000" fill-rule="nonzero"/>
		<path id="Vector" d="" fill="#FFFFFF" fill-opacity="0" fill-rule="evenodd"/>
		<path id="Vector" d="M392.01 188.65C391.81 188.65 391.62 188.62 391.43 188.55C391 188.39 390.65 188.07 390.47 187.66C390.27 187.24 390.26 186.78 390.41 186.35C390.73 185.45 391.71 185 392.62 185.33C393.05 185.48 393.4 185.8 393.58 186.21C393.78 186.63 393.79 187.09 393.64 187.52C393.38 188.22 392.72 188.65 392.02 188.65L392.01 188.65ZM392.01 186.37C391.93 186.37 391.85 186.38 391.78 186.42C391.64 186.48 391.55 186.59 391.49 186.73C391.44 186.87 391.44 187.02 391.51 187.16C391.57 187.3 391.69 187.39 391.83 187.45C392.12 187.56 392.43 187.41 392.53 187.12C392.58 186.98 392.58 186.82 392.51 186.69C392.45 186.55 392.34 186.45 392.2 186.39C392.14 186.37 392.07 186.36 392 186.36L392.01 186.37Z" fill="#FFFFFF" fill-opacity="1.000000" fill-rule="nonzero"/>
		<path id="Vector" d="" fill="#FFFFFF" fill-opacity="0" fill-rule="evenodd"/>
		<path id="Vector" d="M398.42 186.55C398.17 186.55 397.92 186.49 397.7 186.38C397.28 186.19 396.96 185.85 396.81 185.42C396.49 184.53 396.95 183.53 397.84 183.22C398.27 183.07 398.73 183.08 399.15 183.28C399.57 183.48 399.88 183.81 400.03 184.24C400.18 184.67 400.17 185.14 399.98 185.56C399.78 185.98 399.44 186.29 399.01 186.44C398.81 186.51 398.62 186.55 398.42 186.55ZM398.42 184.27C398.35 184.27 398.29 184.27 398.23 184.3C397.94 184.41 397.79 184.73 397.89 185.01C397.94 185.15 398.05 185.27 398.19 185.33C398.32 185.38 398.48 185.39 398.62 185.35C398.75 185.3 398.87 185.2 398.93 185.06C398.99 184.92 399 184.77 398.95 184.63C398.91 184.49 398.8 184.37 398.66 184.31C398.59 184.28 398.51 184.26 398.43 184.26L398.42 184.27Z" fill="#FFFFFF" fill-opacity="1.000000" fill-rule="nonzero"/>
		<path id="Vector" d="" fill="#FFFFFF" fill-opacity="0" fill-rule="evenodd"/>
		<path id="Vector" d="M401.98 180.83C401.68 180.83 401.39 180.76 401.11 180.59C400.29 180.12 400.01 179.07 400.49 178.25C400.96 177.42 402.01 177.15 402.84 177.62C403.23 177.85 403.52 178.22 403.64 178.66C403.75 179.11 403.7 179.57 403.46 179.97C403.15 180.51 402.57 180.83 401.98 180.83ZM401.98 178.55C401.78 178.55 401.59 178.65 401.49 178.83C401.34 179.09 401.43 179.43 401.7 179.58C401.96 179.73 402.3 179.64 402.45 179.37C402.6 179.11 402.51 178.77 402.25 178.62C402.16 178.57 402.07 178.55 401.98 178.55Z" fill="#FFFFFF" fill-opacity="1.000000" fill-rule="nonzero"/>
		<path id="Vector" d="" fill="#FFFFFF" fill-opacity="0" fill-rule="evenodd"/>
		<path id="Vector" d="M401.02 174.16C400.67 174.16 400.34 174.06 400.03 173.85C399.66 173.58 399.41 173.19 399.32 172.75C399.16 171.82 399.79 170.92 400.72 170.76C401.17 170.68 401.63 170.78 402 171.04C402.37 171.3 402.63 171.7 402.71 172.15C402.87 173.08 402.24 173.98 401.31 174.14C401.21 174.16 401.11 174.16 401.01 174.16L401.02 174.16ZM401.02 171.89C401.02 171.89 400.95 171.89 400.93 171.89C400.78 171.91 400.65 171.99 400.57 172.12C400.49 172.23 400.45 172.39 400.48 172.54C400.53 172.84 400.82 173.05 401.11 172.99C401.42 172.93 401.61 172.65 401.57 172.35C401.55 172.2 401.46 172.07 401.34 171.99C401.24 171.92 401.14 171.89 401.02 171.89Z" fill="#FFFFFF" fill-opacity="1.000000" fill-rule="nonzero"/>
		<path id="Vector" d="" fill="#FFFFFF" fill-opacity="0" fill-rule="evenodd"/>
		<path id="Vector" d="M396 169.66C395.62 169.66 395.22 169.54 394.9 169.27C394.17 168.67 394.07 167.57 394.69 166.85C395.3 166.13 396.38 166.03 397.1 166.64C397.45 166.93 397.67 167.35 397.71 167.8C397.74 168.26 397.6 168.71 397.31 169.06C396.98 169.47 396.49 169.68 396 169.68L396 169.66ZM395.57 167.58C395.37 167.82 395.41 168.17 395.64 168.36C395.87 168.56 396.22 168.53 396.42 168.29C396.51 168.18 396.56 168.04 396.55 167.89C396.53 167.74 396.46 167.61 396.35 167.51C396.12 167.32 395.77 167.35 395.57 167.58Z" fill="#FFFFFF" fill-opacity="1.000000" fill-rule="nonzero"/>
		<path id="Vector" d="" fill="#FFFFFF" fill-opacity="0" fill-rule="evenodd"/>
		<path id="Vector" d="M56.14 141.63L56.39 140.82C56.44 140.67 59.66 130.59 68.22 124.18L68.22 123.85L68.68 123.85C73.15 120.65 79.01 118.46 86.55 119.1L86.55 70.79L87.16 70.81C87.33 70.81 104 71.39 106.64 59.78L106.64 28.42L107.8 28.42L107.8 59.96C105.28 71.25 90.86 71.96 87.71 71.97L87.71 120.37L87.07 120.3C79.59 119.52 73.79 121.63 69.39 124.77L69.37 132.79C69.34 132.87 67.08 140.77 57 141.55L56.15 141.62L56.14 141.63ZM68.22 125.66C61.85 130.75 58.73 137.89 57.8 140.32C65.89 139.29 67.98 133.33 68.22 132.57L68.22 125.66Z" fill="#FFFFFF" fill-opacity="1.000000" fill-rule="nonzero"/>
		<path id="Vector" d="" fill="#FFFFFF" fill-opacity="0" fill-rule="evenodd"/>
		<path id="Vector" d="M72.73 134.19C70.33 134.19 68.53 133.17 68.5 133.15L69.08 132.15C69.27 132.26 73.83 134.81 77.74 130.82L77.74 120.14L78.9 120.14L78.9 131.29L78.75 131.45C76.76 133.58 74.56 134.19 72.73 134.19Z" fill="#FFFFFF" fill-opacity="1.000000" fill-rule="nonzero"/>
		<path id="Vector" d="" fill="#FFFFFF" fill-opacity="0" fill-rule="evenodd"/>
		<path id="Vector" d="M87.67 106.84L63.32 105.64L68.9 90.14L112.94 81.77L119.24 81.76L119.24 82.92L113.05 82.92L69.77 91.15L64.95 104.55L87.72 105.68L87.67 106.84Z" fill="#FFFFFF" fill-opacity="1.000000" fill-rule="nonzero"/>
		<path id="Vector" d="" fill="#FFFFFF" fill-opacity="0" fill-rule="evenodd"/>
		<path id="Vector" d="M79.76 104.27C76.13 104.27 73.19 101.32 73.19 97.7C73.19 94.08 76.15 91.13 79.76 91.13C83.38 91.13 86.33 94.08 86.33 97.7C86.33 101.32 83.38 104.27 79.76 104.27ZM79.76 92.29C76.77 92.29 74.35 94.72 74.35 97.7C74.35 100.68 76.78 103.11 79.76 103.11C82.74 103.11 85.17 100.68 85.17 97.7C85.17 94.72 82.74 92.29 79.76 92.29Z" fill="#FFFFFF" fill-opacity="1.000000" fill-rule="nonzero"/>
		<path id="Vector" d="" fill="#FFFFFF" fill-opacity="0" fill-rule="evenodd"/>
		<path id="Vector" d="M80.34 91.13L79.18 91.13L79.18 104.27L80.34 104.27L80.34 91.13Z" fill="#FFFFFF" fill-opacity="1.000000" fill-rule="nonzero"/>
		<path id="Vector" d="" fill="#FFFFFF" fill-opacity="0" fill-rule="evenodd"/>
		<path id="Vector" d="M119.24 87.79L86.54 87.79L86.54 88.96L119.24 88.96L119.24 87.79Z" fill="#FFFFFF" fill-opacity="1.000000" fill-rule="nonzero"/>
		<path id="Vector" d="" fill="#FFFFFF" fill-opacity="0" fill-rule="evenodd"/>
		<path id="Vector" d="M119.24 102.23L86.54 102.23L86.54 103.4L119.24 103.4L119.24 102.23Z" fill="#FFFFFF" fill-opacity="1.000000" fill-rule="nonzero"/>
		<path id="Vector" d="" fill="#FFFFFF" fill-opacity="0" fill-rule="evenodd"/>
		<path id="Vector" d="M119.24 105.65L86.54 105.65L86.54 106.81L119.24 106.81L119.24 105.65Z" fill="#FFFFFF" fill-opacity="1.000000" fill-rule="nonzero"/>
		<path id="Vector" d="" fill="#FFFFFF" fill-opacity="0" fill-rule="evenodd"/>
		<path id="Vector" d="M119.24 109.06L86.54 109.06L86.54 110.22L119.24 110.22L119.24 109.06Z" fill="#FFFFFF" fill-opacity="1.000000" fill-rule="nonzero"/>
		<path id="Vector" d="" fill="#FFFFFF" fill-opacity="0" fill-rule="evenodd"/>
		<path id="Vector" d="M119.24 113.57L86.54 113.57L86.54 114.73L119.24 114.73L119.24 113.57Z" fill="#FFFFFF" fill-opacity="1.000000" fill-rule="nonzero"/>
		<path id="Vector" d="" fill="#FFFFFF" fill-opacity="0" fill-rule="evenodd"/>
		<path id="Vector" d="M131.46 164.1L123.35 164.1L123.35 160.11C122.6 128.43 107.18 120.92 105.84 120.32L87.11 120.32L87.11 119.16L106.15 119.2C106.87 119.46 123.7 126.28 124.5 160.1L124.5 162.95L130.24 162.95L130.13 160.14C131.39 147.5 123.78 121.87 123.71 121.61L124.82 121.28C125.14 122.34 132.58 147.39 131.29 160.17L131.46 164.1Z" fill="#FFFFFF" fill-opacity="1.000000" fill-rule="nonzero"/>
		<path id="Vector" d="" fill="#FFFFFF" fill-opacity="0" fill-rule="evenodd"/>
		<path id="Vector" d="M94.08 132.14C85.24 132.14 78.42 131.66 78.28 131.65L78.37 130.49C78.68 130.51 110.34 132.73 125.9 127.5L126.28 128.6C117.74 131.47 104.5 132.14 94.1 132.14L94.08 132.14Z" fill="#FFFFFF" fill-opacity="1.000000" fill-rule="nonzero"/>
		<path id="Vector" d="" fill="#FFFFFF" fill-opacity="0" fill-rule="evenodd"/>
		<path id="Vector" d="M91.44 124.56C84.12 124.56 78.32 123.58 78.21 123.57L78.41 122.42C78.59 122.45 96.19 125.4 108.65 120.89L109.05 121.99C103.52 123.99 97.04 124.56 91.43 124.56L91.44 124.56Z" fill="#FFFFFF" fill-opacity="1.000000" fill-rule="nonzero"/>
		<path id="Vector" d="" fill="#FFFFFF" fill-opacity="0" fill-rule="evenodd"/>
		<path id="Vector" d="M129.71 183.28L127.07 183.28L125.51 163.56L126.66 163.47L128.14 182.12L128.54 182.12L128.54 163.51L129.71 163.51L129.71 183.28Z" fill="#FFFFFF" fill-opacity="1.000000" fill-rule="nonzero"/>
		<path id="Vector" d="" fill="#FFFFFF" fill-opacity="0" fill-rule="evenodd"/>
		<path id="Vector" d="M163.21 141L162.05 141L162.05 10.55L136.28 10.55L136.28 0L191.88 0L191.88 137.96L190.72 137.96L190.72 1.16L137.44 1.16L137.44 9.39L163.21 9.39L163.21 141Z" fill="#FFFFFF" fill-opacity="1.000000" fill-rule="nonzero"/>
		<path id="Vector" d="" fill="#FFFFFF" fill-opacity="0" fill-rule="evenodd"/>
		<path id="Vector" d="M205.68 156.28L168.4 156.28L168.4 155.12L204.52 155.12L204.52 138.54L168.98 138.54L168.98 141L167.82 141L167.82 137.38L205.68 137.38L205.68 156.28Z" fill="#FFFFFF" fill-opacity="1.000000" fill-rule="nonzero"/>
		<path id="Vector" d="" fill="#FFFFFF" fill-opacity="0" fill-rule="evenodd"/>
		<path id="Vector" d="M155.89 98.28L148.76 98.28C148.28 98.28 147.85 98.23 147.44 98.15C143.97 97.54 141.44 94.51 141.44 90.96L141.44 38.41C141.44 37.93 141.48 37.49 141.57 37.07C141.82 35.63 142.52 34.29 143.59 33.23C144.64 32.16 145.98 31.47 147.46 31.21C147.85 31.13 148.3 31.08 148.77 31.08L155.9 31.08C157.1 31.08 158.28 31.37 159.33 31.93L159.47 32C160.77 32.73 161.85 33.88 162.49 35.23C162.98 36.2 163.22 37.27 163.22 38.4L163.22 90.95C163.22 94.98 159.93 98.27 155.9 98.27L155.89 98.28ZM148.76 32.25C148.37 32.25 148 32.28 147.67 32.35C146.42 32.57 145.3 33.15 144.4 34.05C143.51 34.94 142.92 36.06 142.7 37.28C142.63 37.64 142.6 38 142.6 38.4L142.6 90.95C142.6 93.93 144.73 96.48 147.66 97C148.02 97.07 148.37 97.11 148.76 97.11L155.89 97.11C159.28 97.11 162.05 94.34 162.05 90.95L162.05 38.41C162.05 37.45 161.84 36.56 161.43 35.75C160.91 34.63 160.05 33.69 158.99 33.07L158.88 33.01C157.97 32.5 156.93 32.23 155.88 32.23L148.75 32.23L148.76 32.25Z" fill="#FFFFFF" fill-opacity="1.000000" fill-rule="nonzero"/>
		<path id="Vector" d="" fill="#FFFFFF" fill-opacity="0" fill-rule="evenodd"/>
		<path id="Vector" d="M150.63 9.97L149.47 9.97L149.47 31.66L150.63 31.66L150.63 9.97Z" fill="#FFFFFF" fill-opacity="1.000000" fill-rule="nonzero"/>
		<path id="Vector" d="" fill="#FFFFFF" fill-opacity="0" fill-rule="evenodd"/>
		<path id="Vector" d="M148.13 31.77L146.97 31.77L146.97 97.58L148.13 97.58L148.13 31.77Z" fill="#FFFFFF" fill-opacity="1.000000" fill-rule="nonzero"/>
		<path id="Vector" d="" fill="#FFFFFF" fill-opacity="0" fill-rule="evenodd"/>
		<path id="Vector" d="M152.9 31.66L151.74 31.66L151.74 97.7L152.9 97.7L152.9 31.66Z" fill="#FFFFFF" fill-opacity="1.000000" fill-rule="nonzero"/>
		<path id="Vector" d="" fill="#FFFFFF" fill-opacity="0" fill-rule="evenodd"/>
		<path id="Vector" d="M150.05 35.38C149.2 35.38 148.33 35.31 147.47 35.19C146.17 34.99 144.92 34.65 143.77 34.18L144.22 33.11C145.28 33.55 146.44 33.86 147.63 34.05C149.14 34.27 150.62 34.29 152.24 34.07C154.34 33.78 156.6 33.08 158.92 31.99L159.17 31.93L159.17 32.52L159.41 33.04C156.98 34.18 154.62 34.91 152.39 35.21C151.59 35.33 150.8 35.37 150.04 35.37L150.05 35.38Z" fill="#FFFFFF" fill-opacity="1.000000" fill-rule="nonzero"/>
		<path id="Vector" d="" fill="#FFFFFF" fill-opacity="0" fill-rule="evenodd"/>
		<path id="Vector" d="M150.05 39.84C149.2 39.84 148.33 39.77 147.47 39.64C145.51 39.35 143.61 38.69 141.86 37.69L142.42 36.67C144.06 37.61 145.82 38.22 147.64 38.49C149.17 38.71 150.64 38.73 152.25 38.51C155.19 38.12 158.35 36.92 161.68 34.98C161.91 34.85 162.12 34.72 162.34 34.59L162.96 35.57C162.72 35.72 162.49 35.85 162.26 35.99C158.82 38 155.5 39.24 152.42 39.66C151.62 39.78 150.83 39.83 150.08 39.83L150.05 39.84Z" fill="#FFFFFF" fill-opacity="1.000000" fill-rule="nonzero"/>
		<path id="Vector" d="" fill="#FFFFFF" fill-opacity="0" fill-rule="evenodd"/>
		<path id="Vector" d="M150.05 44.3C149.2 44.3 148.33 44.23 147.47 44.1C145.46 43.8 143.53 43.13 141.73 42.09L142.31 41.08C143.97 42.05 145.77 42.67 147.64 42.95C149.17 43.17 150.63 43.2 152.25 42.98C155.39 42.55 158.78 41.23 162.34 39.05L162.95 40.04C159.26 42.3 155.71 43.69 152.41 44.13C151.61 44.24 150.82 44.29 150.06 44.29L150.05 44.3Z" fill="#FFFFFF" fill-opacity="1.000000" fill-rule="nonzero"/>
		<path id="Vector" d="" fill="#FFFFFF" fill-opacity="0" fill-rule="evenodd"/>
		<path id="Vector" d="M150.05 48.75C149.2 48.75 148.33 48.68 147.47 48.56C145.47 48.25 143.54 47.58 141.74 46.56L142.31 45.55C143.99 46.5 145.78 47.13 147.64 47.41C149.16 47.63 150.63 47.65 152.25 47.43C155.38 47.01 158.77 45.69 162.34 43.51L162.95 44.5C159.24 46.77 155.69 48.14 152.41 48.58C151.61 48.7 150.82 48.74 150.06 48.74L150.05 48.75Z" fill="#FFFFFF" fill-opacity="1.000000" fill-rule="nonzero"/>
		<path id="Vector" d="" fill="#FFFFFF" fill-opacity="0" fill-rule="evenodd"/>
		<path id="Vector" d="M150.05 53.21C149.2 53.21 148.33 53.14 147.47 53.01C145.45 52.71 143.52 52.03 141.73 51L142.31 49.99C143.97 50.95 145.77 51.58 147.64 51.86C149.17 52.08 150.64 52.1 152.25 51.88C155.38 51.46 158.77 50.14 162.34 47.96L162.95 48.95C159.24 51.22 155.69 52.59 152.41 53.03C151.61 53.15 150.82 53.2 150.06 53.2L150.05 53.21Z" fill="#FFFFFF" fill-opacity="1.000000" fill-rule="nonzero"/>
		<path id="Vector" d="" fill="#FFFFFF" fill-opacity="0" fill-rule="evenodd"/>
		<path id="Vector" d="M150.05 57.66C149.2 57.66 148.33 57.59 147.47 57.46C145.47 57.16 143.54 56.49 141.74 55.46L142.31 54.45C143.99 55.4 145.78 56.03 147.64 56.31C149.17 56.53 150.64 56.56 152.25 56.33C155.37 55.92 158.85 54.56 162.34 52.42L162.95 53.4C159.27 55.66 155.73 57.03 152.41 57.49C151.61 57.6 150.82 57.65 150.06 57.65L150.05 57.66Z" fill="#FFFFFF" fill-opacity="1.000000" fill-rule="nonzero"/>
		<path id="Vector" d="" fill="#FFFFFF" fill-opacity="0" fill-rule="evenodd"/>
		<path id="Vector" d="M150.05 62.11C149.2 62.11 148.33 62.04 147.47 61.91C145.46 61.61 143.52 60.94 141.73 59.9L142.31 58.89C143.97 59.86 145.77 60.49 147.63 60.76C149.16 60.98 150.63 61.01 152.24 60.79C155.37 60.37 158.76 59.04 162.33 56.87L162.93 57.86C159.22 60.12 155.68 61.5 152.4 61.94C151.6 62.05 150.81 62.1 150.05 62.1L150.05 62.11Z" fill="#FFFFFF" fill-opacity="1.000000" fill-rule="nonzero"/>
		<path id="Vector" d="" fill="#FFFFFF" fill-opacity="0" fill-rule="evenodd"/>
		<path id="Vector" d="M150.05 66.57C149.2 66.57 148.33 66.5 147.47 66.37C145.47 66.07 143.54 65.39 141.74 64.37L142.31 63.36C143.99 64.31 145.78 64.94 147.64 65.22C149.17 65.44 150.63 65.46 152.25 65.24C155.41 64.81 158.79 63.5 162.34 61.32L162.95 62.31C159.27 64.57 155.73 65.94 152.41 66.39C151.61 66.51 150.82 66.55 150.06 66.55L150.05 66.57Z" fill="#FFFFFF" fill-opacity="1.000000" fill-rule="nonzero"/>
		<path id="Vector" d="" fill="#FFFFFF" fill-opacity="0" fill-rule="evenodd"/>
		<path id="Vector" d="M150.05 71.02C149.2 71.02 148.33 70.95 147.47 70.82C145.46 70.52 143.53 69.84 141.73 68.81L142.31 67.8C143.97 68.76 145.77 69.39 147.63 69.67C149.16 69.89 150.62 69.91 152.24 69.69C155.37 69.27 158.76 67.95 162.33 65.77L162.93 66.76C159.22 69.03 155.68 70.4 152.4 70.84C151.6 70.96 150.81 71.01 150.05 71.01L150.05 71.02Z" fill="#FFFFFF" fill-opacity="1.000000" fill-rule="nonzero"/>
		<path id="Vector" d="" fill="#FFFFFF" fill-opacity="0" fill-rule="evenodd"/>
		<path id="Vector" d="M150.05 75.48C149.2 75.48 148.33 75.41 147.47 75.28C145.46 74.98 143.52 74.31 141.73 73.27L142.31 72.26C143.97 73.23 145.77 73.85 147.63 74.13C149.16 74.35 150.63 74.38 152.24 74.16C155.38 73.73 158.77 72.41 162.33 70.23L162.93 71.22C159.25 73.48 155.7 74.85 152.4 75.31C151.6 75.42 150.81 75.47 150.05 75.47L150.05 75.48Z" fill="#FFFFFF" fill-opacity="1.000000" fill-rule="nonzero"/>
		<path id="Vector" d="" fill="#FFFFFF" fill-opacity="0" fill-rule="evenodd"/>
		<path id="Vector" d="M150.05 79.94C149.2 79.94 148.33 79.87 147.47 79.74C145.47 79.44 143.54 78.76 141.74 77.74L142.31 76.73C143.99 77.68 145.78 78.31 147.64 78.59C149.17 78.81 150.63 78.83 152.25 78.61C155.38 78.19 158.77 76.87 162.34 74.69L162.95 75.68C159.24 77.95 155.69 79.32 152.41 79.76C151.61 79.88 150.82 79.92 150.06 79.92L150.05 79.94Z" fill="#FFFFFF" fill-opacity="1.000000" fill-rule="nonzero"/>
		<path id="Vector" d="" fill="#FFFFFF" fill-opacity="0" fill-rule="evenodd"/>
		<path id="Vector" d="M150.05 84.39C149.2 84.39 148.33 84.32 147.47 84.19C145.46 83.89 143.53 83.21 141.73 82.18L142.31 81.17C143.97 82.13 145.77 82.76 147.63 83.04C149.16 83.26 150.62 83.28 152.24 83.06C155.37 82.64 158.76 81.32 162.33 79.14L162.93 80.13C159.22 82.4 155.68 83.77 152.4 84.21C151.6 84.33 150.81 84.38 150.05 84.38L150.05 84.39Z" fill="#FFFFFF" fill-opacity="1.000000" fill-rule="nonzero"/>
		<path id="Vector" d="" fill="#FFFFFF" fill-opacity="0" fill-rule="evenodd"/>
		<path id="Vector" d="M150.05 88.84C149.2 88.84 148.33 88.77 147.47 88.64C145.47 88.34 143.54 87.67 141.74 86.64L142.31 85.63C143.99 86.59 145.78 87.21 147.64 87.49C149.16 87.71 150.63 87.74 152.25 87.52C155.41 87.09 158.79 85.77 162.34 83.6L162.95 84.59C159.27 86.84 155.73 88.21 152.41 88.67C151.61 88.78 150.82 88.83 150.06 88.83L150.05 88.84Z" fill="#FFFFFF" fill-opacity="1.000000" fill-rule="nonzero"/>
		<path id="Vector" d="" fill="#FFFFFF" fill-opacity="0" fill-rule="evenodd"/>
		<path id="Vector" d="M150.05 93.29C149.2 93.29 148.33 93.22 147.47 93.1C145.45 92.79 143.52 92.12 141.73 91.08L142.31 90.07C143.97 91.04 145.77 91.67 147.64 91.95C149.17 92.17 150.64 92.19 152.25 91.97C155.38 91.55 158.77 90.22 162.34 88.05L162.95 89.04C159.24 91.31 155.69 92.68 152.41 93.12C151.61 93.24 150.82 93.28 150.06 93.28L150.05 93.29Z" fill="#FFFFFF" fill-opacity="1.000000" fill-rule="nonzero"/>
		<path id="Vector" d="" fill="#FFFFFF" fill-opacity="0" fill-rule="evenodd"/>
		<path id="Vector" d="M162.63 109.77L141.44 109.77L141.44 97.57L162.63 97.57L162.63 98.73L142.6 98.73L142.6 108.61L162.63 108.61L162.63 109.77Z" fill="#FFFFFF" fill-opacity="1.000000" fill-rule="nonzero"/>
		<path id="Vector" d="" fill="#FFFFFF" fill-opacity="0" fill-rule="evenodd"/>
		<path id="Vector" d="M152.9 109.19L151.74 109.19L151.74 119.73L152.9 119.73L152.9 109.19Z" fill="#FFFFFF" fill-opacity="1.000000" fill-rule="nonzero"/>
		<path id="Vector" d="" fill="#FFFFFF" fill-opacity="0" fill-rule="evenodd"/>
		<path id="Vector" d="M139.11 141L137.95 141L137.95 119.15L162.63 119.15L162.63 120.31L139.11 120.31L139.11 141Z" fill="#FFFFFF" fill-opacity="1.000000" fill-rule="nonzero"/>
		<path id="Vector" d="" fill="#FFFFFF" fill-opacity="0" fill-rule="evenodd"/>
		<path id="Vector" d="M151.34 143.77C148.47 143.77 146.13 141.44 146.13 138.57C146.13 135.69 148.47 133.36 151.34 133.36C154.21 133.36 156.55 135.69 156.55 138.57C156.55 141.44 154.21 143.77 151.34 143.77ZM151.34 134.52C149.11 134.52 147.3 136.33 147.3 138.57C147.3 140.8 149.11 142.61 151.34 142.61C153.57 142.61 155.39 140.8 155.39 138.57C155.39 136.33 153.57 134.52 151.34 134.52Z" fill="#FFFFFF" fill-opacity="1.000000" fill-rule="nonzero"/>
		<path id="Vector" d="" fill="#FFFFFF" fill-opacity="0" fill-rule="evenodd"/>
		<path id="Vector" d="M151.34 146.73C146.84 146.73 143.18 143.06 143.18 138.57C143.18 134.07 146.84 130.4 151.34 130.4C155.84 130.4 159.5 134.07 159.5 138.57C159.5 143.06 155.84 146.73 151.34 146.73ZM151.34 131.57C147.48 131.57 144.34 134.71 144.34 138.57C144.34 142.42 147.48 145.56 151.34 145.56C155.2 145.56 158.34 142.42 158.34 138.57C158.34 134.71 155.2 131.57 151.34 131.57Z" fill="#FFFFFF" fill-opacity="1.000000" fill-rule="nonzero"/>
		<path id="Vector" d="" fill="#FFFFFF" fill-opacity="0" fill-rule="evenodd"/>
		<path id="Vector" d="M138.19 190.06L137.03 190.06L137.03 146L139.91 140.72L140.92 141.27L138.19 146.3L138.19 190.06Z" fill="#FFFFFF" fill-opacity="1.000000" fill-rule="nonzero"/>
		<path id="Vector" d="" fill="#FFFFFF" fill-opacity="0" fill-rule="evenodd"/>
		<path id="Vector" d="M271.33 190.64L132.1 190.64L132.1 147.54L271.33 147.54L271.33 190.64ZM133.26 189.48L270.17 189.48L270.17 148.7L133.26 148.7L133.26 189.48Z" fill="#FFFFFF" fill-opacity="1.000000" fill-rule="nonzero"/>
		<path id="Vector" d="" fill="#FFFFFF" fill-opacity="0" fill-rule="evenodd"/>
		<path id="Vector" d="M264.95 166.64L137.61 166.64L137.61 167.8L264.95 167.8L264.95 166.64Z" fill="#FFFFFF" fill-opacity="1.000000" fill-rule="nonzero"/>
		<path id="Vector" d="" fill="#FFFFFF" fill-opacity="0" fill-rule="evenodd"/>
		<path id="Vector" d="M264.95 173.09L137.61 173.09L137.61 174.26L264.95 174.26L264.95 173.09Z" fill="#FFFFFF" fill-opacity="1.000000" fill-rule="nonzero"/>
		<path id="Vector" d="" fill="#FFFFFF" fill-opacity="0" fill-rule="evenodd"/>
		<path id="Vector" d="M264.95 183.1L137.61 183.1L137.61 184.27L264.95 184.27L264.95 183.1Z" fill="#FFFFFF" fill-opacity="1.000000" fill-rule="nonzero"/>
		<path id="Vector" d="" fill="#FFFFFF" fill-opacity="0" fill-rule="evenodd"/>
		<path id="Vector" d="M265.54 148.12L264.38 148.12L264.38 190.06L265.54 190.06L265.54 148.12Z" fill="#FFFFFF" fill-opacity="1.000000" fill-rule="nonzero"/>
		<path id="Vector" d="" fill="#FFFFFF" fill-opacity="0" fill-rule="evenodd"/>
		<path id="Vector" d="M211.29 148.12L210.12 148.12L210.12 167.22L211.29 167.22L211.29 148.12Z" fill="#FFFFFF" fill-opacity="1.000000" fill-rule="nonzero"/>
		<path id="Vector" d="" fill="#FFFFFF" fill-opacity="0" fill-rule="evenodd"/>
		<path id="Vector" d="M264.95 154.55L210.7 154.55L210.7 155.71L264.95 155.71L264.95 154.55Z" fill="#FFFFFF" fill-opacity="1.000000" fill-rule="nonzero"/>
		<path id="Vector" d="" fill="#FFFFFF" fill-opacity="0" fill-rule="evenodd"/>
		<path id="Vector" d="M232.47 161.21C227.79 161.21 224 157.41 224 152.75C224 148.09 227.81 144.28 232.47 144.28C237.13 144.28 240.93 148.09 240.93 152.75C240.93 157.41 237.13 161.21 232.47 161.21ZM232.47 145.44C228.45 145.44 225.17 148.71 225.17 152.74C225.17 156.76 228.45 160.04 232.47 160.04C236.49 160.04 239.77 156.76 239.77 152.74C239.77 148.71 236.49 145.44 232.47 145.44Z" fill="#FFFFFF" fill-opacity="1.000000" fill-rule="nonzero"/>
		<path id="Vector" d="" fill="#FFFFFF" fill-opacity="0" fill-rule="evenodd"/>
		<path id="Vector" d="M251.02 161.21C246.35 161.21 242.56 157.41 242.56 152.75C242.56 148.09 246.36 144.28 251.02 144.28C255.69 144.28 259.49 148.09 259.49 152.75C259.49 157.41 255.69 161.21 251.02 161.21ZM251.02 145.44C247 145.44 243.72 148.71 243.72 152.74C243.72 156.76 247 160.04 251.02 160.04C255.05 160.04 258.32 156.76 258.32 152.74C258.32 148.71 255.05 145.44 251.02 145.44Z" fill="#FFFFFF" fill-opacity="1.000000" fill-rule="nonzero"/>
		<path id="Vector" d="" fill="#FFFFFF" fill-opacity="0" fill-rule="evenodd"/>
		<path id="Vector" d="M232.47 179.42C227.79 179.42 224 175.62 224 170.96C224 166.29 227.81 162.49 232.47 162.49C237.13 162.49 240.93 166.29 240.93 170.96C240.93 175.62 237.13 179.42 232.47 179.42ZM232.47 163.64C228.45 163.64 225.17 166.92 225.17 170.94C225.17 174.97 228.45 178.25 232.47 178.25C236.49 178.25 239.77 174.97 239.77 170.94C239.77 166.92 236.49 163.64 232.47 163.64Z" fill="#FFFFFF" fill-opacity="1.000000" fill-rule="nonzero"/>
		<path id="Vector" d="" fill="#FFFFFF" fill-opacity="0" fill-rule="evenodd"/>
		<path id="Vector" d="M251.02 179.42C246.35 179.42 242.56 175.62 242.56 170.96C242.56 166.29 246.36 162.49 251.02 162.49C255.69 162.49 259.49 166.29 259.49 170.96C259.49 175.62 255.69 179.42 251.02 179.42ZM251.02 163.64C247 163.64 243.72 166.92 243.72 170.94C243.72 174.97 247 178.25 251.02 178.25C255.05 178.25 258.32 174.97 258.32 170.94C258.32 166.92 255.05 163.64 251.02 163.64Z" fill="#FFFFFF" fill-opacity="1.000000" fill-rule="nonzero"/>
		<path id="Vector" d="" fill="#FFFFFF" fill-opacity="0" fill-rule="evenodd"/>
		<path id="Vector" d="M159.5 167.22L158.34 167.22L158.34 161.6C158 160.92 156.05 157.49 151.64 157.49C147.24 157.49 145.58 161.31 145.33 161.95L145.33 167.22L144.17 167.22L144.2 161.65C144.2 161.65 146.06 156.33 151.66 156.33C157.25 156.33 159.38 161.03 159.47 161.22L159.52 161.47L159.52 167.24L159.5 167.22Z" fill="#FFFFFF" fill-opacity="1.000000" fill-rule="nonzero"/>
		<path id="Vector" d="" fill="#FFFFFF" fill-opacity="0" fill-rule="evenodd"/>
		<path id="Vector" d="M166.93 183.7L165.77 183.7L165.77 180.83L137.61 180.83L137.61 179.66L165.77 179.66L165.77 173.68L166.93 173.68L166.93 183.7Z" fill="#FFFFFF" fill-opacity="1.000000" fill-rule="nonzero"/>
		<path id="Vector" d="" fill="#FFFFFF" fill-opacity="0" fill-rule="evenodd"/>
		<path id="Vector" d="M205.68 167.22L204.52 167.22L204.52 155.88L199.74 149.05L194.78 154.8L193.17 149.94L191.71 154.23L184.17 154.23L181.77 149.34L178.65 154.75L174.49 148.42L175.47 147.78L178.58 152.53L180.92 148.46C181.1 148.14 181.44 147.97 181.8 147.97C182.16 147.98 182.49 148.19 182.65 148.52L184.9 153.06L190.87 153.06L192.43 148.52C192.53 148.19 192.82 147.94 193.18 147.98C193.52 147.98 193.82 148.2 193.93 148.53L195.23 152.49L199.06 148.06C199.24 147.84 199.51 147.73 199.8 147.75C200.09 147.76 200.35 147.9 200.51 148.14L205.67 155.52L205.67 167.22L205.68 167.22Z" fill="#FFFFFF" fill-opacity="1.000000" fill-rule="nonzero"/>
		<path id="Vector" d="" fill="#FFFFFF" fill-opacity="0" fill-rule="evenodd"/>
		<path id="Vector" d="M143.68 173.44L142.62 173.91L145.58 180.49L146.64 180.01L143.68 173.44Z" fill="#FFFFFF" fill-opacity="1.000000" fill-rule="nonzero"/>
		<path id="Vector" d="" fill="#FFFFFF" fill-opacity="0" fill-rule="evenodd"/>
		<path id="Vector" d="M146.64 173.44L145.58 173.92L148.54 180.49L149.6 180.02L146.64 173.44Z" fill="#FFFFFF" fill-opacity="1.000000" fill-rule="nonzero"/>
		<path id="Vector" d="" fill="#FFFFFF" fill-opacity="0" fill-rule="evenodd"/>
		<path id="Vector" d="M149.59 173.44L148.53 173.92L151.49 180.49L152.55 180.01L149.59 173.44Z" fill="#FFFFFF" fill-opacity="1.000000" fill-rule="nonzero"/>
		<path id="Vector" d="" fill="#FFFFFF" fill-opacity="0" fill-rule="evenodd"/>
		<path id="Vector" d="M152.56 173.43L151.5 173.91L154.46 180.48L155.52 180.01L152.56 173.43Z" fill="#FFFFFF" fill-opacity="1.000000" fill-rule="nonzero"/>
		<path id="Vector" d="" fill="#FFFFFF" fill-opacity="0" fill-rule="evenodd"/>
		<path id="Vector" d="M155.51 173.44L154.45 173.92L157.41 180.49L158.47 180.02L155.51 173.44Z" fill="#FFFFFF" fill-opacity="1.000000" fill-rule="nonzero"/>
		<path id="Vector" d="" fill="#FFFFFF" fill-opacity="0" fill-rule="evenodd"/>
		<path id="Vector" d="M158.47 173.44L157.41 173.92L160.37 180.49L161.43 180.01L158.47 173.44Z" fill="#FFFFFF" fill-opacity="1.000000" fill-rule="nonzero"/>
		<path id="Vector" d="" fill="#FFFFFF" fill-opacity="0" fill-rule="evenodd"/>
		<path id="Vector" d="M187.32 183.7L186.16 183.7L186.16 178.56C168.9 178.47 167.87 174.23 167.82 173.76L168.97 173.58C168.97 173.58 170.05 177.4 186.74 177.4L187.32 177.4L187.32 183.7Z" fill="#FFFFFF" fill-opacity="1.000000" fill-rule="nonzero"/>
		<path id="Vector" d="" fill="#FFFFFF" fill-opacity="0" fill-rule="evenodd"/>
		<path id="Vector" d="M201.72 177.4L186.74 177.4L186.74 178.56L201.72 178.56L201.72 177.4Z" fill="#FFFFFF" fill-opacity="1.000000" fill-rule="nonzero"/>
		<path id="Vector" d="" fill="#FFFFFF" fill-opacity="0" fill-rule="evenodd"/>
		<path id="Vector" d="M195.59 177.98L194.43 177.98L194.43 183.69L195.59 183.69L195.59 177.98Z" fill="#FFFFFF" fill-opacity="1.000000" fill-rule="nonzero"/>
		<path id="Vector" d="" fill="#FFFFFF" fill-opacity="0" fill-rule="evenodd"/>
		<path id="Vector" d="M201.87 173.68L200.71 173.68L200.71 183.69L201.87 183.69L201.87 173.68Z" fill="#FFFFFF" fill-opacity="1.000000" fill-rule="nonzero"/>
		<path id="Vector" d="" fill="#FFFFFF" fill-opacity="0" fill-rule="evenodd"/>
		<path id="Vector" d="M207.31 173.68L206.15 173.68L206.15 183.69L207.31 183.69L207.31 173.68Z" fill="#FFFFFF" fill-opacity="1.000000" fill-rule="nonzero"/>
		<path id="Vector" d="" fill="#FFFFFF" fill-opacity="0" fill-rule="evenodd"/>
		<path id="Vector" d="M210.38 173.68L209.22 173.68L209.22 183.69L210.38 183.69L210.38 173.68Z" fill="#FFFFFF" fill-opacity="1.000000" fill-rule="nonzero"/>
		<path id="Vector" d="" fill="#FFFFFF" fill-opacity="0" fill-rule="evenodd"/>
		<path id="Vector" d="M219.99 173.68L218.83 173.68L218.83 183.69L219.99 183.69L219.99 173.68Z" fill="#FFFFFF" fill-opacity="1.000000" fill-rule="nonzero"/>
		<path id="Vector" d="" fill="#FFFFFF" fill-opacity="0" fill-rule="evenodd"/>
		<path id="Vector" d="M488.8 132.4L162.63 132.4L162.63 131.24L487.64 131.24L487.64 31.63L191.3 31.63L191.3 30.47L488.8 30.47L488.8 132.4Z" fill="#FFFFFF" fill-opacity="1.000000" fill-rule="nonzero"/>
		<path id="Vector" d="" fill="#FFFFFF" fill-opacity="0" fill-rule="evenodd"/>
		<path id="Vector" d="M488.22 43.14L191.3 43.14L191.3 44.3L488.22 44.3L488.22 43.14Z" fill="#FFFFFF" fill-opacity="1.000000" fill-rule="nonzero"/>
		<path id="Vector" d="" fill="#FFFFFF" fill-opacity="0" fill-rule="evenodd"/>
		<path id="Vector" d="M488.22 120.85L162.63 120.85L162.63 122.01L488.22 122.01L488.22 120.85Z" fill="#FFFFFF" fill-opacity="1.000000" fill-rule="nonzero"/>
		<path id="Vector" d="" fill="#FFFFFF" fill-opacity="0" fill-rule="evenodd"/>
		<path id="Vector" d="M439.32 142.2L205.1 142.2L205.1 141.04L438.84 141.04L448.35 131.53L449.18 132.36L439.32 142.2Z" fill="#FFFFFF" fill-opacity="1.000000" fill-rule="nonzero"/>
		<path id="Vector" d="" fill="#FFFFFF" fill-opacity="0" fill-rule="evenodd"/>
		<path id="Vector" d="M217.66 131.95L216.49 131.95L216.49 141.63L217.66 141.63L217.66 131.95Z" fill="#FFFFFF" fill-opacity="1.000000" fill-rule="nonzero"/>
		<path id="Vector" d="" fill="#FFFFFF" fill-opacity="0" fill-rule="evenodd"/>
		<path id="Vector" d="M227.06 131.95L225.9 131.95L225.9 141.63L227.06 141.63L227.06 131.95Z" fill="#FFFFFF" fill-opacity="1.000000" fill-rule="nonzero"/>
		<path id="Vector" d="" fill="#FFFFFF" fill-opacity="0" fill-rule="evenodd"/>
		<path id="Vector" d="M260.84 131.95L259.67 131.95L259.67 141.63L260.84 141.63L260.84 131.95Z" fill="#FFFFFF" fill-opacity="1.000000" fill-rule="nonzero"/>
		<path id="Vector" d="" fill="#FFFFFF" fill-opacity="0" fill-rule="evenodd"/>
		<path id="Vector" d="M270.24 131.95L269.08 131.95L269.08 141.63L270.24 141.63L270.24 131.95Z" fill="#FFFFFF" fill-opacity="1.000000" fill-rule="nonzero"/>
		<path id="Vector" d="" fill="#FFFFFF" fill-opacity="0" fill-rule="evenodd"/>
		<path id="Vector" d="M494.87 130.95L488.45 130.95C488.19 130.95 487.96 130.81 487.83 130.6C487.71 130.38 487.71 130.1 487.83 129.87L493.72 118.87L493.72 44.01L496.08 20.41L461.21 20.41L461.21 121.43L460.05 121.43L460.05 19.25L497.35 19.25L494.87 44.07L494.87 116.69L496.48 113.66L498.58 120.45L498.58 125.54L497.41 125.54L497.41 120.55L496.2 116.66L494.87 119.16L494.87 130.96L494.87 130.95ZM489.19 129.79L493.72 129.79L493.72 121.34L489.19 129.79Z" fill="#FFFFFF" fill-opacity="1.000000" fill-rule="nonzero"/>
		<path id="Vector" d="" fill="#FFFFFF" fill-opacity="0" fill-rule="evenodd"/>
		<path id="Vector" d="M497.81 124.63L493.91 127.91L494.65 128.8L498.56 125.52L497.81 124.63Z" fill="#FFFFFF" fill-opacity="1.000000" fill-rule="nonzero"/>
		<path id="Vector" d="" fill="#FFFFFF" fill-opacity="0" fill-rule="evenodd"/>
		<path id="Vector" d="M465.31 25.46C464.01 25.46 462.95 24.4 462.95 23.1C462.95 21.79 464.01 20.74 465.31 20.74C466.62 20.74 467.67 21.79 467.67 23.1C467.67 24.4 466.62 25.46 465.31 25.46ZM465.31 21.89C464.65 21.89 464.12 22.42 464.12 23.08C464.12 23.75 464.65 24.28 465.31 24.28C465.98 24.28 466.51 23.75 466.51 23.08C466.51 22.42 465.98 21.89 465.31 21.89Z" fill="#FFFFFF" fill-opacity="1.000000" fill-rule="nonzero"/>
		<path id="Vector" d="" fill="#FFFFFF" fill-opacity="0" fill-rule="evenodd"/>
		<path id="Vector" d="M481.94 25.46C480.64 25.46 479.58 24.4 479.58 23.1C479.58 21.79 480.64 20.74 481.94 20.74C483.24 20.74 484.3 21.79 484.3 23.1C484.3 24.4 483.24 25.46 481.94 25.46ZM481.94 21.89C481.28 21.89 480.74 22.42 480.74 23.08C480.74 23.75 481.28 24.28 481.94 24.28C482.6 24.28 483.14 23.75 483.14 23.08C483.14 22.42 482.6 21.89 481.94 21.89Z" fill="#FFFFFF" fill-opacity="1.000000" fill-rule="nonzero"/>
		<path id="Vector" d="" fill="#FFFFFF" fill-opacity="0" fill-rule="evenodd"/>
		<path id="Vector" d="M469.68 186.89L429.81 159.62L419.16 159.62L419.16 158.46L430.16 158.46L430.31 158.56L468.52 184.69L468.52 173.94L439.05 147.8L438.5 141.67L439.67 141.58L440.17 147.24L469.68 173.42L469.68 186.89Z" fill="#FFFFFF" fill-opacity="1.000000" fill-rule="nonzero"/>
		<path id="Vector" d="" fill="#FFFFFF" fill-opacity="0" fill-rule="evenodd"/>
		<path id="Vector" d="M284.13 158.46L270.75 158.46L270.75 159.62L284.13 159.62L284.13 158.46Z" fill="#FFFFFF" fill-opacity="1.000000" fill-rule="nonzero"/>
		<path id="Vector" d="" fill="#FFFFFF" fill-opacity="0" fill-rule="evenodd"/>
		<path id="Vector" d="M439.17 147.15L429.55 158.68L430.44 159.43L440.07 147.9L439.17 147.15Z" fill="#FFFFFF" fill-opacity="1.000000" fill-rule="nonzero"/>
		<path id="Vector" d="" fill="#FFFFFF" fill-opacity="0" fill-rule="evenodd"/>
		<path id="Vector" d="M352.19 182.31C349.31 182.31 346.96 179.97 346.96 177.08C346.96 174.2 349.31 171.85 352.19 171.85C355.08 171.85 357.42 174.2 357.42 177.08C357.42 179.97 355.08 182.31 352.19 182.31ZM352.19 173.03C349.95 173.03 348.12 174.85 348.12 177.09C348.12 179.34 349.95 181.16 352.19 181.16C354.44 181.16 356.26 179.34 356.26 177.09C356.26 174.85 354.44 173.03 352.19 173.03Z" fill="#FFFFFF" fill-opacity="1.000000" fill-rule="nonzero"/>
		<path id="Vector" d="" fill="#FFFFFF" fill-opacity="0" fill-rule="evenodd"/>
		<path id="Vector" d="M348.92 180.11L342.16 183.89L342.73 184.9L349.48 181.12L348.92 180.11Z" fill="#FFFFFF" fill-opacity="1.000000" fill-rule="nonzero"/>
		<path id="Vector" d="" fill="#FFFFFF" fill-opacity="0" fill-rule="evenodd"/>
		<path id="Vector" d="M355.52 180.16L354.87 181.13L360.53 184.91L361.18 183.95L355.52 180.16Z" fill="#FFFFFF" fill-opacity="1.000000" fill-rule="nonzero"/>
		<path id="Vector" d="" fill="#FFFFFF" fill-opacity="0" fill-rule="evenodd"/>
		<path id="Vector" d="M337.66 158.82L336.94 157.9L337.3 158.35L336.92 157.92C337.23 157.62 340.36 153.69 342.25 151.28L342.65 150.77L347.15 155.17L352.66 146.68L359.91 155.43L362.81 150.33L367.56 156.52L366.64 157.23L362.96 152.44L360.1 157.48L352.77 148.64L347.36 156.99L342.76 152.52C340.5 155.39 337.93 158.61 337.66 158.82Z" fill="#FFFFFF" fill-opacity="1.000000" fill-rule="nonzero"/>
		<path id="Vector" d="" fill="#FFFFFF" fill-opacity="0" fill-rule="evenodd"/>
		<path id="Vector" d="M482.95 136.84C482.58 136.84 482.26 136.71 482.04 136.46C481.54 135.87 481.8 134.9 482.64 134.21C483.47 133.51 484.47 133.43 484.96 134.01C485.45 134.6 485.21 135.57 484.37 136.26C484.02 136.55 483.61 136.75 483.23 136.82C483.12 136.84 483.03 136.84 482.94 136.84L482.95 136.84ZM484.05 134.71C484.05 134.71 483.74 134.79 483.39 135.09C483.1 135.33 483 135.57 482.97 135.68C483.1 135.68 483.36 135.6 483.64 135.37C484 135.07 484.08 134.78 484.07 134.71L484.05 134.71Z" fill="#FFFFFF" fill-opacity="1.000000" fill-rule="nonzero"/>
		<path id="Vector" d="" fill="#FFFFFF" fill-opacity="0" fill-rule="evenodd"/>
		<path id="Vector" d="M479.87 139.94C479.5 139.94 479.18 139.8 478.96 139.55C478.46 138.96 478.72 138 479.56 137.3C480.39 136.6 481.39 136.52 481.88 137.1C482.38 137.69 482.12 138.66 481.29 139.37C480.94 139.66 480.53 139.86 480.15 139.92C480.04 139.95 479.95 139.95 479.86 139.95L479.87 139.94ZM480.97 137.8C480.97 137.8 480.66 137.88 480.31 138.18C480.02 138.43 479.92 138.66 479.89 138.77C480.02 138.77 480.28 138.69 480.56 138.46C480.92 138.16 481 137.87 480.99 137.8L480.97 137.8Z" fill="#FFFFFF" fill-opacity="1.000000" fill-rule="nonzero"/>
		<path id="Vector" d="" fill="#FFFFFF" fill-opacity="0" fill-rule="evenodd"/>
		<path id="Vector" d="M476.78 143.03C476.4 143.03 476.09 142.89 475.87 142.65C475.37 142.05 475.63 141.09 476.46 140.39C477.3 139.69 478.3 139.6 478.79 140.19C478.97 140.41 479.06 140.7 479.03 141.02C478.99 141.51 478.67 142.04 478.2 142.45C477.85 142.74 477.44 142.94 477.06 143.01C476.95 143.03 476.86 143.03 476.77 143.03L476.78 143.03ZM477.88 140.89C477.88 140.89 477.57 140.97 477.22 141.27C476.93 141.52 476.82 141.75 476.8 141.87C476.93 141.87 477.18 141.78 477.46 141.55C477.82 141.25 477.9 140.96 477.89 140.89L477.88 140.89Z" fill="#FFFFFF" fill-opacity="1.000000" fill-rule="nonzero"/>
		<path id="Vector" d="" fill="#FFFFFF" fill-opacity="0" fill-rule="evenodd"/>
		<path id="Vector" d="M473.68 146.12C473.32 146.12 473 145.99 472.78 145.74C472.59 145.52 472.51 145.23 472.53 144.91C472.58 144.42 472.89 143.89 473.37 143.48C474.21 142.78 475.21 142.69 475.7 143.28C475.88 143.51 475.97 143.8 475.94 144.11C475.89 144.6 475.59 145.13 475.1 145.54C474.64 145.92 474.13 146.13 473.67 146.13L473.68 146.12ZM474.79 143.98C474.79 143.98 474.47 144.06 474.13 144.37C473.84 144.61 473.73 144.84 473.71 144.96C473.84 144.96 474.08 144.89 474.37 144.64C474.71 144.37 474.81 144.06 474.8 143.98L474.79 143.98Z" fill="#FFFFFF" fill-opacity="1.000000" fill-rule="nonzero"/>
		<path id="Vector" d="" fill="#FFFFFF" fill-opacity="0" fill-rule="evenodd"/>
		<path id="Vector" d="M470.59 149.21C470.23 149.21 469.91 149.09 469.68 148.83C469.2 148.24 469.44 147.27 470.28 146.56C470.63 146.27 471.03 146.08 471.42 146C471.91 145.91 472.35 146.05 472.61 146.37C472.8 146.59 472.88 146.88 472.86 147.2C472.81 147.69 472.5 148.23 472.02 148.63C471.56 149.02 471.05 149.23 470.59 149.23L470.59 149.21ZM471.7 147.08C471.7 147.08 471.37 147.17 471.03 147.46C470.75 147.7 470.64 147.94 470.61 148.05C470.74 148.05 470.99 147.98 471.28 147.74C471.61 147.46 471.72 147.16 471.71 147.08L471.7 147.08Z" fill="#FFFFFF" fill-opacity="1.000000" fill-rule="nonzero"/>
		<path id="Vector" d="" fill="#FFFFFF" fill-opacity="0" fill-rule="evenodd"/>
		<path id="Vector" d="M467.5 152.31C467.14 152.31 466.81 152.18 466.59 151.92C466.1 151.33 466.35 150.37 467.19 149.67C467.53 149.38 467.94 149.18 468.32 149.11C468.81 149.02 469.25 149.16 469.52 149.47C470.02 150.06 469.77 151.03 468.93 151.73C468.46 152.11 467.95 152.32 467.5 152.32L467.5 152.31ZM468.6 150.17C468.6 150.17 468.28 150.26 467.94 150.55C467.66 150.8 467.55 151.03 467.52 151.14C467.65 151.14 467.89 151.08 468.19 150.83C468.52 150.55 468.63 150.25 468.62 150.17L468.6 150.17Z" fill="#FFFFFF" fill-opacity="1.000000" fill-rule="nonzero"/>
		<path id="Vector" d="" fill="#FFFFFF" fill-opacity="0" fill-rule="evenodd"/>
		<path id="Vector" d="M464.41 155.4C464.05 155.4 463.72 155.27 463.5 155.02C463.01 154.42 463.26 153.46 464.09 152.76C464.44 152.47 464.85 152.27 465.23 152.2C465.72 152.11 466.16 152.25 466.43 152.56C466.93 153.16 466.67 154.12 465.84 154.82C465.37 155.2 464.86 155.41 464.41 155.41L464.41 155.4ZM465.51 153.26C465.51 153.26 465.19 153.35 464.85 153.64C464.57 153.89 464.45 154.12 464.43 154.24C464.56 154.24 464.8 154.17 465.09 153.92C465.43 153.64 465.53 153.34 465.52 153.26L465.51 153.26Z" fill="#FFFFFF" fill-opacity="1.000000" fill-rule="nonzero"/>
		<path id="Vector" d="" fill="#FFFFFF" fill-opacity="0" fill-rule="evenodd"/>
		<path id="Vector" d="M461.31 158.49C460.95 158.49 460.63 158.36 460.41 158.11C459.92 157.52 460.16 156.55 461 155.85C461.48 155.45 462.06 155.23 462.55 155.27C462.87 155.3 463.14 155.43 463.33 155.66C463.83 156.24 463.57 157.21 462.73 157.91C462.27 158.29 461.76 158.49 461.3 158.49L461.31 158.49ZM462.42 156.35C462.42 156.35 462.09 156.45 461.76 156.74C461.48 156.98 461.36 157.21 461.34 157.33C461.47 157.33 461.71 157.26 462 157.02C462.36 156.71 462.44 156.42 462.43 156.35L462.42 156.35Z" fill="#FFFFFF" fill-opacity="1.000000" fill-rule="nonzero"/>
		<path id="Vector" d="" fill="#FFFFFF" fill-opacity="0" fill-rule="evenodd"/>
		<path id="Vector" d="M458.22 161.58C457.86 161.58 457.54 161.46 457.31 161.2C456.83 160.61 457.07 159.64 457.91 158.95C458.26 158.66 458.66 158.46 459.05 158.39C459.55 158.31 459.98 158.43 460.24 158.75C460.74 159.34 460.49 160.31 459.65 161C459.19 161.39 458.68 161.58 458.22 161.58ZM459.33 159.45C459.33 159.45 459 159.54 458.66 159.83C458.38 160.07 458.27 160.31 458.24 160.42C458.37 160.42 458.62 160.35 458.91 160.11C459.27 159.81 459.35 159.52 459.34 159.45L459.33 159.45Z" fill="#FFFFFF" fill-opacity="1.000000" fill-rule="nonzero"/>
		<path id="Vector" d="" fill="#FFFFFF" fill-opacity="0" fill-rule="evenodd"/>
		<path id="Vector" d="M472.17 183.73C470.25 183.73 468.69 182.16 468.69 180.24C468.69 178.33 470.25 176.76 472.17 176.76C474.09 176.76 475.66 178.33 475.66 180.24C475.66 182.16 474.1 183.73 472.17 183.73ZM472.17 177.92C470.89 177.92 469.85 178.97 469.85 180.24C469.85 181.52 470.89 182.57 472.17 182.57C473.45 182.57 474.5 181.52 474.5 180.24C474.5 178.97 473.45 177.92 472.17 177.92Z" fill="#FFFFFF" fill-opacity="1.000000" fill-rule="nonzero"/>
		<path id="Vector" d="" fill="#FFFFFF" fill-opacity="0" fill-rule="evenodd"/>
	</g>
</svg>
