<svg width="187" height="24" viewBox="0 0 187 24" fill="none" xmlns="http://www.w3.org/2000/svg">
<mask id="mask0_596_2589" style="mask-type:luminance" maskUnits="userSpaceOnUse" x="0" y="0" width="187" height="25">
<path d="M186.527 0H0.910278V24.0002H186.527V0Z" fill="white"/>
</mask>
<g mask="url(#mask0_596_2589)">
<path d="M22.4231 4.67358C22.9913 5.4033 23.4704 6.21658 23.8659 7.05214L12.9368 15.1181L8.36346 12.2326V8.7901L12.9368 11.6477L22.4231 4.67358Z" fill="#CCCCCC"/>
<path d="M3.70102 12.0097C3.70102 11.8426 3.70102 11.7033 3.73445 11.5362L0.965962 11.397C0.965962 11.5919 0.93811 11.7869 0.93811 11.9819C0.93811 15.2907 2.29171 18.282 4.46417 20.4711L6.44165 18.5104C4.74826 16.856 3.70102 14.561 3.70102 12.0097Z" fill="#CCCCCC"/>
<path d="M12.9089 2.79627C13.076 2.79627 13.2208 2.79627 13.388 2.82412L13.5328 0.0500687C13.3323 0.0500687 13.1317 0.0222168 12.9368 0.0222168C9.63351 0.0222168 6.61436 1.37025 4.43634 3.55384L6.41383 5.51462C8.07937 3.83236 10.3967 2.79627 12.9089 2.79627Z" fill="#CCCCCC"/>
<path d="M12.9089 21.2233C12.7417 21.2233 12.5969 21.2233 12.4298 21.1954L12.285 23.9695C12.4855 23.9695 12.6805 23.9973 12.881 23.9973C16.1842 23.9973 19.2034 22.6549 21.3814 20.4713L19.4039 18.5105C17.7662 20.215 15.4768 21.2233 12.9089 21.2233Z" fill="#CCCCCC"/>
<path d="M18.1339 4.39504L20.479 2.65708C18.4124 1.00267 15.7888 0 12.9089 0V2.76848C14.8585 2.79634 16.6633 3.3868 18.1339 4.39504Z" fill="#CCCCCC"/>
<path d="M24.9409 12.0097C24.9409 11.2856 24.8518 10.5559 24.7404 9.854L22.1724 11.7591C22.1724 11.8426 22.1724 11.9262 22.1724 11.9819C22.1724 14.7002 20.986 17.1345 19.1199 18.8168L20.986 20.8611C23.4146 18.7332 24.9409 15.5414 24.9409 12.0097Z" fill="#CCCCCC"/>
<path d="M12.9089 21.2232C10.1961 21.2232 7.73953 20.0479 6.07398 18.1707L4.01294 20.0479C6.21881 22.4877 9.37722 23.9973 12.9089 23.9973V21.2232Z" fill="#CCCCCC"/>
<path d="M6.7536 5.18056L4.88752 3.13623C2.45883 5.34767 0.93811 8.51166 0.93811 12.0099H3.70102C3.70102 9.32493 4.88752 6.85725 6.7536 5.18056Z" fill="#CCCCCC"/>
<path d="M70.724 7.16906L73.9715 4.75708H63.0758V19.1788H73.9715V16.8003H66.1841V13.1015H72.824V10.6951H66.1841V7.16906H70.724Z" fill="#CCCCCC"/>
<path d="M54.8706 10.3887H51.0939V7.16906H57.1155L60.363 4.75708H47.9856V19.1788H54.4807C58.1237 19.1788 60.1959 17.53 60.1959 14.6445C60.1959 11.8983 58.2908 10.3887 54.8706 10.3887ZM54.3414 16.8003H51.0939V12.7952H54.3414C56.3022 12.7952 57.2269 13.4692 57.2269 14.7838C57.2269 16.1541 56.2465 16.8003 54.3414 16.8003Z" fill="#CCCCCC"/>
<path d="M82.795 4.75708H76.8569V19.1788H79.9652V15.118H82.795C86.5717 15.118 88.928 13.1294 88.928 9.93754C88.928 6.74571 86.5717 4.75708 82.795 4.75708ZM82.7114 12.7116H79.9652V7.16906H82.7114C84.7 7.16906 85.7918 8.14388 85.7918 9.93754C85.8197 11.7312 84.7 12.7116 82.7114 12.7116Z" fill="#CCCCCC"/>
<path d="M42.6603 16.0707C41.8805 16.5219 40.9279 16.7447 39.9754 16.7447C37.1735 16.7447 35.1292 14.7282 35.1292 11.982C35.1292 9.23581 37.1735 7.2249 39.9754 7.2249C41.0393 7.2249 41.9919 7.53127 42.8051 8.11616L45.0444 6.46733L44.9052 6.32807C43.6129 5.18057 41.8526 4.56226 39.8918 4.56226C37.7361 4.56226 35.7753 5.29198 34.3716 6.60659C32.9734 7.94905 32.188 9.79842 32.188 11.8706C32.188 13.9428 32.9734 15.8479 34.3716 17.2182C35.7753 18.5941 37.7361 19.3461 39.864 19.3461C42.1033 19.3461 44.0641 18.5662 45.3787 17.1346C44.3426 16.3826 43.3622 15.6529 43.3622 15.6529L42.6603 16.0707Z" fill="#CCCCCC"/>
<path d="M106.541 7.14117H101.083L101.055 7.80961C100.971 9.54757 100.832 11.0293 100.659 12.2938C100.492 13.5248 100.297 14.5888 100.074 15.4578C99.8793 16.2933 99.6231 16.9952 99.3446 17.5021C99.0939 18.0034 98.8154 18.3989 98.5034 18.6774C98.197 18.956 97.8907 19.1231 97.5509 19.2066C97.2167 19.2902 96.8824 19.318 96.5426 19.318C96.0692 19.318 95.6737 19.2623 95.3951 19.1231V16.5217C95.5065 16.5496 95.618 16.5774 95.7071 16.6053C95.8185 16.6053 95.9299 16.6331 96.0135 16.6331C96.1806 16.6331 96.3477 16.6053 96.5148 16.5496C96.6819 16.4938 96.8546 16.3824 97.0217 16.1819C97.1888 15.9869 97.3559 15.6806 97.523 15.3185C97.6623 14.923 97.8071 14.3938 97.9464 13.7476C98.0856 13.1015 98.1971 12.2938 98.3085 11.3134C98.4199 10.333 98.5034 9.15765 98.587 7.78176L98.7262 4.81274H109.121V19.1788H106.541V7.14117Z" fill="#CCCCCC"/>
<path d="M115.421 15.4856L123.264 4.75708H126.06V19.1231H123.487V8.233L115.616 19.1231H112.87V4.75708H115.449V15.4856H115.421Z" fill="#CCCCCC"/>
<path d="M129.341 5.82094C129.759 5.51457 130.344 5.23605 131.157 4.95196C131.97 4.67344 132.951 4.53418 134.098 4.53418C134.912 4.53418 135.641 4.61774 136.282 4.757C136.928 4.89625 137.485 5.12464 137.964 5.40316C138.438 5.68168 138.805 6.04375 139.056 6.52281C139.307 6.96844 139.446 7.5032 139.446 8.14379C139.446 9.7982 138.61 10.9178 136.9 11.5362C139.084 11.8704 140.176 12.99 140.176 14.8951C140.176 15.5134 140.064 16.0983 139.813 16.6331C139.563 17.1623 139.195 17.6413 138.694 18.0312C138.187 18.4267 137.574 18.7331 136.844 18.9559C136.115 19.1787 135.274 19.2901 134.321 19.2901C133.68 19.2901 133.062 19.2344 132.477 19.123C131.915 19.0395 131.408 18.9002 130.934 18.7331C130.489 18.566 130.093 18.371 129.759 18.1426C129.425 17.9198 129.168 17.697 128.974 17.502V14.3938C129.196 14.7558 129.48 15.0901 129.815 15.4299C130.149 15.7362 130.544 16.0148 130.99 16.2376C131.441 16.466 131.943 16.6609 132.505 16.8002C133.09 16.9116 133.68 16.9951 134.349 16.9951C134.8 16.9951 135.19 16.9394 135.586 16.8559C135.975 16.7723 136.282 16.6331 136.566 16.4381C136.844 16.2376 137.067 16.0148 137.234 15.7362C137.402 15.4577 137.485 15.1458 137.485 14.7837C137.485 14.1375 137.234 13.664 136.733 13.3577C136.226 13.0457 135.446 12.9065 134.321 12.9065H132.137V10.8064H134.293C134.772 10.8064 135.162 10.7507 135.474 10.6672C135.781 10.5558 136.031 10.4165 136.226 10.2494C136.421 10.0767 136.566 9.8539 136.65 9.63109C136.733 9.40827 136.789 9.15203 136.789 8.87351C136.789 8.53929 136.733 8.26077 136.594 8.03238C136.455 7.78172 136.254 7.58675 136.003 7.44749C135.753 7.30823 135.474 7.19683 135.134 7.1077C134.8 7.02414 134.466 6.96844 134.07 6.96844C133.513 6.96844 133.006 7.02414 132.505 7.16897C132.026 7.30823 131.58 7.5032 131.157 7.75386C130.767 7.97668 130.405 8.26077 130.065 8.56714C129.759 8.87351 129.48 9.18545 129.28 9.49183V5.82094H129.341Z" fill="#CCCCCC"/>
<path d="M145.69 15.4856L153.533 4.75708H156.335V19.1231H153.756V8.233L145.891 19.1231H143.145V4.75708H145.718V15.4856H145.69Z" fill="#CCCCCC"/>
<path d="M170.478 12.9066H162.607V19.1231H160.034V4.75708H162.607V10.5559H170.478V4.75708H173.052V19.1231H170.478V12.9066Z" fill="#CCCCCC"/>
<path d="M186.527 7.14121H179.358V19.151H176.778V4.75708H186.527V7.14121Z" fill="#CCCCCC"/>
</g>
</svg>
