<svg width="504.317017" height="169.881836" viewBox="0 0 504.317 169.882" fill="none" xmlns="http://www.w3.org/2000/svg" xmlns:xlink="http://www.w3.org/1999/xlink">
	<desc>
			Created with Pixso.
	</desc>
	<defs>
		<clipPath id="clip546_5890">
			<rect id="_РЎР»РѕР№_2" rx="-0.404481" width="503.508057" height="169.072861" transform="matrix(-1 0 0 1 504.721 0.404481)" fill="white" fill-opacity="0"/>
		</clipPath>
	</defs>
	<rect id="_РЎР»РѕР№_2" rx="-0.404481" width="503.508057" height="169.072861" transform="matrix(-1 0 0 1 504.721 0.404481)" fill="#FFFFFF" fill-opacity="0"/>
	<g clip-path="url(#clip546_5890)">
		<path id="Vector" d="M396.4 112.33L396.4 118.06L421.16 118.68L424.2 116.63C424.2 116.63 439.17 116.73 446.74 116.73C454.3 116.73 463.21 131.62 463.21 131.62L463.41 145.85L483.88 145.8L486.23 148.35L500.85 148.35L500.23 137.46L502.49 137.46L502.49 135.77L501.36 135.77L500.95 130.75L500.03 130.75L500.03 129.02L501.87 127.89L501.87 120.88L499.82 118.68L501.87 116.23L501.15 90.86L500.23 90.86L499.99 89.68L495.12 89.68L495.12 85.02L499.03 85.02L491.54 48.91L492.88 40.82C492.88 17.09 465.25 18.11 465.25 18.11L465.25 15.45L399.77 15.45L397.52 109.1L401.34 109.23L401.34 112.1L382.38 112.33L396.4 112.33Z" stroke="#FFFFFF" stroke-opacity="1.000000" stroke-width="1.000000"/>
		<path id="Vector" d="M492.87 40.81L481.16 40.81L482.43 48.9L491.54 48.9" stroke="#FFFFFF" stroke-opacity="1.000000" stroke-width="1.000000"/>
		<path id="Vector" d="M483.77 40.82C483.77 40.82 484.89 27.93 466.89 26.39C448.88 24.85 399.63 21.47 399.63 21.47" stroke="#FFFFFF" stroke-opacity="1.000000" stroke-width="1.000000"/>
		<path id="Vector" d="M481.16 40.82C481.16 40.82 479.98 29.97 469.54 28.85C459.11 27.72 399.62 24.65 399.62 24.65" stroke="#FFFFFF" stroke-opacity="1.000000" stroke-width="1.000000"/>
		<path id="Vector" d="M439.06 92.75L439.06 92.89L400.49 87.36L401.2 106.81L454.71 106.81L456.76 104.55L452.34 95.99L439.03 92.88L439.06 46.44L440.39 26.88" stroke="#FFFFFF" stroke-opacity="1.000000" stroke-width="1.000000"/>
		<path id="Vector" d="M439.33 106.81L439.33 116.71" stroke="#FFFFFF" stroke-opacity="1.000000" stroke-width="1.000000"/>
		<path id="Vector" d="M476.52 19.69L476.52 16.06L467.4 16.06L467.4 18.14" stroke="#FFFFFF" stroke-opacity="1.000000" stroke-width="1.000000"/>
		<path id="Vector" d="M476.52 16.06L475.17 14.22L468.73 14.22L467.4 16.06" stroke="#FFFFFF" stroke-opacity="1.000000" stroke-width="1.000000"/>
		<path id="Vector" d="M475.17 14.22L475.17 9.1C475.17 9.1 474.17 7.27 471.96 7.27C469.74 7.27 468.51 9.41 468.51 9.41L468.51 14.22" stroke="#FFFFFF" stroke-opacity="1.000000" stroke-width="1.000000"/>
		<path id="Vector" d="M475.17 9.1L468.52 9.41" stroke="#FFFFFF" stroke-opacity="1.000000" stroke-width="1.000000"/>
		<path id="Vector" d="M448.13 15.45L402.57 0.51L399.77 15.45" stroke="#FFFFFF" stroke-opacity="1.000000" stroke-width="1.000000"/>
		<path id="Vector" d="M487.01 48.9C487.01 48.9 481.41 59.44 485.51 70.9C489.6 82.36 491.31 84.22 498.98 84.8" stroke="#FFFFFF" stroke-opacity="1.000000" stroke-width="1.000000"/>
		<path id="Vector" d="M495.31 55.12L493.96 57.33C493.96 57.33 501.26 64.97 503.51 59.71C505.77 54.46 497.99 52.48 497.99 52.48L495.32 55.13L495.31 55.11L492.13 51.76" stroke="#FFFFFF" stroke-opacity="1.000000" stroke-width="1.000000"/>
		<path id="Vector" d="M482.43 48.9L418.66 48.9" stroke="#FFFFFF" stroke-opacity="1.000000" stroke-width="1.000000"/>
		<path id="Vector" d="M482.01 46.22L418.66 46.22L418.66 71.72C418.66 71.72 418.53 79.9 425.21 80.58C431.89 81.27 500.07 90.85 500.07 90.85" stroke="#FFFFFF" stroke-opacity="1.000000" stroke-width="1.000000"/>
		<path id="Vector" d="M436.39 57.88L436.39 76.32C436.39 76.32 428.72 82.46 421.66 72.43L421.66 55.76C421.66 55.76 423.6 52.78 434.24 53.71L434.25 53.71C435.6 54.68 436.39 56.23 436.39 57.88Z" stroke="#FFFFFF" stroke-opacity="1.000000" stroke-width="1.000000"/>
		<path id="Vector" d="M482.54 62.07L482.43 56.16C482.43 56.16 482.02 51.76 475.17 51.76C468.32 51.76 418.66 51.25 418.66 51.25" stroke="#FFFFFF" stroke-opacity="1.000000" stroke-width="1.000000"/>
		<path id="Vector" d="M472.95 54.66C465.71 54.65 453.1 54.66 448.4 54.8C441.65 55 443.08 58.41 443.22 68.53C443.36 78.64 445.89 79.55 445.89 79.55C445.89 79.55 455.3 80.72 469.14 82.89C471.95 83.33 474.18 83.56 475.96 83.63" stroke="#FFFFFF" stroke-opacity="1.000000" stroke-width="1.000000"/>
		<path id="Vector" d="M475.95 83.64C476.9 84.36 478.08 84.76 479.57 84.79C480.55 84.81 481.36 84.11 482.01 82.9C482.35 82.27 482.64 81.5 482.89 80.61C484.2 75.92 484.15 68.13 482.55 62.08C481.26 57.19 478.97 53.42 475.56 53.23C475.56 53.23 474.22 53.33 472.95 54.66C471.51 56.19 470.15 59.35 470.98 65.86L470.98 65.86C472.18 75.22 472.83 81.27 475.95 83.64Z" stroke="#FFFFFF" stroke-opacity="1.000000" stroke-width="1.000000"/>
		<path id="Vector" d="M481.42 83.8L481.42 88.24" stroke="#FFFFFF" stroke-opacity="1.000000" stroke-width="1.000000"/>
		<path id="Vector" d="M478.29 84.65L478.29 87.8" stroke="#FFFFFF" stroke-opacity="1.000000" stroke-width="1.000000"/>
		<path id="Vector" d="M484.55 88.67L484.01 93.2C484.01 93.2 473.64 94.26 472.77 87.03" stroke="#FFFFFF" stroke-opacity="1.000000" stroke-width="1.000000"/>
		<path id="Vector" d="M497.61 78.18L502.49 82.66L500.9 85.01" stroke="#FFFFFF" stroke-opacity="1.000000" stroke-width="1.000000"/>
		<path id="Vector" d="M495.12 85.02L495.12 89.68L502.75 89.68L502.75 85.02L495.12 85.02Z" stroke="#FFFFFF" stroke-opacity="1.000000" stroke-width="1.000000"/>
		<path id="Vector" d="M485.98 115.78L485.98 88.87L484.13 64.68" stroke="#FFFFFF" stroke-opacity="1.000000" stroke-width="1.000000"/>
		<path id="Vector" d="M489.43 79.98L485.49 82.42" stroke="#FFFFFF" stroke-opacity="1.000000" stroke-width="1.000000"/>
		<path id="Vector" d="M490.31 91.36C490.31 91.36 488.16 91.46 488.16 95.04L488.16 113.87L498.5 116.71L498.02 92.69L490.31 91.36Z" stroke="#FFFFFF" stroke-opacity="1.000000" stroke-width="1.000000"/>
		<path id="Vector" d="M495.12 92.19L495.12 115.78" stroke="#FFFFFF" stroke-opacity="1.000000" stroke-width="1.000000"/>
		<path id="Vector" d="M499.82 118.68L481.42 114.79L481.42 134.47L484.13 135.86L483.87 145.79" stroke="#FFFFFF" stroke-opacity="1.000000" stroke-width="1.000000"/>
		<path id="Vector" d="M481.42 114.79L452.08 109.91L401.33 109.91" stroke="#FFFFFF" stroke-opacity="1.000000" stroke-width="1.000000"/>
		<path id="Vector" d="M415.12 106.81C415.12 106.81 402.74 118.87 403.35 139.54L397.73 139.54L397.73 125.02C397.73 125.02 400.49 108.75 403.76 106.81" stroke="#FFFFFF" stroke-opacity="1.000000" stroke-width="1.000000"/>
		<path id="Vector" d="M481.42 116.71L457.9 114.39" stroke="#FFFFFF" stroke-opacity="1.000000" stroke-width="1.000000"/>
		<path id="Vector" d="M481.42 120.88L460.54 117.24" stroke="#FFFFFF" stroke-opacity="1.000000" stroke-width="1.000000"/>
		<path id="Vector" d="M481.42 124.51L464.44 122.67" stroke="#FFFFFF" stroke-opacity="1.000000" stroke-width="1.000000"/>
		<path id="Vector" d="M481.03 127.71L465.88 125.87" stroke="#FFFFFF" stroke-opacity="1.000000" stroke-width="1.000000"/>
		<path id="Vector" d="M452.08 109.91C452.08 109.91 467.39 118.57 467.9 135.05L463.25 135.05" stroke="#FFFFFF" stroke-opacity="1.000000" stroke-width="1.000000"/>
		<path id="Vector" d="M481.42 132.28L467.68 132.28" stroke="#FFFFFF" stroke-opacity="1.000000" stroke-width="1.000000"/>
		<path id="Vector" d="M484.11 136.41L470.06 136.41L470.06 141.25L483.98 141.25" stroke="#FFFFFF" stroke-opacity="1.000000" stroke-width="1.000000"/>
		<path id="Vector" d="M483.94 143.12L465.2 143.12L465.2 135.04C465.2 135.04 463.96 112.84 439.33 112.84L401.34 112.09" stroke="#FFFFFF" stroke-opacity="1.000000" stroke-width="1.000000"/>
		<path id="Vector" d="M454.56 133.59L458.49 133.59" stroke="#FFFFFF" stroke-opacity="1.000000" stroke-width="1.000000"/>
		<path id="Vector" d="M459.98 133.59L463.23 133.59" stroke="#FFFFFF" stroke-opacity="1.000000" stroke-width="1.000000"/>
		<path id="Vector" d="M456.2 137.45L458.27 137.45" stroke="#FFFFFF" stroke-opacity="1.000000" stroke-width="1.000000"/>
		<path id="Vector" d="M460.19 137.45L463.29 137.45" stroke="#FFFFFF" stroke-opacity="1.000000" stroke-width="1.000000"/>
		<path id="Vector" d="M458.27 137.45C458.45 138.54 458.82 139.28 459.23 139.28C459.65 139.28 460.02 138.54 460.19 137.45C460.26 137 460.31 136.51 460.31 135.97C460.31 135.03 460.18 134.18 459.98 133.59C459.78 133.01 459.52 132.67 459.24 132.67C458.97 132.67 458.69 133.02 458.49 133.59C458.29 134.19 458.16 135.03 458.16 135.97L458.16 135.97C458.16 136.5 458.2 137 458.27 137.45Z" stroke="#FFFFFF" stroke-opacity="1.000000" stroke-width="1.000000"/>
		<path id="Vector" d="M403.4 133.59L406.1 133.59" stroke="#FFFFFF" stroke-opacity="1.000000" stroke-width="1.000000"/>
		<path id="Vector" d="M407.58 133.59L410.46 133.59" stroke="#FFFFFF" stroke-opacity="1.000000" stroke-width="1.000000"/>
		<path id="Vector" d="M403.49 137.45L405.88 137.45" stroke="#FFFFFF" stroke-opacity="1.000000" stroke-width="1.000000"/>
		<path id="Vector" d="M409.02 137.45L409.08 137.45L407.8 137.45" stroke="#FFFFFF" stroke-opacity="1.000000" stroke-width="1.000000"/>
		<path id="Vector" d="M405.88 137.45C406.06 138.54 406.43 139.28 406.84 139.28C407.26 139.28 407.63 138.54 407.8 137.45C407.87 137 407.92 136.51 407.92 135.97C407.92 135.03 407.79 134.18 407.59 133.59C407.39 133.01 407.12 132.67 406.85 132.67C406.57 132.67 406.3 133.02 406.1 133.59C405.9 134.19 405.77 135.03 405.77 135.97L405.77 135.97C405.77 136.5 405.8 137 405.88 137.45Z" stroke="#FFFFFF" stroke-opacity="1.000000" stroke-width="1.000000"/>
		<path id="Vector" d="M462.12 129.93C462.12 129.93 454.11 132.82 454.12 120.38" stroke="#FFFFFF" stroke-opacity="1.000000" stroke-width="1.000000"/>
		<path id="Vector" d="M454.56 124.82C454.56 124.82 452.21 127.21 449.35 126.58" stroke="#FFFFFF" stroke-opacity="1.000000" stroke-width="1.000000"/>
		<path id="Vector" d="M446.48 124.29L446.48 116.73" stroke="#FFFFFF" stroke-opacity="1.000000" stroke-width="1.000000"/>
		<path id="Vector" d="M443 105.99C445.03 105.99 446.67 103.88 446.67 101.28C446.67 98.68 445.03 96.58 443 96.58C440.98 96.58 439.33 98.68 439.33 101.28C439.33 103.88 440.98 105.99 443 105.99Z" stroke="#FFFFFF" stroke-opacity="1.000000" stroke-width="1.000000"/>
		<path id="Vector" d="M417.65 124.99L396.19 124.99" stroke="#FFFFFF" stroke-opacity="1.000000" stroke-width="1.000000"/>
		<path id="Vector" d="M396.4 118.06L396.4 140.84L378.28 140.84L378.28 112.35L382.38 112.35" stroke="#FFFFFF" stroke-opacity="1.000000" stroke-width="1.000000"/>
		<path id="Vector" d="M397.73 135.45L396.4 135.45" stroke="#FFFFFF" stroke-opacity="1.000000" stroke-width="1.000000"/>
		<path id="Vector" d="M397.73 138.29L396.4 138.29" stroke="#FFFFFF" stroke-opacity="1.000000" stroke-width="1.000000"/>
		<path id="Vector" d="M401.71 139.54L400.49 154.43C400.49 154.43 400.49 155.31 399.06 155.31C397.62 155.31 397.73 154.03 397.73 154.03L398.91 139.54" stroke="#FFFFFF" stroke-opacity="1.000000" stroke-width="1.000000"/>
		<path id="Vector" d="M415.8 15.45L413.49 25.39L411.54 88.95" stroke="#FFFFFF" stroke-opacity="1.000000" stroke-width="1.000000"/>
		<path id="Vector" d="M418.66 46.22L412.86 46.22" stroke="#FFFFFF" stroke-opacity="1.000000" stroke-width="1.000000"/>
		<path id="Vector" d="M417.71 89.83L417.71 106.81" stroke="#FFFFFF" stroke-opacity="1.000000" stroke-width="1.000000"/>
		<path id="Vector" d="M412.86 88.95L412.86 106.81" stroke="#FFFFFF" stroke-opacity="1.000000" stroke-width="1.000000"/>
		<path id="Vector" d="M353.57 112.54L378.28 112.54" stroke="#FFFFFF" stroke-opacity="1.000000" stroke-width="1.000000"/>
		<path id="Vector" d="M378.28 140.84L298.76 140.84" stroke="#FFFFFF" stroke-opacity="1.000000" stroke-width="1.000000"/>
		<path id="Vector" d="M375.53 112.54L375.53 125.63" stroke="#FFFFFF" stroke-opacity="1.000000" stroke-width="1.000000"/>
		<path id="Vector" d="M302.57 125.63L378.29 125.63" stroke="#FFFFFF" stroke-opacity="1.000000" stroke-width="1.000000"/>
		<path id="Vector" d="M367.95 112.54L367.95 125.63" stroke="#FFFFFF" stroke-opacity="1.000000" stroke-width="1.000000"/>
		<path id="Vector" d="M365.65 112.54L365.65 125.63" stroke="#FFFFFF" stroke-opacity="1.000000" stroke-width="1.000000"/>
		<path id="Vector" d="M363.76 112.54L363.76 125.63" stroke="#FFFFFF" stroke-opacity="1.000000" stroke-width="1.000000"/>
		<path id="Vector" d="M361.87 112.54L361.87 125.63" stroke="#FFFFFF" stroke-opacity="1.000000" stroke-width="1.000000"/>
		<path id="Vector" d="M359.97 112.54L359.97 125.63" stroke="#FFFFFF" stroke-opacity="1.000000" stroke-width="1.000000"/>
		<path id="Vector" d="M358.08 112.54L358.08 125.63" stroke="#FFFFFF" stroke-opacity="1.000000" stroke-width="1.000000"/>
		<path id="Vector" d="M356.18 112.54L356.18 125.63" stroke="#FFFFFF" stroke-opacity="1.000000" stroke-width="1.000000"/>
		<path id="Vector" d="M354.3 112.54L354.3 125.63" stroke="#FFFFFF" stroke-opacity="1.000000" stroke-width="1.000000"/>
		<path id="Vector" d="M352.4 112.54L352.4 125.63L352.4 135.35" stroke="#FFFFFF" stroke-opacity="1.000000" stroke-width="1.000000"/>
		<path id="Vector" d="M350.51 112.54L350.51 125.63" stroke="#FFFFFF" stroke-opacity="1.000000" stroke-width="1.000000"/>
		<path id="Vector" d="M348.62 112.54L348.62 125.63" stroke="#FFFFFF" stroke-opacity="1.000000" stroke-width="1.000000"/>
		<path id="Vector" d="M346.72 112.54L346.72 125.63L346.72 131.01" stroke="#FFFFFF" stroke-opacity="1.000000" stroke-width="1.000000"/>
		<path id="Vector" d="M364.3 125.63L364.3 136.92L361.87 138.97L358.95 138.97L358.95 140.84L355.78 143.39L346.72 143.39L346.72 135.35" stroke="#FFFFFF" stroke-opacity="1.000000" stroke-width="1.000000"/>
		<path id="Vector" d="M364.3 136.92L378.34 136.92" stroke="#FFFFFF" stroke-opacity="1.000000" stroke-width="1.000000"/>
		<path id="Vector" d="M368.31 136.92L368.31 140.84" stroke="#FFFFFF" stroke-opacity="1.000000" stroke-width="1.000000"/>
		<path id="Vector" d="M367.34 136.92L367.34 140.84" stroke="#FFFFFF" stroke-opacity="1.000000" stroke-width="1.000000"/>
		<path id="Vector" d="M366.37 136.92L366.37 140.84" stroke="#FFFFFF" stroke-opacity="1.000000" stroke-width="1.000000"/>
		<path id="Vector" d="M365.4 136.92L365.4 140.84" stroke="#FFFFFF" stroke-opacity="1.000000" stroke-width="1.000000"/>
		<path id="Vector" d="M364.42 140.84L364.42 136.92L351 136.92L351 125.63" stroke="#FFFFFF" stroke-opacity="1.000000" stroke-width="1.000000"/>
		<path id="Vector" d="M312.23 121.71C315.49 121.71 318.13 119.07 318.13 115.81C318.13 112.55 315.49 109.91 312.23 109.91C308.97 109.91 306.33 112.55 306.33 115.81C306.33 119.07 308.97 121.71 312.23 121.71Z" stroke="#FFFFFF" stroke-opacity="1.000000" stroke-width="1.000000"/>
		<path id="Vector" d="M311.53 117.44C312.43 117.44 313.16 116.71 313.16 115.81C313.16 114.91 312.43 114.17 311.53 114.17C310.63 114.17 309.89 114.91 309.89 115.81C309.89 116.71 310.63 117.44 311.53 117.44Z" stroke="#FFFFFF" stroke-opacity="1.000000" stroke-width="1.000000"/>
		<path id="Vector" d="M312.23 133.51C315.49 133.51 318.13 130.87 318.13 127.61C318.13 124.35 315.49 121.71 312.23 121.71C308.97 121.71 306.33 124.35 306.33 127.61C306.33 130.87 308.97 133.51 312.23 133.51Z" stroke="#FFFFFF" stroke-opacity="1.000000" stroke-width="1.000000"/>
		<path id="Vector" d="M311.53 129.25C312.43 129.25 313.16 128.52 313.16 127.61C313.16 126.71 312.43 125.98 311.53 125.98C310.63 125.98 309.89 126.71 309.89 127.61C309.89 128.52 310.63 129.25 311.53 129.25Z" stroke="#FFFFFF" stroke-opacity="1.000000" stroke-width="1.000000"/>
		<path id="Vector" d="M324.03 133.51C327.29 133.51 329.94 130.87 329.94 127.61C329.94 124.35 327.29 121.71 324.03 121.71C320.77 121.71 318.13 124.35 318.13 127.61C318.13 130.87 320.77 133.51 324.03 133.51Z" stroke="#FFFFFF" stroke-opacity="1.000000" stroke-width="1.000000"/>
		<path id="Vector" d="M323.32 129.25C324.23 129.25 324.96 128.52 324.96 127.61C324.96 126.71 324.23 125.98 323.32 125.98C322.42 125.98 321.69 126.71 321.69 127.61C321.69 128.52 322.42 129.25 323.32 129.25Z" stroke="#FFFFFF" stroke-opacity="1.000000" stroke-width="1.000000"/>
		<path id="Vector" d="M353.58 112.54L317 112.54" stroke="#FFFFFF" stroke-opacity="1.000000" stroke-width="1.000000"/>
		<path id="Vector" d="M335.98 112.54L332.04 109.91L324.97 110.13L323.6 111.52L316.14 111.4" stroke="#FFFFFF" stroke-opacity="1.000000" stroke-width="1.000000"/>
		<path id="Vector" d="M333.61 112.54L333.61 122.46L338.05 125.63" stroke="#FFFFFF" stroke-opacity="1.000000" stroke-width="1.000000"/>
		<path id="Vector" d="M344.83 121.71L339.88 119.08L339.88 112.54" stroke="#FFFFFF" stroke-opacity="1.000000" stroke-width="1.000000"/>
		<path id="Vector" d="M339.88 119.08L333.61 119.08" stroke="#FFFFFF" stroke-opacity="1.000000" stroke-width="1.000000"/>
		<path id="Vector" d="M358.95 125.63L358.95 133.97L358.08 135.35L351 135.35L344.83 135.35L344.83 125.63L344.83 112.54" stroke="#FFFFFF" stroke-opacity="1.000000" stroke-width="1.000000"/>
		<path id="Vector" d="M356.8 125.63L356.8 135.35L356.8 136.92" stroke="#FFFFFF" stroke-opacity="1.000000" stroke-width="1.000000"/>
		<path id="Vector" d="M352.4 135.35L352.4 136.92L352.4 140.84" stroke="#FFFFFF" stroke-opacity="1.000000" stroke-width="1.000000"/>
		<path id="Vector" d="M351 136.92L351 140.84" stroke="#FFFFFF" stroke-opacity="1.000000" stroke-width="1.000000"/>
		<path id="Vector" d="M342.36 125.63L342.36 133.51L344.83 135.35L344.83 145.18L343.59 145.18L343.59 148.6L334.24 148.6L334.24 148.09L331.53 148.09L331.53 144.76L329.93 144.76L329.93 143.18L328.87 143.18L328.87 145.07L327.03 145.07L327.03 142.67L328 142.67L328 140.84L328 137.11L333.61 131.01L351 131.01L358.95 131.01" stroke="#FFFFFF" stroke-opacity="1.000000" stroke-width="1.000000"/>
		<path id="Vector" d="M333.61 131.01L333.61 129.16L329.7 129.16" stroke="#FFFFFF" stroke-opacity="1.000000" stroke-width="1.000000"/>
		<path id="Vector" d="M329.93 127.61L333.61 127.61L331.7 125.7" stroke="#FFFFFF" stroke-opacity="1.000000" stroke-width="1.000000"/>
		<path id="Vector" d="M343.45 140.84L343.45 137.11L341.19 134.85L335.29 134.85L333.63 136.52L333.63 140.84" stroke="#FFFFFF" stroke-opacity="1.000000" stroke-width="1.000000"/>
		<path id="Vector" d="M343.59 145.18L343.59 142.98L333.61 142.98L333.61 148.09" stroke="#FFFFFF" stroke-opacity="1.000000" stroke-width="1.000000"/>
		<path id="Vector" d="M329.23 135.35L304.76 135.35L304.76 120.08L306.33 117.12" stroke="#FFFFFF" stroke-opacity="1.000000" stroke-width="1.000000"/>
		<path id="Vector" d="M307.32 112.54L283.07 112.54L283.07 109.64L185.67 109.64" stroke="#FFFFFF" stroke-opacity="1.000000" stroke-width="1.000000"/>
		<path id="Vector" d="M320.72 135.35L317.66 138.41L314.77 135.51" stroke="#FFFFFF" stroke-opacity="1.000000" stroke-width="1.000000"/>
		<path id="Vector" d="M316.54 137.29L298.76 137.29L298.76 142.24L319.36 142.24L322.15 145.03L325.56 145.03L325.56 140.83" stroke="#FFFFFF" stroke-opacity="1.000000" stroke-width="1.000000"/>
		<path id="Vector" d="M313.16 137.29L313.16 142.24" stroke="#FFFFFF" stroke-opacity="1.000000" stroke-width="1.000000"/>
		<path id="Vector" d="M310.81 137.29L310.81 142.24" stroke="#FFFFFF" stroke-opacity="1.000000" stroke-width="1.000000"/>
		<path id="Vector" d="M322.63 135.35L319.51 138.47L319.51 142.24" stroke="#FFFFFF" stroke-opacity="1.000000" stroke-width="1.000000"/>
		<path id="Vector" d="M302.68 112.54L302.68 133.51L304.76 135.35" stroke="#FFFFFF" stroke-opacity="1.000000" stroke-width="1.000000"/>
		<path id="Vector" d="M297.05 123.54C298.03 123.54 298.82 122.75 298.82 121.77C298.82 120.8 298.03 120 297.05 120C296.07 120 295.28 120.8 295.28 121.77C295.28 122.75 296.07 123.54 297.05 123.54Z" stroke="#FFFFFF" stroke-opacity="1.000000" stroke-width="1.000000"/>
		<path id="Vector" d="M239.69 143.27L243.85 144.55C244.09 144.62 244.12 144.95 243.91 145.08L237.36 148.87C237.27 148.93 237.14 148.93 237.06 148.86L231.86 145.26C231.52 145.03 231.57 144.53 231.95 144.36L234.38 143.26" stroke="#FFFFFF" stroke-opacity="1.000000" stroke-width="1.000000"/>
		<path id="Vector" d="M302.57 124.81L233.48 124.81" stroke="#FFFFFF" stroke-opacity="1.000000" stroke-width="1.000000"/>
		<path id="Vector" d="M240.22 143.27L236.3 143.27" stroke="#FFFFFF" stroke-opacity="1.000000" stroke-width="1.000000"/>
		<path id="Vector" d="M239.69 143.27L239.69 145.85L235.53 145.85L235.53 143.83" stroke="#FFFFFF" stroke-opacity="1.000000" stroke-width="1.000000"/>
		<path id="Vector" d="M282.92 111.88L220.08 111.88" stroke="#FFFFFF" stroke-opacity="1.000000" stroke-width="1.000000"/>
		<path id="Vector" d="M185.82 109.6L175.22 116.11L175.24 124.23L168.42 124.23L168.42 130.31L178.11 130.31" stroke="#FFFFFF" stroke-opacity="1.000000" stroke-width="1.000000"/>
		<path id="Vector" d="M172.44 124.23L172.44 130.31" stroke="#FFFFFF" stroke-opacity="1.000000" stroke-width="1.000000"/>
		<path id="Vector" d="M170.26 124.23L170.26 130.31" stroke="#FFFFFF" stroke-opacity="1.000000" stroke-width="1.000000"/>
		<path id="Vector" d="M175.24 124.23L178.72 124.23L178.72 120.31L181.04 117.91L184.77 117.91L184.77 113.8L178.98 113.8" stroke="#FFFFFF" stroke-opacity="1.000000" stroke-width="1.000000"/>
		<path id="Vector" d="M229.09 109.64L224.86 105.95L101.45 105.95L101.45 111.41L123.54 111.41" stroke="#FFFFFF" stroke-opacity="1.000000" stroke-width="1.000000"/>
		<path id="Vector" d="M195.8 111.41L182.94 111.41L146.68 111.41" stroke="#FFFFFF" stroke-opacity="1.000000" stroke-width="1.000000"/>
		<path id="Vector" d="M179.53 142.64L179.53 154.17C179.53 154.17 179.19 155.46 177.66 155.46L177.66 143.27" stroke="#FFFFFF" stroke-opacity="1.000000" stroke-width="1.000000"/>
		<path id="Vector" d="M228.1 124.48L221.62 125.02" stroke="#FFFFFF" stroke-opacity="1.000000" stroke-width="1.000000"/>
		<path id="Vector" d="M191.61 125.09L186.38 124.89" stroke="#FFFFFF" stroke-opacity="1.000000" stroke-width="1.000000"/>
		<path id="Vector" d="M184.77 113.8L193.31 111.41" stroke="#FFFFFF" stroke-opacity="1.000000" stroke-width="1.000000"/>
		<path id="Vector" d="M432.54 169.48C446.2 169.48 457.28 158.4 457.28 144.74C457.28 137.56 454.23 131.1 449.35 126.58C448.45 125.75 447.48 124.98 446.46 124.29C442.5 121.58 437.71 120 432.54 120C418.87 120 407.79 131.07 407.79 144.74L407.8 144.74C407.8 158.4 418.88 169.48 432.54 169.48Z" stroke="#FFFFFF" stroke-opacity="1.000000" stroke-width="1.000000"/>
		<path id="Vector" d="M432.55 158.55C440.18 158.55 446.36 152.37 446.36 144.74C446.36 137.12 440.18 130.94 432.55 130.94C424.92 130.94 418.74 137.12 418.74 144.74C418.74 152.37 424.92 158.55 432.55 158.55Z" stroke="#FFFFFF" stroke-opacity="1.000000" stroke-width="1.000000"/>
		<path id="Vector" d="M432.55 155.65C438.58 155.65 443.46 150.77 443.46 144.74C443.46 138.72 438.58 133.83 432.55 133.83C426.53 133.83 421.64 138.72 421.64 144.74C421.64 150.77 426.53 155.65 432.55 155.65Z" stroke="#FFFFFF" stroke-opacity="1.000000" stroke-width="1.000000"/>
		<path id="Vector" d="M432.55 151.12C436.07 151.12 438.93 148.27 438.93 144.74C438.93 141.22 436.07 138.36 432.55 138.36C429.03 138.36 426.17 141.22 426.17 144.74C426.17 148.27 429.03 151.12 432.55 151.12Z" stroke="#FFFFFF" stroke-opacity="1.000000" stroke-width="1.000000"/>
		<path id="Vector" d="M434.9 138.45C435.38 138.45 435.77 138.06 435.77 137.58C435.77 137.09 435.38 136.7 434.9 136.7C434.42 136.7 434.03 137.09 434.03 137.58C434.03 138.06 434.42 138.45 434.9 138.45Z" stroke="#FFFFFF" stroke-opacity="1.000000" stroke-width="1.000000"/>
		<path id="Vector" d="M438.96 141.63C439.44 141.63 439.83 141.24 439.83 140.76C439.83 140.28 439.44 139.89 438.96 139.89C438.47 139.89 438.08 140.28 438.08 140.76C438.08 141.24 438.47 141.63 438.96 141.63Z" stroke="#FFFFFF" stroke-opacity="1.000000" stroke-width="1.000000"/>
		<path id="Vector" d="M440.01 146.69C440.49 146.69 440.88 146.3 440.88 145.81C440.88 145.33 440.49 144.94 440.01 144.94C439.53 144.94 439.14 145.33 439.14 145.81C439.14 146.3 439.53 146.69 440.01 146.69Z" stroke="#FFFFFF" stroke-opacity="1.000000" stroke-width="1.000000"/>
		<path id="Vector" d="M437.58 151.23C438.06 151.23 438.45 150.84 438.45 150.36C438.45 149.87 438.06 149.48 437.58 149.48C437.1 149.48 436.71 149.87 436.71 150.36C436.71 150.84 437.1 151.23 437.58 151.23Z" stroke="#FFFFFF" stroke-opacity="1.000000" stroke-width="1.000000"/>
		<path id="Vector" d="M432.79 153.14C433.28 153.14 433.67 152.75 433.67 152.27C433.67 151.79 433.28 151.4 432.79 151.4C432.31 151.4 431.92 151.79 431.92 152.27C431.92 152.75 432.31 153.14 432.79 153.14Z" stroke="#FFFFFF" stroke-opacity="1.000000" stroke-width="1.000000"/>
		<path id="Vector" d="M427.9 151.54C428.38 151.54 428.77 151.15 428.77 150.67C428.77 150.19 428.38 149.8 427.9 149.8C427.42 149.8 427.03 150.19 427.03 150.67C427.03 151.15 427.42 151.54 427.9 151.54Z" stroke="#FFFFFF" stroke-opacity="1.000000" stroke-width="1.000000"/>
		<path id="Vector" d="M425.17 147.16C425.65 147.16 426.04 146.77 426.04 146.29C426.04 145.81 425.65 145.42 425.17 145.42C424.69 145.42 424.3 145.81 424.3 146.29C424.3 146.77 424.69 147.16 425.17 147.16Z" stroke="#FFFFFF" stroke-opacity="1.000000" stroke-width="1.000000"/>
		<path id="Vector" d="M425.9 142.06C426.38 142.06 426.78 141.67 426.78 141.18C426.78 140.7 426.38 140.31 425.9 140.31C425.42 140.31 425.03 140.7 425.03 141.18C425.03 141.67 425.42 142.06 425.9 142.06Z" stroke="#FFFFFF" stroke-opacity="1.000000" stroke-width="1.000000"/>
		<path id="Vector" d="M429.75 138.62C430.23 138.62 430.62 138.23 430.62 137.75C430.62 137.27 430.23 136.88 429.75 136.88C429.26 136.88 428.87 137.27 428.87 137.75C428.87 138.23 429.26 138.62 429.75 138.62Z" stroke="#FFFFFF" stroke-opacity="1.000000" stroke-width="1.000000"/>
		<path id="Vector" d="M180.93 142.24C180.93 142.24 181.01 114.69 207.89 114.69C234.76 114.69 232.3 142.24 232.3 142.24L236.53 144.28L236.53 135.35C236.53 135.35 234.76 109.64 207.96 109.64C181.16 109.64 178.01 131.01 178.01 131.01L177.48 142.88C177.47 143.07 177.66 143.21 177.84 143.16L177.85 143.15L180.93 142.24Z" stroke="#FFFFFF" stroke-opacity="1.000000" stroke-width="1.000000"/>
		<path id="Vector" d="M236.53 135.35L236.53 125.63L236.53 120.01L227.49 116.5L223.49 119.34" stroke="#FFFFFF" stroke-opacity="1.000000" stroke-width="1.000000"/>
		<path id="Vector" d="M185.88 117.12L191.3 119.75" stroke="#FFFFFF" stroke-opacity="1.000000" stroke-width="1.000000"/>
		<path id="Vector" d="M206.59 169.48C220.25 169.48 231.33 158.4 231.33 144.74C231.33 137.56 228.28 131.1 223.4 126.58C222.5 125.75 221.53 124.98 220.51 124.29C216.55 121.58 211.76 120 206.59 120C192.92 120 181.85 131.07 181.85 144.74L181.85 144.74C181.85 158.4 192.94 169.48 206.59 169.48Z" stroke="#FFFFFF" stroke-opacity="1.000000" stroke-width="1.000000"/>
		<path id="Vector" d="M206.59 158.55C214.22 158.55 220.4 152.37 220.4 144.75C220.4 137.12 214.22 130.94 206.59 130.94C198.97 130.94 192.79 137.12 192.79 144.75C192.79 152.37 198.97 158.55 206.59 158.55Z" stroke="#FFFFFF" stroke-opacity="1.000000" stroke-width="1.000000"/>
		<path id="Vector" d="M206.6 155.65C212.62 155.65 217.5 150.77 217.5 144.75C217.5 138.72 212.62 133.84 206.6 133.84C200.57 133.84 195.69 138.72 195.69 144.75C195.69 150.77 200.57 155.65 206.6 155.65Z" stroke="#FFFFFF" stroke-opacity="1.000000" stroke-width="1.000000"/>
		<path id="Vector" d="M206.6 151.13C210.12 151.13 212.98 148.27 212.98 144.75C212.98 141.22 210.12 138.36 206.6 138.36C203.07 138.36 200.21 141.22 200.21 144.75C200.21 148.27 203.07 151.13 206.6 151.13Z" stroke="#FFFFFF" stroke-opacity="1.000000" stroke-width="1.000000"/>
		<path id="Vector" d="M208.94 138.45C209.43 138.45 209.82 138.06 209.82 137.58C209.82 137.1 209.43 136.71 208.94 136.71C208.46 136.71 208.07 137.1 208.07 137.58C208.07 138.06 208.46 138.45 208.94 138.45Z" stroke="#FFFFFF" stroke-opacity="1.000000" stroke-width="1.000000"/>
		<path id="Vector" d="M213 141.63C213.48 141.63 213.87 141.24 213.87 140.76C213.87 140.28 213.48 139.89 213 139.89C212.52 139.89 212.13 140.28 212.13 140.76C212.13 141.24 212.52 141.63 213 141.63Z" stroke="#FFFFFF" stroke-opacity="1.000000" stroke-width="1.000000"/>
		<path id="Vector" d="M214.06 146.69C214.54 146.69 214.93 146.3 214.93 145.81C214.93 145.33 214.54 144.94 214.06 144.94C213.58 144.94 213.19 145.33 213.19 145.81C213.19 146.3 213.58 146.69 214.06 146.69Z" stroke="#FFFFFF" stroke-opacity="1.000000" stroke-width="1.000000"/>
		<path id="Vector" d="M211.62 151.23C212.11 151.23 212.5 150.84 212.5 150.36C212.5 149.88 212.11 149.49 211.62 149.49C211.14 149.49 210.75 149.88 210.75 150.36C210.75 150.84 211.14 151.23 211.62 151.23Z" stroke="#FFFFFF" stroke-opacity="1.000000" stroke-width="1.000000"/>
		<path id="Vector" d="M206.84 153.15C207.32 153.15 207.71 152.75 207.71 152.27C207.71 151.79 207.32 151.4 206.84 151.4C206.36 151.4 205.97 151.79 205.97 152.27C205.97 152.75 206.36 153.15 206.84 153.15Z" stroke="#FFFFFF" stroke-opacity="1.000000" stroke-width="1.000000"/>
		<path id="Vector" d="M201.94 151.54C202.42 151.54 202.81 151.15 202.81 150.67C202.81 150.19 202.42 149.8 201.94 149.8C201.46 149.8 201.07 150.19 201.07 150.67C201.07 151.15 201.46 151.54 201.94 151.54Z" stroke="#FFFFFF" stroke-opacity="1.000000" stroke-width="1.000000"/>
		<path id="Vector" d="M199.21 147.17C199.7 147.17 200.09 146.78 200.09 146.29C200.09 145.81 199.7 145.42 199.21 145.42C198.73 145.42 198.34 145.81 198.34 146.29C198.34 146.78 198.73 147.17 199.21 147.17Z" stroke="#FFFFFF" stroke-opacity="1.000000" stroke-width="1.000000"/>
		<path id="Vector" d="M199.95 142.06C200.43 142.06 200.82 141.67 200.82 141.19C200.82 140.7 200.43 140.31 199.95 140.31C199.46 140.31 199.07 140.7 199.07 141.19C199.07 141.67 199.46 142.06 199.95 142.06Z" stroke="#FFFFFF" stroke-opacity="1.000000" stroke-width="1.000000"/>
		<path id="Vector" d="M203.79 138.62C204.27 138.62 204.66 138.23 204.66 137.75C204.66 137.27 204.27 136.88 203.79 136.88C203.31 136.88 202.92 137.27 202.92 137.75C202.92 138.23 203.31 138.62 203.79 138.62Z" stroke="#FFFFFF" stroke-opacity="1.000000" stroke-width="1.000000"/>
		<path id="Vector" d="M108.62 142.24C108.62 142.24 108.7 114.69 135.58 114.69C162.46 114.69 160 142.24 160 142.24L164.22 144.28L164.22 135.35C164.22 135.35 162.45 109.64 135.65 109.64C108.85 109.64 105.71 131.01 105.71 131.01L105.17 142.88C105.16 143.07 105.35 143.21 105.53 143.16L105.54 143.15L108.62 142.24Z" stroke="#FFFFFF" stroke-opacity="1.000000" stroke-width="1.000000"/>
		<path id="Vector" d="M164.22 135.35L164.22 125.63L164.22 120.01L155.18 116.5L151.19 119.34" stroke="#FFFFFF" stroke-opacity="1.000000" stroke-width="1.000000"/>
		<path id="Vector" d="M113.57 117.12L119 119.75" stroke="#FFFFFF" stroke-opacity="1.000000" stroke-width="1.000000"/>
		<path id="Vector" d="M134.29 169.48C147.95 169.48 159.03 158.4 159.03 144.74C159.03 137.56 155.97 131.1 151.09 126.58C150.2 125.75 149.23 124.98 148.21 124.29C144.25 121.58 139.45 120 134.28 120C120.62 120 109.54 131.07 109.54 144.74L109.55 144.74C109.55 158.4 120.63 169.48 134.29 169.48Z" stroke="#FFFFFF" stroke-opacity="1.000000" stroke-width="1.000000"/>
		<path id="Vector" d="M134.29 158.55C141.92 158.55 148.1 152.37 148.1 144.75C148.1 137.12 141.92 130.94 134.29 130.94C126.66 130.94 120.48 137.12 120.48 144.75C120.48 152.37 126.66 158.55 134.29 158.55Z" stroke="#FFFFFF" stroke-opacity="1.000000" stroke-width="1.000000"/>
		<path id="Vector" d="M134.29 155.65C140.32 155.65 145.2 150.77 145.2 144.75C145.2 138.72 140.32 133.84 134.29 133.84C128.27 133.84 123.38 138.72 123.38 144.75C123.38 150.77 128.27 155.65 134.29 155.65Z" stroke="#FFFFFF" stroke-opacity="1.000000" stroke-width="1.000000"/>
		<path id="Vector" d="M134.29 151.13C137.82 151.13 140.67 148.27 140.67 144.75C140.67 141.22 137.82 138.36 134.29 138.36C130.77 138.36 127.91 141.22 127.91 144.75C127.91 148.27 130.77 151.13 134.29 151.13Z" stroke="#FFFFFF" stroke-opacity="1.000000" stroke-width="1.000000"/>
		<path id="Vector" d="M136.64 138.45C137.12 138.45 137.51 138.06 137.51 137.58C137.51 137.1 137.12 136.71 136.64 136.71C136.16 136.71 135.77 137.1 135.77 137.58C135.77 138.06 136.16 138.45 136.64 138.45Z" stroke="#FFFFFF" stroke-opacity="1.000000" stroke-width="1.000000"/>
		<path id="Vector" d="M140.7 141.63C141.18 141.63 141.57 141.24 141.57 140.76C141.57 140.28 141.18 139.89 140.7 139.89C140.21 139.89 139.82 140.28 139.82 140.76C139.82 141.24 140.21 141.63 140.7 141.63Z" stroke="#FFFFFF" stroke-opacity="1.000000" stroke-width="1.000000"/>
		<path id="Vector" d="M141.75 146.69C142.24 146.69 142.63 146.3 142.63 145.81C142.63 145.33 142.24 144.94 141.75 144.94C141.27 144.94 140.88 145.33 140.88 145.81C140.88 146.3 141.27 146.69 141.75 146.69Z" stroke="#FFFFFF" stroke-opacity="1.000000" stroke-width="1.000000"/>
		<path id="Vector" d="M139.32 151.23C139.8 151.23 140.19 150.84 140.19 150.36C140.19 149.88 139.8 149.49 139.32 149.49C138.84 149.49 138.45 149.88 138.45 150.36C138.45 150.84 138.84 151.23 139.32 151.23Z" stroke="#FFFFFF" stroke-opacity="1.000000" stroke-width="1.000000"/>
		<path id="Vector" d="M134.53 153.15C135.02 153.15 135.41 152.75 135.41 152.27C135.41 151.79 135.02 151.4 134.53 151.4C134.05 151.4 133.66 151.79 133.66 152.27C133.66 152.75 134.05 153.15 134.53 153.15Z" stroke="#FFFFFF" stroke-opacity="1.000000" stroke-width="1.000000"/>
		<path id="Vector" d="M129.64 151.54C130.12 151.54 130.51 151.15 130.51 150.67C130.51 150.19 130.12 149.8 129.64 149.8C129.16 149.8 128.76 150.19 128.76 150.67C128.76 151.15 129.16 151.54 129.64 151.54Z" stroke="#FFFFFF" stroke-opacity="1.000000" stroke-width="1.000000"/>
		<path id="Vector" d="M126.91 147.17C127.39 147.17 127.78 146.78 127.78 146.29C127.78 145.81 127.39 145.42 126.91 145.42C126.43 145.42 126.04 145.81 126.04 146.29C126.04 146.78 126.43 147.17 126.91 147.17Z" stroke="#FFFFFF" stroke-opacity="1.000000" stroke-width="1.000000"/>
		<path id="Vector" d="M127.64 142.06C128.12 142.06 128.51 141.67 128.51 141.19C128.51 140.7 128.12 140.31 127.64 140.31C127.16 140.31 126.77 140.7 126.77 141.19C126.77 141.67 127.16 142.06 127.64 142.06Z" stroke="#FFFFFF" stroke-opacity="1.000000" stroke-width="1.000000"/>
		<path id="Vector" d="M131.48 138.62C131.97 138.62 132.36 138.23 132.36 137.75C132.36 137.27 131.97 136.88 131.48 136.88C131 136.88 130.61 137.27 130.61 137.75C130.61 138.23 131 138.62 131.48 138.62Z" stroke="#FFFFFF" stroke-opacity="1.000000" stroke-width="1.000000"/>
		<path id="Vector" d="M397.78 98.32L387.35 98.32L387.35 101.5C387.35 101.5 370.09 99.99 370.09 112.54" stroke="#FFFFFF" stroke-opacity="1.000000" stroke-width="1.000000"/>
		<path id="Vector" d="M111.96 128.22L106.43 128.22L31.95 128.22L31.95 113.8L118.13 113.8" stroke="#FFFFFF" stroke-opacity="1.000000" stroke-width="1.000000"/>
		<path id="Vector" d="M177.66 149.48L158.51 149.8" stroke="#FFFFFF" stroke-opacity="1.000000" stroke-width="1.000000"/>
		<path id="Vector" d="M175.22 116.11L170.14 116.11L170.14 119.95L164.23 119.95" stroke="#FFFFFF" stroke-opacity="1.000000" stroke-width="1.000000"/>
		<path id="Vector" d="M31.95 115.95L38.61 115.95L36.55 121.01L38.98 128.22L6.67 151.79L6.67 141.72L22.4 125.86" stroke="#FFFFFF" stroke-opacity="1.000000" stroke-width="1.000000"/>
		<path id="Vector" d="M31.95 116.95L22.4 116.95L22.4 125.86L31.95 125.86" stroke="#FFFFFF" stroke-opacity="1.000000" stroke-width="1.000000"/>
		<path id="Vector" d="M28.7 125.86L26.39 137.4" stroke="#FFFFFF" stroke-opacity="1.000000" stroke-width="1.000000"/>
		<path id="Vector" d="M3.53 149.44C5.27 149.44 6.67 148.03 6.67 146.29C6.67 144.56 5.27 143.15 3.53 143.15C1.79 143.15 0.39 144.56 0.39 146.29C0.39 148.03 1.79 149.44 3.53 149.44Z" stroke="#FFFFFF" stroke-opacity="1.000000" stroke-width="1.000000"/>
		<path id="Vector" d="M306.36 128.15L236.53 128.15" stroke="#FFFFFF" stroke-opacity="1.000000" stroke-width="1.000000"/>
		<path id="Vector" d="M306.98 130.31L236.53 138.36" stroke="#FFFFFF" stroke-opacity="1.000000" stroke-width="1.000000"/>
	</g>
</svg>
