<svg width="107" height="18" viewBox="0 0 107 18" fill="none" xmlns="http://www.w3.org/2000/svg">
<g clip-path="url(#clip0_596_2576)">
<path d="M6.99422 0C8.0581 0 9.59779 0.204909 11.6117 0.615211V3.82281C10.1133 3.19645 8.72232 2.88391 7.43713 2.88391C5.62749 2.88391 4.72267 3.40394 4.72267 4.4461C4.72267 4.83571 4.90505 5.15342 5.26998 5.3997C5.57344 5.59911 6.40984 6.02008 7.77719 6.66422C9.74589 7.5792 11.0566 8.37459 11.7097 9.05105C12.4846 9.85355 12.8727 10.8918 12.8727 12.1644C12.8727 13.9939 12.1124 15.3893 10.5926 16.3508C9.36151 17.1304 7.76499 17.5187 5.804 17.5187C4.14818 17.5187 2.47969 17.3148 0.799773 16.9045V13.57C2.61343 14.1673 4.21829 14.4661 5.61436 14.4661C7.54199 14.4661 8.5058 13.933 8.5058 12.8674C8.5058 12.4702 8.36558 12.1365 8.08435 11.8661C7.7968 11.5793 7.06047 11.1819 5.8769 10.6727C3.7536 9.75918 2.36896 8.97994 1.72498 8.33564C0.890116 7.48482 0.472839 6.41212 0.472839 5.11577C0.472839 3.44644 1.08099 2.174 2.29638 1.29975C3.49833 0.432926 5.0635 0 6.99422 0ZM100.542 0C101.628 0 103.035 0.180345 104.76 0.542814L105.159 0.615211V3.82281C103.66 3.19645 102.265 2.88391 100.973 2.88391C99.1698 2.88391 98.2707 3.40394 98.2707 4.4461C98.2707 4.83571 98.4522 5.15342 98.816 5.3997C99.1054 5.59152 99.9451 6.01265 101.335 6.66422C103.289 7.5792 104.597 8.37459 105.256 9.05105C106.032 9.85355 106.419 10.8918 106.419 12.1644C106.419 13.9939 105.663 15.3893 104.151 16.3508C102.913 17.1304 101.312 17.5187 99.3518 17.5187C97.6941 17.5187 96.025 17.3148 94.3464 16.9045V13.57C96.1448 14.1673 97.7494 14.4661 99.162 14.4661C101.089 14.4661 102.052 13.933 102.052 12.8674C102.052 12.4702 101.916 12.1365 101.644 11.8661C101.355 11.5793 100.615 11.1819 99.4248 10.6727C97.3078 9.76677 95.9218 8.98786 95.2716 8.33564C94.4374 7.49242 94.0209 6.41568 94.0209 5.10429C94.0209 3.44224 94.6273 2.174 95.8441 1.29975C97.0444 0.432926 98.6112 0 100.542 0ZM44.5892 0.293449L48.6489 11.0817L52.8104 0.293449H58.3609V17.1776H54.0875V5.22321L49.3557 17.349H46.5619L41.921 5.22321V17.1776H38.7456V0.293449H44.5892ZM19.9249 0.293385V17.1775H15.4179V0.293385H19.9249ZM35.6175 0.293449V3.34736H28.4019V7.15983H34.6827V9.94532H28.4019V13.9522H35.8034V17.1776H24.0582V0.293449H35.6175ZM74.0542 0.293449V3.34736H66.8392V7.15983H73.1198V9.94532H66.8392V13.9522H74.2413V17.1776H62.495V0.293449H74.0542ZM82.4304 0.293449L87.9722 11.5961V0.293449H91.1468V17.1776H86.0716L80.3826 5.72288V17.1776H77.2068V0.293449H82.4304Z" fill="#CCCCCC"/>
</g>
<defs>
<clipPath id="clip0_596_2576">
<rect width="106.364" height="18" fill="white" transform="translate(0.472839)"/>
</clipPath>
</defs>
</svg>
