<svg width="423.999390" height="145.613037" viewBox="0 0 423.999 145.613" fill="none" xmlns="http://www.w3.org/2000/svg" xmlns:xlink="http://www.w3.org/1999/xlink">
	<desc>
			Created with Pixso.
	</desc>
	<defs>
		<clipPath id="clip546_6858">
			<rect id="_РЎР»РѕР№_3" rx="-0.404481" width="423.190430" height="144.804031" transform="matrix(-1 0 0 1 424.404 0.404481)" fill="white" fill-opacity="0"/>
		</clipPath>
	</defs>
	<rect id="_РЎР»РѕР№_3" rx="-0.404481" width="423.190430" height="144.804031" transform="matrix(-1 0 0 1 424.404 0.404481)" fill="#FFFFFF" fill-opacity="0"/>
	<g clip-path="url(#clip546_6858)">
		<path id="Vector" d="M387.55 103.27C387.55 89.23 369.58 76.88 369.58 76.88L333.08 76.88C325.22 76.88 322.97 99.07 322.97 99.07L322.97 118.44L326.35 118.44C326.35 96.53 334.77 83.62 354.98 83.62C375.2 83.62 379.69 103.28 379.69 103.28L407.2 103.28L407.14 107.77L421.23 107.77L423.48 105.53L422.35 54.99C422.35 54.99 416.18 23.53 413.94 12.86C411.69 2.2 406.08 2.76 406.08 2.76L338.69 0.5C338.69 0.5 334.09 2.54 333.67 10.54C333.65 10.92 333.64 11.32 333.64 11.73C333.64 11.73 330.84 8.35 328.58 8.35C326.33 8.35 324.09 12.29 324.09 12.29L324.09 38.12L326.34 40.36L326.34 61.7L324.65 61.7L324.65 72.37L322.96 72.37L322.96 80L328.27 80.18" stroke="#FFFFFF" stroke-opacity="1.000000" stroke-width="1.000000"/>
		<path id="Vector" d="M412.78 8.92L333.74 8.92" stroke="#FFFFFF" stroke-opacity="1.000000" stroke-width="1.000000"/>
		<path id="Vector" d="M413.94 12.86C413.94 12.86 402.14 7.81 406.08 31.39C408.19 44.07 415 47.17 420.86 47.33" stroke="#FFFFFF" stroke-opacity="1.000000" stroke-width="1.000000"/>
		<path id="Vector" d="M360.14 8.92L359.5 76.87" stroke="#FFFFFF" stroke-opacity="1.000000" stroke-width="1.000000"/>
		<path id="Vector" d="M360.14 11.21L333.64 11.21" stroke="#FFFFFF" stroke-opacity="1.000000" stroke-width="1.000000"/>
		<path id="Vector" d="M357.79 41.27C357.79 41.27 345.43 40.94 345.43 33.09L345.43 12.87L357.79 12.87L357.79 41.27Z" stroke="#FFFFFF" stroke-opacity="1.000000" stroke-width="1.000000"/>
		<path id="Vector" d="M338.77 11.21L338.77 57.4" stroke="#FFFFFF" stroke-opacity="1.000000" stroke-width="1.000000"/>
		<path id="Vector" d="M359.69 56.97L334.76 57.22" stroke="#FFFFFF" stroke-opacity="1.000000" stroke-width="1.000000"/>
		<path id="Vector" d="M334.76 76.87L334.76 51.81L359.69 56.71" stroke="#FFFFFF" stroke-opacity="1.000000" stroke-width="1.000000"/>
		<path id="Vector" d="M333.64 11.74L333.64 62.83" stroke="#FFFFFF" stroke-opacity="1.000000" stroke-width="1.000000"/>
		<path id="Vector" d="M334.76 62.83L324.65 62.83" stroke="#FFFFFF" stroke-opacity="1.000000" stroke-width="1.000000"/>
		<path id="Vector" d="M333.64 37.28L331.4 40.37L331.4 56.57L333.64 54.41L326.79 62.83" stroke="#FFFFFF" stroke-opacity="1.000000" stroke-width="1.000000"/>
		<path id="Vector" d="M392.56 16.79L366.77 16.79C361.72 16.79 361.72 19.6 361.72 19.6L361.72 33.08C361.72 41.5 364.09 41.26 364.09 41.26C364.09 41.26 397.66 45.99 401.02 45.99C403.56 45.99 404.67 46.94 405.09 40.18C405.21 37.95 405.27 34.86 405.27 30.61C405.27 26.37 404.88 23.02 404.29 20.55C402.55 13.25 399.11 12.87 399.11 12.87L360.1 12.87" stroke="#FFFFFF" stroke-opacity="1.000000" stroke-width="1.000000"/>
		<path id="Vector" d="M422.17 53.98L359.5 43.83C359.5 43.83 344.31 44.3 344.31 35.31L344.31 11.21" stroke="#FFFFFF" stroke-opacity="1.000000" stroke-width="1.000000"/>
		<path id="Vector" d="M405.25 29.24L407.78 51.66L408.19 79.84" stroke="#FFFFFF" stroke-opacity="1.000000" stroke-width="1.000000"/>
		<path id="Vector" d="M410.48 42.4L407 44.75" stroke="#FFFFFF" stroke-opacity="1.000000" stroke-width="1.000000"/>
		<path id="Vector" d="M420.86 78.21C420.86 78.21 419.39 80.46 410.48 77.83L409.44 56.1C409.44 56.1 412.81 51.61 420.1 55.54L420.11 55.54L420.86 78.21Z" stroke="#FFFFFF" stroke-opacity="1.000000" stroke-width="1.000000"/>
		<path id="Vector" d="M416.76 54.21L416.76 79.07" stroke="#FFFFFF" stroke-opacity="1.000000" stroke-width="1.000000"/>
		<path id="Vector" d="M422.95 81.51L401.52 79.07" stroke="#FFFFFF" stroke-opacity="1.000000" stroke-width="1.000000"/>
		<path id="Vector" d="M401.52 103.27L401.52 77.48L374.63 73.51L359.53 73.51" stroke="#FFFFFF" stroke-opacity="1.000000" stroke-width="1.000000"/>
		<path id="Vector" d="M422.99 83.19C422.99 83.19 422.93 85.29 417.87 85.29L417.87 88.59" stroke="#FFFFFF" stroke-opacity="1.000000" stroke-width="1.000000"/>
		<path id="Vector" d="M423.18 92.12L420.12 88.66L411.69 88.1L411.69 84.73L411.69 82.11" stroke="#FFFFFF" stroke-opacity="1.000000" stroke-width="1.000000"/>
		<path id="Vector" d="M411.69 88.1L405.93 88.1L405.93 103.27" stroke="#FFFFFF" stroke-opacity="1.000000" stroke-width="1.000000"/>
		<path id="Vector" d="M407.19 88.39L407.19 103.54" stroke="#FFFFFF" stroke-opacity="1.000000" stroke-width="1.000000"/>
		<path id="Vector" d="M411.69 84.73L401.51 84.73" stroke="#FFFFFF" stroke-opacity="1.000000" stroke-width="1.000000"/>
		<path id="Vector" d="M405.93 84.73L405.93 88.1" stroke="#FFFFFF" stroke-opacity="1.000000" stroke-width="1.000000"/>
		<path id="Vector" d="M408.75 84.73L408.75 88.1" stroke="#FFFFFF" stroke-opacity="1.000000" stroke-width="1.000000"/>
		<path id="Vector" d="M403.98 84.73L403.98 103.55" stroke="#FFFFFF" stroke-opacity="1.000000" stroke-width="1.000000"/>
		<path id="Vector" d="M403.98 86.42L379.52 82.11" stroke="#FFFFFF" stroke-opacity="1.000000" stroke-width="1.000000"/>
		<path id="Vector" d="M403.98 92.04L384.18 88.66" stroke="#FFFFFF" stroke-opacity="1.000000" stroke-width="1.000000"/>
		<path id="Vector" d="M403.98 94.84L385.86 92.04" stroke="#FFFFFF" stroke-opacity="1.000000" stroke-width="1.000000"/>
		<path id="Vector" d="M401.52 99L387.01 99" stroke="#FFFFFF" stroke-opacity="1.000000" stroke-width="1.000000"/>
		<path id="Vector" d="M359.7 56.29C359.7 56.29 373.51 57.78 374.63 61.16C375.74 64.53 377.43 70.7 377.43 70.7L359.49 70.7" stroke="#FFFFFF" stroke-opacity="1.000000" stroke-width="1.000000"/>
		<path id="Vector" d="M365.65 69.58C368.13 69.58 370.14 67.57 370.14 65.09C370.14 62.61 368.13 60.6 365.65 60.6C363.17 60.6 361.16 62.61 361.16 65.09C361.16 67.57 363.17 69.58 365.65 69.58Z" stroke="#FFFFFF" stroke-opacity="1.000000" stroke-width="1.000000"/>
		<path id="Vector" d="M365.65 60.59L365.65 69.58" stroke="#FFFFFF" stroke-opacity="1.000000" stroke-width="1.000000"/>
		<path id="Vector" d="M359.58 68.26L334.76 68.26" stroke="#FFFFFF" stroke-opacity="1.000000" stroke-width="1.000000"/>
		<path id="Vector" d="M359.58 71.62L334.76 71.62" stroke="#FFFFFF" stroke-opacity="1.000000" stroke-width="1.000000"/>
		<path id="Vector" d="M359.58 73.86L334.76 73.86" stroke="#FFFFFF" stroke-opacity="1.000000" stroke-width="1.000000"/>
		<path id="Vector" d="M355.87 145.1C369 145.1 379.66 134.45 379.66 121.31C379.66 114.41 376.71 108.2 372.03 103.86C371.16 103.06 370.24 102.33 369.25 101.65C365.44 99.05 360.83 97.53 355.87 97.53C342.73 97.53 332.08 108.18 332.08 121.32L332.08 121.31C332.08 134.45 342.73 145.1 355.87 145.1Z" stroke="#FFFFFF" stroke-opacity="1.000000" stroke-width="1.000000"/>
		<path id="Vector" d="M355.87 134.59C363.2 134.59 369.14 128.64 369.14 121.31C369.14 113.98 363.2 108.03 355.87 108.03C348.53 108.03 342.59 113.98 342.59 121.31C342.59 128.64 348.53 134.59 355.87 134.59Z" stroke="#FFFFFF" stroke-opacity="1.000000" stroke-width="1.000000"/>
		<path id="Vector" d="M355.87 131.8C361.66 131.8 366.36 127.11 366.36 121.31C366.36 115.52 361.66 110.82 355.87 110.82C350.07 110.82 345.37 115.52 345.37 121.31C345.37 127.11 350.07 131.8 355.87 131.8Z" stroke="#FFFFFF" stroke-opacity="1.000000" stroke-width="1.000000"/>
		<path id="Vector" d="M355.87 127.45C359.25 127.45 362 124.7 362 121.31C362 117.92 359.25 115.17 355.87 115.17C352.48 115.17 349.73 117.92 349.73 121.31C349.73 124.7 352.48 127.45 355.87 127.45Z" stroke="#FFFFFF" stroke-opacity="1.000000" stroke-width="1.000000"/>
		<path id="Vector" d="M358.12 115.26C358.58 115.26 358.95 114.88 358.95 114.42C358.95 113.96 358.58 113.59 358.12 113.59C357.66 113.59 357.29 113.96 357.29 114.42C357.29 114.88 357.66 115.26 358.12 115.26Z" stroke="#FFFFFF" stroke-opacity="1.000000" stroke-width="1.000000"/>
		<path id="Vector" d="M362.02 118.32C362.48 118.32 362.85 117.95 362.85 117.49C362.85 117.03 362.48 116.66 362.02 116.66C361.56 116.66 361.19 117.03 361.19 117.49C361.19 117.95 361.56 118.32 362.02 118.32Z" stroke="#FFFFFF" stroke-opacity="1.000000" stroke-width="1.000000"/>
		<path id="Vector" d="M363.05 123.17C363.51 123.17 363.88 122.8 363.88 122.34C363.88 121.88 363.51 121.5 363.05 121.5C362.59 121.5 362.21 121.88 362.21 122.34C362.21 122.8 362.59 123.17 363.05 123.17Z" stroke="#FFFFFF" stroke-opacity="1.000000" stroke-width="1.000000"/>
		<path id="Vector" d="M360.7 127.54C361.16 127.54 361.53 127.16 361.53 126.7C361.53 126.24 361.16 125.87 360.7 125.87C360.24 125.87 359.87 126.24 359.87 126.7C359.87 127.16 360.24 127.54 360.7 127.54Z" stroke="#FFFFFF" stroke-opacity="1.000000" stroke-width="1.000000"/>
		<path id="Vector" d="M356.1 129.39C356.56 129.39 356.93 129.01 356.93 128.55C356.93 128.09 356.56 127.72 356.1 127.72C355.64 127.72 355.27 128.09 355.27 128.55C355.27 129.01 355.64 129.39 356.1 129.39Z" stroke="#FFFFFF" stroke-opacity="1.000000" stroke-width="1.000000"/>
		<path id="Vector" d="M351.4 127.84C351.86 127.84 352.23 127.47 352.23 127.01C352.23 126.55 351.86 126.18 351.4 126.18C350.94 126.18 350.56 126.55 350.56 127.01C350.56 127.47 350.94 127.84 351.4 127.84Z" stroke="#FFFFFF" stroke-opacity="1.000000" stroke-width="1.000000"/>
		<path id="Vector" d="M348.78 123.64C349.24 123.64 349.61 123.26 349.61 122.8C349.61 122.34 349.24 121.97 348.78 121.97C348.32 121.97 347.94 122.34 347.94 122.8C347.94 123.26 348.32 123.64 348.78 123.64Z" stroke="#FFFFFF" stroke-opacity="1.000000" stroke-width="1.000000"/>
		<path id="Vector" d="M349.48 118.73C349.94 118.73 350.31 118.36 350.31 117.9C350.31 117.44 349.94 117.06 349.48 117.06C349.02 117.06 348.64 117.44 348.64 117.9C348.64 118.36 349.02 118.73 349.48 118.73Z" stroke="#FFFFFF" stroke-opacity="1.000000" stroke-width="1.000000"/>
		<path id="Vector" d="M353.17 115.42C353.63 115.42 354.01 115.05 354.01 114.59C354.01 114.13 353.63 113.75 353.17 113.75C352.71 113.75 352.34 114.13 352.34 114.59C352.34 115.05 352.71 115.42 353.17 115.42Z" stroke="#FFFFFF" stroke-opacity="1.000000" stroke-width="1.000000"/>
		<path id="Vector" d="M161.85 145.1C174.98 145.1 185.64 134.45 185.64 121.31C185.64 114.41 182.69 108.2 178.01 103.86C177.15 103.06 176.22 102.33 175.24 101.65C171.43 99.05 166.82 97.53 161.85 97.53C148.72 97.53 138.06 108.18 138.06 121.32L138.06 121.31C138.06 134.45 148.72 145.1 161.85 145.1Z" stroke="#FFFFFF" stroke-opacity="1.000000" stroke-width="1.000000"/>
		<path id="Vector" d="M161.85 134.59C169.18 134.59 175.13 128.64 175.13 121.31C175.13 113.98 169.18 108.03 161.85 108.03C154.52 108.03 148.57 113.98 148.57 121.31C148.57 128.64 154.52 134.59 161.85 134.59Z" stroke="#FFFFFF" stroke-opacity="1.000000" stroke-width="1.000000"/>
		<path id="Vector" d="M161.85 131.8C167.64 131.8 172.34 127.11 172.34 121.31C172.34 115.52 167.64 110.82 161.85 110.82C156.05 110.82 151.36 115.52 151.36 121.31C151.36 127.11 156.05 131.8 161.85 131.8Z" stroke="#FFFFFF" stroke-opacity="1.000000" stroke-width="1.000000"/>
		<path id="Vector" d="M161.85 127.45C165.24 127.45 167.98 124.7 167.98 121.31C167.98 117.92 165.24 115.17 161.85 115.17C158.46 115.17 155.71 117.92 155.71 121.31C155.71 124.7 158.46 127.45 161.85 127.45Z" stroke="#FFFFFF" stroke-opacity="1.000000" stroke-width="1.000000"/>
		<path id="Vector" d="M164.11 115.26C164.57 115.26 164.94 114.88 164.94 114.42C164.94 113.96 164.57 113.59 164.11 113.59C163.64 113.59 163.27 113.96 163.27 114.42C163.27 114.88 163.64 115.26 164.11 115.26Z" stroke="#FFFFFF" stroke-opacity="1.000000" stroke-width="1.000000"/>
		<path id="Vector" d="M168 118.32C168.46 118.32 168.84 117.95 168.84 117.49C168.84 117.03 168.46 116.66 168 116.66C167.54 116.66 167.17 117.03 167.17 117.49C167.17 117.95 167.54 118.32 168 118.32Z" stroke="#FFFFFF" stroke-opacity="1.000000" stroke-width="1.000000"/>
		<path id="Vector" d="M169.03 123.17C169.49 123.17 169.86 122.8 169.86 122.34C169.86 121.88 169.49 121.5 169.03 121.5C168.57 121.5 168.2 121.88 168.2 122.34C168.2 122.8 168.57 123.17 169.03 123.17Z" stroke="#FFFFFF" stroke-opacity="1.000000" stroke-width="1.000000"/>
		<path id="Vector" d="M166.69 127.54C167.15 127.54 167.52 127.16 167.52 126.7C167.52 126.24 167.15 125.87 166.69 125.87C166.23 125.87 165.85 126.24 165.85 126.7C165.85 127.16 166.23 127.54 166.69 127.54Z" stroke="#FFFFFF" stroke-opacity="1.000000" stroke-width="1.000000"/>
		<path id="Vector" d="M162.08 129.39C162.54 129.39 162.92 129.01 162.92 128.55C162.92 128.09 162.54 127.72 162.08 127.72C161.62 127.72 161.25 128.09 161.25 128.55C161.25 129.01 161.62 129.39 162.08 129.39Z" stroke="#FFFFFF" stroke-opacity="1.000000" stroke-width="1.000000"/>
		<path id="Vector" d="M157.38 127.84C157.84 127.84 158.21 127.47 158.21 127.01C158.21 126.55 157.84 126.18 157.38 126.18C156.92 126.18 156.55 126.55 156.55 127.01C156.55 127.47 156.92 127.84 157.38 127.84Z" stroke="#FFFFFF" stroke-opacity="1.000000" stroke-width="1.000000"/>
		<path id="Vector" d="M154.76 123.64C155.22 123.64 155.59 123.26 155.59 122.8C155.59 122.34 155.22 121.97 154.76 121.97C154.3 121.97 153.93 122.34 153.93 122.8C153.93 123.26 154.3 123.64 154.76 123.64Z" stroke="#FFFFFF" stroke-opacity="1.000000" stroke-width="1.000000"/>
		<path id="Vector" d="M155.46 118.73C155.92 118.73 156.29 118.36 156.29 117.9C156.29 117.44 155.92 117.06 155.46 117.06C155 117.06 154.63 117.44 154.63 117.9C154.63 118.36 155 118.73 155.46 118.73Z" stroke="#FFFFFF" stroke-opacity="1.000000" stroke-width="1.000000"/>
		<path id="Vector" d="M159.16 115.42C159.62 115.42 159.99 115.05 159.99 114.59C159.99 114.13 159.62 113.75 159.16 113.75C158.7 113.75 158.33 114.13 158.33 114.59C158.33 115.05 158.7 115.42 159.16 115.42Z" stroke="#FFFFFF" stroke-opacity="1.000000" stroke-width="1.000000"/>
		<path id="Vector" d="M101.92 145.1C115.05 145.1 125.71 134.45 125.71 121.31C125.71 114.41 122.76 108.2 118.08 103.86C117.22 103.06 116.29 102.33 115.31 101.65C111.5 99.05 106.89 97.53 101.92 97.53C88.78 97.53 78.13 108.18 78.13 121.32L78.13 121.31C78.13 134.45 88.78 145.1 101.92 145.1Z" stroke="#FFFFFF" stroke-opacity="1.000000" stroke-width="1.000000"/>
		<path id="Vector" d="M101.92 134.59C109.25 134.59 115.2 128.64 115.2 121.31C115.2 113.98 109.25 108.03 101.92 108.03C94.59 108.03 88.64 113.98 88.64 121.31C88.64 128.64 94.59 134.59 101.92 134.59Z" stroke="#FFFFFF" stroke-opacity="1.000000" stroke-width="1.000000"/>
		<path id="Vector" d="M101.92 131.8C107.71 131.8 112.41 127.11 112.41 121.31C112.41 115.52 107.71 110.82 101.92 110.82C96.12 110.82 91.43 115.52 91.43 121.31C91.43 127.11 96.12 131.8 101.92 131.8Z" stroke="#FFFFFF" stroke-opacity="1.000000" stroke-width="1.000000"/>
		<path id="Vector" d="M101.92 127.45C105.31 127.45 108.05 124.7 108.05 121.31C108.05 117.92 105.31 115.17 101.92 115.17C98.53 115.17 95.78 117.92 95.78 121.31C95.78 124.7 98.53 127.45 101.92 127.45Z" stroke="#FFFFFF" stroke-opacity="1.000000" stroke-width="1.000000"/>
		<path id="Vector" d="M104.18 115.26C104.64 115.26 105.01 114.88 105.01 114.42C105.01 113.96 104.64 113.59 104.18 113.59C103.72 113.59 103.34 113.96 103.34 114.42C103.34 114.88 103.72 115.26 104.18 115.26Z" stroke="#FFFFFF" stroke-opacity="1.000000" stroke-width="1.000000"/>
		<path id="Vector" d="M108.07 118.32C108.53 118.32 108.91 117.95 108.91 117.49C108.91 117.03 108.53 116.66 108.07 116.66C107.61 116.66 107.24 117.03 107.24 117.49C107.24 117.95 107.61 118.32 108.07 118.32Z" stroke="#FFFFFF" stroke-opacity="1.000000" stroke-width="1.000000"/>
		<path id="Vector" d="M109.1 123.17C109.56 123.17 109.93 122.8 109.93 122.34C109.93 121.88 109.56 121.5 109.1 121.5C108.64 121.5 108.27 121.88 108.27 122.34C108.27 122.8 108.64 123.17 109.1 123.17Z" stroke="#FFFFFF" stroke-opacity="1.000000" stroke-width="1.000000"/>
		<path id="Vector" d="M106.76 127.54C107.22 127.54 107.59 127.16 107.59 126.7C107.59 126.24 107.22 125.87 106.76 125.87C106.3 125.87 105.92 126.24 105.92 126.7C105.92 127.16 106.3 127.54 106.76 127.54Z" stroke="#FFFFFF" stroke-opacity="1.000000" stroke-width="1.000000"/>
		<path id="Vector" d="M102.15 129.39C102.61 129.39 102.99 129.01 102.99 128.55C102.99 128.09 102.61 127.72 102.15 127.72C101.69 127.72 101.32 128.09 101.32 128.55C101.32 129.01 101.69 129.39 102.15 129.39Z" stroke="#FFFFFF" stroke-opacity="1.000000" stroke-width="1.000000"/>
		<path id="Vector" d="M97.45 127.84C97.91 127.84 98.28 127.47 98.28 127.01C98.28 126.55 97.91 126.18 97.45 126.18C96.99 126.18 96.62 126.55 96.62 127.01C96.62 127.47 96.99 127.84 97.45 127.84Z" stroke="#FFFFFF" stroke-opacity="1.000000" stroke-width="1.000000"/>
		<path id="Vector" d="M94.83 123.64C95.29 123.64 95.66 123.26 95.66 122.8C95.66 122.34 95.29 121.97 94.83 121.97C94.37 121.97 94 122.34 94 122.8C94 123.26 94.37 123.64 94.83 123.64Z" stroke="#FFFFFF" stroke-opacity="1.000000" stroke-width="1.000000"/>
		<path id="Vector" d="M95.53 118.73C95.99 118.73 96.36 118.36 96.36 117.9C96.36 117.44 95.99 117.06 95.53 117.06C95.07 117.06 94.7 117.44 94.7 117.9C94.7 118.36 95.07 118.73 95.53 118.73Z" stroke="#FFFFFF" stroke-opacity="1.000000" stroke-width="1.000000"/>
		<path id="Vector" d="M99.23 115.42C99.69 115.42 100.06 115.05 100.06 114.59C100.06 114.13 99.69 113.75 99.23 113.75C98.77 113.75 98.39 114.13 98.39 114.59C98.39 115.05 98.77 115.42 99.23 115.42Z" stroke="#FFFFFF" stroke-opacity="1.000000" stroke-width="1.000000"/>
		<path id="Vector" d="M375.89 94.84L331.89 94.84" stroke="#FFFFFF" stroke-opacity="1.000000" stroke-width="1.000000"/>
		<path id="Vector" d="M324.65 72.38L324.65 80.07" stroke="#FFFFFF" stroke-opacity="1.000000" stroke-width="1.000000"/>
		<path id="Vector" d="M324.65 77.25L322.96 77.25" stroke="#FFFFFF" stroke-opacity="1.000000" stroke-width="1.000000"/>
		<path id="Vector" d="M322.96 118.43L322.96 131.47" stroke="#FFFFFF" stroke-opacity="1.000000" stroke-width="1.000000"/>
		<path id="Vector" d="M399.22 103.27L399.22 106.81L374.33 106.81" stroke="#FFFFFF" stroke-opacity="1.000000" stroke-width="1.000000"/>
		<path id="Vector" d="M379.69 103.27L379.69 106.81" stroke="#FFFFFF" stroke-opacity="1.000000" stroke-width="1.000000"/>
		<path id="Vector" d="M383.34 103.27L383.34 106.81" stroke="#FFFFFF" stroke-opacity="1.000000" stroke-width="1.000000"/>
		<path id="Vector" d="M399.97 50.39L400.34 43.34" stroke="#FFFFFF" stroke-opacity="1.000000" stroke-width="1.000000"/>
		<path id="Vector" d="M403.55 50.97L403.55 53.92C403.55 53.92 394.96 55.22 392.77 49.22" stroke="#FFFFFF" stroke-opacity="1.000000" stroke-width="1.000000"/>
		<path id="Vector" d="M399.04 43.75C403.12 43.29 404.7 36.23 403.8 28.26C403.27 23.53 401.98 19.54 400.18 17.18C398.94 15.57 397.45 14.71 395.8 14.9C394.47 15.35 393.4 15.98 392.56 16.79C389.69 19.46 389.33 24.01 390.02 30.15C390.91 38.12 394.94 44.2 399.04 43.75Z" stroke="#FFFFFF" stroke-opacity="1.000000" stroke-width="1.000000"/>
		<path id="Vector" d="M397.91 43.7L397.71 50.02" stroke="#FFFFFF" stroke-opacity="1.000000" stroke-width="1.000000"/>
		<path id="Vector" d="M364.61 17L364.61 41.33" stroke="#FFFFFF" stroke-opacity="1.000000" stroke-width="1.000000"/>
		<path id="Vector" d="M322.96 99.06L299.14 99.06" stroke="#FFFFFF" stroke-opacity="1.000000" stroke-width="1.000000"/>
		<path id="Vector" d="M299.14 94.84L299.14 117.9" stroke="#FFFFFF" stroke-opacity="1.000000" stroke-width="1.000000"/>
		<path id="Vector" d="M193.9 117.9L193.9 123.18L318.97 123.18L318.97 117.9L193.9 117.9Z" stroke="#FFFFFF" stroke-opacity="1.000000" stroke-width="1.000000"/>
		<path id="Vector" d="M249.82 106.72L193.9 106.72L193.9 112.01L318.98 112.01L318.98 106.72L257.05 106.72" stroke="#FFFFFF" stroke-opacity="1.000000" stroke-width="1.000000"/>
		<path id="Vector" d="M311.33 116.35C314.09 116.35 316.42 114.52 317.17 112.01L305.49 112.01C306.24 114.52 308.58 116.35 311.33 116.35Z" stroke="#FFFFFF" stroke-opacity="1.000000" stroke-width="1.000000"/>
		<path id="Vector" d="M305.49 112.01L317.17 112.01" stroke="#FFFFFF" stroke-opacity="1.000000" stroke-width="1.000000"/>
		<path id="Vector" d="M322.96 104.7L299.14 104.7L273.04 104.7L273.04 94.84" stroke="#FFFFFF" stroke-opacity="1.000000" stroke-width="1.000000"/>
		<path id="Vector" d="M299.14 101.04L293.35 101.04L292.03 103.15L279.84 103.15L277.57 100.87L272.74 100.87" stroke="#FFFFFF" stroke-opacity="1.000000" stroke-width="1.000000"/>
		<path id="Vector" d="M290.15 103.15L290.15 100.51" stroke="#FFFFFF" stroke-opacity="1.000000" stroke-width="1.000000"/>
		<path id="Vector" d="M281.01 103.15L281.01 100.51" stroke="#FFFFFF" stroke-opacity="1.000000" stroke-width="1.000000"/>
		<path id="Vector" d="M293.74 117.9L293.74 112.01" stroke="#FFFFFF" stroke-opacity="1.000000" stroke-width="1.000000"/>
		<path id="Vector" d="M293.74 106.72L293.74 104.7" stroke="#FFFFFF" stroke-opacity="1.000000" stroke-width="1.000000"/>
		<path id="Vector" d="M288.23 117.9L285.51 112.01" stroke="#FFFFFF" stroke-opacity="1.000000" stroke-width="1.000000"/>
		<path id="Vector" d="M249.82 106.72L257.05 106.72C257.96 105.8 258.51 104.54 258.51 103.15C258.51 100.34 256.24 98.07 253.44 98.07C250.63 98.07 248.36 100.34 248.36 103.15C248.36 104.54 248.92 105.8 249.82 106.72Z" stroke="#FFFFFF" stroke-opacity="1.000000" stroke-width="1.000000"/>
		<path id="Vector" d="M253.43 104.16C254 104.16 254.45 103.71 254.45 103.15C254.45 102.59 254 102.13 253.43 102.13C252.87 102.13 252.42 102.59 252.42 103.15C252.42 103.71 252.87 104.16 253.43 104.16Z" stroke="#FFFFFF" stroke-opacity="1.000000" stroke-width="1.000000"/>
		<path id="Vector" d="M248.39 117.9C248.37 117.73 248.36 117.54 248.36 117.37C248.36 114.57 250.63 112.29 253.44 112.29C256.24 112.29 258.51 114.57 258.51 117.37C258.51 117.54 258.5 117.73 258.48 117.9" stroke="#FFFFFF" stroke-opacity="1.000000" stroke-width="1.000000"/>
		<path id="Vector" d="M252.57 117.9C252.47 117.75 252.42 117.56 252.42 117.37C252.42 116.81 252.88 116.36 253.43 116.36C253.99 116.36 254.45 116.81 254.45 117.37C254.45 117.56 254.4 117.75 254.3 117.9" stroke="#FFFFFF" stroke-opacity="1.000000" stroke-width="1.000000"/>
		<path id="Vector" d="M234.16 117.9C234.14 117.73 234.13 117.54 234.13 117.37C234.13 114.57 236.41 112.29 239.21 112.29C242.02 112.29 244.29 114.57 244.29 117.37C244.29 117.54 244.28 117.73 244.26 117.9" stroke="#FFFFFF" stroke-opacity="1.000000" stroke-width="1.000000"/>
		<path id="Vector" d="M238.35 117.9C238.25 117.75 238.2 117.56 238.2 117.37C238.2 116.81 238.65 116.36 239.21 116.36C239.77 116.36 240.23 116.81 240.23 117.37C240.23 117.56 240.18 117.75 240.08 117.9" stroke="#FFFFFF" stroke-opacity="1.000000" stroke-width="1.000000"/>
		<path id="Vector" d="M236.61 106.72L243.85 106.72C244.75 105.8 245.31 104.54 245.31 103.15C245.31 100.34 243.03 98.07 240.23 98.07C237.43 98.07 235.15 100.34 235.15 103.15C235.15 104.54 235.71 105.8 236.61 106.72Z" stroke="#FFFFFF" stroke-opacity="1.000000" stroke-width="1.000000"/>
		<path id="Vector" d="M240.23 104.16C240.79 104.16 241.24 103.71 241.24 103.15C241.24 102.59 240.79 102.13 240.23 102.13C239.67 102.13 239.21 102.59 239.21 103.15C239.21 103.71 239.67 104.16 240.23 104.16Z" stroke="#FFFFFF" stroke-opacity="1.000000" stroke-width="1.000000"/>
		<path id="Vector" d="M243.25 99.06L250.42 99.06" stroke="#FFFFFF" stroke-opacity="1.000000" stroke-width="1.000000"/>
		<path id="Vector" d="M256.45 99.06L273.04 99.06" stroke="#FFFFFF" stroke-opacity="1.000000" stroke-width="1.000000"/>
		<path id="Vector" d="M267.85 99.06L267.85 106.72" stroke="#FFFFFF" stroke-opacity="1.000000" stroke-width="1.000000"/>
		<path id="Vector" d="M261.75 99.06L261.75 106.72" stroke="#FFFFFF" stroke-opacity="1.000000" stroke-width="1.000000"/>
		<path id="Vector" d="M272.74 117.9L269.54 112.01L260.64 112.01L257.71 114.63" stroke="#FFFFFF" stroke-opacity="1.000000" stroke-width="1.000000"/>
		<path id="Vector" d="M269.48 117.9L267.33 114.18L263.71 114.18L262.2 117.9" stroke="#FFFFFF" stroke-opacity="1.000000" stroke-width="1.000000"/>
		<path id="Vector" d="M303.37 94.84L303.37 14.88L10.66 14.88L10.66 91.08L303.37 91.08" stroke="#FFFFFF" stroke-opacity="1.000000" stroke-width="1.000000"/>
		<path id="Vector" d="M303.37 85.56L10.66 85.56" stroke="#FFFFFF" stroke-opacity="1.000000" stroke-width="1.000000"/>
		<path id="Vector" d="M15.95 14.88L15.95 94.84L323.56 94.84" stroke="#FFFFFF" stroke-opacity="1.000000" stroke-width="1.000000"/>
		<path id="Vector" d="M303.37 20.66L10.66 20.66" stroke="#FFFFFF" stroke-opacity="1.000000" stroke-width="1.000000"/>
		<path id="Vector" d="M217.19 20.66L217.19 88.93L211.45 88.93L211.45 20.66" stroke="#FFFFFF" stroke-opacity="1.000000" stroke-width="1.000000"/>
		<path id="Vector" d="M217.19 62.74L214.83 62.74L214.83 66.39L217.19 66.39" stroke="#FFFFFF" stroke-opacity="1.000000" stroke-width="1.000000"/>
		<path id="Vector" d="M211.79 62.74L214.14 62.74L214.14 66.39L211.79 66.39" stroke="#FFFFFF" stroke-opacity="1.000000" stroke-width="1.000000"/>
		<path id="Vector" d="M217.19 74.37L211.45 74.37" stroke="#FFFFFF" stroke-opacity="1.000000" stroke-width="1.000000"/>
		<path id="Vector" d="M131.87 20.66L131.87 88.93L126.13 88.93L126.13 20.66" stroke="#FFFFFF" stroke-opacity="1.000000" stroke-width="1.000000"/>
		<path id="Vector" d="M131.87 62.74L129.51 62.74L129.51 66.39L131.87 66.39" stroke="#FFFFFF" stroke-opacity="1.000000" stroke-width="1.000000"/>
		<path id="Vector" d="M126.46 62.74L128.82 62.74L128.82 66.39L126.46 66.39" stroke="#FFFFFF" stroke-opacity="1.000000" stroke-width="1.000000"/>
		<path id="Vector" d="M131.87 74.37L126.13 74.37" stroke="#FFFFFF" stroke-opacity="1.000000" stroke-width="1.000000"/>
		<path id="Vector" d="M303.37 46.9L15.95 46.9L10.66 46.9" stroke="#FFFFFF" stroke-opacity="1.000000" stroke-width="1.000000"/>
		<path id="Vector" d="M15.74 44.23L298.13 44.23" stroke="#FFFFFF" stroke-opacity="1.000000" stroke-width="1.000000"/>
		<path id="Vector" d="M298.13 85.57L298.13 20.66" stroke="#FFFFFF" stroke-opacity="1.000000" stroke-width="1.000000"/>
		<path id="Vector" d="M301.2 46.9L301.2 85.56L301.2 89.04L298 89.04" stroke="#FFFFFF" stroke-opacity="1.000000" stroke-width="1.000000"/>
		<path id="Vector" d="M301.2 75.08L298 75.08" stroke="#FFFFFF" stroke-opacity="1.000000" stroke-width="1.000000"/>
		<path id="Vector" d="M298.13 63.36L300 63.36L300 67.09L298 67.09" stroke="#FFFFFF" stroke-opacity="1.000000" stroke-width="1.000000"/>
		<path id="Vector" d="M298.13 38.98L15.95 38.98" stroke="#FFFFFF" stroke-opacity="1.000000" stroke-width="1.000000"/>
		<path id="Vector" d="M298.13 53.81L15.95 53.81" stroke="#FFFFFF" stroke-opacity="1.000000" stroke-width="1.000000"/>
		<path id="Vector" d="M298.13 80.13L15.95 80.13" stroke="#FFFFFF" stroke-opacity="1.000000" stroke-width="1.000000"/>
		<path id="Vector" d="M299.15 94.84C299.15 94.84 299.7 91.19 297.4 91.07" stroke="#FFFFFF" stroke-opacity="1.000000" stroke-width="1.000000"/>
		<path id="Vector" d="M273.08 94.84C273.08 94.84 272.52 91.19 274.83 91.07" stroke="#FFFFFF" stroke-opacity="1.000000" stroke-width="1.000000"/>
		<path id="Vector" d="M282.89 50.33L282.89 56.42L271.72 56.42L271.72 50.33" stroke="#FFFFFF" stroke-opacity="1.000000" stroke-width="1.000000"/>
		<path id="Vector" d="M264.24 94.84L264.24 86.9L256.48 86.9L256.48 94.84" stroke="#FFFFFF" stroke-opacity="1.000000" stroke-width="1.000000"/>
		<path id="Vector" d="M232.75 94.84L232.75 86.9L224.99 86.9L224.99 94.84" stroke="#FFFFFF" stroke-opacity="1.000000" stroke-width="1.000000"/>
		<path id="Vector" d="M214.14 74.37L214.14 88.93" stroke="#FFFFFF" stroke-opacity="1.000000" stroke-width="1.000000"/>
		<path id="Vector" d="M219.56 85.56L216.68 91.08" stroke="#FFFFFF" stroke-opacity="1.000000" stroke-width="1.000000"/>
		<path id="Vector" d="M208.56 85.56L211.43 91.08" stroke="#FFFFFF" stroke-opacity="1.000000" stroke-width="1.000000"/>
		<path id="Vector" d="M134.23 85.56L131.36 91.08" stroke="#FFFFFF" stroke-opacity="1.000000" stroke-width="1.000000"/>
		<path id="Vector" d="M123.23 85.56L126.11 91.08" stroke="#FFFFFF" stroke-opacity="1.000000" stroke-width="1.000000"/>
		<path id="Vector" d="M193.9 106.72L180.64 106.72" stroke="#FFFFFF" stroke-opacity="1.000000" stroke-width="1.000000"/>
		<path id="Vector" d="M180.64 85.56L189.44 119.4L187.27 117.05L178.06 85.56" stroke="#FFFFFF" stroke-opacity="1.000000" stroke-width="1.000000"/>
		<path id="Vector" d="M120.81 106.72L143.06 106.72" stroke="#FFFFFF" stroke-opacity="1.000000" stroke-width="1.000000"/>
		<path id="Vector" d="M138.56 126.18L125.21 126.18" stroke="#FFFFFF" stroke-opacity="1.000000" stroke-width="1.000000"/>
		<path id="Vector" d="M131.21 119.4C132.34 119.4 133.25 118.49 133.25 117.37C133.25 116.25 132.34 115.34 131.21 115.34C130.09 115.34 129.18 116.25 129.18 117.37C129.18 118.49 130.09 119.4 131.21 119.4Z" stroke="#FFFFFF" stroke-opacity="1.000000" stroke-width="1.000000"/>
		<path id="Vector" d="M141.6 106.72L139.4 102.49L137.63 102.49L135.54 104.58L135.54 100.31L131.21 100.31" stroke="#FFFFFF" stroke-opacity="1.000000" stroke-width="1.000000"/>
		<path id="Vector" d="M131.21 100.1L131.21 126.51" stroke="#FFFFFF" stroke-opacity="1.000000" stroke-width="1.000000"/>
		<path id="Vector" d="M121.06 106.72L123.24 102.49L125.01 102.49L127.1 104.58L127.1 100.31L131.44 100.31" stroke="#FFFFFF" stroke-opacity="1.000000" stroke-width="1.000000"/>
		<path id="Vector" d="M83.13 106.72L33.52 106.72L33.01 106.72L33.01 96.2L23.63 96.2L4.53 118.32L4.53 126.51L33.52 106.72" stroke="#FFFFFF" stroke-opacity="1.000000" stroke-width="1.000000"/>
		<path id="Vector" d="M2.53 124.48C3.66 124.48 4.57 123.57 4.57 122.45C4.57 121.33 3.66 120.42 2.53 120.42C1.41 120.42 0.5 121.33 0.5 122.45C0.5 123.57 1.41 124.48 2.53 124.48Z" stroke="#FFFFFF" stroke-opacity="1.000000" stroke-width="1.000000"/>
		<path id="Vector" d="M26.73 111.36L67.54 111.36L67.54 121.31L20.6 121.31L20.6 115.34" stroke="#FFFFFF" stroke-opacity="1.000000" stroke-width="1.000000"/>
		<path id="Vector" d="M64.94 121.31L62.22 123.18L25.81 123.18L23.48 121.31" stroke="#FFFFFF" stroke-opacity="1.000000" stroke-width="1.000000"/>
		<path id="Vector" d="M67.54 111.36L61.84 106.72" stroke="#FFFFFF" stroke-opacity="1.000000" stroke-width="1.000000"/>
		<path id="Vector" d="M64.69 109.04L30.12 109.04" stroke="#FFFFFF" stroke-opacity="1.000000" stroke-width="1.000000"/>
		<path id="Vector" d="M12.93 46.9L12.93 88.32L15.95 88.32" stroke="#FFFFFF" stroke-opacity="1.000000" stroke-width="1.000000"/>
		<path id="Vector" d="M15.95 75.12L12.93 75.12" stroke="#FFFFFF" stroke-opacity="1.000000" stroke-width="1.000000"/>
		<path id="Vector" d="M10.66 43.33L8.03 43.33L8.03 69.77L10.66 69.77" stroke="#FFFFFF" stroke-opacity="1.000000" stroke-width="1.000000"/>
		<path id="Vector" d="M18.25 102.44L18.25 98.07L13.71 98.07L13.71 92.99L7.61 92.99L7.61 97.43L6.22 97.43L6.22 106.2L12.93 106.2L13.71 104.16L16.38 104.16" stroke="#FFFFFF" stroke-opacity="1.000000" stroke-width="1.000000"/>
		<path id="Vector" d="M7.61 97.43L13.71 97.43" stroke="#FFFFFF" stroke-opacity="1.000000" stroke-width="1.000000"/>
		<path id="Vector" d="M11.46 97.43L11.46 106.2" stroke="#FFFFFF" stroke-opacity="1.000000" stroke-width="1.000000"/>
		<path id="Vector" d="M8.96 97.43L8.96 104.43" stroke="#FFFFFF" stroke-opacity="1.000000" stroke-width="1.000000"/>
		<path id="Vector" d="M9.77 92.99L9.77 96.04" stroke="#FFFFFF" stroke-opacity="1.000000" stroke-width="1.000000"/>
		<path id="Vector" d="M79.54 85.56L67.54 121.31" stroke="#FFFFFF" stroke-opacity="1.000000" stroke-width="1.000000"/>
		<path id="Vector" d="M76.67 85.56L67.55 117.9" stroke="#FFFFFF" stroke-opacity="1.000000" stroke-width="1.000000"/>
		<path id="Vector" d="M337.36 106.37L327.38 106.37" stroke="#FFFFFF" stroke-opacity="1.000000" stroke-width="1.000000"/>
	</g>
</svg>
